<svg xmlns="http://www.w3.org/2000/svg" viewBox="0 0 351.06 297.26"><defs><style>.cls-1{fill:#3fc;}.cls-1,.cls-2,.cls-3,.cls-4,.cls-5,.cls-6{stroke:#000;stroke-linejoin:round;}.cls-1,.cls-3,.cls-4,.cls-5,.cls-6{stroke-linecap:round;}.cls-1,.cls-3,.cls-4,.cls-8{stroke-width:2px;}.cls-2,.cls-3,.cls-6,.cls-7,.cls-8{fill:#fff;}.cls-2,.cls-6,.cls-7{stroke-width:4px;}.cls-4,.cls-5{fill:none;}.cls-7,.cls-8{stroke:#272525;stroke-miterlimit:10;}</style></defs><g id="Layer_2" data-name="Layer 2"><g id="CESTA"><line class="cls-1" x1="305.45" y1="87.83" x2="202.09" y2="8.58"/><path class="cls-2" d="M314.41,95.16h0a7.45,7.45,0,0,0-4.34-9.56l-6.63-2.49a7.45,7.45,0,0,0-9.56,4.34h0"/><rect class="cls-2" x="137.13" y="69.28" width="194.57" height="121.67" rx="18.06" transform="translate(60.67 -74.07) rotate(20.57)"/><circle class="cls-3" cx="268.68" cy="155.58" r="6.92"/><circle class="cls-3" cx="288.57" cy="163.04" r="6.92"/><rect class="cls-4" x="268.28" y="130.36" width="37.99" height="11.78" rx="5.23" transform="translate(66.19 -92.25) rotate(20.57)"/><line class="cls-4" x1="285.21" y1="141.76" x2="289.35" y2="130.74"/><line class="cls-5" x1="300.35" y1="214.74" x2="129.1" y2="150.47"/><line class="cls-5" x1="304.72" y1="212.2" x2="127.47" y2="145.68"/><path class="cls-2" d="M156.39,55h0a10.32,10.32,0,0,0-13.25,6h0a10.32,10.32,0,0,0,6,13.25h0"/><circle class="cls-2" cx="202.05" cy="8.6" r="6.6"/><circle cx="172.99" cy="105.95" r="2.4"/><circle cx="181.64" cy="109.19" r="2.4"/><circle cx="190.3" cy="112.44" r="2.4"/><circle cx="198.95" cy="115.69" r="2.4"/><circle cx="207.61" cy="118.94" r="2.4"/><circle cx="216.26" cy="122.19" r="2.4"/><circle cx="184.89" cy="100.54" r="2.4"/><circle cx="193.54" cy="103.79" r="2.4"/><circle cx="210.85" cy="110.28" r="2.4"/><circle cx="219.51" cy="113.53" r="2.4"/><circle cx="196.79" cy="95.13" r="2.4"/><circle cx="214.1" cy="101.63" r="2.4"/><circle cx="224.92" cy="125.44" r="2.4"/><circle cx="208.7" cy="89.73" r="2.4"/><circle cx="205.45" cy="98.38" r="2.4"/><circle cx="202.2" cy="107.04" r="2.4"/><circle cx="213.01" cy="130.84" r="2.4"/><circle cx="204.36" cy="127.59" r="2.4"/><circle cx="187.05" cy="121.1" r="2.4"/><circle cx="178.39" cy="117.85" r="2.4"/><circle cx="201.11" cy="136.25" r="2.4"/><circle cx="183.8" cy="129.75" r="2.4"/><circle cx="189.21" cy="141.66" r="2.4"/><circle cx="192.45" cy="133" r="2.4"/><circle cx="195.7" cy="124.35" r="2.4"/><circle class="cls-4" cx="198.95" cy="115.69" r="39.31"/><g id="Cactus"><rect class="cls-6" x="7.98" y="95.52" width="145.13" height="24.31" rx="8.37" transform="translate(-23.58 22.59) rotate(-13.95)"/><polygon class="cls-6" points="83.48 119.47 21.48 134.88 54.27 229.04 107.42 215.84 160.56 202.64 145.48 104.07 83.48 119.47"/><path class="cls-6" d="M36.31,106.14,15.17,46.54A31.9,31.9,0,0,1,37.54,4.92h0a31.9,31.9,0,0,1,39,24.76L86.81,93.6Z"/><path class="cls-6" d="M113.08,87.07,100.87,37.91a14.89,14.89,0,0,0-18-10.83h0a14.89,14.89,0,0,0-10.82,18L84.27,94.23Z"/><path class="cls-4" d="M19.61,40.05a53,53,0,0,1-11.89,2.6"/><path class="cls-4" d="M27.39,23.58,19.21,12.35"/><path class="cls-4" d="M41.08,65.68l7.14-7.93"/><path class="cls-4" d="M42.85,35.56a15.45,15.45,0,0,0,9.62-3.41"/><path class="cls-4" d="M56.18,13.71A18.24,18.24,0,0,1,69,2.58"/><path class="cls-4" d="M41.79,90.17l-19,4.71"/><path class="cls-4" d="M61.45,84l2.31-10.45"/><path class="cls-4" d="M87.66,37.74a60.26,60.26,0,0,1,5.41-16.22"/><path class="cls-4" d="M98.72,62.14l11.12-2.76"/><path class="cls-4" d="M82.39,66.34a21.51,21.51,0,0,1-14-2.86"/></g><path class="cls-7" d="M175.53,122.56H2.13L11.8,277.08a19.39,19.39,0,0,0,19.35,18.18H319.9a19.39,19.39,0,0,0,19.35-18.18l9.68-154.52Z"/><rect class="cls-8" x="121.87" y="140.48" width="107.33" height="8.13" rx="4.06"/></g></g></svg>