<svg xmlns="http://www.w3.org/2000/svg" xmlns:xlink="http://www.w3.org/1999/xlink" viewBox="0 0 159.24 88.54"><defs><style>.cls-1,.cls-4,.cls-5{fill:none;}.cls-2{clip-path:url(#clip-path);}.cls-3{fill:#fff;}.cls-4,.cls-5{stroke:#000;}.cls-4{stroke-miterlimit:10;stroke-width:4px;}.cls-5{stroke-linecap:round;stroke-linejoin:round;stroke-width:2px;}</style><clipPath id="clip-path" transform="translate(0 -1.33)"><rect class="cls-1" width="160.55" height="91.21"/></clipPath></defs><title>Asset 12</title><g id="Layer_2" data-name="Layer 2"><g id="Layer_1-2" data-name="Layer 1"><g class="cls-2"><g class="cls-2"><path class="cls-3" d="M136.23,46.36l12,2.16c5.87,1.11,9,2.46,9,4.65,0,1.94-2.92,3.68-7.4,4.42L135.7,59.93" transform="translate(0 -1.33)"/><path class="cls-4" d="M136.23,46.36l12,2.16c5.87,1.11,9,2.46,9,4.65,0,1.94-2.92,3.68-7.4,4.42L135.7,59.93" transform="translate(0 -1.33)"/><path class="cls-3" d="M119.7,83.66c5.14-2.88,14.44-8.89,15.78-21.58,1.82-17.15,2.68-41.7-22.43-49.36-27-8.24-62-11.09-82.36-8.41,0,0-14.06.14-23.51,17C1.37,34.2.93,56.22,3.48,63.15c3.68,10,13,13,23,14.61,24.88,3.95,49.54,8.1,74.67,10,7,.53,13.71-.72,18.54-4.1" transform="translate(0 -1.33)"/><path class="cls-4" d="M119.7,83.66c5.14-2.88,14.44-8.89,15.78-21.58,1.82-17.15,2.68-41.7-22.43-49.36-27-8.24-62-11.09-82.36-8.41,0,0-14.06.14-23.51,17C1.37,34.2.93,56.22,3.48,63.15c3.68,10,13,13,23,14.61,24.88,3.95,49.54,8.1,74.67,10,7,.53,13.71-.72,18.54-4.1" transform="translate(0 -1.33)"/><path class="cls-5" d="M119.7,83.66c4.22-3,7-7.56,7.39-14,1-17.22,2.68-41.7-22.43-49.36-27-8.25-62-11.09-82.36-8.41-6.39.84-11.44,4.4-15.12,9.45" transform="translate(0 -1.33)"/><line class="cls-5" x1="42.83" y1="9.55" x2="90.21" y2="85.46"/><line class="cls-5" x1="54.58" y1="10.1" x2="101.16" y2="86.43"/></g></g></g></g></svg>