<?xml version="1.0" encoding="utf-8"?>
<!-- Generator: Adobe Illustrator 25.3.1, SVG Export Plug-In . SVG Version: 6.00 Build 0)  -->
<svg version="1.1" xmlns="http://www.w3.org/2000/svg" xmlns:xlink="http://www.w3.org/1999/xlink" x="0px" y="0px"
	 viewBox="0 0 93.2 125.2" style="enable-background:new 0 0 93.2 125.2;" xml:space="preserve">
<style type="text/css">
	.st0{fill:none;stroke:#000000;stroke-width:4;stroke-linecap:round;stroke-linejoin:round;}
	.st1{fill:#FFFFFF;stroke:#000000;stroke-width:4;stroke-linecap:round;stroke-linejoin:round;}
	.st2{fill:none;stroke:#000000;stroke-width:2;stroke-linecap:round;stroke-linejoin:round;}
</style>
<g id="Livello_1">
</g>
<g id="Intro">
	<g>
		<path class="st0" d="M65.2,123.2H28c-6.6,0-11-4.8-12-12L6,34.2h81.2l-10,77.1C76.2,118.9,71.8,123.2,65.2,123.2z"/>
		<path class="st1" d="M2,33.5c0-10.7,20-19.4,44.6-19.4s44.6,8.7,44.6,19.4"/>
		<path class="st1" d="M3.9,26.7h85.4c1,0,1.9,0.9,1.9,1.9v9.8c0,1-0.9,1.9-1.9,1.9H3.9c-1,0-1.9-0.9-1.9-1.9v-9.8
			C2,27.6,2.9,26.7,3.9,26.7z"/>
		<line class="st2" x1="91.2" y1="33.5" x2="2" y2="33.5"/>
		<line class="st2" x1="46.6" y1="113.6" x2="46.6" y2="51.8"/>
		<line class="st2" x1="62.6" y1="113.6" x2="68" y2="52"/>
		<line class="st2" x1="30.6" y1="113.6" x2="25.2" y2="52"/>
		<path class="st0" d="M34.5,14.2C34.5,7.4,39.9,2,46.6,2s12.2,5.4,12.2,12.2"/>
	</g>
</g>
</svg>
