<svg xmlns="http://www.w3.org/2000/svg" xmlns:xlink="http://www.w3.org/1999/xlink" viewBox="0 0 106.74 106.74"><defs><style>.cls-1,.cls-4,.cls-5{fill:none;}.cls-2{clip-path:url(#clip-path);}.cls-3{fill:#fff;}.cls-4,.cls-5{stroke:#000;stroke-linejoin:round;}.cls-4{stroke-width:4px;}.cls-5{stroke-linecap:round;}</style><clipPath id="clip-path" transform="translate(0 0.5)"><rect class="cls-1" width="106.74" height="105.74"/></clipPath></defs><title>Asset 7</title><g id="Layer_2" data-name="Layer 2"><g id="Layer_1-2" data-name="Layer 1"><g class="cls-2"><g class="cls-2"><path class="cls-3" d="M23.07,10.57H83.68a12,12,0,0,1,12,12V83.18a12,12,0,0,1-12,12H23.07a12,12,0,0,1-12-12V22.57a12,12,0,0,1,12-12" transform="translate(0 0.5)"/><rect class="cls-4" x="11.07" y="11.07" width="84.61" height="84.61" rx="12"/><line class="cls-5" x1="24.47" y1="106.24" x2="24.47" y2="0.5"/><line class="cls-5" x1="34.1" y1="106.24" x2="34.1" y2="0.5"/><line class="cls-5" x1="43.74" y1="106.24" x2="43.74" y2="0.5"/><line class="cls-5" x1="53.37" y1="106.24" x2="53.37" y2="0.5"/><line class="cls-5" x1="63.01" y1="106.24" x2="63.01" y2="0.5"/><line class="cls-5" x1="72.64" y1="106.24" x2="72.64" y2="0.5"/><line class="cls-5" x1="82.28" y1="106.24" x2="82.28" y2="0.5"/><line class="cls-5" x1="0.5" y1="24.47" x2="106.24" y2="24.47"/><line class="cls-5" x1="0.5" y1="34.1" x2="106.24" y2="34.1"/><line class="cls-5" x1="0.5" y1="43.74" x2="106.24" y2="43.74"/><line class="cls-5" x1="0.5" y1="53.37" x2="106.24" y2="53.37"/><line class="cls-5" x1="0.5" y1="63.01" x2="106.24" y2="63.01"/><line class="cls-5" x1="0.5" y1="72.64" x2="106.24" y2="72.64"/><line class="cls-5" x1="0.5" y1="82.28" x2="106.24" y2="82.28"/></g></g></g></g></svg>