<svg xmlns="http://www.w3.org/2000/svg" viewBox="0 0 109.08 109.08">
  <g id="Intro">
    <g>
      <g>
        <path d="M79.25,5,104.1,29.83a10.23,10.23,0,0,1,0,14.43L75.47,72.89,36.19,33.61,64.82,5A10.23,10.23,0,0,1,79.25,5Z" style="fill: #fff"/>
        <rect x="52.71" y="26.76" width="3.66" height="55.55" transform="translate(-22.59 54.54) rotate(-45)" style="fill: #fff"/>
        <path d="M33.61,36.19,72.89,75.47,44.26,104.1a10.23,10.23,0,0,1-14.43,0L5,79.25A10.23,10.23,0,0,1,5,64.82Z" style="fill: #63f"/>
      </g>
      <g>
        <line x1="72.89" y1="75.47" x2="33.61" y2="36.19" style="fill: none;stroke: #000;stroke-linecap: round;stroke-linejoin: round;stroke-width: 2px"/>
        <line x1="75.47" y1="72.89" x2="36.19" y2="33.61" style="fill: none;stroke: #000;stroke-linecap: round;stroke-linejoin: round;stroke-width: 2px"/>
        <path d="M36.19,33.61,64.82,5A10.23,10.23,0,0,1,79.25,5L104.1,29.83a10.23,10.23,0,0,1,0,14.43L75.47,72.89l-2.58,2.58L44.26,104.1a10.23,10.23,0,0,1-14.43,0L5,79.25A10.23,10.23,0,0,1,5,64.82L33.61,36.19Z" style="fill: none;stroke: #000;stroke-linecap: round;stroke-linejoin: round;stroke-width: 4px"/>
      </g>
    </g>
  </g>
</svg>
