<svg xmlns="http://www.w3.org/2000/svg" width="122.5" height="120.8" viewBox="0 0 122.5 120.8">
  <defs>
    <style>
      .cls-1 {
        fill: #fc0;
      }

      .cls-2 {
        fill: #9cf;
      }

      .cls-3 {
        fill: #f7524a;
      }

      .cls-4 {
        fill: #fff;
      }

      .cls-5, .cls-6, .cls-7 {
        fill: none;
        stroke: #000;
        stroke-linejoin: round;
      }

      .cls-5 {
        stroke-width: 4px;
      }

      .cls-6, .cls-7 {
        stroke-width: 2px;
      }

      .cls-7 {
        stroke-linecap: round;
      }
    </style>
  </defs>
  <g id="ACCESSORI">
    <g id="Bandierina">
      <g>
        <g>
          <polygon class="cls-1" points="120.5 2.01 106.5 22.09 1 22.09 1 2.01 120.5 2.01"/>
          <polygon class="cls-2" points="106.5 62.26 120.5 82.34 1 82.34 1 62.26 106.5 62.26"/>
          <polygon class="cls-3" points="106.5 22.09 92.5 42.18 1 42.18 1 22.09 106.5 22.09"/>
          <polygon class="cls-4" points="92.5 42.18 106.5 62.26 1 62.26 1 42.18 92.5 42.18"/>
        </g>
        <g>
          <polyline class="cls-5" points="1 82.34 120.5 82.34 106.5 62.26 92.5 42.18 106.5 22.09 120.5 2.01 1 2.01"/>
          <line class="cls-6" x1="92.5" y1="42.18" x2="1" y2="42.18"/>
          <line class="cls-6" x1="106.5" y1="22.09" x2="1" y2="22.09"/>
          <line class="cls-6" x1="106.5" y1="62.26" x2="1" y2="62.26"/>
          <polyline class="cls-7" points="1 119.8 1 82.34 1 62.26 1 42.18 1 22.09 1 2.01 1 1"/>
        </g>
      </g>
    </g>
  </g>
</svg>
