<svg xmlns="http://www.w3.org/2000/svg" xmlns:xlink="http://www.w3.org/1999/xlink" viewBox="0 0 122.5 120.8"><defs><style>.cls-1,.cls-10,.cls-8,.cls-9{fill:none;}.cls-2{clip-path:url(#clip-path);}.cls-3{clip-path:url(#clip-path-3);}.cls-4{fill:#ffcd05;}.cls-5{fill:#9fc9eb;}.cls-6{fill:#f0544c;}.cls-7{fill:#fff;}.cls-10,.cls-8,.cls-9{stroke:#000;stroke-linejoin:round;}.cls-8{stroke-width:4px;}.cls-10,.cls-9{stroke-width:2px;}.cls-10{stroke-linecap:round;}</style><clipPath id="clip-path"><rect class="cls-1" width="122.5" height="120.8"/></clipPath><clipPath id="clip-path-3"><rect class="cls-1" x="1" y="2.01" width="119.5" height="80.33"/></clipPath></defs><title>Asset 8</title><g id="Layer_2" data-name="Layer 2"><g id="Layer_1-2" data-name="Layer 1"><g class="cls-2"><g class="cls-2"><g class="cls-3"><g class="cls-3"><polygon class="cls-4" points="120.5 2.01 106.5 22.09 1 22.09 1 2.01 120.5 2.01"/><polygon class="cls-5" points="106.5 62.26 120.5 82.34 1 82.34 1 62.26 106.5 62.26"/><polygon class="cls-6" points="106.5 22.09 92.5 42.18 1 42.18 1 22.09 106.5 22.09"/><polygon class="cls-7" points="92.5 42.18 106.5 62.26 1 62.26 1 42.18 92.5 42.18"/></g></g><polyline class="cls-8" points="1 82.34 120.5 82.34 106.5 62.26 92.5 42.18 106.5 22.09 120.5 2.01 1 2.01"/><line class="cls-9" x1="92.5" y1="42.18" x2="1" y2="42.18"/><line class="cls-9" x1="106.5" y1="22.09" x2="1" y2="22.09"/><line class="cls-9" x1="106.5" y1="62.26" x2="1" y2="62.26"/><polyline class="cls-10" points="1 119.8 1 82.34 1 62.26 1 42.18 1 22.09 1 2.01 1 1"/></g></g></g></g></svg>