<svg xmlns="http://www.w3.org/2000/svg" viewBox="0 0 89.2 101.77">
  <g id="Intro">
    <path d="M19,46.61,14.25,31.76a6.29,6.29,0,0,0-7.9-4.05h0a6.29,6.29,0,0,0-4,7.9l9.47,36.32,3.1,9.43c3.48,10.56,13.28,18.41,24.4,18.41h0a28.23,28.23,0,0,0,18-6.66c9.33-7.83,27.92-31.82,27.92-31.82,2.42-3,2.73-6.32.4-8.87h0A6.29,6.29,0,0,0,76.75,52l-8.42,6.93a5.87,5.87,0,0,1-4.94,1.2h0a5.87,5.87,0,0,1-4.58-6.56l5.24-36.52a6.29,6.29,0,0,0-5.41-7h0a6.29,6.29,0,0,0-7,5.41L47.75,45a1,1,0,0,1-1.15.91h0a1.06,1.06,0,0,1-1-1.07l.68-36.53A6.29,6.29,0,0,0,40.05,2h0a6.29,6.29,0,0,0-6.27,6.28l1,36.17-1.09.14-6-30.22a6.29,6.29,0,0,0-7.37-4.94h0a6.3,6.3,0,0,0-4.94,7.38l5.79,29.26a1.11,1.11,0,0,1-.75,1.25h0A1.1,1.1,0,0,1,19,46.61Z" style="fill: #fff;stroke: #000;stroke-linecap: round;stroke-linejoin: round;stroke-width: 4px"/>
  </g>
</svg>
