<svg xmlns="http://www.w3.org/2000/svg" xmlns:xlink="http://www.w3.org/1999/xlink" viewBox="0 0 94.2 122.81"><defs><style>.cls-1,.cls-4,.cls-6{fill:none;}.cls-2{clip-path:url(#clip-path);}.cls-3{fill:#fff;}.cls-4,.cls-6{stroke:#000;stroke-miterlimit:10;}.cls-4{stroke-width:4px;}.cls-5{fill:#ffcd05;}.cls-6{stroke-width:2px;}.cls-7{fill:#f0544c;}</style><clipPath id="clip-path" transform="translate(0 0)"><rect class="cls-1" width="94.2" height="122.81"/></clipPath></defs><title>Asset 11</title><g id="Layer_2" data-name="Layer 2"><g id="Layer_1-2" data-name="Layer 1"><g class="cls-2"><polyline class="cls-3" points="42.59 78.08 42.59 29.71 51.61 29.71 51.61 78.08"/><polyline class="cls-4" points="42.59 78.08 42.59 29.71 51.61 29.71 51.61 78.08"/><g class="cls-2"><path class="cls-5" d="M11.15,78.08a7.84,7.84,0,1,1,15.67,0" transform="translate(0 0)"/><path class="cls-4" d="M11.15,78.08a7.84,7.84,0,1,1,15.67,0" transform="translate(0 0)"/><path class="cls-3" d="M8,78.08H86.24a6,6,0,0,1,6,6v30.81a6,6,0,0,1-6,6H8a6,6,0,0,1-6-6V84a6,6,0,0,1,6-6" transform="translate(0 0)"/><rect class="cls-4" x="2" y="78.08" width="90.2" height="42.73" rx="5.96"/><line class="cls-6" x1="2" y1="99.44" x2="92.2" y2="99.44"/><path class="cls-7" d="M27.86,21.24A19.24,19.24,0,1,1,47.1,40.49,19.24,19.24,0,0,1,27.86,21.24" transform="translate(0 0)"/><path class="cls-4" d="M27.86,21.24A19.24,19.24,0,1,1,47.1,40.49,19.24,19.24,0,0,1,27.86,21.24Z" transform="translate(0 0)"/></g></g></g></g></svg>