<svg xmlns="http://www.w3.org/2000/svg" width="124.79" height="124.79" viewBox="0 0 124.79 124.79">
  <defs>
    <style>
      .cls-1 {
        fill: #fc0;
      }

      .cls-2, .cls-3, .cls-4 {
        fill: none;
        stroke: #020302;
        stroke-linecap: round;
        stroke-miterlimit: 10;
      }

      .cls-2 {
        stroke-width: 4px;
      }

      .cls-3 {
        stroke-width: 2px;
      }
    </style>
  </defs>
  <g id="ACCESSORI">
    <g id="Luci">
      <g>
        <g>
          <path class="cls-1" d="M96.78,34.66l5.73,58.63H20.9l5.73-58.63C28.4,18.41,37.94,10,51.75,10H71.67C85.48,10,95.12,18.72,96.78,34.66Z"/>
          <path d="M103.1,99.3l.63,6.43a9.2,9.2,0,0,1-9.25,9.1H28.94a9.2,9.2,0,0,1-9.25-9.1l.63-6.43Z"/>
        </g>
        <g>
          <path class="cls-2" d="M103.1,99.3l.63,6.43a9.2,9.2,0,0,1-9.25,9.1H28.94a9.2,9.2,0,0,1-9.25-9.1l.63-6.43.58-6,5.73-58.63C28.4,18.41,37.94,10,51.75,10H71.67c13.81,0,23.45,8.77,25.11,24.71l5.73,58.63Z"/>
          <line class="cls-3" x1="103.1" y1="99.3" x2="20.32" y2="99.3"/>
          <line class="cls-3" x1="102.51" y1="93.29" x2="20.9" y2="93.29"/>
        </g>
      </g>
      <line class="cls-4" x1="71.66" y1="9.96" x2="71.66" y2="44.17"/>
      <line class="cls-4" x1="78.11" y1="9.96" x2="78.11" y2="44.17"/>
      <g>
        <line class="cls-4" x1="61.71" y1="27.06" x2="87.67" y2="27.06"/>
        <line class="cls-4" x1="61.71" y1="33.53" x2="87.67" y2="33.53"/>
      </g>
    </g>
  </g>
</svg>
