<svg xmlns="http://www.w3.org/2000/svg" xmlns:xlink="http://www.w3.org/1999/xlink" viewBox="0 0 88.04 108.88"><defs><style>.cls-1,.cls-5,.cls-6,.cls-7{fill:none;}.cls-2{clip-path:url(#clip-path);}.cls-3{clip-path:url(#clip-path-3);}.cls-4{fill:#ffcd05;}.cls-5,.cls-6,.cls-7{stroke:#040504;stroke-linecap:round;stroke-miterlimit:10;}.cls-5{stroke-width:4px;}.cls-6{stroke-width:2px;}</style><clipPath id="clip-path" transform="translate(-17.69 -7.95)"><rect class="cls-1" width="124.79" height="124.79"/></clipPath><clipPath id="clip-path-3" transform="translate(-17.69 -7.95)"><rect class="cls-1" x="19.69" y="9.95" width="84.04" height="104.88"/></clipPath></defs><title>Asset 2</title><g id="Layer_2" data-name="Layer 2"><g id="Layer_1-2" data-name="Layer 1"><g class="cls-2"><g class="cls-2"><g class="cls-3"><g class="cls-3"><path class="cls-4" d="M96.78,34.66l5.73,58.63H20.9l5.73-58.63C28.4,18.41,37.94,10,51.75,10H71.67c13.81,0,23.45,8.77,25.11,24.71" transform="translate(-17.69 -7.95)"/><path d="M103.1,99.3l.63,6.43a9.2,9.2,0,0,1-9.25,9.1H28.94a9.2,9.2,0,0,1-9.25-9.1l.63-6.43Z" transform="translate(-17.69 -7.95)"/></g></g><path class="cls-5" d="M103.1,99.3l.63,6.43a9.2,9.2,0,0,1-9.25,9.1H28.94a9.2,9.2,0,0,1-9.25-9.1l.63-6.43.58-6,5.73-58.63C28.4,18.41,37.94,10,51.75,10H71.67c13.81,0,23.45,8.77,25.11,24.71l5.73,58.63Z" transform="translate(-17.69 -7.95)"/><line class="cls-6" x1="85.41" y1="91.35" x2="2.63" y2="91.35"/><line class="cls-6" x1="84.82" y1="85.34" x2="3.21" y2="85.34"/><line class="cls-7" x1="53.98" y1="2" x2="53.98" y2="36.22"/><line class="cls-7" x1="60.42" y1="2" x2="60.42" y2="36.22"/><line class="cls-7" x1="44.02" y1="19.11" x2="69.98" y2="19.11"/><line class="cls-7" x1="44.02" y1="25.57" x2="69.98" y2="25.57"/></g></g></g></g></svg>