<svg xmlns="http://www.w3.org/2000/svg" xmlns:xlink="http://www.w3.org/1999/xlink" viewBox="0 0 109.08 109.08">
  <defs>
    <pattern id="Linee_diagonali" data-name="Linee diagonali" width="72" height="72" patternTransform="translate(0 3.57)" patternUnits="userSpaceOnUse" viewBox="0 0 72 72">
      <rect width="72" height="72" style="fill: none"/>
      <g>
        <line x1="64.52" y1="82.52" x2="82.52" y2="64.52" style="fill: none;stroke: #222221;stroke-linejoin: round;stroke-width: 0.30000000000000004px"/>
        <line x1="64.52" y1="88.52" x2="88.52" y2="64.52" style="fill: none;stroke: #222221;stroke-linejoin: round;stroke-width: 0.30000000000000004px"/>
        <line x1="64.52" y1="94.52" x2="94.52" y2="64.52" style="fill: none;stroke: #222221;stroke-linejoin: round;stroke-width: 0.30000000000000004px"/>
        <line x1="64.52" y1="100.52" x2="100.52" y2="64.52" style="fill: none;stroke: #222221;stroke-linejoin: round;stroke-width: 0.30000000000000004px"/>
        <line x1="64.52" y1="106.52" x2="106.52" y2="64.52" style="fill: none;stroke: #222221;stroke-linejoin: round;stroke-width: 0.30000000000000004px"/>
        <line x1="64.52" y1="112.52" x2="112.52" y2="64.52" style="fill: none;stroke: #222221;stroke-linejoin: round;stroke-width: 0.30000000000000004px"/>
        <line x1="64.52" y1="118.52" x2="118.52" y2="64.52" style="fill: none;stroke: #222221;stroke-linejoin: round;stroke-width: 0.30000000000000004px"/>
        <line x1="64.52" y1="124.52" x2="124.52" y2="64.52" style="fill: none;stroke: #222221;stroke-linejoin: round;stroke-width: 0.30000000000000004px"/>
        <line x1="64.52" y1="130.52" x2="130.52" y2="64.52" style="fill: none;stroke: #222221;stroke-linejoin: round;stroke-width: 0.30000000000000004px"/>
        <line x1="64.52" y1="136.52" x2="136.52" y2="64.52" style="fill: none;stroke: #222221;stroke-linejoin: round;stroke-width: 0.30000000000000004px"/>
        <line x1="64.52" y1="142.52" x2="142.52" y2="64.52" style="fill: none;stroke: #222221;stroke-linejoin: round;stroke-width: 0.30000000000000004px"/>
        <line x1="64.52" y1="148.51" x2="148.52" y2="64.52" style="fill: none;stroke: #222221;stroke-linejoin: round;stroke-width: 0.30000000000000004px"/>
        <line x1="70.52" y1="148.51" x2="148.52" y2="70.52" style="fill: none;stroke: #222221;stroke-linejoin: round;stroke-width: 0.30000000000000004px"/>
      </g>
      <g>
        <line x1="-7.48" y1="82.52" x2="10.52" y2="64.52" style="fill: none;stroke: #222221;stroke-linejoin: round;stroke-width: 0.30000000000000004px"/>
        <line x1="-7.48" y1="88.52" x2="16.52" y2="64.52" style="fill: none;stroke: #222221;stroke-linejoin: round;stroke-width: 0.30000000000000004px"/>
        <line x1="-7.48" y1="94.52" x2="22.52" y2="64.52" style="fill: none;stroke: #222221;stroke-linejoin: round;stroke-width: 0.30000000000000004px"/>
        <line x1="-7.48" y1="100.52" x2="28.52" y2="64.52" style="fill: none;stroke: #222221;stroke-linejoin: round;stroke-width: 0.30000000000000004px"/>
        <line x1="-7.48" y1="106.52" x2="34.52" y2="64.52" style="fill: none;stroke: #222221;stroke-linejoin: round;stroke-width: 0.30000000000000004px"/>
        <line x1="-7.48" y1="112.52" x2="40.52" y2="64.52" style="fill: none;stroke: #222221;stroke-linejoin: round;stroke-width: 0.30000000000000004px"/>
        <line x1="-7.48" y1="118.52" x2="46.52" y2="64.52" style="fill: none;stroke: #222221;stroke-linejoin: round;stroke-width: 0.30000000000000004px"/>
        <line x1="-7.48" y1="124.52" x2="52.52" y2="64.52" style="fill: none;stroke: #222221;stroke-linejoin: round;stroke-width: 0.30000000000000004px"/>
        <line x1="-7.48" y1="130.52" x2="58.52" y2="64.52" style="fill: none;stroke: #222221;stroke-linejoin: round;stroke-width: 0.30000000000000004px"/>
        <line x1="-7.48" y1="136.52" x2="64.52" y2="64.52" style="fill: none;stroke: #222221;stroke-linejoin: round;stroke-width: 0.30000000000000004px"/>
        <line x1="-7.48" y1="142.52" x2="70.52" y2="64.52" style="fill: none;stroke: #222221;stroke-linejoin: round;stroke-width: 0.30000000000000004px"/>
        <line x1="-7.48" y1="148.51" x2="76.52" y2="64.52" style="fill: none;stroke: #222221;stroke-linejoin: round;stroke-width: 0.30000000000000004px"/>
        <line x1="-1.48" y1="148.51" x2="76.52" y2="70.52" style="fill: none;stroke: #222221;stroke-linejoin: round;stroke-width: 0.30000000000000004px"/>
      </g>
      <g>
        <line x1="-79.48" y1="148.51" x2="4.52" y2="64.52" style="fill: none;stroke: #222221;stroke-linejoin: round;stroke-width: 0.30000000000000004px"/>
        <line x1="-73.48" y1="148.51" x2="4.52" y2="70.52" style="fill: none;stroke: #222221;stroke-linejoin: round;stroke-width: 0.30000000000000004px"/>
      </g>
      <g>
        <line x1="64.52" y1="10.52" x2="82.52" y2="-7.48" style="fill: none;stroke: #222221;stroke-linejoin: round;stroke-width: 0.30000000000000004px"/>
        <line x1="64.52" y1="16.52" x2="88.52" y2="-7.48" style="fill: none;stroke: #222221;stroke-linejoin: round;stroke-width: 0.30000000000000004px"/>
        <line x1="64.52" y1="22.52" x2="94.52" y2="-7.48" style="fill: none;stroke: #222221;stroke-linejoin: round;stroke-width: 0.30000000000000004px"/>
        <line x1="64.52" y1="28.52" x2="100.52" y2="-7.48" style="fill: none;stroke: #222221;stroke-linejoin: round;stroke-width: 0.30000000000000004px"/>
        <line x1="64.52" y1="34.52" x2="106.52" y2="-7.48" style="fill: none;stroke: #222221;stroke-linejoin: round;stroke-width: 0.30000000000000004px"/>
        <line x1="64.52" y1="40.52" x2="112.52" y2="-7.48" style="fill: none;stroke: #222221;stroke-linejoin: round;stroke-width: 0.30000000000000004px"/>
        <line x1="64.52" y1="46.52" x2="118.52" y2="-7.48" style="fill: none;stroke: #222221;stroke-linejoin: round;stroke-width: 0.30000000000000004px"/>
        <line x1="64.52" y1="52.52" x2="124.52" y2="-7.48" style="fill: none;stroke: #222221;stroke-linejoin: round;stroke-width: 0.30000000000000004px"/>
        <line x1="64.52" y1="58.52" x2="130.52" y2="-7.48" style="fill: none;stroke: #222221;stroke-linejoin: round;stroke-width: 0.30000000000000004px"/>
        <line x1="64.52" y1="64.52" x2="136.52" y2="-7.48" style="fill: none;stroke: #222221;stroke-linejoin: round;stroke-width: 0.30000000000000004px"/>
        <line x1="64.52" y1="70.52" x2="142.52" y2="-7.48" style="fill: none;stroke: #222221;stroke-linejoin: round;stroke-width: 0.30000000000000004px"/>
        <line x1="64.52" y1="76.51" x2="148.52" y2="-7.48" style="fill: none;stroke: #222221;stroke-linejoin: round;stroke-width: 0.30000000000000004px"/>
        <line x1="70.52" y1="76.51" x2="148.52" y2="-1.48" style="fill: none;stroke: #222221;stroke-linejoin: round;stroke-width: 0.30000000000000004px"/>
      </g>
      <g>
        <line x1="-7.48" y1="10.52" x2="10.52" y2="-7.48" style="fill: none;stroke: #222221;stroke-linejoin: round;stroke-width: 0.30000000000000004px"/>
        <line x1="-7.48" y1="16.52" x2="16.52" y2="-7.48" style="fill: none;stroke: #222221;stroke-linejoin: round;stroke-width: 0.30000000000000004px"/>
        <line x1="-7.48" y1="22.52" x2="22.52" y2="-7.48" style="fill: none;stroke: #222221;stroke-linejoin: round;stroke-width: 0.30000000000000004px"/>
        <line x1="-7.48" y1="28.52" x2="28.52" y2="-7.48" style="fill: none;stroke: #222221;stroke-linejoin: round;stroke-width: 0.30000000000000004px"/>
        <line x1="-7.48" y1="34.52" x2="34.52" y2="-7.48" style="fill: none;stroke: #222221;stroke-linejoin: round;stroke-width: 0.30000000000000004px"/>
        <line x1="-7.48" y1="40.52" x2="40.52" y2="-7.48" style="fill: none;stroke: #222221;stroke-linejoin: round;stroke-width: 0.30000000000000004px"/>
        <line x1="-7.48" y1="46.52" x2="46.52" y2="-7.48" style="fill: none;stroke: #222221;stroke-linejoin: round;stroke-width: 0.30000000000000004px"/>
        <line x1="-7.48" y1="52.52" x2="52.52" y2="-7.48" style="fill: none;stroke: #222221;stroke-linejoin: round;stroke-width: 0.30000000000000004px"/>
        <line x1="-7.48" y1="58.52" x2="58.52" y2="-7.48" style="fill: none;stroke: #222221;stroke-linejoin: round;stroke-width: 0.30000000000000004px"/>
        <line x1="-7.48" y1="64.52" x2="64.52" y2="-7.48" style="fill: none;stroke: #222221;stroke-linejoin: round;stroke-width: 0.30000000000000004px"/>
        <line x1="-7.48" y1="70.52" x2="70.52" y2="-7.48" style="fill: none;stroke: #222221;stroke-linejoin: round;stroke-width: 0.30000000000000004px"/>
        <line x1="-7.48" y1="76.51" x2="76.52" y2="-7.48" style="fill: none;stroke: #222221;stroke-linejoin: round;stroke-width: 0.30000000000000004px"/>
        <line x1="-1.48" y1="76.51" x2="76.52" y2="-1.48" style="fill: none;stroke: #222221;stroke-linejoin: round;stroke-width: 0.30000000000000004px"/>
        <line x1="4.52" y1="76.51" x2="76.52" y2="4.52" style="fill: none;stroke: #222221;stroke-linejoin: round;stroke-width: 0.30000000000000004px"/>
        <line x1="10.52" y1="76.51" x2="76.52" y2="10.52" style="fill: none;stroke: #222221;stroke-linejoin: round;stroke-width: 0.30000000000000004px"/>
        <line x1="16.52" y1="76.51" x2="76.52" y2="16.52" style="fill: none;stroke: #222221;stroke-linejoin: round;stroke-width: 0.30000000000000004px"/>
        <line x1="22.52" y1="76.51" x2="76.52" y2="22.52" style="fill: none;stroke: #222221;stroke-linejoin: round;stroke-width: 0.30000000000000004px"/>
        <line x1="28.52" y1="76.51" x2="76.52" y2="28.52" style="fill: none;stroke: #222221;stroke-linejoin: round;stroke-width: 0.30000000000000004px"/>
        <line x1="34.52" y1="76.51" x2="76.52" y2="34.52" style="fill: none;stroke: #222221;stroke-linejoin: round;stroke-width: 0.30000000000000004px"/>
        <line x1="40.52" y1="76.51" x2="76.52" y2="40.52" style="fill: none;stroke: #222221;stroke-linejoin: round;stroke-width: 0.30000000000000004px"/>
        <line x1="46.52" y1="76.51" x2="76.52" y2="46.52" style="fill: none;stroke: #222221;stroke-linejoin: round;stroke-width: 0.30000000000000004px"/>
        <line x1="52.52" y1="76.51" x2="76.52" y2="52.52" style="fill: none;stroke: #222221;stroke-linejoin: round;stroke-width: 0.30000000000000004px"/>
        <line x1="58.52" y1="76.51" x2="76.52" y2="58.52" style="fill: none;stroke: #222221;stroke-linejoin: round;stroke-width: 0.30000000000000004px"/>
        <line x1="64.52" y1="76.51" x2="76.52" y2="64.52" style="fill: none;stroke: #222221;stroke-linejoin: round;stroke-width: 0.30000000000000004px"/>
      </g>
      <g>
        <line x1="-79.48" y1="76.51" x2="4.52" y2="-7.48" style="fill: none;stroke: #222221;stroke-linejoin: round;stroke-width: 0.30000000000000004px"/>
        <line x1="-73.48" y1="76.51" x2="4.52" y2="-1.48" style="fill: none;stroke: #222221;stroke-linejoin: round;stroke-width: 0.30000000000000004px"/>
        <line x1="-67.48" y1="76.51" x2="4.52" y2="4.52" style="fill: none;stroke: #222221;stroke-linejoin: round;stroke-width: 0.30000000000000004px"/>
        <line x1="-61.48" y1="76.51" x2="4.52" y2="10.52" style="fill: none;stroke: #222221;stroke-linejoin: round;stroke-width: 0.30000000000000004px"/>
        <line x1="-55.48" y1="76.51" x2="4.52" y2="16.52" style="fill: none;stroke: #222221;stroke-linejoin: round;stroke-width: 0.30000000000000004px"/>
        <line x1="-49.48" y1="76.51" x2="4.52" y2="22.52" style="fill: none;stroke: #222221;stroke-linejoin: round;stroke-width: 0.30000000000000004px"/>
        <line x1="-43.48" y1="76.51" x2="4.52" y2="28.52" style="fill: none;stroke: #222221;stroke-linejoin: round;stroke-width: 0.30000000000000004px"/>
        <line x1="-37.48" y1="76.51" x2="4.52" y2="34.52" style="fill: none;stroke: #222221;stroke-linejoin: round;stroke-width: 0.30000000000000004px"/>
        <line x1="-31.48" y1="76.51" x2="4.52" y2="40.52" style="fill: none;stroke: #222221;stroke-linejoin: round;stroke-width: 0.30000000000000004px"/>
        <line x1="-25.48" y1="76.51" x2="4.52" y2="46.52" style="fill: none;stroke: #222221;stroke-linejoin: round;stroke-width: 0.30000000000000004px"/>
        <line x1="-19.48" y1="76.51" x2="4.52" y2="52.52" style="fill: none;stroke: #222221;stroke-linejoin: round;stroke-width: 0.30000000000000004px"/>
        <line x1="-13.48" y1="76.51" x2="4.52" y2="58.52" style="fill: none;stroke: #222221;stroke-linejoin: round;stroke-width: 0.30000000000000004px"/>
        <line x1="-7.48" y1="76.51" x2="4.52" y2="64.52" style="fill: none;stroke: #222221;stroke-linejoin: round;stroke-width: 0.30000000000000004px"/>
      </g>
      <g>
        <line x1="64.52" y1="4.51" x2="148.52" y2="-79.48" style="fill: none;stroke: #222221;stroke-linejoin: round;stroke-width: 0.30000000000000004px"/>
        <line x1="70.52" y1="4.51" x2="148.52" y2="-73.48" style="fill: none;stroke: #222221;stroke-linejoin: round;stroke-width: 0.30000000000000004px"/>
      </g>
      <g>
        <line x1="-7.48" y1="4.51" x2="76.52" y2="-79.48" style="fill: none;stroke: #222221;stroke-linejoin: round;stroke-width: 0.30000000000000004px"/>
        <line x1="-1.48" y1="4.51" x2="76.52" y2="-73.48" style="fill: none;stroke: #222221;stroke-linejoin: round;stroke-width: 0.30000000000000004px"/>
        <line x1="4.52" y1="4.51" x2="76.52" y2="-67.48" style="fill: none;stroke: #222221;stroke-linejoin: round;stroke-width: 0.30000000000000004px"/>
        <line x1="10.52" y1="4.51" x2="76.52" y2="-61.48" style="fill: none;stroke: #222221;stroke-linejoin: round;stroke-width: 0.30000000000000004px"/>
        <line x1="16.52" y1="4.51" x2="76.52" y2="-55.48" style="fill: none;stroke: #222221;stroke-linejoin: round;stroke-width: 0.30000000000000004px"/>
        <line x1="22.52" y1="4.51" x2="76.52" y2="-49.48" style="fill: none;stroke: #222221;stroke-linejoin: round;stroke-width: 0.30000000000000004px"/>
        <line x1="28.52" y1="4.51" x2="76.52" y2="-43.48" style="fill: none;stroke: #222221;stroke-linejoin: round;stroke-width: 0.30000000000000004px"/>
        <line x1="34.52" y1="4.51" x2="76.52" y2="-37.48" style="fill: none;stroke: #222221;stroke-linejoin: round;stroke-width: 0.30000000000000004px"/>
        <line x1="40.52" y1="4.51" x2="76.52" y2="-31.48" style="fill: none;stroke: #222221;stroke-linejoin: round;stroke-width: 0.30000000000000004px"/>
        <line x1="46.52" y1="4.51" x2="76.52" y2="-25.48" style="fill: none;stroke: #222221;stroke-linejoin: round;stroke-width: 0.30000000000000004px"/>
        <line x1="52.52" y1="4.51" x2="76.52" y2="-19.48" style="fill: none;stroke: #222221;stroke-linejoin: round;stroke-width: 0.30000000000000004px"/>
        <line x1="58.52" y1="4.51" x2="76.52" y2="-13.48" style="fill: none;stroke: #222221;stroke-linejoin: round;stroke-width: 0.30000000000000004px"/>
        <line x1="64.52" y1="4.51" x2="76.52" y2="-7.48" style="fill: none;stroke: #222221;stroke-linejoin: round;stroke-width: 0.30000000000000004px"/>
      </g>
      <g>
        <line x1="-79.48" y1="4.51" x2="4.52" y2="-79.48" style="fill: none;stroke: #222221;stroke-linejoin: round;stroke-width: 0.30000000000000004px"/>
        <line x1="-73.48" y1="4.51" x2="4.52" y2="-73.48" style="fill: none;stroke: #222221;stroke-linejoin: round;stroke-width: 0.30000000000000004px"/>
        <line x1="-67.48" y1="4.51" x2="4.52" y2="-67.48" style="fill: none;stroke: #222221;stroke-linejoin: round;stroke-width: 0.30000000000000004px"/>
        <line x1="-61.48" y1="4.51" x2="4.52" y2="-61.48" style="fill: none;stroke: #222221;stroke-linejoin: round;stroke-width: 0.30000000000000004px"/>
        <line x1="-55.48" y1="4.51" x2="4.52" y2="-55.48" style="fill: none;stroke: #222221;stroke-linejoin: round;stroke-width: 0.30000000000000004px"/>
        <line x1="-49.48" y1="4.51" x2="4.52" y2="-49.48" style="fill: none;stroke: #222221;stroke-linejoin: round;stroke-width: 0.30000000000000004px"/>
        <line x1="-43.48" y1="4.51" x2="4.52" y2="-43.48" style="fill: none;stroke: #222221;stroke-linejoin: round;stroke-width: 0.30000000000000004px"/>
        <line x1="-37.48" y1="4.51" x2="4.52" y2="-37.48" style="fill: none;stroke: #222221;stroke-linejoin: round;stroke-width: 0.30000000000000004px"/>
        <line x1="-31.48" y1="4.51" x2="4.52" y2="-31.48" style="fill: none;stroke: #222221;stroke-linejoin: round;stroke-width: 0.30000000000000004px"/>
        <line x1="-25.48" y1="4.51" x2="4.52" y2="-25.48" style="fill: none;stroke: #222221;stroke-linejoin: round;stroke-width: 0.30000000000000004px"/>
        <line x1="-19.48" y1="4.51" x2="4.52" y2="-19.48" style="fill: none;stroke: #222221;stroke-linejoin: round;stroke-width: 0.30000000000000004px"/>
        <line x1="-13.48" y1="4.51" x2="4.52" y2="-13.48" style="fill: none;stroke: #222221;stroke-linejoin: round;stroke-width: 0.30000000000000004px"/>
        <line x1="-7.48" y1="4.51" x2="4.52" y2="-7.48" style="fill: none;stroke: #222221;stroke-linejoin: round;stroke-width: 0.30000000000000004px"/>
      </g>
    </pattern>
    <pattern id="Puntini_fine" data-name="Puntini fine" width="72" height="72" patternTransform="translate(0 -2.43)" patternUnits="userSpaceOnUse" viewBox="0 0 72 72">
      <rect width="72" height="72" style="fill: none"/>
      <g>
        <path d="M56.43,72.69a.35.35,0,0,1-.26-.11.39.39,0,0,1-.11-.27.36.36,0,0,1,.11-.26.4.4,0,0,1,.53,0,.36.36,0,0,1,.11.26.39.39,0,0,1-.11.27A.37.37,0,0,1,56.43,72.69Z" style="fill: #222221"/>
        <path d="M3.75,72.13A.36.36,0,0,1,3.48,72a.35.35,0,0,1-.11-.26.36.36,0,0,1,.11-.26.39.39,0,0,1,.53,0,.36.36,0,0,1,.11.26A.39.39,0,0,1,4,72,.36.36,0,0,1,3.75,72.13Z" style="fill: #222221"/>
        <path d="M18.56,72.13a.36.36,0,0,1-.27-.12.36.36,0,0,1-.11-.26.34.34,0,0,1,.12-.26.38.38,0,0,1,.53,0,.4.4,0,0,1,.1.26.39.39,0,0,1-.1.27A.4.4,0,0,1,18.56,72.13Z" style="fill: #222221"/>
        <path d="M40.31,72.31A.35.35,0,0,1,40,72.2a.34.34,0,0,1-.1-.26.35.35,0,0,1,.1-.26.39.39,0,0,1,.54,0,.38.38,0,0,1,.1.27.39.39,0,0,1-.11.27A.34.34,0,0,1,40.31,72.31Z" style="fill: #222221"/>
      </g>
      <g>
        <path d="M12.93,69.88a.32.32,0,0,1-.26-.12.35.35,0,0,1-.11-.26.39.39,0,0,1,.11-.27.4.4,0,0,1,.53,0,.35.35,0,0,1,.11.26.39.39,0,0,1-.11.27A.37.37,0,0,1,12.93,69.88Z" style="fill: #222221"/>
        <path d="M1.12,69.69a.39.39,0,0,1-.27-.11.42.42,0,0,1-.1-.26.39.39,0,0,1,.11-.27.4.4,0,0,1,.53,0,.39.39,0,0,1,.11.27.38.38,0,0,1-.11.26A.39.39,0,0,1,1.12,69.69Z" style="fill: #222221"/>
        <path d="M10.5,68.38a.36.36,0,0,1-.27-.12.39.39,0,0,1-.11-.26.36.36,0,0,1,.11-.26.39.39,0,0,1,.53,0,.36.36,0,0,1,.11.26.39.39,0,0,1-.11.27A.36.36,0,0,1,10.5,68.38Z" style="fill: #222221"/>
        <path d="M19.68,67.25a.38.38,0,0,1-.26-.11.36.36,0,0,1-.11-.26.37.37,0,0,1,.11-.27.38.38,0,0,1,.64.27.36.36,0,0,1-.11.26A.39.39,0,0,1,19.68,67.25Z" style="fill: #222221"/>
        <path d="M3.75,72.13A.36.36,0,0,1,3.48,72a.39.39,0,0,1-.11-.26.36.36,0,0,1,.11-.26.4.4,0,0,1,.53,0,.33.33,0,0,1,.11.26A.39.39,0,0,1,4,72,.36.36,0,0,1,3.75,72.13Z" style="fill: #222221"/>
        <path d="M7.12,65.75a.39.39,0,0,1-.27-.11.4.4,0,0,1-.1-.26.37.37,0,0,1,.11-.27.4.4,0,0,1,.53,0,.37.37,0,0,1,.11.27.36.36,0,0,1-.11.26A.39.39,0,0,1,7.12,65.75Z" style="fill: #222221"/>
        <path d="M24.56,70.63a.36.36,0,0,1-.27-.12.34.34,0,0,1-.1-.26A.33.33,0,0,1,24.3,70a.39.39,0,0,1,.53,0,.36.36,0,0,1,.11.26.38.38,0,0,1-.38.38Z" style="fill: #222221"/>
        <path d="M27,71.94a.34.34,0,0,1-.27-.12.33.33,0,0,1-.11-.25.34.34,0,0,1,.12-.27.38.38,0,0,1,.52,0,.35.35,0,0,1,.11.27.38.38,0,0,1-.11.26A.36.36,0,0,1,27,71.94Z" style="fill: #222221"/>
        <path d="M29.06,67.63a.4.4,0,0,1-.27-.12.38.38,0,0,1-.1-.26A.36.36,0,0,1,28.8,67a.38.38,0,0,1,.53,0,.4.4,0,0,1,.1.26.38.38,0,0,1-.1.27A.39.39,0,0,1,29.06,67.63Z" style="fill: #222221"/>
        <path d="M40.87,66.69a.36.36,0,0,1-.26-.11.37.37,0,0,1-.11-.27.36.36,0,0,1,.11-.26.39.39,0,0,1,.53,0,.38.38,0,0,1,.11.26.38.38,0,0,1-.38.38Z" style="fill: #222221"/>
        <path d="M49.31,68a.39.39,0,0,1-.27-.11.41.41,0,0,1-.11-.26.4.4,0,0,1,.12-.27.38.38,0,0,1,.52,0,.36.36,0,0,1,.12.27.38.38,0,0,1-.11.26A.39.39,0,0,1,49.31,68Z" style="fill: #222221"/>
        <path d="M35.06,66.13a.39.39,0,0,1-.27-.11.41.41,0,0,1-.1-.27.39.39,0,0,1,.11-.27.4.4,0,0,1,.53,0,.39.39,0,0,1,.11.26.4.4,0,0,1-.12.27A.35.35,0,0,1,35.06,66.13Z" style="fill: #222221"/>
        <path d="M24.56,66.13a.36.36,0,0,1-.27-.12.34.34,0,0,1-.1-.26.39.39,0,0,1,.11-.27.4.4,0,0,1,.53,0,.38.38,0,0,1-.27.64Z" style="fill: #222221"/>
        <path d="M15.18,66.13a.34.34,0,0,1-.26-.12.35.35,0,0,1-.11-.26.36.36,0,0,1,.11-.26.38.38,0,0,1,.53,0,.36.36,0,0,1,.11.26.38.38,0,0,1-.38.38Z" style="fill: #222221"/>
        <path d="M43.87,63.5a.38.38,0,0,1-.26-.11.35.35,0,0,1-.11-.26.37.37,0,0,1,.11-.27.38.38,0,0,1,.64.27.32.32,0,0,1-.12.26A.35.35,0,0,1,43.87,63.5Z" style="fill: #222221"/>
        <path d="M46.68,71.75a.38.38,0,0,1-.37-.37.38.38,0,1,1,.75,0,.36.36,0,0,1-.11.26A.37.37,0,0,1,46.68,71.75Z" style="fill: #222221"/>
        <path d="M18.56,72.13a.36.36,0,0,1-.27-.12.39.39,0,0,1-.11-.26.34.34,0,0,1,.12-.26.38.38,0,0,1,.53,0,.4.4,0,0,1,.1.26.39.39,0,0,1-.11.27A.36.36,0,0,1,18.56,72.13Z" style="fill: #222221"/>
        <path d="M32.43,70.82a.38.38,0,0,1-.26-.11.39.39,0,0,1-.11-.27.36.36,0,0,1,.11-.26.39.39,0,0,1,.53,0,.4.4,0,0,1,.11.27.38.38,0,0,1-.38.38Z" style="fill: #222221"/>
        <path d="M40.31,72.32A.4.4,0,0,1,40,72.2a.38.38,0,0,1-.1-.26.37.37,0,0,1,.64-.26.38.38,0,0,1,.1.26.38.38,0,0,1-.37.38Z" style="fill: #222221"/>
        <path d="M50.62,48.5a.38.38,0,0,1-.37-.37.38.38,0,1,1,.75,0,.35.35,0,0,1-.11.26A.39.39,0,0,1,50.62,48.5Z" style="fill: #222221"/>
        <path d="M58.31,48.13A.36.36,0,0,1,58,48a.39.39,0,0,1-.11-.26.34.34,0,0,1,.12-.26.39.39,0,0,1,.53,0,.36.36,0,0,1,.11.26.4.4,0,0,1-.12.27A.36.36,0,0,1,58.31,48.13Z" style="fill: #222221"/>
        <path d="M62.81,48.69a.39.39,0,0,1-.27-.11.38.38,0,0,1-.11-.26.39.39,0,0,1,.11-.27.4.4,0,0,1,.54,0,.39.39,0,0,1,.11.27.38.38,0,0,1-.11.26A.39.39,0,0,1,62.81,48.69Z" style="fill: #222221"/>
        <path d="M66.93,71a.35.35,0,0,1-.26-.11.36.36,0,0,1-.11-.26.39.39,0,0,1,.11-.27.4.4,0,0,1,.53,0,.37.37,0,0,1,.11.27.36.36,0,0,1-.11.26A.37.37,0,0,1,66.93,71Z" style="fill: #222221"/>
        <path d="M52.31,61.25a.39.39,0,0,1-.27-.11.36.36,0,0,1-.11-.26.39.39,0,0,1,.11-.27.4.4,0,0,1,.54,0,.38.38,0,0,1,.1.27.35.35,0,0,1-.1.26A.39.39,0,0,1,52.31,61.25Z" style="fill: #222221"/>
        <path d="M70.5,55.25a.39.39,0,0,1-.27-.11.36.36,0,0,1-.11-.26.34.34,0,0,1,.12-.27.39.39,0,0,1,.53,0,.38.38,0,0,1,.1.26.38.38,0,0,1-.37.37Z" style="fill: #222221"/>
        <path d="M71.06,68.38a.4.4,0,0,1-.27-.12.38.38,0,0,1-.1-.26.39.39,0,0,1,.11-.27.4.4,0,0,1,.53,0,.38.38,0,0,1-.27.64Z" style="fill: #222221"/>
        <path d="M63.94,53.19a.37.37,0,0,1-.27-.11.35.35,0,0,1-.11-.26.38.38,0,0,1,.64-.27.37.37,0,0,1,.11.27.38.38,0,0,1-.37.37Z" style="fill: #222221"/>
        <path d="M61.87,71.94a.39.39,0,0,1-.27-.11.4.4,0,0,1-.1-.26.39.39,0,0,1,.11-.27.4.4,0,0,1,.53,0,.39.39,0,0,1,.11.27.34.34,0,0,1-.12.26A.35.35,0,0,1,61.87,71.94Z" style="fill: #222221"/>
        <path d="M53.62,52.82a.37.37,0,0,1-.26-.12.35.35,0,0,1-.11-.26.39.39,0,0,1,.11-.27.4.4,0,0,1,.53,0,.39.39,0,0,1,.11.27.4.4,0,0,1-.11.27A.44.44,0,0,1,53.62,52.82Z" style="fill: #222221"/>
        <path d="M51.75,67.07a.4.4,0,0,1-.27-.12.35.35,0,0,1-.11-.26.4.4,0,0,1,.11-.27.39.39,0,0,1,.53,0,.36.36,0,0,1,.11.26A.39.39,0,0,1,52,67,.41.41,0,0,1,51.75,67.07Z" style="fill: #222221"/>
        <path d="M57.37,55.44a.35.35,0,0,1-.26-.11.36.36,0,0,1-.11-.26.39.39,0,0,1,.11-.27.4.4,0,0,1,.53,0,.39.39,0,0,1,.11.27.38.38,0,0,1-.11.26A.39.39,0,0,1,57.37,55.44Z" style="fill: #222221"/>
        <path d="M60.94,56.19a.37.37,0,0,1-.27-.11.36.36,0,0,1-.11-.26.35.35,0,0,1,.11-.27.4.4,0,0,1,.53,0,.37.37,0,0,1,.11.27.38.38,0,0,1-.11.26A.36.36,0,0,1,60.94,56.19Z" style="fill: #222221"/>
        <path d="M56.43,69.69a.38.38,0,0,1-.37-.37.38.38,0,1,1,.75,0,.38.38,0,0,1-.11.26A.4.4,0,0,1,56.43,69.69Z" style="fill: #222221"/>
        <path d="M61.31,63.5a.39.39,0,0,1-.27-.11.38.38,0,0,1-.11-.26.36.36,0,0,1,.12-.27.38.38,0,0,1,.52,0,.36.36,0,0,1,.12.27.38.38,0,0,1-.11.26A.39.39,0,0,1,61.31,63.5Z" style="fill: #222221"/>
        <path d="M57.94,61.82a.38.38,0,0,1-.27-.12.36.36,0,0,1-.11-.26.4.4,0,0,1,.11-.27.38.38,0,0,1,.52,0,.37.37,0,0,1,.12.27.36.36,0,0,1-.11.26A.35.35,0,0,1,57.94,61.82Z" style="fill: #222221"/>
        <path d="M67.12,65.19a.39.39,0,0,1-.27-.11.38.38,0,0,1-.1-.26.37.37,0,0,1,.11-.27.4.4,0,0,1,.53,0,.39.39,0,0,1,.11.27.34.34,0,0,1-.12.26A.35.35,0,0,1,67.12,65.19Z" style="fill: #222221"/>
        <path d="M69.19,60.32a.38.38,0,0,1-.27-.12.35.35,0,0,1-.11-.26.37.37,0,0,1,.64-.26.35.35,0,0,1,.11.26.36.36,0,0,1-.12.27A.36.36,0,0,1,69.19,60.32Z" style="fill: #222221"/>
        <path d="M65.06,59.19a.38.38,0,0,1-.38-.38.37.37,0,0,1,.12-.26.4.4,0,0,1,.53,0,.41.41,0,0,1,.11.26.38.38,0,0,1-.38.38Z" style="fill: #222221"/>
        <path d="M1.69,56.94a.35.35,0,0,1-.27-.11.38.38,0,0,1-.11-.26.39.39,0,0,1,.11-.27.4.4,0,0,1,.53,0,.39.39,0,0,1,.11.27.38.38,0,0,1-.37.37Z" style="fill: #222221"/>
        <path d="M29.25,62.75a.38.38,0,0,1-.38-.37.36.36,0,0,1,.12-.27.38.38,0,0,1,.52,0,.35.35,0,0,1,.11.27.39.39,0,0,1-.11.27A.4.4,0,0,1,29.25,62.75Z" style="fill: #222221"/>
        <path d="M15.56,51.69a.39.39,0,0,1-.27-.11.36.36,0,0,1-.11-.26.36.36,0,0,1,.12-.27.38.38,0,0,1,.52,0,.39.39,0,0,1,.12.28.38.38,0,0,1-.11.26A.39.39,0,0,1,15.56,51.69Z" style="fill: #222221"/>
        <path d="M4.87,61.25a.38.38,0,0,1-.37-.37.39.39,0,0,1,.11-.27.4.4,0,0,1,.53,0,.39.39,0,0,1,.11.27.36.36,0,0,1-.11.26A.39.39,0,0,1,4.87,61.25Z" style="fill: #222221"/>
        <path d="M18.75,54.5a.39.39,0,0,1-.27-.11.35.35,0,0,1-.1-.26.43.43,0,0,1,.1-.27.4.4,0,0,1,.53,0,.39.39,0,0,1,.11.27.38.38,0,0,1-.11.26A.36.36,0,0,1,18.75,54.5Z" style="fill: #222221"/>
        <path d="M9.75,51.13A.36.36,0,0,1,9.48,51a.35.35,0,0,1-.11-.26.4.4,0,0,1,.12-.27.38.38,0,0,1,.52,0,.36.36,0,0,1,.12.26A.4.4,0,0,1,10,51,.36.36,0,0,1,9.75,51.13Z" style="fill: #222221"/>
        <path d="M18.56,48.5a.39.39,0,0,1-.27-.11.38.38,0,0,1-.11-.26.36.36,0,0,1,.12-.27.4.4,0,0,1,.53,0,.43.43,0,0,1,.1.27.4.4,0,0,1-.1.26A.4.4,0,0,1,18.56,48.5Z" style="fill: #222221"/>
        <path d="M21.37,56.75a.39.39,0,0,1-.27-.11.42.42,0,0,1-.1-.26.39.39,0,0,1,.11-.27.4.4,0,0,1,.53,0,.39.39,0,0,1,.11.27.36.36,0,0,1-.11.26A.39.39,0,0,1,21.37,56.75Z" style="fill: #222221"/>
        <path d="M20.62,60.32a.38.38,0,0,1-.37-.38.36.36,0,0,1,.11-.26.38.38,0,0,1,.53,0,.36.36,0,0,1,.11.26.4.4,0,0,1-.11.27A.39.39,0,0,1,20.62,60.32Z" style="fill: #222221"/>
        <path d="M7.12,55.82a.38.38,0,0,1-.37-.38.37.37,0,0,1,.64-.26.35.35,0,0,1,.11.26.4.4,0,0,1-.11.27A.39.39,0,0,1,7.12,55.82Z" style="fill: #222221"/>
        <path d="M13.31,60.69a.39.39,0,0,1-.27-.11.41.41,0,0,1-.11-.27.34.34,0,0,1,.12-.26.4.4,0,0,1,.53,0,.36.36,0,0,1,.11.26.38.38,0,0,1-.12.27A.35.35,0,0,1,13.31,60.69Z" style="fill: #222221"/>
        <path d="M15,57.31a.39.39,0,0,1-.27-.11.36.36,0,0,1-.11-.26.4.4,0,0,1,.12-.27.37.37,0,0,1,.52,0,.35.35,0,0,1,.11.26.36.36,0,0,1-.11.27A.4.4,0,0,1,15,57.31Z" style="fill: #222221"/>
        <path d="M30.18,50.19a.38.38,0,0,1-.26-.11.37.37,0,0,1-.11-.27.36.36,0,0,1,.11-.26.39.39,0,0,1,.53,0,.38.38,0,0,1,.11.26.38.38,0,0,1-.38.38Z" style="fill: #222221"/>
        <path d="M36,57.69a.38.38,0,0,1-.38-.37.36.36,0,0,1,.12-.27.37.37,0,0,1,.52,0,.37.37,0,0,1,.11.27.35.35,0,0,1-.11.26A.36.36,0,0,1,36,57.69Z" style="fill: #222221"/>
        <path d="M42.37,59.75a.38.38,0,0,1-.37-.37.37.37,0,0,1,.11-.27.38.38,0,0,1,.64.27.38.38,0,0,1-.11.26A.39.39,0,0,1,42.37,59.75Z" style="fill: #222221"/>
        <path d="M46.68,53a.42.42,0,0,1-.26-.1.4.4,0,0,1-.11-.27.38.38,0,1,1,.75,0,.36.36,0,0,1-.11.26A.39.39,0,0,1,46.68,53Z" style="fill: #222221"/>
        <path d="M46.87,59a.36.36,0,0,1-.26-.11.35.35,0,0,1-.11-.26.37.37,0,0,1,.11-.27.39.39,0,0,1,.53,0,.37.37,0,0,1,.11.27.32.32,0,0,1-.12.26A.35.35,0,0,1,46.87,59Z" style="fill: #222221"/>
        <path d="M28.68,52.63a.38.38,0,0,1-.26-.11.37.37,0,0,1-.11-.27.36.36,0,0,1,.11-.26A.39.39,0,0,1,29,52a.36.36,0,0,1,.11.26.38.38,0,0,1-.38.38Z" style="fill: #222221"/>
        <path d="M30.75,57.88a.38.38,0,0,1-.38-.38.36.36,0,0,1,.11-.26.39.39,0,0,1,.53,0,.38.38,0,0,1-.26.64Z" style="fill: #222221"/>
        <path d="M26.06,56a.36.36,0,0,1-.26-.11.35.35,0,0,1-.11-.26.38.38,0,0,1,.1-.27.4.4,0,0,1,.54,0,.39.39,0,0,1,.11.27.36.36,0,0,1-.12.26A.35.35,0,0,1,26.06,56Z" style="fill: #222221"/>
        <path d="M39.18,55.63a.36.36,0,0,1-.26-.11.39.39,0,0,1-.11-.27.36.36,0,0,1,.11-.26.39.39,0,0,1,.53,0,.36.36,0,0,1,.11.26.39.39,0,0,1-.11.27A.37.37,0,0,1,39.18,55.63Z" style="fill: #222221"/>
        <path d="M42.93,49.82a.39.39,0,0,1-.26-.12.36.36,0,0,1-.11-.26.4.4,0,0,1,.11-.27.39.39,0,0,1,.53,0,.39.39,0,0,1,0,.54A.44.44,0,0,1,42.93,49.82Z" style="fill: #222221"/>
        <path d="M44.06,55.63a.36.36,0,0,1-.26-.11.35.35,0,0,1-.11-.27.35.35,0,0,1,.1-.26.37.37,0,0,1,.64.26.43.43,0,0,1-.1.27A.4.4,0,0,1,44.06,55.63Z" style="fill: #222221"/>
        <path d="M26.43,47.94a.38.38,0,0,1-.26-.11.36.36,0,0,1-.11-.26.37.37,0,0,1,.11-.27.38.38,0,0,1,.64.27.38.38,0,0,1-.11.26A.39.39,0,0,1,26.43,47.94Z" style="fill: #222221"/>
        <path d="M49.31,52.44a.38.38,0,0,1-.38-.37.4.4,0,0,1,.12-.28.41.41,0,0,1,.53,0,.41.41,0,0,1,.11.27.37.37,0,0,1-.12.26A.35.35,0,0,1,49.31,52.44Z" style="fill: #222221"/>
        <path d="M35.62,48.5a.38.38,0,0,1-.37-.37.37.37,0,0,1,.11-.27.4.4,0,0,1,.53,0,.39.39,0,0,1,.11.27.38.38,0,0,1-.11.26A.39.39,0,0,1,35.62,48.5Z" style="fill: #222221"/>
        <path d="M36,52.44a.38.38,0,0,1-.38-.37.36.36,0,0,1,.12-.27.37.37,0,0,1,.52,0,.37.37,0,0,1,.11.27.35.35,0,0,1-.11.26A.36.36,0,0,1,36,52.44Z" style="fill: #222221"/>
        <path d="M2.81,49.07A.4.4,0,0,1,2.54,49a.35.35,0,0,1-.11-.26.4.4,0,0,1,.12-.27.38.38,0,1,1,.26.65Z" style="fill: #222221"/>
        <path d="M5.25,48.13A.38.38,0,0,1,5,48a.35.35,0,0,1-.11-.26A.36.36,0,0,1,5,47.49a.39.39,0,0,1,.53,0,.37.37,0,0,1,.12.26.4.4,0,0,1-.12.27A.36.36,0,0,1,5.25,48.13Z" style="fill: #222221"/>
        <path d="M3.37,2.19A.38.38,0,0,1,3,1.82a.38.38,0,1,1,.75,0,.36.36,0,0,1-.11.26A.39.39,0,0,1,3.37,2.19Z" style="fill: #222221"/>
        <path d="M10.12,6.5a.39.39,0,0,1-.27-.11.38.38,0,0,1-.1-.26.39.39,0,0,1,.11-.27.4.4,0,0,1,.53,0,.39.39,0,0,1,.11.27.32.32,0,0,1-.12.26A.35.35,0,0,1,10.12,6.5Z" style="fill: #222221"/>
        <path d="M4.12,6.69a.39.39,0,0,1-.27-.11.4.4,0,0,1-.1-.26.37.37,0,0,1,.11-.27.4.4,0,0,1,.53,0,.37.37,0,0,1,.11.27.36.36,0,0,1-.11.26A.39.39,0,0,1,4.12,6.69Z" style="fill: #222221"/>
        <path d="M22.5,4.07A.4.4,0,0,1,22.23,4a.39.39,0,0,1-.11-.26.4.4,0,0,1,.11-.27.4.4,0,0,1,.53,0,.36.36,0,0,1,.11.27.39.39,0,0,1-.11.27A.41.41,0,0,1,22.5,4.07Z" style="fill: #222221"/>
        <path d="M31.12,1.44a.38.38,0,0,1-.26-.11.39.39,0,0,1-.11-.27A.36.36,0,0,1,30.86.8a.39.39,0,0,1,.53,0,.38.38,0,0,1,.11.26.38.38,0,0,1-.38.38Z" style="fill: #222221"/>
        <path d="M46.87,5a.38.38,0,0,1-.26-.11.36.36,0,0,1-.11-.26.39.39,0,0,1,.11-.27.37.37,0,0,1,.52,0,.36.36,0,0,1,.12.27.36.36,0,0,1-.11.26A.39.39,0,0,1,46.87,5Z" style="fill: #222221"/>
        <path d="M33.75,5.57a.4.4,0,0,1-.27-.12.39.39,0,0,1-.11-.26.4.4,0,0,1,.12-.27.37.37,0,0,1,.52,0,.35.35,0,0,1,.11.26.39.39,0,0,1-.11.27A.41.41,0,0,1,33.75,5.57Z" style="fill: #222221"/>
        <path d="M22.87,7.44a.36.36,0,0,1-.37-.38.36.36,0,0,1,.11-.26.39.39,0,0,1,.53,0,.38.38,0,0,1,.11.26.34.34,0,0,1-.12.27A.35.35,0,0,1,22.87,7.44Z" style="fill: #222221"/>
        <path d="M13.31,2.75A.39.39,0,0,1,13,2.64a.36.36,0,0,1-.11-.26.36.36,0,0,1,.12-.27.4.4,0,0,1,.53,0,.39.39,0,0,1,.11.27.36.36,0,0,1-.11.26A.39.39,0,0,1,13.31,2.75Z" style="fill: #222221"/>
        <path d="M15.94,5.56a.35.35,0,0,1-.27-.11.35.35,0,0,1-.11-.26.37.37,0,0,1,.64-.26.35.35,0,0,1,.11.26.39.39,0,0,1-.11.27A.42.42,0,0,1,15.94,5.56Z" style="fill: #222221"/>
        <path d="M41.25,7.63A.39.39,0,0,1,41,7.52a.4.4,0,0,1-.11-.27A.38.38,0,0,1,41,7a.39.39,0,0,1,.54,0,.4.4,0,0,1,.1.26.38.38,0,0,1-.37.38Z" style="fill: #222221"/>
        <path d="M7.5,3.88a.36.36,0,0,1-.27-.12.39.39,0,0,1-.11-.26.36.36,0,0,1,.11-.26.38.38,0,0,1,.53,0,.36.36,0,0,1,.11.26.39.39,0,0,1-.11.27A.36.36,0,0,1,7.5,3.88Z" style="fill: #222221"/>
        <path d="M29.62,7.81a.33.33,0,0,1-.26-.11.35.35,0,0,1-.11-.26.4.4,0,0,1,.11-.27.39.39,0,0,1,.53,0,.39.39,0,0,1,0,.54A.38.38,0,0,1,29.62,7.81Z" style="fill: #222221"/>
        <path d="M10.69,9.13A.34.34,0,0,1,10.42,9a.35.35,0,0,1-.11-.26.36.36,0,0,1,.11-.26.38.38,0,0,1,.53,0,.36.36,0,0,1,.11.26A.39.39,0,0,1,11,9,.38.38,0,0,1,10.69,9.13Z" style="fill: #222221"/>
        <path d="M34.5,9.32a.4.4,0,0,1-.27-.12.39.39,0,0,1-.11-.26.4.4,0,0,1,.12-.27.38.38,0,0,1,.52,0,.35.35,0,0,1,.11.26.39.39,0,0,1-.11.27A.41.41,0,0,1,34.5,9.32Z" style="fill: #222221"/>
        <path d="M16.68,1.07A.37.37,0,0,1,16.42,1a.35.35,0,0,1-.11-.26.4.4,0,0,1,.11-.27.4.4,0,0,1,.53,0,.4.4,0,0,1,.11.27A.39.39,0,0,1,17,1,.44.44,0,0,1,16.68,1.07Z" style="fill: #222221"/>
        <path d="M36.93,1.63a.36.36,0,0,1-.26-.11.39.39,0,0,1-.11-.27A.36.36,0,0,1,36.67,1a.39.39,0,0,1,.53,0,.36.36,0,0,1,.11.26.4.4,0,0,1-.11.27A.37.37,0,0,1,36.93,1.63Z" style="fill: #222221"/>
        <path d="M41.81,3.69a.39.39,0,0,1-.27-.11.35.35,0,0,1-.1-.26.36.36,0,0,1,.1-.27.4.4,0,0,1,.54,0,.36.36,0,0,1,.1.27.4.4,0,0,1-.1.26A.39.39,0,0,1,41.81,3.69Z" style="fill: #222221"/>
        <path d="M45,8.75a.39.39,0,0,1-.27-.11.36.36,0,0,1-.11-.26.38.38,0,1,1,.75,0,.38.38,0,0,1-.37.37Z" style="fill: #222221"/>
        <path d="M12.93,24.88a.34.34,0,0,1-.26-.12.35.35,0,0,1-.11-.26.36.36,0,0,1,.11-.26.38.38,0,0,1,.53,0,.36.36,0,0,1,.11.26.38.38,0,0,1-.38.38Z" style="fill: #222221"/>
        <path d="M1.12,24.69a.39.39,0,0,1-.27-.11.42.42,0,0,1-.1-.26.39.39,0,0,1,.11-.27.39.39,0,0,1,.53,0,.39.39,0,0,1,.11.27.38.38,0,0,1-.11.26A.39.39,0,0,1,1.12,24.69Z" style="fill: #222221"/>
        <path d="M5.44,30.69a.37.37,0,0,1-.27-.11.38.38,0,0,1-.11-.26.39.39,0,0,1,.11-.27.4.4,0,0,1,.53,0,.39.39,0,0,1,.11.27.38.38,0,0,1-.37.37Z" style="fill: #222221"/>
        <path d="M3.37,37.07A.38.38,0,0,1,3.11,37a.39.39,0,0,1,0-.54.4.4,0,0,1,.53,0,.38.38,0,0,1-.27.65Z" style="fill: #222221"/>
        <path d="M10.12,41.38a.36.36,0,0,1-.27-.12.38.38,0,0,1-.1-.26.39.39,0,0,1,.11-.27.4.4,0,0,1,.53,0,.35.35,0,0,1,.11.26.38.38,0,0,1-.38.38Z" style="fill: #222221"/>
        <path d="M4.12,41.57a.4.4,0,0,1-.27-.12.38.38,0,0,1-.1-.26.4.4,0,0,1,.11-.27.4.4,0,0,1,.53,0,.4.4,0,0,1,.11.27.36.36,0,0,1-.12.27A.39.39,0,0,1,4.12,41.57Z" style="fill: #222221"/>
        <path d="M10.5,23.38a.36.36,0,0,1-.27-.12.35.35,0,0,1-.11-.26.36.36,0,0,1,.11-.26.38.38,0,0,1,.53,0,.33.33,0,0,1,.11.26.39.39,0,0,1-.11.27A.36.36,0,0,1,10.5,23.38Z" style="fill: #222221"/>
        <path d="M19.68,22.25a.36.36,0,0,1-.26-.11.35.35,0,0,1-.11-.26.38.38,0,1,1,.75,0,.36.36,0,0,1-.11.26A.37.37,0,0,1,19.68,22.25Z" style="fill: #222221"/>
        <path d="M3.75,27.13A.36.36,0,0,1,3.48,27a.35.35,0,0,1-.11-.26.4.4,0,0,1,.12-.27.38.38,0,0,1,.52,0A.37.37,0,0,1,4,27,.36.36,0,0,1,3.75,27.13Z" style="fill: #222221"/>
        <path d="M7.12,20.75a.39.39,0,0,1-.27-.11.4.4,0,0,1-.1-.26.39.39,0,0,1,.11-.27.4.4,0,0,1,.53,0,.39.39,0,0,1,.11.27.36.36,0,0,1-.11.26A.39.39,0,0,1,7.12,20.75Z" style="fill: #222221"/>
        <path d="M24.56,25.63a.36.36,0,0,1-.27-.12.38.38,0,0,1-.1-.26A.36.36,0,0,1,24.3,25a.39.39,0,0,1,.53,0,.36.36,0,0,1,.11.26.4.4,0,0,1-.12.27A.35.35,0,0,1,24.56,25.63Z" style="fill: #222221"/>
        <path d="M27,26.94a.34.34,0,0,1-.27-.12.33.33,0,0,1-.11-.25.4.4,0,0,1,.12-.28.4.4,0,0,1,.52,0,.37.37,0,0,1,.11.27.38.38,0,0,1-.11.26A.36.36,0,0,1,27,26.94Z" style="fill: #222221"/>
        <path d="M7.5,33.88a.36.36,0,0,1-.27-.12.35.35,0,0,1-.11-.26.4.4,0,0,1,.11-.27.4.4,0,0,1,.53,0,.4.4,0,0,1,.11.27.39.39,0,0,1-.11.27A.36.36,0,0,1,7.5,33.88Z" style="fill: #222221"/>
        <path d="M22.5,38.94a.39.39,0,0,1-.27-.11.39.39,0,0,1-.11-.27.36.36,0,0,1,.11-.26.4.4,0,0,1,.53,0,.38.38,0,0,1,.11.26.37.37,0,0,1-.11.27A.36.36,0,0,1,22.5,38.94Z" style="fill: #222221"/>
        <path d="M31.12,36.31a.35.35,0,0,1-.26-.1.39.39,0,0,1-.11-.27.36.36,0,0,1,.11-.26.39.39,0,0,1,.53,0,.4.4,0,0,1,.11.27.39.39,0,0,1-.11.27A.38.38,0,0,1,31.12,36.31Z" style="fill: #222221"/>
        <path d="M29.06,22.63a.36.36,0,0,1-.27-.12.38.38,0,0,1-.1-.26A.36.36,0,0,1,28.8,22a.4.4,0,0,1,.53,0,.35.35,0,0,1,.1.26.38.38,0,0,1-.1.27A.39.39,0,0,1,29.06,22.63Z" style="fill: #222221"/>
        <path d="M40.87,21.69a.36.36,0,0,1-.26-.11.35.35,0,0,1-.11-.27.35.35,0,0,1,.11-.26.39.39,0,0,1,.53,0,.36.36,0,0,1,.11.26.34.34,0,0,1-.12.27A.35.35,0,0,1,40.87,21.69Z" style="fill: #222221"/>
        <path d="M26.81,33.69a.36.36,0,0,1-.27-.12.35.35,0,0,1-.1-.26.36.36,0,0,1,.11-.26.4.4,0,0,1,.53,0,.38.38,0,0,1,.11.26.36.36,0,0,1-.12.27A.35.35,0,0,1,26.81,33.69Z" style="fill: #222221"/>
        <path d="M46.87,39.88a.36.36,0,0,1-.26-.11.39.39,0,0,1-.11-.27.36.36,0,0,1,.11-.26.39.39,0,0,1,.53,0,.36.36,0,0,1,.11.26.38.38,0,0,1-.38.38Z" style="fill: #222221"/>
        <path d="M33.75,40.44a.39.39,0,0,1-.27-.11.36.36,0,0,1,0-.53.38.38,0,0,1,.52,0,.35.35,0,0,1,.11.27.38.38,0,0,1-.11.26A.36.36,0,0,1,33.75,40.44Z" style="fill: #222221"/>
        <path d="M22.87,42.32a.4.4,0,0,1-.27-.12.38.38,0,0,1-.1-.26.37.37,0,0,1,.64-.26.35.35,0,0,1,.11.26.38.38,0,0,1-.38.38Z" style="fill: #222221"/>
        <path d="M13.31,37.63a.36.36,0,0,1-.27-.12.39.39,0,0,1-.11-.26.34.34,0,0,1,.12-.26.39.39,0,0,1,.53,0,.36.36,0,0,1,.11.26.4.4,0,0,1-.12.27A.35.35,0,0,1,13.31,37.63Z" style="fill: #222221"/>
        <path d="M15.94,40.44a.37.37,0,0,1-.27-.11.38.38,0,0,1-.11-.26.39.39,0,0,1,.11-.27.4.4,0,0,1,.53,0,.39.39,0,0,1,.11.27.38.38,0,0,1-.37.37Z" style="fill: #222221"/>
        <path d="M38.75,42.88a.38.38,0,0,1-.38-.38.36.36,0,0,1,.11-.26.39.39,0,0,1,.53,0,.36.36,0,0,1,.11.26.39.39,0,0,1-.11.27A.36.36,0,0,1,38.75,42.88Z" style="fill: #222221"/>
        <path d="M48.93,33.32a.39.39,0,0,1-.26-.12.35.35,0,0,1-.11-.26.36.36,0,0,1,.12-.27.37.37,0,0,1,.52,0,.35.35,0,0,1,.11.26.39.39,0,0,1-.11.27A.44.44,0,0,1,48.93,33.32Z" style="fill: #222221"/>
        <path d="M30.18,31.25a.38.38,0,0,1-.26-.11.36.36,0,0,1-.11-.26.38.38,0,1,1,.75,0,.36.36,0,0,1-.11.26A.37.37,0,0,1,30.18,31.25Z" style="fill: #222221"/>
        <path d="M49.31,23a.38.38,0,0,1-.38-.37.38.38,0,0,1,.12-.27.4.4,0,0,1,.53,0,.41.41,0,0,1,.11.27.36.36,0,0,1-.12.26A.36.36,0,0,1,49.31,23Z" style="fill: #222221"/>
        <path d="M35.06,21.13a.4.4,0,0,1-.27-.11.43.43,0,0,1-.1-.27.39.39,0,0,1,.11-.27.4.4,0,0,1,.53,0,.39.39,0,0,1,.11.26.4.4,0,0,1-.12.27A.36.36,0,0,1,35.06,21.13Z" style="fill: #222221"/>
        <path d="M7.5,38.75a.39.39,0,0,1-.27-.11.36.36,0,0,1-.11-.26.39.39,0,0,1,.11-.27.4.4,0,0,1,.53,0,.39.39,0,0,1,.11.27.33.33,0,0,1-.11.26A.36.36,0,0,1,7.5,38.75Z" style="fill: #222221"/>
        <path d="M24.56,21.13a.36.36,0,0,1-.27-.12.34.34,0,0,1-.1-.26.35.35,0,0,1,.1-.26.4.4,0,0,1,.54,0,.36.36,0,0,1,.11.26.4.4,0,0,1-.11.27A.39.39,0,0,1,24.56,21.13Z" style="fill: #222221"/>
        <path d="M15.18,21.13a.32.32,0,0,1-.26-.12.35.35,0,0,1-.11-.26.36.36,0,0,1,.11-.26.38.38,0,0,1,.53,0,.36.36,0,0,1,.11.26.39.39,0,0,1-.11.27A.37.37,0,0,1,15.18,21.13Z" style="fill: #222221"/>
        <path d="M29.62,42.69a.38.38,0,0,1-.26-.11.35.35,0,0,1-.11-.27.36.36,0,0,1,.11-.26.39.39,0,0,1,.53,0,.38.38,0,0,1,.11.26.34.34,0,0,1-.12.27A.35.35,0,0,1,29.62,42.69Z" style="fill: #222221"/>
        <path d="M10.69,44a.35.35,0,0,1-.27-.11.36.36,0,0,1-.11-.26.39.39,0,0,1,.11-.27.4.4,0,0,1,.53,0,.39.39,0,0,1,.11.27.36.36,0,0,1-.11.26A.38.38,0,0,1,10.69,44Z" style="fill: #222221"/>
        <path d="M43.87,18.5a.38.38,0,0,1-.26-.11.35.35,0,0,1-.11-.26.37.37,0,0,1,.11-.27.38.38,0,0,1,.64.27.32.32,0,0,1-.12.26A.35.35,0,0,1,43.87,18.5Z" style="fill: #222221"/>
        <path d="M34.5,44.19a.39.39,0,0,1-.27-.11.36.36,0,0,1-.11-.26.37.37,0,0,1,.11-.27.38.38,0,0,1,.64.27.38.38,0,0,1-.11.26A.36.36,0,0,1,34.5,44.19Z" style="fill: #222221"/>
        <path d="M44.75,25.38a.36.36,0,0,1-.27-.12.39.39,0,0,1-.11-.26.36.36,0,0,1,.11-.26.38.38,0,0,1,.53,0,.34.34,0,0,1,.12.26.4.4,0,0,1-.12.27A.36.36,0,0,1,44.75,25.38Z" style="fill: #222221"/>
        <path d="M14.62,30.32a.4.4,0,0,1-.27-.12.38.38,0,0,1-.1-.26.4.4,0,0,1,.11-.27.4.4,0,0,1,.53,0,.39.39,0,0,1,0,.54A.39.39,0,0,1,14.62,30.32Z" style="fill: #222221"/>
        <path d="M10.69,30.69a.35.35,0,0,1-.27-.11.36.36,0,0,1-.11-.26.39.39,0,0,1,.11-.27.4.4,0,0,1,.53,0,.39.39,0,0,1,.11.27.36.36,0,0,1-.11.26A.38.38,0,0,1,10.69,30.69Z" style="fill: #222221"/>
        <path d="M20.81,32.94a.39.39,0,0,1-.27-.11.39.39,0,0,1-.11-.27.34.34,0,0,1,.12-.26.4.4,0,0,1,.53,0,.38.38,0,0,1-.27.64Z" style="fill: #222221"/>
        <path d="M21.75,29.56a.39.39,0,0,1-.27-.11.35.35,0,0,1-.11-.26.4.4,0,0,1,.12-.27.37.37,0,0,1,.52,0,.35.35,0,0,1,.11.26.39.39,0,0,1-.11.27A.35.35,0,0,1,21.75,29.56Z" style="fill: #222221"/>
        <path d="M18.56,27.13a.36.36,0,0,1-.27-.12.35.35,0,0,1-.11-.26.34.34,0,0,1,.12-.26.38.38,0,0,1,.53,0,.4.4,0,0,1,.1.26.43.43,0,0,1-.1.27A.4.4,0,0,1,18.56,27.13Z" style="fill: #222221"/>
        <path d="M16.68,35.94a.36.36,0,0,1-.26-.11.37.37,0,0,1-.11-.27.38.38,0,0,1,.11-.26.39.39,0,0,1,.53,0,.38.38,0,0,1,.11.26.37.37,0,0,1-.11.27A.39.39,0,0,1,16.68,35.94Z" style="fill: #222221"/>
        <path d="M45.93,30.32a.39.39,0,0,1-.26-.12.35.35,0,0,1-.11-.26.36.36,0,0,1,.12-.27.37.37,0,0,1,.52,0,.35.35,0,0,1,.11.26.39.39,0,0,1-.11.27A.44.44,0,0,1,45.93,30.32Z" style="fill: #222221"/>
        <path d="M32.43,25.82a.38.38,0,0,1-.26-.11.37.37,0,1,1,.26.11Z" style="fill: #222221"/>
        <path d="M38.62,30.69a.38.38,0,0,1-.26-.11.37.37,0,0,1-.11-.27.36.36,0,0,1,.11-.26.39.39,0,0,1,.53,0,.38.38,0,0,1,.11.26.38.38,0,0,1-.38.38Z" style="fill: #222221"/>
        <path d="M40.31,27.32a.4.4,0,0,1-.27-.11.39.39,0,0,1-.1-.27.38.38,0,0,1,.1-.27.4.4,0,0,1,.54,0,.43.43,0,0,1,.1.27.39.39,0,0,1-.11.27A.36.36,0,0,1,40.31,27.32Z" style="fill: #222221"/>
        <path d="M36.93,36.5a.38.38,0,0,1-.26-.11.35.35,0,0,1-.11-.26.37.37,0,0,1,.11-.27.4.4,0,0,1,.53,0,.37.37,0,0,1,.11.27.35.35,0,0,1-.11.26A.39.39,0,0,1,36.93,36.5Z" style="fill: #222221"/>
        <path d="M41.81,38.57a.38.38,0,0,1-.37-.38.39.39,0,0,1,.11-.27.41.41,0,0,1,.53,0,.43.43,0,0,1,.1.27.39.39,0,0,1-.1.27A.4.4,0,0,1,41.81,38.57Z" style="fill: #222221"/>
        <path d="M42.93,34.44a.38.38,0,0,1-.26-.11.35.35,0,0,1-.11-.26.37.37,0,0,1,.11-.27.39.39,0,0,1,.53,0,.37.37,0,0,1,.11.27.35.35,0,0,1-.11.26A.39.39,0,0,1,42.93,34.44Z" style="fill: #222221"/>
        <path d="M45,43.63a.39.39,0,0,1-.27-.11.44.44,0,0,1-.11-.27.4.4,0,0,1,.12-.27.38.38,0,0,1,.52,0,.35.35,0,0,1,.11.26.39.39,0,0,1-.11.27A.36.36,0,0,1,45,43.63Z" style="fill: #222221"/>
        <path d="M49.87,43.44a.38.38,0,0,1-.26-.11.35.35,0,0,1-.11-.26.35.35,0,0,1,.11-.27.39.39,0,0,1,.53,0,.37.37,0,0,1,.11.27.32.32,0,0,1-.12.26A.35.35,0,0,1,49.87,43.44Z" style="fill: #222221"/>
        <path d="M54.56,45.32a.4.4,0,0,1-.27-.12.39.39,0,0,1-.11-.26.37.37,0,0,1,.12-.27.4.4,0,0,1,.53,0,.36.36,0,0,1,.11.26.4.4,0,0,1-.12.27A.39.39,0,0,1,54.56,45.32Z" style="fill: #222221"/>
        <path d="M55.5,20.19a.39.39,0,0,1-.27-.11.38.38,0,0,1-.11-.26.38.38,0,1,1,.75,0,.34.34,0,0,1-.11.26A.36.36,0,0,1,55.5,20.19Z" style="fill: #222221"/>
        <path d="M53.81,38.75a.37.37,0,0,1-.27-.64.4.4,0,0,1,.53,0,.35.35,0,0,1,0,.53A.36.36,0,0,1,53.81,38.75Z" style="fill: #222221"/>
        <path d="M60.37,45.69a.39.39,0,0,1-.27-.11.43.43,0,0,1-.1-.27.36.36,0,0,1,.11-.26.39.39,0,0,1,.53,0,.36.36,0,0,1,.11.26.38.38,0,0,1-.38.38Z" style="fill: #222221"/>
        <path d="M55.31,32a.39.39,0,0,1-.27-.11.36.36,0,0,1-.11-.26.36.36,0,0,1,.12-.27.38.38,0,0,1,.52,0,.36.36,0,0,1,.12.27.36.36,0,0,1-.11.26A.4.4,0,0,1,55.31,32Z" style="fill: #222221"/>
        <path d="M61.31,27.69a.35.35,0,0,1-.26-.11.35.35,0,0,1-.12-.26.39.39,0,0,1,.11-.27.4.4,0,0,1,.54,0,.39.39,0,0,1,.11.27.38.38,0,0,1-.11.26A.4.4,0,0,1,61.31,27.69Z" style="fill: #222221"/>
        <path d="M66,44.38a.4.4,0,0,1-.27-.12.35.35,0,0,1-.11-.26.4.4,0,0,1,.12-.27.37.37,0,0,1,.52,0,.35.35,0,0,1,.11.26.39.39,0,0,1-.11.27A.36.36,0,0,1,66,44.38Z" style="fill: #222221"/>
        <path d="M72.19,45.5a.35.35,0,0,1-.27-.11.36.36,0,0,1-.11-.26.37.37,0,0,1,.11-.27.4.4,0,0,1,.53,0,.39.39,0,0,1,.11.27.38.38,0,0,1-.37.37Z" style="fill: #222221"/>
        <path d="M67.69,29.75a.35.35,0,0,1-.27-.11.36.36,0,0,1-.11-.26.37.37,0,0,1,.11-.27.39.39,0,0,1,.53,0,.33.33,0,0,1,.11.26.38.38,0,0,1-.11.26A.35.35,0,0,1,67.69,29.75Z" style="fill: #222221"/>
        <path d="M72,23a.39.39,0,0,1-.27-.11.37.37,0,0,1,.53-.53.37.37,0,0,1,.11.27.38.38,0,0,1-.11.26A.36.36,0,0,1,72,23Z" style="fill: #222221"/>
        <path d="M72.19,29a.35.35,0,0,1-.27-.11.36.36,0,0,1-.11-.26.33.33,0,0,1,.12-.27.37.37,0,0,1,.63.27.38.38,0,0,1-.37.37Z" style="fill: #222221"/>
        <path d="M72.19,39.88a.36.36,0,0,1-.27-.12.35.35,0,0,1-.11-.26.36.36,0,0,1,.12-.27.38.38,0,0,1,.52,0,.35.35,0,0,1,.11.26.39.39,0,0,1-.11.27A.36.36,0,0,1,72.19,39.88Z" style="fill: #222221"/>
        <path d="M54,22.63a.36.36,0,0,1-.27-.12.36.36,0,0,1-.11-.26.4.4,0,0,1,.12-.27.37.37,0,0,1,.52,0,.35.35,0,0,1,.11.26.4.4,0,0,1-.11.27A.36.36,0,0,1,54,22.63Z" style="fill: #222221"/>
        <path d="M52.87,13.44a.35.35,0,0,1-.26-.11.36.36,0,0,1-.11-.26.37.37,0,0,1,.11-.27.38.38,0,0,1,.64.27.38.38,0,0,1-.11.26A.39.39,0,0,1,52.87,13.44Z" style="fill: #222221"/>
        <path d="M50.81,34.82a.36.36,0,0,1-.26-.11.35.35,0,0,1-.11-.27.39.39,0,0,1,.1-.27.4.4,0,0,1,.54,0,.35.35,0,0,1,.1.26.38.38,0,0,1-.1.27A.4.4,0,0,1,50.81,34.82Z" style="fill: #222221"/>
        <path d="M58.75,30.88a.36.36,0,0,1-.27-.12.39.39,0,0,1-.11-.26.36.36,0,0,1,.12-.27.39.39,0,0,1,.64.27.4.4,0,0,1-.12.27A.36.36,0,0,1,58.75,30.88Z" style="fill: #222221"/>
        <path d="M51.37,26a.39.39,0,0,1-.27-.11.38.38,0,0,1-.1-.26.39.39,0,0,1,.11-.27.4.4,0,0,1,.53,0,.39.39,0,0,1,.11.27.32.32,0,0,1-.12.26A.36.36,0,0,1,51.37,26Z" style="fill: #222221"/>
        <path d="M56.25,8.57A.4.4,0,0,1,56,8.45a.39.39,0,0,1-.11-.26A.36.36,0,0,1,56,7.92a.39.39,0,0,1,.53,0,.38.38,0,0,1,.1.26.38.38,0,0,1-.37.38Z" style="fill: #222221"/>
        <path d="M57.56,6.13A.39.39,0,0,1,57.29,6a.4.4,0,0,1-.11-.27.36.36,0,0,1,.11-.26.39.39,0,0,1,.54,0,.35.35,0,0,1,.1.26.38.38,0,0,1-.1.27A.39.39,0,0,1,57.56,6.13Z" style="fill: #222221"/>
        <path d="M64.5,25.63a.38.38,0,0,1-.27-.12.34.34,0,0,1-.1-.26.35.35,0,0,1,.1-.26.39.39,0,0,1,.53,0,.36.36,0,0,1,.11.27.39.39,0,0,1-.11.27A.36.36,0,0,1,64.5,25.63Z" style="fill: #222221"/>
        <path d="M69.56,10.63a.4.4,0,0,1-.27-.12.39.39,0,0,1-.11-.26.36.36,0,0,1,.11-.26.39.39,0,0,1,.54,0,.35.35,0,0,1,.1.26.37.37,0,0,1-.11.27A.36.36,0,0,1,69.56,10.63Z" style="fill: #222221"/>
        <path d="M66.93,2a.36.36,0,0,1-.26-.11.35.35,0,0,1-.11-.26.39.39,0,0,1,.11-.27.4.4,0,0,1,.53,0,.39.39,0,0,1,.11.27.35.35,0,0,1-.11.26A.39.39,0,0,1,66.93,2Z" style="fill: #222221"/>
        <path d="M53.25,4.07A.39.39,0,0,1,53,4a.4.4,0,0,1-.11-.27A.36.36,0,0,1,53,3.43a.37.37,0,0,1,.64.26.33.33,0,0,1-.11.26A.34.34,0,0,1,53.25,4.07Z" style="fill: #222221"/>
        <path d="M64.31,6.31A.39.39,0,0,1,64,6.2a.35.35,0,0,1-.11-.26A.4.4,0,0,1,64,5.67a.4.4,0,0,1,.53,0,.36.36,0,0,1,.11.27.43.43,0,0,1-.1.27A.38.38,0,0,1,64.31,6.31Z" style="fill: #222221"/>
        <path d="M68.25,19.81A.39.39,0,0,1,68,19.7a.36.36,0,0,1-.11-.26.36.36,0,0,1,.12-.27.37.37,0,0,1,.52,0,.35.35,0,0,1,.11.26.39.39,0,0,1-.11.27A.38.38,0,0,1,68.25,19.81Z" style="fill: #222221"/>
        <path d="M71.06,17.19a.39.39,0,0,1-.27-.11.42.42,0,0,1-.1-.26.37.37,0,0,1,.11-.27.4.4,0,0,1,.53,0,.41.41,0,0,1,.11.27.38.38,0,0,1-.11.26A.39.39,0,0,1,71.06,17.19Z" style="fill: #222221"/>
        <path d="M61.87,2.94a.39.39,0,0,1-.27-.11.42.42,0,0,1-.1-.26.39.39,0,0,1,.11-.27.4.4,0,0,1,.53,0,.39.39,0,0,1,.11.27.38.38,0,0,1-.11.26A.39.39,0,0,1,61.87,2.94Z" style="fill: #222221"/>
        <path d="M69.37,25.63a.36.36,0,0,1-.27-.12.38.38,0,0,1-.1-.26.36.36,0,0,1,.11-.26.39.39,0,0,1,.53,0,.36.36,0,0,1,.11.26.36.36,0,0,1-.12.27A.35.35,0,0,1,69.37,25.63Z" style="fill: #222221"/>
        <path d="M51.75,8.57a.4.4,0,0,1-.27-.12.35.35,0,0,1-.11-.26.4.4,0,0,1,.11-.27.38.38,0,0,1,.53,0,.36.36,0,0,1,.11.26.39.39,0,0,1-.11.27A.41.41,0,0,1,51.75,8.57Z" style="fill: #222221"/>
        <path d="M51.75,17.94a.39.39,0,0,1-.27-.11.35.35,0,0,1-.11-.26.34.34,0,0,1,.12-.27.37.37,0,0,1,.52,0,.37.37,0,0,1,.11.27.35.35,0,0,1-.11.26A.36.36,0,0,1,51.75,17.94Z" style="fill: #222221"/>
        <path d="M65.62,41.94a.36.36,0,0,1-.26-.11.38.38,0,0,1-.11-.26.37.37,0,0,1,.11-.27.39.39,0,0,1,.53,0,.35.35,0,0,1,.11.27.38.38,0,0,1-.11.26A.39.39,0,0,1,65.62,41.94Z" style="fill: #222221"/>
        <path d="M63.37,34.07A.4.4,0,0,1,63.1,34a.38.38,0,0,1-.1-.26.36.36,0,0,1,.11-.26.39.39,0,0,1,.53,0,.4.4,0,0,1,.11.27.36.36,0,0,1-.12.27A.39.39,0,0,1,63.37,34.07Z" style="fill: #222221"/>
        <path d="M59.81,40.07a.4.4,0,0,1-.27-.12.39.39,0,0,1-.11-.26.4.4,0,0,1,.12-.27.38.38,0,0,1,.64.27.4.4,0,0,1-.12.27A.36.36,0,0,1,59.81,40.07Z" style="fill: #222221"/>
        <path d="M68.44,35.75a.35.35,0,0,1-.27-.11.36.36,0,0,1-.11-.26.37.37,0,0,1,.11-.27.4.4,0,0,1,.53,0,.39.39,0,0,1,.11.27.38.38,0,0,1-.37.37Z" style="fill: #222221"/>
        <path d="M60.94,18.5a.35.35,0,0,1-.27-.11.36.36,0,0,1-.11-.26.38.38,0,1,1,.75,0,.38.38,0,0,1-.37.37Z" style="fill: #222221"/>
        <path d="M61.31,22.44a.36.36,0,0,1-.27-.12.34.34,0,0,1-.11-.25.36.36,0,0,1,.12-.27.4.4,0,0,1,.53,0,.39.39,0,0,1,.11.27.36.36,0,0,1-.12.26A.35.35,0,0,1,61.31,22.44Z" style="fill: #222221"/>
        <path d="M63.56,12.32a.44.44,0,0,1-.27-.11.39.39,0,0,1-.11-.27.36.36,0,0,1,.12-.27.39.39,0,0,1,.53,0,.35.35,0,0,1,.11.26.39.39,0,0,1-.11.27A.4.4,0,0,1,63.56,12.32Z" style="fill: #222221"/>
        <path d="M60.19,11.38a.33.33,0,0,1-.27-.12.35.35,0,0,1-.11-.26.36.36,0,0,1,.11-.26.38.38,0,0,1,.53,0,.36.36,0,0,1,.11.26.39.39,0,0,1-.11.27A.36.36,0,0,1,60.19,11.38Z" style="fill: #222221"/>
        <path d="M57.75,14.57a.4.4,0,0,1-.27-.12.35.35,0,0,1-.11-.26.4.4,0,0,1,.12-.27.38.38,0,0,1,.52,0,.35.35,0,0,1,.11.26.36.36,0,0,1-.11.26A.37.37,0,0,1,57.75,14.57Z" style="fill: #222221"/>
        <path d="M66.56,16.44a.39.39,0,0,1-.27-.11.42.42,0,0,1-.1-.26.35.35,0,0,1,.11-.27.38.38,0,0,1,.64.27.38.38,0,0,1-.11.26A.4.4,0,0,1,66.56,16.44Z" style="fill: #222221"/>
        <path d="M56.43.69a.35.35,0,0,1-.26-.11.39.39,0,0,1-.11-.27.36.36,0,0,1,.11-.26.4.4,0,0,1,.53,0,.36.36,0,0,1,.11.26.39.39,0,0,1-.11.27A.37.37,0,0,1,56.43.69Z" style="fill: #222221"/>
        <path d="M45.75,47.19a.39.39,0,0,1-.27-.11.36.36,0,0,1-.11-.26.36.36,0,0,1,.12-.27.37.37,0,0,1,.52.53A.4.4,0,0,1,45.75,47.19Z" style="fill: #222221"/>
        <path d="M41.25,46.44a.4.4,0,0,1-.27-.11.39.39,0,0,1-.11-.27A.38.38,0,0,1,41,45.8a.39.39,0,0,1,.54,0,.42.42,0,0,1,.1.26.39.39,0,0,1-.11.27A.35.35,0,0,1,41.25,46.44Z" style="fill: #222221"/>
        <path d="M9.75,12.32a.4.4,0,0,1-.27-.12.36.36,0,0,1-.11-.26.4.4,0,0,1,.11-.27.4.4,0,0,1,.53,0,.42.42,0,0,1,.12.27.37.37,0,0,1-.12.26A.34.34,0,0,1,9.75,12.32Z" style="fill: #222221"/>
        <path d="M18.19,13.63a.34.34,0,0,1-.27-.12.35.35,0,0,1-.11-.26.36.36,0,0,1,.11-.26.39.39,0,0,1,.53,0,.36.36,0,0,1,.11.26.39.39,0,0,1-.11.27A.38.38,0,0,1,18.19,13.63Z" style="fill: #222221"/>
        <path d="M3.94,11.75a.35.35,0,0,1-.27-.11.36.36,0,0,1-.11-.26.39.39,0,0,1,.11-.27.4.4,0,0,1,.53,0,.39.39,0,0,1,.11.27.36.36,0,0,1-.11.26A.38.38,0,0,1,3.94,11.75Z" style="fill: #222221"/>
        <path d="M15.56,17.38a.36.36,0,0,1-.27-.12.35.35,0,0,1-.11-.26.38.38,0,0,1,.65-.26.38.38,0,0,1-.27.64Z" style="fill: #222221"/>
        <path d="M1.31,16.44A.39.39,0,0,1,1,16.33a.36.36,0,0,1,0-.53.38.38,0,0,1,.53,0,.35.35,0,0,1,.11.26.36.36,0,0,1-.11.26A.39.39,0,0,1,1.31,16.44Z" style="fill: #222221"/>
        <path d="M9.19,17.94a.37.37,0,0,1-.27-.11.38.38,0,0,1-.11-.26.39.39,0,0,1,.11-.27.4.4,0,0,1,.53,0,.39.39,0,0,1,.11.27.38.38,0,0,1-.37.37Z" style="fill: #222221"/>
        <path d="M24.37,10.82a.41.41,0,0,1-.26-.11.4.4,0,0,1-.11-.27.38.38,0,1,1,.75,0,.36.36,0,0,1-.11.26A.4.4,0,0,1,24.37,10.82Z" style="fill: #222221"/>
        <path d="M30.18,18.32a.38.38,0,0,1-.26-.11.4.4,0,0,1-.11-.27.39.39,0,0,1,.11-.27.4.4,0,0,1,.53,0,.39.39,0,0,1,.11.27.36.36,0,0,1-.11.26A.4.4,0,0,1,30.18,18.32Z" style="fill: #222221"/>
        <path d="M40.87,13.63a.36.36,0,0,1-.26-.11.39.39,0,0,1,0-.54.4.4,0,0,1,.53,0,.35.35,0,0,1,.11.26.36.36,0,0,1-.12.27A.35.35,0,0,1,40.87,13.63Z" style="fill: #222221"/>
        <path d="M24.25,14.88a.36.36,0,0,1-.27-.12.34.34,0,0,1-.1-.26.37.37,0,0,1,.63-.26.35.35,0,0,1,.11.26.39.39,0,0,1-.11.27A.36.36,0,0,1,24.25,14.88Z" style="fill: #222221"/>
        <path d="M20.25,16.63a.38.38,0,0,1-.38-.38A.4.4,0,0,1,20,16a.38.38,0,0,1,.52,0,.35.35,0,0,1,.11.26.39.39,0,0,1-.11.27A.36.36,0,0,1,20.25,16.63Z" style="fill: #222221"/>
        <path d="M33.37,16.25a.38.38,0,0,1-.37-.37.38.38,0,1,1,.75,0,.38.38,0,0,1-.11.26A.39.39,0,0,1,33.37,16.25Z" style="fill: #222221"/>
        <path d="M37.12,10.44a.38.38,0,0,1-.26-.11.36.36,0,0,1-.11-.26.35.35,0,0,1,.11-.27.39.39,0,0,1,.53,0,.37.37,0,0,1,.11.27.38.38,0,0,1-.11.26A.4.4,0,0,1,37.12,10.44Z" style="fill: #222221"/>
        <path d="M38.25,16.25a.39.39,0,0,1-.27-.11.36.36,0,0,1-.11-.26.38.38,0,1,1,.75,0,.38.38,0,0,1-.37.37Z" style="fill: #222221"/>
        <path d="M43.5,13.07a.38.38,0,1,1,.37-.38.36.36,0,0,1-.11.26A.34.34,0,0,1,43.5,13.07Z" style="fill: #222221"/>
        <path d="M30.18,13.07a.38.38,0,0,1-.26-.11.38.38,0,1,1,.53,0A.44.44,0,0,1,30.18,13.07Z" style="fill: #222221"/>
        <path d="M14.81,44.57a.4.4,0,0,1-.27-.12.36.36,0,0,1-.11-.26.37.37,0,0,1,.12-.27.39.39,0,0,1,.53,0,.36.36,0,0,1,.11.26.38.38,0,0,1-.38.38Z" style="fill: #222221"/>
        <path d="M3.75.13A.36.36,0,0,1,3.48,0a.35.35,0,0,1-.11-.26.36.36,0,0,1,.11-.26A.39.39,0,0,1,4-.51a.36.36,0,0,1,.11.26A.39.39,0,0,1,4,0,.36.36,0,0,1,3.75.13Z" style="fill: #222221"/>
        <path d="M18.56.13A.36.36,0,0,1,18.29,0a.36.36,0,0,1-.11-.26.34.34,0,0,1,.12-.26.38.38,0,0,1,.53,0,.4.4,0,0,1,.1.26.39.39,0,0,1-.1.27A.4.4,0,0,1,18.56.13Z" style="fill: #222221"/>
        <path d="M40.31.31A.35.35,0,0,1,40,.2a.34.34,0,0,1-.1-.26A.35.35,0,0,1,40-.32a.39.39,0,0,1,.54,0,.38.38,0,0,1,.1.27.39.39,0,0,1-.11.27A.34.34,0,0,1,40.31.31Z" style="fill: #222221"/>
        <path d="M56.43,72.69a.38.38,0,0,1-.37-.37.37.37,0,0,1,.11-.27.4.4,0,0,1,.53,0,.37.37,0,0,1,.11.27.35.35,0,0,1-.11.26A.39.39,0,0,1,56.43,72.69Z" style="fill: #222221"/>
      </g>
      <g>
        <path d="M.19,45.5a.35.35,0,0,1-.27-.11.36.36,0,0,1-.11-.26.37.37,0,0,1,.11-.27.4.4,0,0,1,.53,0,.39.39,0,0,1,.11.27.36.36,0,0,1-.11.26A.36.36,0,0,1,.19,45.5Z" style="fill: #222221"/>
        <path d="M0,23a.39.39,0,0,1-.27-.11.38.38,0,0,1-.11-.26.38.38,0,0,1,.12-.27.38.38,0,0,1,.52,0,.37.37,0,0,1,.11.27.38.38,0,0,1-.11.26A.36.36,0,0,1,0,23Z" style="fill: #222221"/>
        <path d="M.19,29a.35.35,0,0,1-.27-.11.36.36,0,0,1-.11-.26.33.33,0,0,1,.12-.27.38.38,0,0,1,.52,0,.39.39,0,0,1,.11.27.36.36,0,0,1-.11.26A.36.36,0,0,1,.19,29Z" style="fill: #222221"/>
        <path d="M.19,39.88a.36.36,0,0,1-.27-.12.35.35,0,0,1-.11-.26.36.36,0,0,1,.12-.27.38.38,0,0,1,.52,0,.35.35,0,0,1,.11.26.39.39,0,0,1-.11.27A.36.36,0,0,1,.19,39.88Z" style="fill: #222221"/>
      </g>
      <g>
        <path d="M3.75.13A.36.36,0,0,1,3.48,0a.39.39,0,0,1-.11-.26.36.36,0,0,1,.11-.26A.4.4,0,0,1,4-.51a.33.33,0,0,1,.11.26A.39.39,0,0,1,4,0,.36.36,0,0,1,3.75.13Z" style="fill: #222221"/>
        <path d="M18.56.13A.36.36,0,0,1,18.29,0a.39.39,0,0,1-.11-.26.34.34,0,0,1,.12-.26.38.38,0,0,1,.53,0,.4.4,0,0,1,.1.26.39.39,0,0,1-.11.27A.36.36,0,0,1,18.56.13Z" style="fill: #222221"/>
        <path d="M40.31.32A.4.4,0,0,1,40,.2a.38.38,0,0,1-.1-.26.39.39,0,0,1,.11-.27.39.39,0,0,1,.53,0,.38.38,0,0,1,.1.26.39.39,0,0,1-.11.27A.39.39,0,0,1,40.31.32Z" style="fill: #222221"/>
        <path d="M56.43.69a.35.35,0,0,1-.26-.11.35.35,0,0,1-.11-.26.37.37,0,0,1,.11-.27.4.4,0,0,1,.53,0,.37.37,0,0,1,.11.27.35.35,0,0,1-.11.26A.39.39,0,0,1,56.43.69Z" style="fill: #222221"/>
      </g>
    </pattern>
  </defs>
  <g id="Intro">
    <g>
      <circle cx="54.54" cy="28.68" r="22.49" style="fill: #f7524a;stroke: #000;stroke-linecap: round;stroke-linejoin: round;stroke-width: 4px"/>
      <circle cx="54.54" cy="28.68" r="22.49" style="stroke: #000;stroke-linecap: round;stroke-linejoin: round;stroke-width: 4px;fill: url(#Linee_diagonali)"/>
      <g>
        <circle cx="25.2" cy="80.4" r="22.49" style="fill: #fc0;stroke: #000;stroke-linecap: round;stroke-linejoin: round;stroke-width: 4px"/>
        <circle cx="83.88" cy="80.4" r="22.49" style="fill: #63f;stroke: #000;stroke-linecap: round;stroke-linejoin: round;stroke-width: 4px"/>
        <circle cx="83.88" cy="80.4" r="22.49" style="stroke: #000;stroke-linecap: round;stroke-linejoin: round;stroke-width: 4px;fill: url(#Puntini_fine)"/>
      </g>
    </g>
  </g>
</svg>
