<svg xmlns="http://www.w3.org/2000/svg" xmlns:xlink="http://www.w3.org/1999/xlink" viewBox="0 0 105.81 101.68"><defs><style>.cls-1,.cls-4,.cls-5,.cls-6,.cls-7{fill:none;}.cls-2{clip-path:url(#clip-path);}.cls-3{fill:#fff;}.cls-4,.cls-5,.cls-6,.cls-7{stroke:#000;stroke-linejoin:round;}.cls-4{stroke-width:4px;}.cls-5{stroke-width:2px;}.cls-6,.cls-7{stroke-linecap:round;}.cls-7{stroke-dasharray:4.18 4.18;}</style><clipPath id="clip-path" transform="translate(-0.4 -1.52)"><rect class="cls-1" width="106.74" height="105.74"/></clipPath></defs><title>Asset 3</title><g id="Layer_2" data-name="Layer 2"><g id="Layer_1-2" data-name="Layer 1"><g class="cls-2"><polygon class="cls-3" points="2 22.73 31.24 38.67 36.97 68.53 58.01 54.76 79.36 68.53 103.81 2 2 22.73"/><g class="cls-2"><polygon class="cls-4" points="2 22.73 31.24 38.67 36.97 68.53 58.01 54.76 79.36 68.53 103.81 2 2 22.73"/><polyline class="cls-5" points="36.97 68.53 44.39 45.94 103.81 2 31.24 38.67"/></g><line class="cls-4" x1="44.39" y1="45.94" x2="58.01" y2="54.76"/><g class="cls-2"><path class="cls-6" d="M39.16,47.93s-.58.46-1.51,1.31" transform="translate(-0.4 -1.52)"/><path class="cls-7" d="M34.69,52.18c-7.92,8.54-21.26,28.63,4.66,48.15" transform="translate(-0.4 -1.52)"/><path class="cls-6" d="M41,101.56c.54.38,1.09.76,1.65,1.13" transform="translate(-0.4 -1.52)"/></g></g></g></g></svg>