<svg xmlns="http://www.w3.org/2000/svg" xmlns:xlink="http://www.w3.org/1999/xlink" viewBox="0 0 86.61 100.15"><defs><style>.cls-1,.cls-4,.cls-5,.cls-6{fill:none;}.cls-2{clip-path:url(#clip-path);}.cls-3{fill:#fff;}.cls-4,.cls-5,.cls-6{stroke:#000;}.cls-4{stroke-miterlimit:10;}.cls-4,.cls-5{stroke-width:4px;}.cls-5,.cls-6{stroke-linejoin:round;}.cls-6{stroke-width:2px;}</style><clipPath id="clip-path" transform="translate(-10.07 -2.79)"><rect class="cls-1" width="106.74" height="105.74"/></clipPath></defs><title>Asset 1</title><g id="Layer_2" data-name="Layer 2"><g id="Layer_1-2" data-name="Layer 1"><g class="cls-2"><g class="cls-2"><path class="cls-3" d="M15.47,4.79H91.28a3.41,3.41,0,0,1,3.4,3.41v.17a3.41,3.41,0,0,1-3.4,3.4H15.47a3.41,3.41,0,0,1-3.4-3.4V8.2a3.41,3.41,0,0,1,3.4-3.41" transform="translate(-10.07 -2.79)"/><rect class="cls-4" x="2" y="2" width="82.61" height="6.98" rx="3.4"/><polygon class="cls-3" points="43.3 8.97 5.32 8.97 15.98 98.16 43.3 98.16 70.63 98.16 81.29 8.97 43.3 8.97"/><polygon class="cls-5" points="43.3 8.97 5.32 8.97 15.98 98.16 43.3 98.16 70.63 98.16 81.29 8.97 43.3 8.97"/><line class="cls-6" x1="79.16" y1="27.57" x2="7.46" y2="27.57"/><line class="cls-6" x1="78.04" y1="36.23" x2="8.57" y2="36.23"/><line class="cls-6" x1="77" y1="44.89" x2="9.61" y2="44.89"/><line class="cls-6" x1="72.55" y1="82.09" x2="14.06" y2="82.09"/><line class="cls-6" x1="73.59" y1="73.43" x2="13.02" y2="73.43"/></g></g></g></g></svg>