<svg xmlns="http://www.w3.org/2000/svg" xmlns:xlink="http://www.w3.org/1999/xlink" viewBox="0 0 134.92 907.39">
  <defs>
    <clipPath id="clip-path">
      <rect x="18.29" y="31.51" width="98.34" height="110.01" rx="12" style="fill: none"/>
    </clipPath>
    <clipPath id="clip-path-2">
      <rect x="18.29" y="553.24" width="98.34" height="110.01" rx="12" style="fill: none"/>
    </clipPath>
  </defs>
  <g id="PULSANTIERA_DX" data-name="PULSANTIERA DX">
    <g>
      <rect width="134.92" height="907.39" style="fill: #f7524a"/>
      <rect x="-381.24" y="391.24" width="897.39" height="124.92" transform="translate(521.16 386.24) rotate(90)" style="fill: none;stroke: #000;stroke-miterlimit: 10;stroke-width: 2px"/>
      <g>
        <path d="M29.55,220.17a40.63,40.63,0,0,1,81.26,0Z" style="fill: #fff;stroke: #272525;stroke-miterlimit: 10;stroke-width: 4px"/>
        <path d="M49.87,220.17a20.31,20.31,0,1,1,40.62,0Z" style="fill: #f7524a;stroke: #272525;stroke-miterlimit: 10;stroke-width: 2px"/>
        <path d="M38.71,220.17a31.47,31.47,0,0,1,62.94,0" style="fill: none;stroke: #272525;stroke-miterlimit: 10;stroke-width: 2px"/>
        <path d="M63.94,216.26c-1.82-3.15-3.5-17.17-4-21.52a.57.57,0,0,1,.91-.53c3.52,2.6,14.81,11.07,16.63,14.22a7.82,7.82,0,0,1-13.55,7.83Z" style="fill: #fc0;stroke: #272525;stroke-miterlimit: 10;stroke-width: 2px"/>
      </g>
      <rect x="7.45" y="32.35" width="120.01" height="108.34" rx="17" transform="translate(-19.06 153.98) rotate(-90)" style="fill: none;stroke: #000;stroke-miterlimit: 10;stroke-width: 2px"/>
      <rect x="18.29" y="31.51" width="98.34" height="110.01" rx="12" style="fill: #63f;stroke: #272525;stroke-miterlimit: 10;stroke-width: 2px"/>
      <g style="clip-path: url(#clip-path)">
        <line x1="18.29" y1="146.04" x2="122.04" y2="42.29" style="fill: none;stroke: #fff;stroke-miterlimit: 10;stroke-width: 2px"/>
        <line x1="27.9" y1="155.65" x2="131.65" y2="51.9" style="fill: none;stroke: #fff;stroke-miterlimit: 10;stroke-width: 8px"/>
      </g>
      <g>
        <rect x="7.45" y="554.07" width="120.01" height="108.34" rx="17" transform="translate(-540.79 675.71) rotate(-90)" style="fill: none;stroke: #000;stroke-miterlimit: 10;stroke-width: 2px"/>
        <rect x="18.29" y="553.24" width="98.34" height="110.01" rx="12"/>
        <g style="clip-path: url(#clip-path-2)">
          <line x1="18.29" y1="667.77" x2="122.04" y2="564.02" style="fill: none;stroke: #fff;stroke-miterlimit: 10;stroke-width: 2px"/>
          <line x1="27.9" y1="677.38" x2="131.65" y2="573.63" style="fill: none;stroke: #fff;stroke-miterlimit: 10;stroke-width: 8px"/>
        </g>
      </g>
      <line x1="98.93" y1="875.74" x2="35.99" y2="875.74" style="fill: none;stroke: #000;stroke-linecap: round;stroke-miterlimit: 10;stroke-width: 2px"/>
      <line x1="98.93" y1="867.63" x2="35.99" y2="867.63" style="fill: none;stroke: #000;stroke-linecap: round;stroke-miterlimit: 10;stroke-width: 2px"/>
      <line x1="98.93" y1="859.52" x2="35.99" y2="859.52" style="fill: none;stroke: #000;stroke-linecap: round;stroke-miterlimit: 10;stroke-width: 2px"/>
      <rect x="34.83" y="700.26" width="6.43" height="101.29" rx="3.21" style="fill: #fff;stroke: #000;stroke-miterlimit: 10;stroke-width: 2px"/>
      <rect x="64.25" y="700.26" width="6.43" height="101.29" rx="3.21" style="fill: #fff;stroke: #000;stroke-miterlimit: 10;stroke-width: 2px"/>
      <rect x="93.66" y="700.26" width="6.43" height="101.29" rx="3.21" style="fill: #fff;stroke: #000;stroke-miterlimit: 10;stroke-width: 2px"/>
      <circle cx="38.05" cy="733.56" r="7.35" style="fill: #fc0;stroke: #000;stroke-miterlimit: 10;stroke-width: 4px"/>
      <circle cx="67.46" cy="766.53" r="7.35" style="fill: #63f;stroke: #000;stroke-miterlimit: 10;stroke-width: 4px"/>
      <circle cx="96.87" cy="740.91" r="7.35" style="fill: #f7524a;stroke: #000;stroke-miterlimit: 10;stroke-width: 4px"/>
      <g>
        <g>
          <rect x="99.25" y="498.09" width="15.89" height="15.54" style="fill: #fc0"/>
          <rect x="35.68" y="435.93" width="15.89" height="15.54" style="fill: #fc0"/>
          <rect x="67.46" y="451.47" width="15.9" height="15.54" style="fill: #fc0"/>
          <rect x="51.57" y="467.01" width="15.89" height="15.54" style="fill: #fc0"/>
          <rect x="35.68" y="498.09" width="15.89" height="15.54" style="fill: #fc0"/>
          <rect x="67.46" y="513.63" width="15.9" height="15.54" style="fill: #fc0"/>
          <rect x="83.36" y="513.63" width="15.89" height="15.54" style="fill: #63f"/>
          <rect x="83.36" y="482.55" width="15.89" height="15.54" style="fill: #63f"/>
          <rect x="99.25" y="467.01" width="15.89" height="15.54" style="fill: #63f"/>
          <rect x="67.46" y="435.93" width="15.9" height="15.54" style="fill: #63f"/>
          <rect x="35.68" y="451.47" width="15.89" height="15.54" style="fill: #63f"/>
          <rect x="19.79" y="482.55" width="15.89" height="15.54" style="fill: #63f"/>
          <rect x="51.57" y="498.09" width="15.89" height="15.54" style="fill: #63f"/>
          <rect x="99.25" y="513.63" width="15.89" height="15.54" style="fill: #fff"/>
          <rect x="35.68" y="513.63" width="15.89" height="15.54" style="fill: #fff"/>
          <rect x="83.36" y="451.47" width="15.89" height="15.54" style="fill: #fff"/>
          <rect x="67.46" y="482.55" width="15.9" height="15.54" style="fill: #fff"/>
          <rect x="35.68" y="467.01" width="15.89" height="15.54" style="fill: #fff"/>
          <rect x="19.79" y="435.93" width="15.89" height="15.54" style="fill: #fff"/>
        </g>
        <g>
          <polygon points="19.79 451.47 19.79 435.93 35.68 435.93 51.57 435.93 67.46 435.93 83.36 435.93 99.25 435.93 115.14 435.93 115.14 451.47 115.14 467.01 115.14 482.55 115.14 498.09 115.14 513.63 115.14 529.17 99.25 529.17 83.36 529.17 67.46 529.17 51.57 529.17 35.68 529.17 19.79 529.17 19.79 513.63 19.79 498.09 19.79 482.55 19.79 467.01 19.79 451.47" style="fill: none;stroke: #000;stroke-miterlimit: 10;stroke-width: 2px"/>
          <polyline points="19.79 513.63 35.68 513.63 51.57 513.63 67.46 513.63 83.36 513.63 99.25 513.63 115.14 513.63" style="fill: none;stroke: #000;stroke-miterlimit: 10;stroke-width: 2px"/>
          <polyline points="19.79 498.09 35.68 498.09 51.57 498.09 67.46 498.09 83.36 498.09 99.25 498.09 115.14 498.09" style="fill: none;stroke: #000;stroke-miterlimit: 10;stroke-width: 2px"/>
          <polyline points="19.79 482.55 35.68 482.55 51.57 482.55 67.46 482.55 83.36 482.55 99.25 482.55 115.14 482.55" style="fill: none;stroke: #000;stroke-miterlimit: 10;stroke-width: 2px"/>
          <polyline points="19.79 467.01 35.68 467.01 51.57 467.01 67.46 467.01 83.36 467.01 99.25 467.01 115.14 467.01" style="fill: none;stroke: #000;stroke-miterlimit: 10;stroke-width: 2px"/>
          <polyline points="19.79 451.47 35.68 451.47 51.57 451.47 67.46 451.47 83.36 451.47 99.25 451.47 115.14 451.47" style="fill: none;stroke: #000;stroke-miterlimit: 10;stroke-width: 2px"/>
          <polyline points="99.25 435.93 99.25 451.47 99.25 467.01 99.25 482.55 99.25 498.09 99.25 513.63 99.25 529.17" style="fill: none;stroke: #000;stroke-miterlimit: 10;stroke-width: 2px"/>
          <polyline points="83.36 435.93 83.36 451.47 83.36 467.01 83.36 482.55 83.36 498.09 83.36 513.63 83.36 529.17" style="fill: none;stroke: #000;stroke-miterlimit: 10;stroke-width: 2px"/>
          <polyline points="67.46 435.93 67.46 451.47 67.46 467.01 67.46 482.55 67.46 498.09 67.46 513.63 67.46 529.17" style="fill: none;stroke: #000;stroke-miterlimit: 10;stroke-width: 2px"/>
          <polyline points="51.57 435.93 51.57 451.47 51.57 467.01 51.57 482.55 51.57 498.09 51.57 513.63 51.57 529.17" style="fill: none;stroke: #000;stroke-miterlimit: 10;stroke-width: 2px"/>
          <polyline points="35.68 435.93 35.68 451.47 35.68 467.01 35.68 482.55 35.68 498.09 35.68 513.63 35.68 529.17" style="fill: none;stroke: #000;stroke-miterlimit: 10;stroke-width: 2px"/>
        </g>
      </g>
      <rect x="19.78" y="435.93" width="95.35" height="93.25" style="fill: none;stroke: #000;stroke-miterlimit: 10;stroke-width: 4px"/>
      <path d="M56.36,284.32c0,10.53-12,10.53-12,21.05s12,10.53,12,21.05-12,10.53-12,21.05,12,10.53,12,21-12,10.53-12,21.06" style="fill: none;stroke: #272525;stroke-miterlimit: 10;stroke-width: 2px"/>
      <path d="M90.55,284.32c0,10.53-12,10.53-12,21.05s12,10.53,12,21.05-12,10.53-12,21.05,12,10.53,12,21-12,10.53-12,21.06" style="fill: none;stroke: #272525;stroke-miterlimit: 10;stroke-width: 2px"/>
      <circle cx="56.16" cy="284.32" r="8.73" style="fill: #fc0;stroke: #272525;stroke-miterlimit: 10;stroke-width: 2px"/>
      <circle cx="79.54" cy="347.68" r="8.73" style="fill: #fff;stroke: #272525;stroke-miterlimit: 10;stroke-width: 2px"/>
    </g>
  </g>
</svg>
