<svg xmlns="http://www.w3.org/2000/svg" xmlns:xlink="http://www.w3.org/1999/xlink" viewBox="0 0 112.03 122.07"><defs><style>.cls-1,.cls-3,.cls-4{fill:none;}.cls-2{clip-path:url(#clip-path);}.cls-3,.cls-4{stroke:#000;stroke-linecap:round;stroke-linejoin:round;}.cls-3{stroke-width:4px;}.cls-4{stroke-width:2px;}</style><clipPath id="clip-path" transform="translate(-5.88 -0.86)"><rect class="cls-1" width="124.79" height="124.79"/></clipPath></defs><title>Asset 9</title><g id="Layer_2" data-name="Layer 2"><g id="Layer_1-2" data-name="Layer 1"><g class="cls-2"><g class="cls-2"><path d="M8.46,82a13.76,13.76,0,1,1,17.15,9.21A13.77,13.77,0,0,1,8.46,82" transform="translate(-5.88 -0.86)"/><path class="cls-3" d="M8.46,82a13.76,13.76,0,1,1,17.15,9.21A13.77,13.77,0,0,1,8.46,82Z" transform="translate(-5.88 -0.86)"/><path d="M50.61,69.28A13.76,13.76,0,1,1,67.75,78.5a13.75,13.75,0,0,1-17.14-9.22" transform="translate(-5.88 -0.86)"/><path class="cls-3" d="M50.61,69.28A13.76,13.76,0,1,1,67.75,78.5,13.75,13.75,0,0,1,50.61,69.28Z" transform="translate(-5.88 -0.86)"/><polyline class="cls-3" points="28.95 73.18 11.34 14.68 53.49 2 71.09 60.49"/><line class="cls-4" x1="13.7" y1="22.53" x2="55.85" y2="9.85"/><path d="M115.66,113.89a13.76,13.76,0,1,0-18.25,6.79,13.77,13.77,0,0,0,18.25-6.79" transform="translate(-5.88 -0.86)"/><path class="cls-4" d="M115.66,113.89a13.76,13.76,0,1,0-18.25,6.79A13.77,13.77,0,0,0,115.66,113.89Z" transform="translate(-5.88 -0.86)"/><path class="cls-4" d="M90.36,56.45a19.38,19.38,0,0,1,25.69-9.56L90.63,102.43" transform="translate(-5.88 -0.86)"/></g></g></g></g></svg>