<svg xmlns="http://www.w3.org/2000/svg" xmlns:xlink="http://www.w3.org/1999/xlink" viewBox="0 0 104.17 101.73"><defs><style>.cls-1,.cls-3,.cls-5{fill:none;}.cls-2{clip-path:url(#clip-path);}.cls-3,.cls-5{stroke:#000;stroke-linejoin:round;}.cls-3{stroke-width:4px;}.cls-4{fill:#fff;}.cls-5{stroke-width:2px;}</style><clipPath id="clip-path" transform="translate(-1.29 -2.97)"><rect class="cls-1" width="106.74" height="105.74"/></clipPath></defs><title>Asset 5</title><g id="Layer_2" data-name="Layer 2"><g id="Layer_1-2" data-name="Layer 1"><g class="cls-2"><g class="cls-2"><path class="cls-3" d="M14.62,39.29c2-3.44,4-6.8,6.18-10.12C27.7,18.51,32.14,8.4,45.93,5.61,55.1,3.75,64.86,6,72.81,11c11.67,7.29,18.67,19.62,23.07,32.32,2.75,7.9,12.15,31.61,4.86,38.37a17.79,17.79,0,0,1-6,3.31C73.31,93.08,47,91.16,24.55,89.12c-4.09-.37-8.25-.84-12-2.48C-2.62,80,4.25,60.52,9.4,49.38,11,45.94,12.74,42.58,14.62,39.29Z" transform="translate(-1.29 -2.97)"/><path class="cls-4" d="M77.5,91.12c0,6.39-7.15,11.57-16,11.57s-16-5.18-16-11.57,7.15-11.58,16-11.58,16,5.18,16,11.58" transform="translate(-1.29 -2.97)"/><path class="cls-3" d="M77.5,91.12c0,6.39-7.15,11.57-16,11.57s-16-5.18-16-11.57,7.15-11.58,16-11.58S77.5,84.72,77.5,91.12Z" transform="translate(-1.29 -2.97)"/><path class="cls-4" d="M83.86,87.1a4.77,4.77,0,1,1,4.76,4.76,4.77,4.77,0,0,1-4.76-4.76" transform="translate(-1.29 -2.97)"/><path class="cls-3" d="M83.86,87.1a4.77,4.77,0,1,1,4.76,4.76A4.77,4.77,0,0,1,83.86,87.1Z" transform="translate(-1.29 -2.97)"/><path class="cls-5" d="M67.92,8.39C60.31,8.27,54,12.77,50.11,19.31c-9.55,16-2.87,46.52-25.39,52.39-6.6,1.72-15.33,1.6-21.28-3" transform="translate(-1.29 -2.97)"/></g></g></g></g></svg>