<svg xmlns="http://www.w3.org/2000/svg" width="106.74" height="105.74" viewBox="0 0 106.74 105.74">
  <defs>
    <style>
      .cls-1, .cls-3 {
        fill: none;
      }

      .cls-1, .cls-2, .cls-3 {
        stroke: #000;
        stroke-linejoin: round;
      }

      .cls-1, .cls-2 {
        stroke-width: 4px;
      }

      .cls-2 {
        fill: #fff;
      }

      .cls-3 {
        stroke-width: 2px;
      }
    </style>
  </defs>
  <g id="MATERIALI">
    <g id="Pietra">
      <path class="cls-1" d="M14.62,39.29c2-3.44,4-6.8,6.18-10.12C27.7,18.51,32.14,8.4,45.93,5.61,55.1,3.75,64.86,6,72.81,11c11.67,7.29,18.67,19.62,23.07,32.32,2.75,7.9,12.15,31.61,4.86,38.37a17.79,17.79,0,0,1-6,3.31C73.31,93.08,47,91.16,24.55,89.12c-4.09-.37-8.25-.84-12-2.48C-2.62,80,4.25,60.52,9.39,49.38,11,45.94,12.74,42.58,14.62,39.29Z"/>
      <ellipse class="cls-2" cx="61.53" cy="91.12" rx="15.97" ry="11.58"/>
      <circle class="cls-2" cx="88.62" cy="87.1" r="4.77"/>
      <path class="cls-3" d="M67.92,8.39C60.31,8.27,54,12.77,50.11,19.31c-9.55,16-2.87,46.52-25.39,52.39-6.6,1.72-15.33,1.6-21.28-3"/>
    </g>
  </g>
</svg>
