<svg xmlns="http://www.w3.org/2000/svg" xmlns:xlink="http://www.w3.org/1999/xlink" viewBox="0 0 93.49 120.13"><defs><style>.cls-1,.cls-4,.cls-5,.cls-6{fill:none;}.cls-2{clip-path:url(#clip-path);}.cls-3{fill:#fff;}.cls-4,.cls-5,.cls-6{stroke:#000;stroke-miterlimit:10;}.cls-4{stroke-width:4px;}.cls-5{stroke-linecap:round;}.cls-5,.cls-6{stroke-width:2px;}</style><clipPath id="clip-path" transform="translate(0 0)"><rect class="cls-1" width="93.49" height="120.13"/></clipPath></defs><title>Asset 13</title><g id="Layer_2" data-name="Layer 2"><g id="Layer_1-2" data-name="Layer 1"><g class="cls-2"><g class="cls-2"><path class="cls-3" d="M2,73.39a44.75,44.75,0,1,1,44.74,44.74A44.74,44.74,0,0,1,2,73.39" transform="translate(0 0)"/><circle class="cls-4" cx="46.74" cy="73.39" r="44.74"/><path class="cls-5" d="M82.92,10.73a72.11,72.11,0,0,0-72.35,0" transform="translate(0 0)"/><path class="cls-5" d="M15.17,18.7a63,63,0,0,1,63.15,0" transform="translate(0 0)"/><path class="cls-5" d="M19.78,26.68a53.77,53.77,0,0,1,53.93,0" transform="translate(0 0)"/><path class="cls-3" d="M32.31,90.24h0a4.1,4.1,0,1,1-4.1,4.1,4.12,4.12,0,0,1,4.1-4.1" transform="translate(0 0)"/><path class="cls-6" d="M32.31,90.24h0a4.1,4.1,0,1,1-4.1,4.1A4.12,4.12,0,0,1,32.31,90.24Z" transform="translate(0 0)"/><path class="cls-3" d="M46.74,90.24h0a4.1,4.1,0,1,1-4.1,4.1,4.11,4.11,0,0,1,4.1-4.1" transform="translate(0 0)"/><path class="cls-6" d="M46.74,90.24h0a4.1,4.1,0,1,1-4.1,4.1A4.11,4.11,0,0,1,46.74,90.24Z" transform="translate(0 0)"/><path class="cls-3" d="M61.18,90.24h0a4.1,4.1,0,1,1-4.1,4.1,4.12,4.12,0,0,1,4.1-4.1" transform="translate(0 0)"/><path class="cls-6" d="M61.18,90.24h0a4.1,4.1,0,1,1-4.1,4.1A4.12,4.12,0,0,1,61.18,90.24Z" transform="translate(0 0)"/></g></g></g></g></svg>