<svg xmlns="http://www.w3.org/2000/svg" xmlns:xlink="http://www.w3.org/1999/xlink" viewBox="0 0 99.81 99.81"><defs><style>.cls-1,.cls-3,.cls-4,.cls-5{fill:none;}.cls-2{clip-path:url(#clip-path);}.cls-3,.cls-4,.cls-5{stroke:#000;stroke-linejoin:round;}.cls-3{stroke-width:4px;}.cls-4{stroke-width:2px;}</style><clipPath id="clip-path" transform="translate(-3.47 -2.97)"><rect class="cls-1" width="106.74" height="105.74"/></clipPath></defs><title>Asset 4</title><g id="Layer_2" data-name="Layer 2"><g id="Layer_1-2" data-name="Layer 1"><g class="cls-2"><g class="cls-2"><path class="cls-3" d="M5.47,52.87a47.91,47.91,0,1,1,47.9,47.91A47.89,47.89,0,0,1,5.47,52.87Z" transform="translate(-3.47 -2.97)"/><path class="cls-4" d="M24.59,27.29C15.83,39,11.75,55.54,15.9,67.85,22.35,87,54.75,100.1,71.7,87.63c7.86-5.79,14.55-17.46,18.07-26.41,4.21-10.7,4-23-4.12-31.8-5.22-5.67-12.15-9.37-19.3-12-7.44-2.75-15.6-5.56-23.57-3.42C35.69,15.88,29.42,20.84,24.59,27.29Z" transform="translate(-3.47 -2.97)"/><path class="cls-4" d="M25.39,44.77A140.62,140.62,0,0,1,34.2,31.58C39.05,24.83,45,21.47,53.34,21.25c8.74-.24,18,2.22,23.92,8.62,4,4.32,6.68,10.9,7.73,16.67C86.9,57,78.63,67.32,72.42,75A27.68,27.68,0,0,1,46,84.66c-8.95-1.55-17-7-22.52-14.09C17.56,63,20.58,53.32,25.39,44.77Z" transform="translate(-3.47 -2.97)"/><path class="cls-4" d="M28,60.25C26.8,52.74,32.12,47.12,36.73,42c6.65-7.38,15.11-17.77,26.4-14.13A21.42,21.42,0,0,1,71,33c7.5,7.06,10.36,16.07,5.26,25.57-3.71,6.91-11.21,14-18.17,17.58-10.59,5.44-22.6-1.54-28.37-11A13.21,13.21,0,0,1,28,60.25Z" transform="translate(-3.47 -2.97)"/><path class="cls-4" d="M44.58,45.05c-2.17,3-5.79,5.17-7,8.59s.29,7.08,2.2,9.82c3.06,4.36,7.84,6.91,13.22,5.82a24.85,24.85,0,0,0,9.09-4.37,26,26,0,0,0,6.37-5.81c4.36-6,2.56-14.11-3-18.67a16.77,16.77,0,0,0-11.73-3.58c-4.31.42-6.56,3.54-8.47,7.07A10.19,10.19,0,0,1,44.58,45.05Z" transform="translate(-3.47 -2.97)"/><path class="cls-4" d="M52.34,48.21a15.4,15.4,0,0,0-4.88,6.16,5,5,0,0,0-.55,2.08,3.77,3.77,0,0,0,3,3.33c2.45.6,4.7-.61,6.64-2A15.17,15.17,0,0,0,59.77,55c2-2.51,1.74-6.5-1.6-7.72A6.19,6.19,0,0,0,52.34,48.21Z" transform="translate(-3.47 -2.97)"/><line class="cls-5" x1="46.87" y1="75.07" x2="46.87" y2="97.71"/><line class="cls-5" x1="26.59" y1="8.05" x2="36.52" y2="22.6"/><line class="cls-5" x1="97.81" y1="49.91" x2="81.67" y2="48.89"/></g></g></g></g></svg>