<?xml version="1.0" encoding="utf-8"?>
<!-- Generator: Adobe Illustrator 23.0.3, SVG Export Plug-In . SVG Version: 6.00 Build 0)  -->
<svg version="1.1" id="Layer_1" xmlns="http://www.w3.org/2000/svg" xmlns:xlink="http://www.w3.org/1999/xlink" x="0px" y="0px"
	 viewBox="0 0 14.8 14.8" style="enable-background:new 0 0 14.8 14.8;" xml:space="preserve">
<style type="text/css">
	.st0{fill:#FFFFFF;}
</style>
<title>Asset 1</title>
<g>
	<g id="Layer_1-2">
		<path class="st0" d="M2.2,12.6C0.7,11.3,0,9.4,0,7.4c0-2,0.7-3.9,2.2-5.2C3.5,0.8,5.4,0,7.4,0c2,0,3.9,0.8,5.2,2.2
			c1.4,1.4,2.2,3.3,2.2,5.2c0,2-0.8,3.9-2.2,5.2c-1.4,1.4-3.3,2.2-5.2,2.2C5.4,14.9,3.5,14.1,2.2,12.6z M1.7,7.4
			c0,1.5,0.6,3,1.6,4.1c1,1.1,2.5,1.7,4,1.7c1.5,0,3-0.6,4-1.7C12.4,10.5,13,9,13,7.4c0-1.5-0.6-3-1.6-4.1c-1-1.1-2.5-1.7-4-1.7
			c-1.5,0-3,0.6-4,1.7C2.3,4.4,1.7,5.9,1.7,7.4z M7.4,5.3c-0.5,0-1,0.2-1.3,0.6c-0.4,0.4-0.6,1-0.6,1.5C5.5,8,5.7,8.6,6.1,9
			c0.4,0.4,0.9,0.6,1.4,0.6c0.4,0,0.8-0.1,1.1-0.4C8.9,9,9.1,8.6,9.2,8.3L11,8.9c-0.2,0.7-0.6,1.3-1.2,1.8c-0.7,0.5-1.5,0.8-2.3,0.7
			c-2.1,0-3.9-1.7-3.9-3.8c0-0.1,0-0.1,0-0.2c0-1.1,0.4-2.1,1.1-2.8c0.7-0.7,1.7-1.1,2.8-1.1c0.8,0,1.7,0.2,2.3,0.7
			c0.6,0.4,1,1.1,1.2,1.8L9.1,6.6C8.9,5.8,8.2,5.3,7.4,5.3z"/>
	</g>
</g>
</svg>
