<svg xmlns="http://www.w3.org/2000/svg" viewBox="0 0 14.76 14.82"><title>Asset 1</title><g id="Layer_2" data-name="Layer 2"><g id="Layer_1-2" data-name="Layer 1"><path d="M2.15,12.65A7.18,7.18,0,0,1,0,7.42,7.2,7.2,0,0,1,2.15,2.18,7.05,7.05,0,0,1,7.36,0a7.13,7.13,0,0,1,5.23,2.18,7.14,7.14,0,0,1,2.17,5.24,7.11,7.11,0,0,1-2.17,5.22,7.13,7.13,0,0,1-5.23,2.18A7,7,0,0,1,2.15,12.65ZM1.7,7.42a5.72,5.72,0,0,0,1.64,4.13,5.36,5.36,0,0,0,4,1.69,5.36,5.36,0,0,0,4-1.69A5.72,5.72,0,0,0,13,7.42a5.75,5.75,0,0,0-1.64-4.15,5.36,5.36,0,0,0-4-1.69,5.36,5.36,0,0,0-4,1.69A5.75,5.75,0,0,0,1.7,7.42ZM7.44,5.34a1.84,1.84,0,0,0-1.35.56,2.09,2.09,0,0,0-.55,1.54A2.13,2.13,0,0,0,6.09,9a1.83,1.83,0,0,0,1.37.57,1.7,1.7,0,0,0,1.15-.38,1.74,1.74,0,0,0,.57-.9l1.78.6a3.4,3.4,0,0,1-1.19,1.78,3.57,3.57,0,0,1-2.31.74,3.88,3.88,0,0,1-3.94-4A3.86,3.86,0,0,1,4.64,4.59,3.76,3.76,0,0,1,7.4,3.46a3.62,3.62,0,0,1,2.34.74A3.27,3.27,0,0,1,10.92,6L9.1,6.6A1.58,1.58,0,0,0,7.44,5.34Z"/></g></g></svg>