<svg xmlns="http://www.w3.org/2000/svg" xmlns:xlink="http://www.w3.org/1999/xlink" viewBox="0 0 764.08 543.42"><defs><style>.cls-1,.cls-11,.cls-12,.cls-13,.cls-14,.cls-19,.cls-20,.cls-21,.cls-3,.cls-4,.cls-5,.cls-7,.cls-9{fill:none;}.cls-2{clip-path:url(#clip-path);}.cls-11,.cls-12,.cls-13,.cls-14,.cls-19,.cls-20,.cls-21,.cls-3,.cls-7,.cls-9{stroke:#000;}.cls-11,.cls-12,.cls-13,.cls-3{stroke-miterlimit:10;}.cls-3{stroke-width:4.67px;}.cls-4,.cls-5{stroke:#ce4b5a;}.cls-14,.cls-19,.cls-20,.cls-21,.cls-4,.cls-5,.cls-7,.cls-9{stroke-linejoin:round;}.cls-14,.cls-4,.cls-5,.cls-9{stroke-width:2px;}.cls-13,.cls-19,.cls-20,.cls-21,.cls-5,.cls-7,.cls-9{stroke-linecap:round;}.cls-6{fill:#ffcd05;}.cls-11,.cls-7{stroke-width:4px;}.cls-8{fill:#fff;}.cls-10{clip-path:url(#clip-path-3);}.cls-12,.cls-13,.cls-20{stroke-width:2.47px;}.cls-15{fill:#1c3664;}.cls-16{fill:#5e57a6;}.cls-17{clip-path:url(#clip-path-5);}.cls-18{fill:#99cc67;}.cls-19{stroke-width:4.95px;}.cls-21{stroke-width:1.24px;}.cls-22{fill:#006635;}.cls-23{font-size:136.11px;fill:#7951a1;font-family:CircularStd-Black, CircularStd Black;font-weight:800;}</style><clipPath id="clip-path" transform="translate(145.63 -1.79)"><rect class="cls-1" width="635.06" height="570.66"/></clipPath><clipPath id="clip-path-3" transform="translate(145.63 -1.79)"><rect class="cls-1" x="64.33" y="88.85" width="467.85" height="49.52"/></clipPath><clipPath id="clip-path-5" transform="translate(145.63 -1.79)"><rect class="cls-1" x="245.28" y="361.86" width="348.16" height="180.88"/></clipPath></defs><title>Asset 2</title><g id="Layer_2" data-name="Layer 2"><g id="Layer_1-2" data-name="Layer 1"><g class="cls-2"><g class="cls-2"><line class="cls-3" x1="209.96" y1="87.07" x2="209.96"/><line class="cls-3" x1="677.81" y1="87.07" x2="677.81"/><path class="cls-4" d="M183.48,138.37a107.43,107.43,0,0,1-5.67,42.49c-4.56,13.69-14.36,25.49-26.26,27.18-4.74.68-10.29-.81-12.58-6a15.22,15.22,0,0,1-1.1-6.7c.46-11.91,11.17-20.55,20.69-18.72s17.05,11.76,20.37,23,3.07,23.5,2.07,35.36" transform="translate(145.63 -1.79)"/><polyline class="cls-5" points="346.84 171.4 319.93 187.3 348.1 187.3"/><path class="cls-6" d="M180.7,354.32c-21.39,0-38.95-21.16-33.66-42.22,2-7.89,5.47-15.26,8.14-22.91a66.33,66.33,0,0,0,3.14-12.07c.6-4.1.42-8.25,2.3-12.07a13.72,13.72,0,0,1,12-7.47H189a13.72,13.72,0,0,1,12,7.47c1.88,3.82,1.7,8,2.3,12.07a66.33,66.33,0,0,0,3.14,12.07c2.67,7.65,6.17,15,8.15,22.91,5.28,21.06-12.28,42.22-33.67,42.22" transform="translate(145.63 -1.79)"/><path class="cls-7" d="M180.7,354.32c-21.39,0-38.95-21.16-33.66-42.22,2-7.89,5.47-15.26,8.14-22.91a66.33,66.33,0,0,0,3.14-12.07c.6-4.1.42-8.25,2.3-12.07a13.72,13.72,0,0,1,12-7.47H189a13.72,13.72,0,0,1,12,7.47c1.88,3.82,1.7,8,2.3,12.07a66.33,66.33,0,0,0,3.14,12.07c2.67,7.65,6.17,15,8.15,22.91,5.28,21.06-12.28,42.22-33.67,42.22" transform="translate(145.63 -1.79)"/><path class="cls-8" d="M162.31,257.06H197.9a4.43,4.43,0,0,1,0,8.86H162.31a4.43,4.43,0,0,1,0-8.86" transform="translate(145.63 -1.79)"/><path class="cls-9" d="M162.31,257.06H197.9a4.43,4.43,0,0,1,0,8.86H162.31a4.43,4.43,0,0,1,0-8.86Z" transform="translate(145.63 -1.79)"/><path class="cls-8" d="M170.3,234.94h19.62a5.46,5.46,0,0,1,5.45,5.45v5.2a5.47,5.47,0,0,1-5.45,5.46H170.3a5.48,5.48,0,0,1-5.46-5.46v-5.2a5.47,5.47,0,0,1,5.46-5.45" transform="translate(145.63 -1.79)"/><rect class="cls-9" x="310.47" y="233.15" width="30.53" height="16.11" rx="5.46"/><path class="cls-8" d="M161.9,247.61l33.82-6.73c2.91-.58,5.88.89,6.59,3.25s-1.08,4.78-4,5.36l-33.81,6.73c-2.92.58-5.89-.88-6.6-3.25s1.09-4.78,4-5.36" transform="translate(145.63 -1.79)"/><path class="cls-9" d="M161.9,247.61l33.82-6.73c2.91-.58,5.88.89,6.59,3.25s-1.08,4.78-4,5.36l-33.81,6.73c-2.92.58-5.89-.88-6.6-3.25S159,248.19,161.9,247.61Z" transform="translate(145.63 -1.79)"/><path class="cls-8" d="M161.91,256.63l33.81-6.73c2.92-.58,5.89.88,6.6,3.25s-1.09,4.78-4,5.36l-33.82,6.72c-2.91.58-5.88-.88-6.59-3.24s1.08-4.78,4-5.36" transform="translate(145.63 -1.79)"/><path class="cls-9" d="M161.91,256.63l33.81-6.73c2.92-.58,5.89.88,6.6,3.25s-1.09,4.78-4,5.36l-33.82,6.72c-2.91.58-5.88-.88-6.59-3.24S159,257.21,161.91,256.63Z" transform="translate(145.63 -1.79)"/><path class="cls-9" d="M189.11,265.72a147.08,147.08,0,0,0-3,38.93c.26,4.66.8,9.46,3.1,13.52a2.54,2.54,0,0,0,1.24,1.26,1.75,1.75,0,0,0,2-.95,3.77,3.77,0,0,0,.22-2.35c-.56-3.37-3-6.17-5.67-8.25a6.29,6.29,0,0,0-2.69-1.35c-1.81-.29-3.52.88-4.87,2.12a25.9,25.9,0,0,0-7.8,14.06,9.44,9.44,0,0,0,.32,5.72,3.38,3.38,0,0,0,1.72,1.79,3.2,3.2,0,0,0,3.64-1.5,8.73,8.73,0,0,0,1-4.1c1.61-19.42-2.29-38.82-6.17-57.91" transform="translate(145.63 -1.79)"/><path class="cls-4" d="M183.48,138.37s125.78,102.39,251.56,0" transform="translate(145.63 -1.79)"/><g class="cls-10"><g class="cls-10"><rect class="cls-8" x="641.19" y="119.93" width="36.62" height="16.65"/><rect class="cls-8" x="641.19" y="103.28" width="36.62" height="16.65"/><rect class="cls-8" x="641.19" y="87.06" width="36.62" height="16.22"/><rect class="cls-8" x="246.59" y="119.93" width="394.6" height="16.65"/><rect class="cls-8" x="246.59" y="103.28" width="394.6" height="16.65"/><rect class="cls-8" x="246.59" y="87.06" width="394.6" height="16.22"/><rect class="cls-8" x="209.96" y="119.93" width="36.62" height="16.65"/><rect class="cls-8" x="209.96" y="103.28" width="36.62" height="16.65"/><rect class="cls-8" x="209.96" y="87.06" width="36.62" height="16.22"/></g></g><polyline class="cls-11" points="209.96 540.95 209.96 136.58 209.96 119.93 209.96 103.28 209.96 87.06 246.59 87.06 641.19 87.06 677.81 87.06 677.81 103.28 677.81 119.93 677.81 136.58 677.81 540.95"/><polyline class="cls-12" points="209.96 119.93 246.59 119.93 641.19 119.93 677.81 119.93"/><polyline class="cls-12" points="209.96 103.28 246.59 103.28 641.19 103.28 677.81 103.28"/><polyline class="cls-12" points="246.59 136.58 246.59 119.93 246.59 103.28 246.59 87.06"/><polyline class="cls-13" points="641.19 136.58 641.19 119.93 641.19 103.28 641.19 87.06"/><polyline class="cls-11" points="209.96 136.58 246.59 136.58 641.19 136.58 677.81 136.58"/><path class="cls-8" d="M352.82,304.06a9,9,0,1,1,9,9,9,9,0,0,1-9-9" transform="translate(145.63 -1.79)"/><circle class="cls-14" cx="361.79" cy="304.06" r="8.97" transform="translate(128.36 584.52) rotate(-76.72)"/><path class="cls-15" d="M290.31,360a9,9,0,1,1,9,9,9,9,0,0,1-9-9" transform="translate(145.63 -1.79)"/><circle class="cls-14" cx="444.91" cy="358.17" r="8.97"/><path class="cls-8" d="M239.37,349.79a6.35,6.35,0,1,1,6.35,6.35,6.35,6.35,0,0,1-6.35-6.35" transform="translate(145.63 -1.79)"/><path class="cls-14" d="M239.37,349.79a6.35,6.35,0,1,1,6.35,6.35A6.35,6.35,0,0,1,239.37,349.79Z" transform="translate(145.63 -1.79)"/><path class="cls-8" d="M603.75,422.57a6.35,6.35,0,1,1,6.35,6.35,6.35,6.35,0,0,1-6.35-6.35" transform="translate(145.63 -1.79)"/><path class="cls-14" d="M603.75,422.57a6.35,6.35,0,1,1,6.35,6.35A6.35,6.35,0,0,1,603.75,422.57Z" transform="translate(145.63 -1.79)"/><path class="cls-8" d="M312.36,362.48a16,16,0,1,1,16,16,16,16,0,0,1-16-16" transform="translate(145.63 -1.79)"/><circle class="cls-14" cx="473.94" cy="360.69" r="15.96"/><path class="cls-16" d="M586.27,441.59a9,9,0,1,1,9,9,9,9,0,0,1-9-9" transform="translate(145.63 -1.79)"/><circle class="cls-14" cx="595.23" cy="441.59" r="8.97" transform="translate(122.12 31.8) rotate(-3.17)"/><path d="M430.24,308.21l-26.11,7.62a8.52,8.52,0,0,1-3.37.31,5.83,5.83,0,0,1-5.51-5.49l-1.12-49c-.29-3.86,1.49-6.82,5.41-8l1.16-.34c3.92-1.14,6.69.25,8.85,3.82l25.38,41.88a5.81,5.81,0,0,1-1.69,7.59,8.55,8.55,0,0,1-3,1.55" transform="translate(145.63 -1.79)"/><path class="cls-7" d="M430.24,308.21l-26.11,7.62a8.52,8.52,0,0,1-3.37.31,5.83,5.83,0,0,1-5.51-5.49l-1.12-49c-.29-3.86,1.49-6.82,5.41-8l1.16-.34c3.92-1.14,6.69.25,8.85,3.82l25.38,41.88a5.81,5.81,0,0,1-1.69,7.59A8.55,8.55,0,0,1,430.24,308.21Z" transform="translate(145.63 -1.79)"/><path d="M448.37,303.21a39.49,39.49,0,0,0-24.71-.85l-8.57,2.5-8.56,2.5a39.56,39.56,0,0,0-20.38,14l-64.69,85L435,373.22l113.58-33.15Z" transform="translate(145.63 -1.79)"/><path class="cls-7" d="M448.37,303.21a39.49,39.49,0,0,0-24.71-.85l-8.57,2.5-8.56,2.5a39.56,39.56,0,0,0-20.38,14l-64.69,85L435,373.22l113.58-33.15Z" transform="translate(145.63 -1.79)"/><g class="cls-17"><g class="cls-17"><polygon class="cls-8" points="712.81 360.07 739.07 388.86 712.81 388.86 712.81 360.07"/><polygon class="cls-8" points="712.81 388.86 712.81 540.95 482.18 540.95 482.18 388.86 564.99 388.86 712.81 388.86"/><polygon class="cls-8" points="712.81 360.07 712.81 388.86 564.99 388.86 482.18 388.86 456.85 388.86 417.16 388.86 417.16 360.07 564.99 360.07 712.81 360.07"/><rect class="cls-18" x="456.85" y="388.85" width="25.32" height="152.09"/><rect class="cls-8" x="417.16" y="388.85" width="39.69" height="152.09"/><polygon class="cls-8" points="417.16 360.07 417.16 388.86 390.9 388.86 417.16 360.07"/></g></g><polyline class="cls-19" points="712.81 388.86 712.81 540.95 482.18 540.95 456.85 540.95 417.16 540.95 417.16 388.86"/><line class="cls-20" x1="482.18" y1="388.85" x2="482.18" y2="540.94"/><line class="cls-20" x1="456.85" y1="540.94" x2="456.85" y2="388.85"/><polyline class="cls-19" points="417.16 360.07 390.9 388.86 417.16 388.86 456.85 388.86 482.18 388.86 564.99 388.86 712.81 388.86 739.07 388.86 712.81 360.07"/><polyline class="cls-21" points="456.85 511.64 461.92 517.83 466.98 511.64 472.04 517.83 477.11 511.64 482.18 517.83"/><path d="M573.85,532.89c-32.41,0-60.25-3.23-85.05-9.87-30.39-8.13-56.38-21.69-77.26-40.29C402,474.26,394,464,386.24,454c-6.36-8.16-12.85-16.48-20.19-23.79A75.2,75.2,0,0,1,360.63,459c-6.5,15.81-20.29,27.16-35.13,28.93a35.62,35.62,0,0,1-4,.23c-16.08,0-32.06-11.21-37.55-26.95-6.29-18-1.41-35.54,13-46.89a47.3,47.3,0,0,1,25.19-9.82,49.09,49.09,0,0,1,28.45,6.2,80.54,80.54,0,0,1,8.18,5.29c-2.88-20.5-11.29-41.23-18.63-59.34l-2.5-6.19c-12.76-31.53-25.94-64.13-22.7-99.12.91-9.75,3.1-17.59,6.72-24,8.14-14.41,24.68-20.95,41.16-16.28,16.82,4.77,30.13,18.2,39.53,39.91l-5.71,2.3c-8.65-20-20.62-32.26-35.57-36.5-13.82-3.91-27.16,1.35-34,13.42-3.2,5.66-5.16,12.75-6,21.67-3.11,33.6,9.81,65.54,22.3,96.43l2.5,6.18c8.24,20.32,17.77,43.84,19.75,67.08,9.64,8.56,17.66,18.85,25.5,28.91,7.6,9.74,15.45,19.82,24.55,27.93,20.15,17.95,45.29,31,74.72,38.92,24.75,6.63,52.67,9.77,85.38,9.65l0,6h-2M326.29,410.19a41,41,0,0,0-25.39,8.71c-12.38,9.72-16.52,24.81-11.09,40.37,5.05,14.46,20.39,24.43,34.93,22.7,12.63-1.5,24.46-11.39,30.14-25.2,4.24-10.31,5.48-21.28,4.79-32.44a78.24,78.24,0,0,0-12.16-8.52,43.3,43.3,0,0,0-21.22-5.62" transform="translate(145.63 -1.79)"/><path class="cls-8" d="M138.15,447.69H15.26a8,8,0,0,1-8-8v-7.25a8,8,0,0,1,8-8H138.15a8,8,0,0,1,8,8v7.25a8,8,0,0,1-8,8" transform="translate(145.63 -1.79)"/><rect class="cls-7" x="152.87" y="422.63" width="138.92" height="23.27" rx="8.01"/><polygon class="cls-8" points="222.33 445.9 161.18 445.9 169.91 540.94 222.33 540.94 274.75 540.94 283.48 445.9 222.33 445.9"/><polygon class="cls-7" points="222.33 445.9 161.18 445.9 169.91 540.94 222.33 540.94 274.75 540.94 283.48 445.9 222.33 445.9"/><path class="cls-22" d="M36,424.42l-5.89-60.25A30.53,30.53,0,1,1,91,362.67l-5.19,61.75Z" transform="translate(145.63 -1.79)"/><path class="cls-7" d="M36,424.42l-5.89-60.25A30.53,30.53,0,1,1,91,362.67l-5.19,61.75Z" transform="translate(145.63 -1.79)"/><path class="cls-18" d="M111.69,424.42V375.93a14.21,14.21,0,0,0-28.42,0v48.49Z" transform="translate(145.63 -1.79)"/><path class="cls-7" d="M111.69,424.42V375.93a14.21,14.21,0,0,0-28.42,0v48.49Z" transform="translate(145.63 -1.79)"/><path class="cls-9" d="M35.7,359.17a51.52,51.52,0,0,1-11.64-.33" transform="translate(145.63 -1.79)"/><line class="cls-9" x1="192.36" y1="343.87" x2="187.35" y2="331.55"/><line class="cls-9" x1="195.36" y1="386.14" x2="203.83" y2="380.42"/><path class="cls-9" d="M58.33,360.36a14.74,14.74,0,0,0,9.72-.95" transform="translate(145.63 -1.79)"/><path class="cls-9" d="M75.75,343.14a17.46,17.46,0,0,1,14.5-7.38" transform="translate(145.63 -1.79)"/><line class="cls-9" x1="190.37" y1="409.06" x2="171.66" y2="409.06"/><path class="cls-9" d="M64.44,409.63Q66.71,405,69,400.45" transform="translate(145.63 -1.79)"/><path class="cls-9" d="M99.45,372.72a57.56,57.56,0,0,1,8.77-13.82" transform="translate(145.63 -1.79)"/><line class="cls-9" x1="249.72" y1="396.15" x2="260.69" y2="396.15"/><path class="cls-9" d="M88,398.08a20.59,20.59,0,0,1-12.31-5.88" transform="translate(145.63 -1.79)"/><line class="cls-19" x1="417.16" y1="360.07" x2="712.81" y2="360.07"/><path class="cls-8" d="M540.23,360a9,9,0,1,1,9,9,9,9,0,0,1-9-9" transform="translate(145.63 -1.79)"/><circle class="cls-14" cx="549.19" cy="359.96" r="8.97" transform="translate(112.83 54.08) rotate(-5.65)"/><path class="cls-16" d="M616.45,542.74H586.64c-5.53,0-10.06-4.92-10.06-10.94v-4.57c0-6,4.53-10.93,10.06-10.93h29.81Z" transform="translate(145.63 -1.79)"/><path class="cls-7" d="M616.45,542.74H586.64c-5.53,0-10.06-4.92-10.06-10.94v-4.57c0-6,4.53-10.93,10.06-10.93h29.81Z" transform="translate(145.63 -1.79)"/><line class="cls-14" x1="751.08" y1="514.5" x2="751.08" y2="540.94"/></g><g class="cls-2"><text class="cls-23" transform="translate(10.93 270.47) rotate(18.73)">?</text><path class="cls-14" d="M-109.34,269.94A11.7,11.7,0,0,0-102,284.78a11.81,11.81,0,0,0,15-7.28,11.84,11.84,0,0,0-7.41-15A11.73,11.73,0,0,0-109.34,269.94Zm24.69-12.61c2-5.8,6.19-8.1,11.84-9.93l6.12-1.94c9.7-3.18,16.88-8.65,20.37-19,4.37-12.89-1.83-28.93-22.71-36-18.82-6.38-34.36,2.58-39.47,17.66a27.37,27.37,0,0,0-1.32,5.59L-92,220.49a21.52,21.52,0,0,1,1.24-4.9c2.05-6.06,8.49-10.63,16-8.09,7.74,2.62,9.81,8.78,8.11,13.81a11.17,11.17,0,0,1-7.7,7.45l-8.24,2.67c-9.22,3-13.9,8.79-16,14.85a27.58,27.58,0,0,0-1.41,5.85Z" transform="translate(145.63 -1.79)"/></g></g></g></g></svg>