<svg xmlns="http://www.w3.org/2000/svg" xmlns:xlink="http://www.w3.org/1999/xlink" viewBox="0 0 562.86 640.95"><defs><style>.cls-1,.cls-12,.cls-13,.cls-14,.cls-18,.cls-19,.cls-20,.cls-21,.cls-4,.cls-6,.cls-8,.cls-9{fill:none;}.cls-2{clip-path:url(#clip-path);}.cls-3{fill:#fff;}.cls-12,.cls-14,.cls-18,.cls-19,.cls-20,.cls-21,.cls-4,.cls-6,.cls-8,.cls-9{stroke:#000;}.cls-18,.cls-19,.cls-20,.cls-21,.cls-4,.cls-9{stroke-miterlimit:10;}.cls-13,.cls-14,.cls-18,.cls-4,.cls-8{stroke-width:4px;}.cls-5{font-size:136.11px;font-family:CircularStd-Black, CircularStd Black;font-weight:800;}.cls-10,.cls-5{fill:#7951a1;}.cls-12,.cls-13,.cls-14,.cls-6,.cls-8{stroke-linejoin:round;}.cls-12,.cls-19,.cls-6{stroke-width:2px;}.cls-7{fill:#ffcd05;}.cls-12,.cls-13,.cls-14,.cls-18,.cls-19,.cls-20,.cls-9{stroke-linecap:round;}.cls-9{stroke-width:1.24px;}.cls-11{fill:#1c3664;}.cls-13{stroke:#fff;}.cls-15{clip-path:url(#clip-path-3);}.cls-16{fill:#ce4b5a;}.cls-17{fill:#f0544c;}.cls-21{stroke-width:0.39px;}</style><clipPath id="clip-path" transform="translate(0 0)"><rect class="cls-1" width="580.11" height="640.95"/></clipPath><clipPath id="clip-path-3" transform="translate(0 0)"><rect class="cls-1" x="5.04" y="203.58" width="338.9" height="353.67"/></clipPath></defs><title>Asset 3</title><g id="Layer_2" data-name="Layer 2"><g id="Layer_1-2" data-name="Layer 1"><g class="cls-2"><polyline class="cls-3" points="170.33 540.34 170.33 87.06 451.82 87.06 451.82 540.34"/><polyline class="cls-4" points="170.33 540.34 170.33 87.06 451.82 87.06 451.82 540.34"/><g class="cls-2"><text class="cls-5" transform="translate(472.15 272.26) rotate(18.73)">?</text><path class="cls-6" d="M497.52,269.94a11.69,11.69,0,0,0,7.32,14.84,11.77,11.77,0,1,0-7.32-14.84Zm24.68-12.61c2-5.8,6.2-8.1,11.85-9.93l6.12-1.94c9.7-3.18,16.87-8.65,20.37-19,4.37-12.89-1.83-28.93-22.71-36-18.82-6.38-34.36,2.58-39.48,17.66a28,28,0,0,0-1.32,5.59l17.83,6.76a21.81,21.81,0,0,1,1.23-4.9c2-6.06,8.49-10.63,16-8.09,7.73,2.62,9.81,8.78,8.1,13.81a11.13,11.13,0,0,1-7.7,7.45l-8.23,2.67c-9.23,3-13.91,8.79-16,14.85a28.21,28.21,0,0,0-1.41,5.85Z" transform="translate(0 0)"/><path class="cls-7" d="M47.14,250.41l-1,.26c-13.67,3.73-24.16,16.83-24.71,31-.7,18.22,16.4,29.5,30.34,37.81C59.88,324.36,68.54,328.84,78,330c15.8,1.9,31.17-8.73,33.76-24.78,2.52-15.65-8.15-30.86-19.9-40s-29.5-18.3-44.68-14.75" transform="translate(0 0)"/><path class="cls-8" d="M47.14,250.41l-1,.26c-13.67,3.73-24.16,16.83-24.71,31-.7,18.22,16.4,29.5,30.34,37.81C59.88,324.36,68.54,328.84,78,330c15.8,1.9,31.17-8.73,33.76-24.78,2.52-15.65-8.15-30.86-19.9-40S62.32,246.86,47.14,250.41Z" transform="translate(0 0)"/><line class="cls-9" x1="38.05" y1="406.44" x2="4.45" y2="290.35"/><line class="cls-9" x1="144.53" y1="406.44" x2="178.13" y2="290.35"/><path class="cls-3" d="M64.73,357.51C56.23,362,51,369.63,55.57,379c1.92,3.92,5.39,6.89,9.09,9.21a33,33,0,0,0,15.58,5.35,22,22,0,0,0,22.24-16.06c7-25.37-21.4-28.62-37.75-20" transform="translate(0 0)"/><path class="cls-6" d="M64.73,357.51C56.23,362,51,369.63,55.57,379c1.92,3.92,5.39,6.89,9.09,9.21a33,33,0,0,0,15.58,5.35,22,22,0,0,0,22.24-16.06C109.44,352.17,81.08,348.92,64.73,357.51Z" transform="translate(0 0)"/><path class="cls-10" d="M180.74,160.51c-1.66-7-7.23-13.62-17.3-15.4a22.93,22.93,0,0,0-11.21.9c-4.1,1.32-7.63,3.39-9.51,6.44-3.47,5.62,0,14.15,8.41,20.36,21.53,15.94,32.82,1.15,29.61-12.3" transform="translate(0 0)"/><path class="cls-6" d="M180.74,160.51c-1.66-7-7.23-13.62-17.3-15.4a22.93,22.93,0,0,0-11.21.9c-4.1,1.32-7.63,3.39-9.51,6.44-3.47,5.62,0,14.15,8.41,20.36C172.66,188.75,184,174,180.74,160.51Z" transform="translate(0 0)"/><path class="cls-3" d="M1,249.63a8.32,8.32,0,1,1,8.31,8.31A8.32,8.32,0,0,1,1,249.63" transform="translate(0 0)"/><path class="cls-6" d="M1,249.63a8.32,8.32,0,1,1,8.31,8.31A8.32,8.32,0,0,1,1,249.63Z" transform="translate(0 0)"/><path class="cls-11" d="M101.08,230.14a9,9,0,1,1,9,9,9,9,0,0,1-9-9" transform="translate(0 0)"/><circle class="cls-6" cx="110.05" cy="230.14" r="8.97" transform="matrix(0.26, -0.97, 0.97, 0.26, -140.63, 277.43)"/><polyline class="cls-12" points="451.82 149.07 347.23 149.07 347.23 390.68 451.82 390.68"/><line class="cls-6" x1="170.33" y1="98.58" x2="451.82" y2="98.58"/><path d="M451.35,543.36h35.29c26.24,0,49.7-19.18,50.81-46.22.87-21.36-7-43.8-12-64.37q-8-33-17.37-65.62-6.7-23.46-14.09-46.72c-1.21-3.82-8.15-28.47-11.41-34.27-4,5.47-5,17.12-11.85,17.21h-39c-6.88-.09-7.81-11.74-11.85-17.21-3.26,5.8-10.2,30.45-11.41,34.27q-7.38,23.26-14.09,46.72-9.33,32.64-17.37,65.62c-5,20.57-12.87,43-12,64.37,1.11,27,24.57,46.22,50.81,46.22h35.29" transform="translate(0 0)"/><path class="cls-13" d="M451.35,543.36h35.29c26.24,0,49.7-19.18,50.81-46.22.87-21.36-7-43.8-12-64.37q-8-33-17.37-65.62-6.7-23.46-14.09-46.72c-1.21-3.82-8.15-28.47-11.41-34.27-4,5.47-5,17.12-11.85,17.21h-39c-6.88-.09-7.81-11.74-11.85-17.21-3.26,5.8-10.2,30.45-11.41,34.27q-7.38,23.26-14.09,46.72-9.33,32.64-17.37,65.62c-5,20.57-12.87,43-12,64.37,1.11,27,24.57,46.22,50.81,46.22h35.29" transform="translate(0 0)"/><path d="M464.67,502.37c1.64,17.32-3.24,33.65-15.09,45.36-11,10.89-27.53,15.47-34.84,30.71A32.66,32.66,0,0,0,414,604.2c3.33,8.1,10.49,13.39,13.66,21.61,1.19,3.1,1.67,6.88,0,9.68-2,3.3-6.18,4-9.66,3.1-12.82-3.31-20.22-21.43-23-34.21-3.1-14-2.21-30.24,6.76-41.51,7.39-9.29,18.83-13.19,27.53-21a46.7,46.7,0,0,0,15-39.5" transform="translate(0 0)"/><path class="cls-13" d="M464.67,502.37c1.64,17.32-3.24,33.65-15.09,45.36-11,10.89-27.53,15.47-34.84,30.71A32.66,32.66,0,0,0,414,604.2c3.33,8.1,10.49,13.39,13.66,21.61,1.19,3.1,1.67,6.88,0,9.68-2,3.3-6.18,4-9.66,3.1-12.82-3.31-20.22-21.43-23-34.21-3.1-14-2.21-30.24,6.76-41.51,7.39-9.29,18.83-13.19,27.53-21a46.7,46.7,0,0,0,15-39.5" transform="translate(0 0)"/><line class="cls-14" x1="402.1" y1="341.05" x2="385.65" y2="327.09"/><line class="cls-14" x1="375.3" y1="366.47" x2="396" y2="361.63"/><line class="cls-14" x1="377.39" y1="345.91" x2="399" y2="351.4"/><line class="cls-14" x1="497.86" y1="332.78" x2="513.84" y2="320.36"/><line class="cls-14" x1="523.92" y1="360.07" x2="504.95" y2="356.26"/><line class="cls-14" x1="520.09" y1="339.52" x2="501.31" y2="344.11"/><line class="cls-4" x1="170.33" y1="87.07" x2="170.33"/><line class="cls-4" x1="451.82" y1="87.07" x2="451.82"/><g class="cls-15"><g class="cls-15"><path class="cls-3" d="M241.77,483.11l-22.66-5.28s-2.07-.93-2.91-1.33c-3-1.41-6.33-2.34-8.93-4.45l-.38-.31a18.74,18.74,0,0,1-4.93-7,35.93,35.93,0,0,1-2.3-8.15c-.07-.36-.12-.73-.18-1.09l0-.21a38.46,38.46,0,0,0-2-9,12,12,0,0,0-7.28-7.05c-2.77-.92-5.89-.38-6.62,2.85a5.52,5.52,0,0,0-.11.71l-8.56-29c-1.09-3.55-2.87-6.37-6.38-6.37H111.36c11-21.85,19.09-39.19,60.71-39.19h0A53.53,53.53,0,0,0,185.93,379c-6.61,6.81-9.82,16.42-6.55,25.22s14.14,13.83,23,14.87c27.37,3.18,54.49-13.27,61.83-39.92h0a87.36,87.36,0,0,0,16.25.26l0,.26c21.42,4.56,32.66,31.46,39.3,52.34l22.4,70.41c4.3,13.51.59,34.48-9.6,44.35a37.22,37.22,0,0,1-39.39,8l-23-14.09L225.72,513.4c14.46-6.67,17.28-18.2,16.05-30.29" transform="translate(0 0)"/><path class="cls-3" d="M308,299c0,1.08-.82,2.12-2.28,3l-.35.2c-.05-2.12-.12-4.26-.21-6.4,1.87.88,2.84,1.9,2.84,3.2" transform="translate(0 0)"/><path class="cls-3" d="M305.37,302.22c.19,9,0,17.66-.38,25.57-.84,19.39-1.43,26.2-3,45.51,0,0-6.9,4.9-21.5,6.1a87.36,87.36,0,0,1-16.25-.26A119.89,119.89,0,0,1,246,375.78a55.66,55.66,0,0,0,24.21-44.84l-.16-.24c5.62-3.88,12.28-10.47,13.47-21.64.09-.8.17-1.61.24-2.42L299.66,304a18.59,18.59,0,0,0,5.71-1.78" transform="translate(0 0)"/><path class="cls-16" d="M305.16,295.82c.09,2.14.16,4.28.21,6.4a18.68,18.68,0,0,1-5.71,1.78l-15.93,2.64s0,0,0,0a117,117,0,0,0,.6-15.28l13.52,2.44a33.28,33.28,0,0,1,7.31,2" transform="translate(0 0)"/><path class="cls-3" d="M305.16,295.82a33.28,33.28,0,0,0-7.31-2l-13.52-2.44c-.58-15.69-5.8-31.69-26.12-37.9C227.8,244.17,188.39,241,165.44,244a22,22,0,0,0-5.9,1.15c5.7-19.79,28.23-48.17,86.11-40.17,46.38,6.4,57.72,50.43,59.51,90.85" transform="translate(0 0)"/><path class="cls-3" d="M284.33,291.35a117,117,0,0,1-.6,15.28l.59-15.28Z" transform="translate(0 0)"/><path class="cls-3" d="M248.76,262c28.29,8.63,26.4,36.2,25.28,55.6-.43,7.29-3.58,12.47-8.33,15.8-5.44,3.82-13,5.22-20.89,4.62l-52.47-86c18.56,1.3,39,4.62,56.41,9.95" transform="translate(0 0)"/><path class="cls-3" d="M270.18,330.94A55.66,55.66,0,0,1,246,375.78a58.4,58.4,0,0,1-60,3.2,53.32,53.32,0,0,1-13.85-10.74q-1.56-1.67-3-3.5a53.31,53.31,0,0,1-3.17-4.55c-5.58-9-8.19-17.75-8.19-34,1,.19,2,.36,3,.52,23.94,3.81,47.71,7.78,71.78,10.19,4.1.4,8.21.77,12.33,1.08,7.93.6,15.45-.8,20.89-4.62A48.86,48.86,0,0,0,270,330.7Zm-70.67,28.81a5.61,5.61,0,1,0-5.61,5.61,5.61,5.61,0,0,0,5.61-5.61" transform="translate(0 0)"/><path class="cls-3" d="M270.18,540.63l-149,.71,2.34-16.45h75.91c3.5,0,7.56-1.63,6.37-6.37l-6.25-21.15,26.18,16Z" transform="translate(0 0)"/><path class="cls-16" d="M270,330.7a48.86,48.86,0,0,1-4.31,2.66c4.75-3.33,7.9-8.51,8.33-15.8,1.12-19.4,3-47-25.28-55.6-17.44-5.33-37.85-8.65-56.41-9.95-4.54-.32-9-.51-13.2-.58A160.13,160.13,0,0,0,156,252.49c-7.19.94-12.89,4.95-17,10.64,6.53-11.64,15-16.2,20.58-18h0a22,22,0,0,1,5.9-1.15c22.95-3,62.36.18,92.77,9.46,20.32,6.21,25.54,22.21,26.12,37.9h0l-.59,15.27s0,0,0,0c-.07.81-.15,1.62-.24,2.42-1.19,11.17-7.85,17.76-13.47,21.64" transform="translate(0 0)"/><path class="cls-3" d="M264.2,379.14h0c-7.34,26.65-34.46,43.1-61.83,39.92-8.85-1-19.67-5.94-23-14.87s-.06-18.41,6.55-25.22a58.4,58.4,0,0,0,60-3.2,119.89,119.89,0,0,0,18.23,3.36" transform="translate(0 0)"/><path class="cls-3" d="M192.35,252l52.47,86c-4.12-.31-8.23-.68-12.33-1.08l-53.34-85.47c4.24.07,8.66.26,13.2.58" transform="translate(0 0)"/><path class="cls-3" d="M241.77,483.11c1.23,12.09-1.59,23.62-16.05,30.29l-26.17-16-.25-.86a40.53,40.53,0,0,0,10.25-5.58c4.3-3.25,7.11-8.43,9.56-13.1Z" transform="translate(0 0)"/><path class="cls-3" d="M157.74,326.19a57.53,57.53,0,0,1-7.18-1.81c-7.05-2.34-12.92-6.37-15.77-14.12s-2.38-32.61,4.17-47.13c4.14-5.69,9.84-9.7,17-10.64a160.13,160.13,0,0,1,23.16-1.06l53.34,85.47c-24.07-2.41-47.84-6.38-71.78-10.19-1-.16-2-.33-3-.52" transform="translate(0 0)"/><path class="cls-3" d="M216.2,476.5c.85.4,2.91,1.33,2.91,1.33-2.45,4.67-5.26,9.85-9.56,13.1a40.53,40.53,0,0,1-10.25,5.58L183.43,442.8a5.52,5.52,0,0,1,.11-.71c.73-3.23,3.85-3.77,6.62-2.85a11.93,11.93,0,0,1,7.28,7.05,38.46,38.46,0,0,1,2,9l0,.21c.06.36.11.73.18,1.09a35.93,35.93,0,0,0,2.3,8.15,18.74,18.74,0,0,0,4.93,7l.38.31c2.6,2.11,5.93,3,8.93,4.45" transform="translate(0 0)"/><path class="cls-17" d="M205.8,518.52c1.19,4.74-2.87,6.37-6.37,6.37l-8.13-26.16a45,45,0,0,0,7.29-2h0l1,.59Z" transform="translate(0 0)"/><path class="cls-3" d="M199.3,496.51l.25.86-1-.59h0c.24-.08.47-.16.71-.26" transform="translate(0 0)"/><path class="cls-17" d="M191.3,498.73l8.13,26.16H42.34c-3.5,0-5.71-3.55-6.37-6.37l-7.34-24.84c3.91-2.93,6.28-8.89,4.73-17.73-1.31-7.47-9.72-27-18-27.24l-9.3-31.46.16-.05H162a5.45,5.45,0,0,1,5.2,3.86l10.32,33.23c-3.77,1.36-8.61,1.09-12.17.49-7-1.18-13.49,2.34-14.65,9.58-1.38,8.68.79,18,6.67,24.63,8.26,9.36,21.64,12,34,9.74M120,463.47v-.09a.92.92,0,0,0-.92-.88.9.9,0,0,0-.91.9v0a18.79,18.79,0,0,1-37.58,0v0a.93.93,0,0,0-.92-.9.92.92,0,0,0-.92.88v.09a20.39,20.39,0,0,0,1.62,7.8,20.79,20.79,0,0,0,4.42,6.56,20.65,20.65,0,0,0,29.17,0,20.79,20.79,0,0,0,4.42-6.56,20.58,20.58,0,0,0,1.62-7.8" transform="translate(0 0)"/><path class="cls-3" d="M193.9,354.14a5.61,5.61,0,1,1-5.6,5.61,5.61,5.61,0,0,1,5.6-5.61" transform="translate(0 0)"/><path class="cls-3" d="M177.49,454.29l13.81,44.44c-12.32,2.26-25.7-.38-34-9.74-5.88-6.65-8.05-15.95-6.67-24.63,1.16-7.24,7.66-10.76,14.65-9.58,3.56.6,8.4.87,12.17-.49" transform="translate(0 0)"/><path class="cls-3" d="M183.27,447.29c.17-1.48,0-3,.16-4.49l15.87,53.71c-.24.1-.47.18-.71.26a45,45,0,0,1-7.29,2l-13.81-44.44a8.13,8.13,0,0,0,5.78-7" transform="translate(0 0)"/><path class="cls-17" d="M174.87,413.81l8.56,29c-.19,1.48,0,3-.16,4.49a8.1,8.1,0,0,1-5.78,7l-10.32-33.23a5.45,5.45,0,0,0-5.2-3.86H6.21l-.16.05-1-3.44a6.39,6.39,0,0,1,6.37-6.37H168.49c3.51,0,5.29,2.82,6.38,6.37" transform="translate(0 0)"/><path class="cls-3" d="M165.93,360.19a53.31,53.31,0,0,0,3.17,4.55c-15.49,0-18.61-9.84-18.61-9.84l.07-30.52a57.53,57.53,0,0,0,7.18,1.81c0,16.25,2.61,25,8.19,34" transform="translate(0 0)"/><path d="M80.33,471.27a20.39,20.39,0,0,1-1.62-7.8v-.09a.92.92,0,0,1,.92-.88.93.93,0,0,1,.92.9v0a18.79,18.79,0,0,0,37.58,0v0a.9.9,0,0,1,.91-.9.92.92,0,0,1,.92.88v.09a20.58,20.58,0,0,1-1.62,7.8,20.79,20.79,0,0,1-4.42,6.56,20.65,20.65,0,0,1-29.17,0,20.79,20.79,0,0,1-4.42-6.56" transform="translate(0 0)"/><path class="cls-3" d="M33.36,476c1.55,8.83-.82,14.8-4.73,17.72l-13.28-45c8.29.25,16.71,19.77,18,27.24" transform="translate(0 0)"/><path class="cls-3" d="M15.35,448.71l13.28,45c-5.76,4.33-14.88,2-19.66-7.42a26.1,26.1,0,0,1-2-5.5c-2.12-8.23-2.66-20,1.83-27.35,2.09-3.42,4.33-4.77,6.59-4.7" transform="translate(0 0)"/></g></g><path class="cls-18" d="M150.56,324.38l-.07,30.52s3.12,9.84,18.61,9.84" transform="translate(0 0)"/><path class="cls-19" d="M188.3,359.75a5.61,5.61,0,1,1,5.6,5.61A5.61,5.61,0,0,1,188.3,359.75Z" transform="translate(0 0)"/><path class="cls-18" d="M305.37,302.22c.19,9,0,17.66-.38,25.57-.84,19.39-1.43,26.2-3,45.51,0,0-6.9,4.9-21.5,6.1a87.36,87.36,0,0,1-16.25-.26A119.89,119.89,0,0,1,246,375.78h0" transform="translate(0 0)"/><path class="cls-18" d="M159.54,245.14c5.7-19.79,28.23-48.17,86.11-40.17,46.38,6.4,57.72,50.43,59.51,90.85" transform="translate(0 0)"/><path class="cls-18" d="M284.32,291.35h0l13.52,2.44a33.28,33.28,0,0,1,7.31,2c1.87.88,2.84,1.9,2.84,3.2,0,1.08-.82,2.12-2.28,3l-.35.2a18.68,18.68,0,0,1-5.71,1.78l-15.93,2.64" transform="translate(0 0)"/><path class="cls-18" d="M283.73,306.62a116.75,116.75,0,0,0,.6-15.27c-.58-15.69-5.8-31.69-26.12-37.9C227.8,244.17,188.39,241,165.44,244a22,22,0,0,0-5.9,1.15h0c-5.58,1.79-14,6.35-20.58,18-6.55,14.52-7,39.32-4.17,47.13s8.72,11.78,15.77,14.12a57.53,57.53,0,0,0,7.18,1.81c1,.19,2,.36,3,.52,23.94,3.81,47.71,7.78,71.78,10.19,4.1.4,8.21.77,12.33,1.08,7.93.6,15.45-.8,20.89-4.62" transform="translate(0 0)"/><path class="cls-18" d="M265.71,333.36c1.26-.7,2.75-1.58,4.31-2.66,5.62-3.88,12.28-10.47,13.47-21.64.09-.8.17-1.61.24-2.42" transform="translate(0 0)"/><path class="cls-19" d="M265.71,333.36c4.75-3.33,7.9-8.51,8.33-15.8,1.12-19.4,3-47-25.28-55.6-17.44-5.33-37.85-8.65-56.41-9.95-4.54-.32-9-.51-13.2-.58A160.13,160.13,0,0,0,156,252.49c-7.19.94-12.89,4.95-17,10.64" transform="translate(0 0)"/><path class="cls-18" d="M280.47,379.66c21.42,4.56,32.66,31.46,39.3,52.34l22.4,70.41c4.3,13.51.59,34.48-9.6,44.35a37.22,37.22,0,0,1-39.39,8l-23-14.09L225.72,513.4l-26.17-16" transform="translate(0 0)"/><path class="cls-18" d="M199.3,496.51l.25.86,6.25,21.15c1.19,4.74-2.87,6.37-6.37,6.37H42.34c-3.5,0-5.71-3.56-6.37-6.37l-7.34-24.85" transform="translate(0 0)"/><path class="cls-18" d="M15.35,448.71l-9.3-31.46-1-3.44a6.39,6.39,0,0,1,6.37-6.37H168.49c3.51,0,5.29,2.82,6.38,6.37l8.56,29" transform="translate(0 0)"/><line class="cls-18" x1="271.85" y1="455.34" x2="275.71" y2="491.02"/><polyline class="cls-18" points="219.11 477.82 241.77 483.11 275.7 491.02 299.33 496.53"/><path class="cls-18" d="M15.35,448.71c-2.26-.07-4.5,1.28-6.59,4.7-4.49,7.32-3.95,19.12-1.83,27.35a26.1,26.1,0,0,0,2,5.5c4.78,9.44,13.9,11.75,19.66,7.42,3.91-2.93,6.28-8.89,4.73-17.73C32.06,468.48,23.64,449,15.35,448.71Z" transform="translate(0 0)"/><path class="cls-18" d="M172.07,368.25c-41.62,0-49.75,17.34-60.71,39.19" transform="translate(0 0)"/><polyline class="cls-20" points="179.12 251.39 179.15 251.43 232.49 336.89"/><line class="cls-20" x1="192.35" y1="252.01" x2="244.82" y2="337.98"/><path class="cls-19" d="M177.49,454.29l-10.32-33.23a5.45,5.45,0,0,0-5.2-3.86H6.21" transform="translate(0 0)"/><line class="cls-19" x1="199.43" y1="524.89" x2="191.3" y2="498.73"/><path class="cls-18" d="M219.11,477.82s-2.06-.92-2.91-1.32c-3-1.41-6.32-2.34-8.93-4.45l-.38-.31a18.74,18.74,0,0,1-4.93-7,35.93,35.93,0,0,1-2.3-8.15c-.07-.36-.12-.73-.18-1.09,0-.08,0-.14,0-.21a38.35,38.35,0,0,0-2-9,11.93,11.93,0,0,0-7.28-7.05c-2.77-.92-5.89-.38-6.61,2.84a4.51,4.51,0,0,0-.12.72c-.19,1.48,0,3-.16,4.49a8.1,8.1,0,0,1-5.78,7c-3.77,1.36-8.61,1.09-12.17.49-7-1.18-13.49,2.34-14.65,9.58-1.38,8.68.79,18,6.67,24.63,8.26,9.36,21.64,12,34,9.74a45,45,0,0,0,7.29-2c.24-.08.47-.16.71-.26a40.53,40.53,0,0,0,10.25-5.58C213.85,487.68,216.66,482.5,219.11,477.82Z" transform="translate(0 0)"/><polyline class="cls-18" points="123.52 524.89 121.18 541.34 270.18 540.63"/><path class="cls-21" d="M119,462.5a.91.91,0,0,0-.91.9v0a18.79,18.79,0,0,1-37.58,0v0a.93.93,0,0,0-.92-.9.92.92,0,0,0-.92.88v.09a20.63,20.63,0,0,0,41.25,0v-.09A.92.92,0,0,0,119,462.5Z" transform="translate(0 0)"/><path class="cls-6" d="M185.94,379h0c-6.61,6.81-9.82,16.42-6.55,25.22s14.14,13.83,23,14.87c27.37,3.18,54.49-13.27,61.83-39.92" transform="translate(0 0)"/><path class="cls-6" d="M225.72,513.4c14.46-6.67,17.28-18.2,16.05-30.29" transform="translate(0 0)"/><path class="cls-4" d="M157.74,326.17v0c0,16.25,2.61,25,8.19,34a53.31,53.31,0,0,0,3.17,4.55q1.43,1.83,3,3.5A53.37,53.37,0,0,0,185.93,379a58.4,58.4,0,0,0,60-3.2,55.66,55.66,0,0,0,24.21-44.84" transform="translate(0 0)"/></g></g></g></g></svg>