<svg xmlns="http://www.w3.org/2000/svg" xmlns:xlink="http://www.w3.org/1999/xlink" viewBox="0 0 464.25 542.8"><defs><style>.cls-1,.cls-13,.cls-14,.cls-15,.cls-16,.cls-17,.cls-18,.cls-19,.cls-20,.cls-21,.cls-22,.cls-23,.cls-5,.cls-6{fill:none;}.cls-2{clip-path:url(#clip-path);}.cls-3{fill:#ffcd05;}.cls-4{clip-path:url(#clip-path-2);}.cls-14,.cls-16,.cls-17,.cls-18,.cls-20,.cls-22,.cls-23,.cls-5,.cls-6{stroke:#000;}.cls-13,.cls-15,.cls-19,.cls-20,.cls-22,.cls-5,.cls-6{stroke-miterlimit:10;}.cls-13,.cls-16,.cls-19,.cls-21,.cls-5{stroke-width:4px;}.cls-18,.cls-6{stroke-width:2.48px;}.cls-7{clip-path:url(#clip-path-4);}.cls-8{fill:#ce4b5a;}.cls-9{fill:#f499c1;}.cls-10{fill:#1c3664;}.cls-11{fill:#fff;}.cls-12{fill:#9fc9eb;}.cls-13,.cls-15,.cls-19,.cls-21{stroke:#040504;}.cls-14,.cls-16,.cls-17,.cls-18,.cls-21,.cls-23{stroke-linejoin:round;}.cls-14,.cls-15{stroke-width:4.95px;}.cls-15,.cls-19,.cls-20,.cls-23{stroke-linecap:round;}.cls-17,.cls-20,.cls-22,.cls-23{stroke-width:2px;}</style><clipPath id="clip-path" transform="translate(0 0)"><rect class="cls-1" width="464.25" height="542.8"/></clipPath><clipPath id="clip-path-2" transform="translate(0 0)"><rect class="cls-1" width="464.25" height="542.8"/></clipPath><clipPath id="clip-path-4" transform="translate(0 0)"><rect class="cls-1" x="2" y="150.1" width="460.25" height="390.7"/></clipPath></defs><title>Asset 1</title><g id="Layer_2" data-name="Layer 2"><g id="Layer_1-2" data-name="Layer 1"><g class="cls-2"><polyline class="cls-3" points="26.99 541.38 26.99 87.92 308.61 87.92 308.61 541.38"/><g class="cls-4"><polyline class="cls-5" points="26.99 541.38 26.99 87.92 308.61 87.92 308.61 541.38"/></g><line class="cls-6" x1="26.68" y1="97.97" x2="308.25" y2="97.97"/><g class="cls-4"><line class="cls-5" x1="27.15" y1="87.06" x2="27.15"/><line class="cls-5" x1="308.63" y1="87.06" x2="308.63"/><g class="cls-7"><g class="cls-7"><path class="cls-8" d="M444.12,446.08l12.16,13.3a13.21,13.21,0,0,1,3.46,8.9V485a4.71,4.71,0,0,1-4.7,4.69H433.19A4.7,4.7,0,0,1,428.5,485V468.28a13.16,13.16,0,0,1,3.46-8.9Z" transform="translate(0 0)"/><path class="cls-9" d="M455.25,364.82a7,7,0,0,1,6.94,7.93c-1.82,14.43-8.54,26.94-18.07,35.07v-43Z" transform="translate(0 0)"/><path class="cls-9" d="M444.12,364.82v43a39.5,39.5,0,0,1-25.78,9.84,36.52,36.52,0,0,1-3.78-.19l-.65-.07c-.82-.1-1.64-.22-2.45-.37-.2,0-.4-.07-.59-.12l-.73-.15c-.5-.11-1-.23-1.48-.37l-.59-.15c-.75-.21-1.48-.45-2.2-.7-.23-.08-.47-.16-.69-.25l-1.35-.52-.05,0-.66-.28a37.81,37.81,0,0,1-4-2l-.65-.37a41.78,41.78,0,0,1-3.72-2.51,50,50,0,0,1-14.68-18h0a59.39,59.39,0,0,1-5.6-18.81l0-.35,7-7.58Z" transform="translate(0 0)"/><path class="cls-10" d="M413.92,417.4l.64.07-.64-.07" transform="translate(0 0)"/><path class="cls-10" d="M410.87,416.91c.19,0,.39.08.59.12-.2,0-.4-.07-.59-.12" transform="translate(0 0)"/><path class="cls-10" d="M410.14,416.76l.73.15-.73-.15" transform="translate(0 0)"/><path class="cls-10" d="M408.07,416.24l.59.15-.59-.15" transform="translate(0 0)"/><path class="cls-10" d="M405.18,415.29c.22.09.46.17.69.25-.24-.08-.47-.16-.69-.25" transform="translate(0 0)"/><path class="cls-10" d="M403.83,414.77l1.35.52c-.46-.17-.91-.34-1.35-.52" transform="translate(0 0)"/><path class="cls-10" d="M403.12,414.46l.66.28-.66-.28" transform="translate(0 0)"/><path class="cls-10" d="M403.12,414.46a37.81,37.81,0,0,1-4-2,38.8,38.8,0,0,0,4,2" transform="translate(0 0)"/><path class="cls-10" d="M398.5,412.09l.65.37c-.22-.11-.44-.24-.65-.37" transform="translate(0 0)"/><path class="cls-10" d="M394.78,409.58a41.78,41.78,0,0,0,3.72,2.51,39.73,39.73,0,0,1-3.72-2.51" transform="translate(0 0)"/><path class="cls-10" d="M380.1,391.55a50,50,0,0,0,14.68,18,49.92,49.92,0,0,1-14.69-18h0" transform="translate(0 0)"/><path class="cls-9" d="M381.43,364.82l-7,7.58a7,7,0,0,1,5.17-7.34Z" transform="translate(0 0)"/><path class="cls-10" d="M381.43,364.82l-1.8.24a6.68,6.68,0,0,1,1.8-.24" transform="translate(0 0)"/><path class="cls-9" d="M355.71,368.15l23.92-3.09a7,7,0,0,0-5.17,7.34l-4.12,4.49a6.76,6.76,0,0,0-8.74-.17,16.76,16.76,0,0,0-5.46-8.22l-.43-.35" transform="translate(0 0)"/><path class="cls-9" d="M374.49,372.75a59.39,59.39,0,0,0,5.6,18.81,17.16,17.16,0,0,1-25.94,2.94h0a23.12,23.12,0,0,0,5.37-5.85l1.65-1.79a6.77,6.77,0,1,0,9.16-10l4.12-4.49,0,.35" transform="translate(0 0)"/><path class="cls-11" d="M370.34,376.89a6.77,6.77,0,1,1-9.16,10Z" transform="translate(0 0)"/><path class="cls-11" d="M361.65,384a13,13,0,0,0,0-7.3,6.76,6.76,0,0,1,8.74.17l-9.16,10a6,6,0,0,1-.43-.45,17.72,17.72,0,0,0,.9-2.39" transform="translate(0 0)"/><path class="cls-11" d="M361.59,376.72h0a13,13,0,0,1,0,7.3,17.72,17.72,0,0,1-.9,2.39Z" transform="translate(0 0)"/><path class="cls-11" d="M361.6,376.72h0l-.84,9.69a20.3,20.3,0,0,1-1.22,2.24l-5.37,5.84h0a22.21,22.21,0,0,1-12.86,4.79c-14.34.25-17-2.77-27.38,9.74-7.46,9-17.55,19.59-27.56,29.56-2.85-8.83-8.07-14.71-16.52-10.76-4.57,2.12-4.73,9.25-2.93,14a52.33,52.33,0,0,0,5.6,10.24c-13.2,12.62-23.66,22-23.66,22a63.83,63.83,0,0,0-9.18-49.51l-2.88-4.32,18.09-12c13.36-8.84,26.29-17.4,40.32-26.71,13.61-9,28.31-18.4,44.63-18.21,5.63.06,11.43,1.39,15.88,4.81h0l.43.35a16.76,16.76,0,0,1,5.46,8.22" transform="translate(0 0)"/><path class="cls-9" d="M379.63,365.06l-23.92,3.09a17.1,17.1,0,0,1,10.16-3.33h15.56a6.68,6.68,0,0,0-1.8.24" transform="translate(0 0)"/><path class="cls-11" d="M354.16,394.49l5.37-5.84a22.91,22.91,0,0,1-5.37,5.84" transform="translate(0 0)"/><path class="cls-11" d="M269.83,427.83c8.45-3.95,13.67,1.93,16.52,10.76-4.73,4.71-9.45,9.28-13.85,13.5a52.33,52.33,0,0,1-5.6-10.24c-1.81-4.77-1.64-11.9,2.93-14" transform="translate(0 0)"/><path class="cls-11" d="M220.5,227.12a54.64,54.64,0,0,0,1.57-7.16,56.89,56.89,0,0,1,.92,8c.86,20.41-8.48,40.15-8.25,60.58.28,26.07,15.79,49.09,27.41,72.43,7.23,14.52,12.92,31.37,12.72,47.26l-24,3.19-14.42-21.6a51,51,0,0,0-22.56-18.66l-17.32-7.32s-4.4-16.35-6.7-24.87l.64-.31c23.36-11.78,27.75-44.08,25.78-83.45l-.26-.6c10.56-4.58,20.16-12.82,24.44-27.52" transform="translate(0 0)"/><path class="cls-11" d="M230.9,411.45l24-3.19-18.09,12Z" transform="translate(0 0)"/><path class="cls-11" d="M239.66,424.58a63.83,63.83,0,0,1,9.18,49.51l-10.37,45.85c-10.82-4.28-20.19-14.13-26.62-24.3-10-15.73-14.55-38-29.14-50a24.78,24.78,0,0,0-4.79-2.95,71.63,71.63,0,0,0-1.63-24l54.61-7.26,5.88,8.81Z" transform="translate(0 0)"/><path class="cls-11" d="M238.47,519.94l-4.72,20.86H78.4l-3.87-42.19a55.32,55.32,0,0,0,31,5.57c27.65-2.79,25.23-36.36,21.78-56-1.46-8.34-2.77-15.69-4-22.43l53-7a71.63,71.63,0,0,1,1.63,24c-9.64-4.72-26.28-7.61-27.14,6.1-.34,5.48,1.58,9.76,6.24,12.55,11.1,6.63,19.63-9.85,20.61-16.42.11-.74.21-1.49.29-2.23a24.78,24.78,0,0,1,4.79,2.95c14.58,12,19.18,34.28,29.14,50,6.43,10.17,15.8,20,26.62,24.3" transform="translate(0 0)"/><path class="cls-11" d="M230.9,411.45l-54.61,7.26c-.35-1.51-.73-3-1.16-4.51A137.46,137.46,0,0,0,160.84,381c9.2-3.72,15.78-9.71,15.76-17.11l17.32,7.32a51,51,0,0,1,22.56,18.66Z" transform="translate(0 0)"/><path class="cls-11" d="M222.07,220a54.64,54.64,0,0,1-1.57,7.16c-1.11-7.16-12.16-12.08-19.92-11.46-20.89,1.66-40.09,11.67-61.33,5.89-29.31-8-50.82-34.31-62.22-61.67l-.55-.87a52.41,52.41,0,0,1,4.66-2.67,59.86,59.86,0,0,1,56.88,2c15.84,9.51,34.26,9.31,50.85,17.44,17.17,8.43,29.74,25.45,33.2,44.2" transform="translate(0 0)"/><path class="cls-11" d="M94.17,239.1c6.74,21.12-1.94,36.59-10.12,44.44h0c-2.62-15.19-6.12-37.07-25.92-37.07a18.16,18.16,0,0,0-5.33.76c-.86-14.34-4.8-29.35-3.52-43.74A60,60,0,0,1,76.48,159l.55.87c11.4,27.36,32.91,53.68,62.22,61.67,21.24,5.78,40.44-4.23,61.33-5.89,7.76-.62,18.81,4.3,19.92,11.46-4.28,14.71-13.88,22.94-24.44,27.52-13.21,5.72-27.92,5.73-35.63,5.52-18.2-.47-47.57-7.32-66.26-21.06" transform="translate(0 0)"/><path class="cls-11" d="M169.9,339a48.83,48.83,0,0,1-25.73,4.37,26.73,26.73,0,0,0-5.59-11.64c-8.71-10-20.18-10.29-31.1-15.77-1.21-.61-2.38-1.27-3.53-2a36.69,36.69,0,0,0-6.9-18.12c-2.27-3-6.68-4.68-11.54-5.06-.24-.87-.46-1.76-.63-2.65-.28-1.45-.56-3-.84-4.63h0c8.18-7.85,16.86-23.32,10.12-44.45,18.69,13.75,48.06,20.6,66.26,21.07,7.71.21,22.42.2,35.63-5.52l.26.6c2,39.37-2.42,71.67-25.78,83.45l-.64.31" transform="translate(0 0)"/><path class="cls-11" d="M177.92,442.68c-.08.74-.18,1.49-.29,2.23-1,6.57-9.51,23-20.61,16.42-4.66-2.79-6.58-7.07-6.24-12.55.86-13.71,17.51-10.82,27.14-6.1" transform="translate(0 0)"/><path class="cls-11" d="M176.6,363.87c0,7.4-6.56,13.39-15.76,17.11a95,95,0,0,0-18.17-22.19c2.37-4.16,2.71-9.93,1.5-15.42A48.83,48.83,0,0,0,169.9,339c2.3,8.52,6.7,24.87,6.7,24.87" transform="translate(0 0)"/><path class="cls-11" d="M176.29,418.71l-53,7c-3.28-17.9-6.11-31.49-10.28-47.95h0c11.76,9.24,33.14,9.12,47.83,3.18a137.46,137.46,0,0,1,14.29,33.22c.43,1.49.81,3,1.16,4.51" transform="translate(0 0)"/><path class="cls-11" d="M142.67,358.79A95,95,0,0,1,160.84,381c-14.69,5.94-36.07,6.06-47.83-3.18h0c-1.54-6.09-3.26-12.56-5.26-19.79a74.69,74.69,0,0,0,20.75,6.55c5.47.86,9.41-.44,12.06-3h0a12,12,0,0,0,2.11-2.76" transform="translate(0 0)"/><path class="cls-12" d="M140.56,361.55c2.11-7.48-2.94-17.64-8.17-23.63-7.12-8.15-17.72-8.2-27.32-10.94l-.72-8.23v-.06c-.08-1.57-.21-3.14-.4-4.69,1.15.69,2.32,1.35,3.53,2,10.92,5.48,22.39,5.8,31.1,15.77a26.73,26.73,0,0,1,5.59,11.64c1.21,5.49.87,11.26-1.5,15.42a12,12,0,0,1-2.11,2.76" transform="translate(0 0)"/><path class="cls-12" d="M132.39,337.92c5.23,6,10.28,16.14,8.17,23.63h0c-2.65,2.56-6.59,3.86-12.06,3A74.69,74.69,0,0,1,107.75,358l-2.68-31c9.6,2.74,20.2,2.79,27.32,10.94" transform="translate(0 0)"/><path class="cls-11" d="M123.29,425.75l-55.14,7.34c.37-12.18.81-22.37,1.23-31.89.7-15.4,1.36-29.06,1.75-46.5-14.86-7-21.43-32.37-15.41-47.61h0l29.78-16.26h0c4.86.38,9.27,2,11.54,5.06A36.69,36.69,0,0,1,104,314h0l.4,4.7v.06c.15,2.66.15,5.35.12,8.06-.09,7.29-.48,14.66.65,21.79q1.39,4.92,2.63,9.41c2,7.23,3.72,13.7,5.26,19.79,4.17,16.46,7,30.05,10.28,47.95" transform="translate(0 0)"/><path class="cls-11" d="M105.07,327l2.68,31q-1.25-4.5-2.63-9.41c-1.13-7.13-.74-14.5-.65-21.79l.6.17" transform="translate(0 0)"/><path class="cls-11" d="M104.35,318.75l.72,8.23-.61-.17c0-2.71,0-5.4-.11-8.06" transform="translate(0 0)"/><path class="cls-11" d="M104.35,318.69l-.41-4.7h0c.19,1.55.32,3.12.4,4.69" transform="translate(0 0)"/><path class="cls-12" d="M84.88,288.17c.17.89.39,1.78.63,2.65a29.12,29.12,0,0,0-12.13,1.6c-2.45-13.83-4.62-37.09-20.45-41.49,0-1.23-.07-2.46-.14-3.7a18.16,18.16,0,0,1,5.33-.76c19.8,0,23.3,21.88,25.92,37.07.28,1.63.56,3.18.84,4.63" transform="translate(0 0)"/><path class="cls-11" d="M85.51,290.82h0L55.73,307.09a21.8,21.8,0,0,1,2.32-4.45c4.78-7,5.85-5.81,13.51-9.46.58-.28,1.19-.53,1.82-.76a29.12,29.12,0,0,1,12.13-1.6" transform="translate(0 0)"/><path class="cls-12" d="M73.38,292.42c-.63.23-1.24.48-1.82.76-7.66,3.65-8.73,2.45-13.51,9.46a21.8,21.8,0,0,0-2.32,4.45h0a107.45,107.45,0,0,1-11.79-26.22,44.92,44.92,0,0,0,4.9-7.92c3.3-7,4.25-14.4,4.1-22,15.83,4.4,18,27.66,20.45,41.49" transform="translate(0 0)"/><path class="cls-11" d="M69.38,401.2c-.42,9.52-.86,19.71-1.23,31.89l-1,.13c-14.39-2.77-28.4-10.25-39.65-20.59-9.81-9-17.53-20.18-21.59-32.28-8.72-26-2.39-56.48,16-76.86,3.39-3.76,7.16-7.22,10.88-10.73C9.8,328.84,29,384.94,69.38,401.2" transform="translate(0 0)"/><path class="cls-11" d="M67.11,433.22l1-.13,55.14-7.34c1.24,6.74,2.55,14.09,4,22.43,3.45,19.64,5.87,53.21-21.78,56a55.32,55.32,0,0,1-31-5.57c-29.19-14.7-45-54.19-47.07-86C38.71,423,52.72,430.45,67.11,433.22" transform="translate(0 0)"/><path class="cls-11" d="M55.72,307.09h0c-6,15.24.55,40.61,15.41,47.61-.39,17.45-1,31.1-1.75,46.5C29,384.94,9.8,328.84,32.7,292.76a102.17,102.17,0,0,0,11.23-11.89,107.45,107.45,0,0,0,11.79,26.22" transform="translate(0 0)"/><path class="cls-12" d="M52.93,250.93c.15,7.62-.8,15-4.1,22a44.92,44.92,0,0,1-4.9,7.92,58.34,58.34,0,0,1-2.34-17.95c.22-5.37,2.27-9.82,5.7-12.73h0a20.73,20.73,0,0,1,5.63.74" transform="translate(0 0)"/><path class="cls-11" d="M52.79,247.23c.07,1.24.12,2.47.14,3.7a20.73,20.73,0,0,0-5.63-.74,15,15,0,0,1,5.49-3" transform="translate(0 0)"/></g></g><path class="cls-13" d="M52.79,247.23c-.86-14.34-4.8-29.35-3.52-43.74A60,60,0,0,1,76.48,159a52.41,52.41,0,0,1,4.66-2.67,59.88,59.88,0,0,1,56.89,2c15.83,9.51,34.25,9.31,50.84,17.44,17.17,8.43,29.74,25.45,33.2,44.2a56.89,56.89,0,0,1,.92,8c.86,20.41-8.48,40.15-8.25,60.58.28,26.07,15.79,49.09,27.41,72.43,7.23,14.52,12.92,31.37,12.72,47.26" transform="translate(0 0)"/><path class="cls-13" d="M67.11,433.22c-14.39-2.77-28.4-10.25-39.65-20.59-9.81-9-17.53-20.18-21.59-32.28-8.72-26-2.39-56.48,16-76.86,3.39-3.76,7.16-7.22,10.88-10.73a102.17,102.17,0,0,0,11.23-11.89" transform="translate(0 0)"/><path class="cls-14" d="M140.56,361.56c-2.65,2.56-6.59,3.86-12.06,3A74.69,74.69,0,0,1,107.75,358" transform="translate(0 0)"/><path class="cls-14" d="M104,314h0c1.15.69,2.32,1.35,3.53,2,10.92,5.48,22.39,5.8,31.1,15.77a26.73,26.73,0,0,1,5.59,11.64c1.21,5.49.87,11.26-1.5,15.42a12,12,0,0,1-2.11,2.76" transform="translate(0 0)"/><line class="cls-15" x1="104.35" y1="318.69" x2="103.94" y2="313.99"/><path class="cls-16" d="M47.3,250.19a15,15,0,0,1,5.49-3,18.16,18.16,0,0,1,5.33-.76c19.8,0,23.3,21.88,25.92,37.07.29,1.63.56,3.18.84,4.63.18.89.39,1.78.63,2.65h0" transform="translate(0 0)"/><path class="cls-16" d="M55.72,307.09a107.45,107.45,0,0,1-11.79-26.22,58.34,58.34,0,0,1-2.34-17.95c.22-5.37,2.27-9.82,5.7-12.73" transform="translate(0 0)"/><line class="cls-14" x1="140.56" y1="361.55" x2="140.56" y2="361.56"/><path class="cls-17" d="M104.47,326.81l.6.17c9.6,2.74,20.2,2.79,27.32,10.94,5.23,6,10.28,16.15,8.17,23.63" transform="translate(0 0)"/><path class="cls-18" d="M47.3,250.19a20.73,20.73,0,0,1,5.63.74c15.83,4.4,18,27.66,20.45,41.49" transform="translate(0 0)"/><line class="cls-16" x1="47.29" y1="250.19" x2="47.3" y2="250.19"/><path class="cls-19" d="M104.35,318.75c.15,2.66.15,5.35.11,8.06-.08,7.29-.47,14.66.66,21.79q1.39,4.92,2.63,9.41c2,7.23,3.72,13.7,5.26,19.79,4.17,16.46,7,30.05,10.28,47.95,1.24,6.74,2.55,14.09,4,22.43,3.45,19.64,5.87,53.21-21.78,56a55.32,55.32,0,0,1-31-5.57c-29.19-14.7-45-54.19-47.07-86" transform="translate(0 0)"/><line class="cls-15" x1="104.35" y1="318.69" x2="104.35" y2="318.75"/><path class="cls-19" d="M55.73,307.09a21.8,21.8,0,0,1,2.32-4.45c4.78-7,5.85-5.81,13.51-9.46.58-.28,1.19-.53,1.82-.76a29.12,29.12,0,0,1,12.13-1.6c4.86.38,9.27,2,11.54,5.06A36.69,36.69,0,0,1,104,314c.19,1.55.32,3.12.4,4.69" transform="translate(0 0)"/><path class="cls-19" d="M67.6,454.36c.16-7.78.34-14.81.55-21.27.37-12.18.81-22.37,1.23-31.89.7-15.4,1.36-29.06,1.75-46.5-14.86-7-21.43-32.37-15.41-47.61" transform="translate(0 0)"/><path class="cls-19" d="M78.4,219.62c2.71,7.58,8.41,14.06,15.77,19.47,18.69,13.75,48.06,20.6,66.26,21.07,7.71.21,22.42.2,35.63-5.52,10.56-4.58,20.16-12.82,24.44-27.52a54.64,54.64,0,0,0,1.57-7.16" transform="translate(0 0)"/><path class="cls-19" d="M196.32,255.24c2,39.37-2.42,71.67-25.78,83.45l-.64.31a48.83,48.83,0,0,1-25.73,4.37" transform="translate(0 0)"/><path class="cls-20" d="M77,159.88c11.4,27.36,32.91,53.68,62.22,61.67,21.24,5.78,40.44-4.23,61.33-5.89,7.76-.62,18.81,4.3,19.92,11.46h0" transform="translate(0 0)"/><path class="cls-21" d="M113,377.8c11.76,9.24,33.14,9.12,47.83,3.18,9.2-3.72,15.78-9.71,15.76-17.11,0,0-4.4-16.35-6.7-24.87l-.1-.37" transform="translate(0 0)"/><path class="cls-13" d="M176.6,363.87l17.32,7.32a51,51,0,0,1,22.56,18.66l14.42,21.6,5.88,8.81,2.88,4.32a63.83,63.83,0,0,1,9.18,49.51l-10.37,45.85-4.72,20.86" transform="translate(0 0)"/><polyline class="cls-19" points="233.75 540.8 78.4 540.8 74.53 498.61"/><path class="cls-5" d="M355.71,368.15a17.1,17.1,0,0,1,10.16-3.33h15.56" transform="translate(0 0)"/><path class="cls-5" d="M380.09,391.56a17.14,17.14,0,0,1-25.94,2.94" transform="translate(0 0)"/><path class="cls-5" d="M444.12,364.82h11.13a7,7,0,0,1,6.94,7.93c-1.82,14.43-8.54,26.94-18.07,35.07a39.5,39.5,0,0,1-25.78,9.84,36.52,36.52,0,0,1-3.78-.19l-.65-.07c-.82-.1-1.64-.22-2.45-.37-.2,0-.4-.07-.59-.12l-.73-.15c-.5-.11-1-.23-1.48-.37l-.59-.15c-.75-.21-1.48-.45-2.2-.7-.24-.08-.47-.16-.69-.25-.46-.17-.91-.34-1.35-.52l-.05,0-.66-.28a36.86,36.86,0,0,1-4-2c-.22-.11-.44-.24-.65-.37a39.73,39.73,0,0,1-3.72-2.51,49.92,49.92,0,0,1-14.69-18,59.39,59.39,0,0,1-5.6-18.81l0-.35a7,7,0,0,1,5.16-7.34,6.81,6.81,0,0,1,1.81-.24Z" transform="translate(0 0)"/><path class="cls-22" d="M361.59,376.72h0a6.77,6.77,0,0,1,11,5.25,6.77,6.77,0,0,1-11.46,4.89c-.15-.15-.3-.3-.43-.45" transform="translate(0 0)"/><path class="cls-23" d="M177.92,442.68a24.78,24.78,0,0,1,4.79,2.95c14.59,12,19.18,34.28,29.14,50,6.43,10.17,15.81,20,26.62,24.3a29.5,29.5,0,0,0,15,2C278,518.52,287,490.15,288.8,468a97.71,97.71,0,0,0,.1-15.63,62.06,62.06,0,0,0-2.55-13.75c-2.85-8.83-8.06-14.71-16.52-10.76-4.57,2.12-4.73,9.26-2.93,14a52.33,52.33,0,0,0,5.6,10.24c1.1,1.61,2.24,3.12,3.31,4.41a73.28,73.28,0,0,0,13,11.47c6.61,4.64,14.14,8.41,19.81,7.82" transform="translate(0 0)"/><path class="cls-23" d="M177.92,442.68c-.08.74-.18,1.49-.29,2.23-1,6.57-9.51,23-20.61,16.42-4.66-2.79-6.58-7.07-6.24-12.55C151.64,435.07,168.29,438,177.92,442.68Z" transform="translate(0 0)"/><path class="cls-23" d="M142.67,358.79A95,95,0,0,1,160.84,381a137.46,137.46,0,0,1,14.29,33.22c.43,1.49.81,3,1.16,4.51a71.63,71.63,0,0,1,1.63,24" transform="translate(0 0)"/><path class="cls-5" d="M236.78,420.26l18.09-12c13.36-8.84,26.29-17.4,40.32-26.71,13.61-9,28.31-18.4,44.63-18.21,5.63.06,11.43,1.39,15.88,4.81h0l.43.35a16.76,16.76,0,0,1,5.46,8.22,13,13,0,0,1,0,7.3,17.72,17.72,0,0,1-.9,2.39,18.76,18.76,0,0,1-1.22,2.24,22.73,22.73,0,0,1-5.37,5.84h0a22.15,22.15,0,0,1-12.86,4.79c-14.34.25-17-2.77-27.38,9.74-7.46,9-17.55,19.59-27.56,29.56-4.73,4.71-9.45,9.28-13.85,13.5-13.2,12.62-23.66,22-23.66,22" transform="translate(0 0)"/><polyline class="cls-20" points="444.12 363.95 444.12 364.82 444.12 407.82 444.12 446.08 444.12 457.44"/><path class="cls-22" d="M459.74,468.28V485a4.71,4.71,0,0,1-4.7,4.69H433.19A4.7,4.7,0,0,1,428.5,485V468.28a13.16,13.16,0,0,1,3.46-8.9l12.16-13.3,12.16,13.3A13.21,13.21,0,0,1,459.74,468.28Z" transform="translate(0 0)"/><path class="cls-19" d="M84.05,283.54c8.18-7.85,16.86-23.32,10.12-44.45" transform="translate(0 0)"/><path class="cls-20" d="M32.7,292.76C9.8,328.84,29,384.94,69.38,401.2" transform="translate(0 0)"/></g></g></g></g></svg>