<svg xmlns="http://www.w3.org/2000/svg" xmlns:xlink="http://www.w3.org/1999/xlink" viewBox="0 0 429.18 290.52">
  <defs>
    <pattern id="Tratteggio" data-name="Tratteggio" width="72" height="72" patternUnits="userSpaceOnUse" viewBox="0 0 72 72">
      <rect width="72" height="72" style="fill: none"/>
      <g>
        <line x1="67.96" y1="72.85" x2="69.08" y2="69.89" style="fill: none;stroke: #222221;stroke-width: 0.30000000000000004px"/>
        <line x1="63.13" y1="72.98" x2="62.5" y2="69.71" style="fill: none;stroke: #222221;stroke-width: 0.30000000000000004px"/>
        <line x1="47.91" y1="73.84" x2="48.03" y2="70.84" style="fill: none;stroke: #222221;stroke-width: 0.30000000000000004px"/>
        <line x1="32.21" y1="72.24" x2="30.79" y2="70.19" style="fill: none;stroke: #222221;stroke-width: 0.30000000000000004px"/>
        <line x1="15.95" y1="72.38" x2="17.27" y2="70.42" style="fill: none;stroke: #222221;stroke-width: 0.30000000000000004px"/>
        <line x1="4.89" y1="73.71" x2="3.22" y2="71.39" style="fill: none;stroke: #222221;stroke-width: 0.30000000000000004px"/>
        <line x1="55.47" y1="74.02" x2="57.47" y2="71.02" style="fill: none;stroke: #222221;stroke-width: 0.30000000000000004px"/>
      </g>
      <g>
        <line x1="74.75" y1="24" x2="71.75" y2="24" style="fill: none;stroke: #222221;stroke-width: 0.30000000000000004px"/>
        <line x1="73.75" y1="39.75" x2="71.75" y2="41.25" style="fill: none;stroke: #222221;stroke-width: 0.30000000000000004px"/>
      </g>
      <g>
        <line x1="5.75" y1="10.75" x2="3" y2="12.75" style="fill: none;stroke: #222221;stroke-width: 0.30000000000000004px"/>
        <line x1="4.25" y1="67" x2="2" y2="68.75" style="fill: none;stroke: #222221;stroke-width: 0.30000000000000004px"/>
        <line x1="73.25" y1="7" x2="70" y2="7.75" style="fill: none;stroke: #222221;stroke-width: 0.30000000000000004px"/>
        <line x1="72" y1="18.75" x2="69.5" y2="20.5" style="fill: none;stroke: #222221;stroke-width: 0.30000000000000004px"/>
        <line x1="74.75" y1="24" x2="71.75" y2="24" style="fill: none;stroke: #222221;stroke-width: 0.30000000000000004px"/>
        <line x1="71.5" y1="31.5" x2="68.75" y2="29.75" style="fill: none;stroke: #222221;stroke-width: 0.30000000000000004px"/>
        <line x1="73.75" y1="39.75" x2="71.75" y2="41.25" style="fill: none;stroke: #222221;stroke-width: 0.30000000000000004px"/>
        <line x1="71.25" y1="51.75" x2="68.5" y2="49.5" style="fill: none;stroke: #222221;stroke-width: 0.30000000000000004px"/>
        <line x1="73.25" y1="62.75" x2="69" y2="62" style="fill: none;stroke: #222221;stroke-width: 0.30000000000000004px"/>
        <line x1="63.5" y1="61" x2="61.25" y2="62.75" style="fill: none;stroke: #222221;stroke-width: 0.30000000000000004px"/>
        <line x1="71.75" y1="45" x2="68.75" y2="45" style="fill: none;stroke: #222221;stroke-width: 0.30000000000000004px"/>
        <line x1="58" y1="17.5" x2="56.11" y2="14.68" style="fill: none;stroke: #222221;stroke-width: 0.30000000000000004px"/>
        <line x1="28" y1="16" x2="26.35" y2="13.44" style="fill: none;stroke: #222221;stroke-width: 0.30000000000000004px"/>
        <line x1="43.04" y1="11.56" x2="44.89" y2="8.88" style="fill: none;stroke: #222221;stroke-width: 0.30000000000000004px"/>
        <line x1="67.96" y1="72.85" x2="69.08" y2="69.89" style="fill: none;stroke: #222221;stroke-width: 0.30000000000000004px"/>
        <line x1="63.13" y1="72.98" x2="62.5" y2="69.71" style="fill: none;stroke: #222221;stroke-width: 0.30000000000000004px"/>
        <line x1="57" y1="48" x2="55.11" y2="45.18" style="fill: none;stroke: #222221;stroke-width: 0.30000000000000004px"/>
        <line x1="48.65" y1="19.56" x2="47" y2="17" style="fill: none;stroke: #222221;stroke-width: 0.30000000000000004px"/>
        <line x1="47.91" y1="73.84" x2="48.03" y2="70.84" style="fill: none;stroke: #222221;stroke-width: 0.30000000000000004px"/>
        <line x1="40.54" y1="70.31" x2="42.39" y2="67.63" style="fill: none;stroke: #222221;stroke-width: 0.30000000000000004px"/>
        <line x1="32.21" y1="72.24" x2="30.79" y2="70.19" style="fill: none;stroke: #222221;stroke-width: 0.30000000000000004px"/>
        <line x1="50.32" y1="40.79" x2="52.67" y2="38.13" style="fill: none;stroke: #222221;stroke-width: 0.30000000000000004px"/>
        <line x1="15.95" y1="72.38" x2="17.27" y2="70.42" style="fill: none;stroke: #222221;stroke-width: 0.30000000000000004px"/>
        <line x1="9.25" y1="70.87" x2="10.16" y2="66.65" style="fill: none;stroke: #222221;stroke-width: 0.30000000000000004px"/>
        <line x1="4.89" y1="73.71" x2="3.22" y2="71.39" style="fill: none;stroke: #222221;stroke-width: 0.30000000000000004px"/>
        <line x1="27.04" y1="70.04" x2="27.16" y2="67.05" style="fill: none;stroke: #222221;stroke-width: 0.30000000000000004px"/>
        <line x1="7.25" y1="5.25" x2="10.75" y2="6.75" style="fill: none;stroke: #222221;stroke-width: 0.30000000000000004px"/>
        <line x1="4.5" y1="20.75" x2="4.75" y2="17.5" style="fill: none;stroke: #222221;stroke-width: 0.30000000000000004px"/>
        <line x1="8" y1="43.75" x2="9.5" y2="47.5" style="fill: none;stroke: #222221;stroke-width: 0.30000000000000004px"/>
        <line x1="5.25" y1="38.25" x2="7.5" y2="34.5" style="fill: none;stroke: #222221;stroke-width: 0.30000000000000004px"/>
        <line x1="29.25" y1="4.5" x2="27" y2="7" style="fill: none;stroke: #222221;stroke-width: 0.30000000000000004px"/>
        <line x1="33.5" y1="4.5" x2="36.75" y2="7.25" style="fill: none;stroke: #222221;stroke-width: 0.30000000000000004px"/>
        <line x1="50.25" y1="4.5" x2="53.5" y2="6.5" style="fill: none;stroke: #222221;stroke-width: 0.30000000000000004px"/>
        <line x1="52.5" y1="10.5" x2="50.5" y2="13.75" style="fill: none;stroke: #222221;stroke-width: 0.30000000000000004px"/>
        <line x1="59.5" y1="9.25" x2="64.5" y2="7" style="fill: none;stroke: #222221;stroke-width: 0.30000000000000004px"/>
        <line x1="67" y1="12.75" x2="64.5" y2="14.5" style="fill: none;stroke: #222221;stroke-width: 0.30000000000000004px"/>
        <line x1="18.75" y1="4.75" x2="18.75" y2="7.75" style="fill: none;stroke: #222221;stroke-width: 0.30000000000000004px"/>
        <line x1="15.75" y1="9.75" x2="12.5" y2="10.25" style="fill: none;stroke: #222221;stroke-width: 0.30000000000000004px"/>
        <line x1="20" y1="14.25" x2="20.5" y2="17.5" style="fill: none;stroke: #222221;stroke-width: 0.30000000000000004px"/>
        <line x1="21" y1="9.75" x2="24.5" y2="9" style="fill: none;stroke: #222221;stroke-width: 0.30000000000000004px"/>
        <line x1="9.25" y1="21.5" x2="12" y2="19.5" style="fill: none;stroke: #222221;stroke-width: 0.30000000000000004px"/>
        <line x1="7.5" y1="64" x2="7.75" y2="60" style="fill: none;stroke: #222221;stroke-width: 0.30000000000000004px"/>
        <line x1="7.25" y1="55.75" x2="9.5" y2="53.25" style="fill: none;stroke: #222221;stroke-width: 0.30000000000000004px"/>
        <line x1="21.25" y1="65.75" x2="18.75" y2="62.25" style="fill: none;stroke: #222221;stroke-width: 0.30000000000000004px"/>
        <line x1="29.75" y1="28.5" x2="27.25" y2="30.25" style="fill: none;stroke: #222221;stroke-width: 0.30000000000000004px"/>
        <line x1="57.75" y1="33.75" x2="55" y2="32.25" style="fill: none;stroke: #222221;stroke-width: 0.30000000000000004px"/>
        <line x1="26.75" y1="40" x2="23" y2="39.25" style="fill: none;stroke: #222221;stroke-width: 0.30000000000000004px"/>
        <line x1="31.5" y1="49.5" x2="29.5" y2="51" style="fill: none;stroke: #222221;stroke-width: 0.30000000000000004px"/>
        <line x1="29" y1="61.5" x2="26.25" y2="59.25" style="fill: none;stroke: #222221;stroke-width: 0.30000000000000004px"/>
        <line x1="32.25" y1="65.75" x2="30.25" y2="64.5" style="fill: none;stroke: #222221;stroke-width: 0.30000000000000004px"/>
        <line x1="29.5" y1="54.75" x2="26.5" y2="54.75" style="fill: none;stroke: #222221;stroke-width: 0.30000000000000004px"/>
        <line x1="39.75" y1="19" x2="37.25" y2="20.75" style="fill: none;stroke: #222221;stroke-width: 0.30000000000000004px"/>
        <line x1="42.5" y1="24.25" x2="39.5" y2="24.25" style="fill: none;stroke: #222221;stroke-width: 0.30000000000000004px"/>
        <line x1="39.25" y1="31.75" x2="36.5" y2="30" style="fill: none;stroke: #222221;stroke-width: 0.30000000000000004px"/>
        <line x1="38.5" y1="42.5" x2="37.75" y2="45" style="fill: none;stroke: #222221;stroke-width: 0.30000000000000004px"/>
        <line x1="39" y1="52" x2="36.25" y2="49.75" style="fill: none;stroke: #222221;stroke-width: 0.30000000000000004px"/>
        <line x1="39.5" y1="60" x2="37.5" y2="58.75" style="fill: none;stroke: #222221;stroke-width: 0.30000000000000004px"/>
        <line x1="62.97" y1="44.52" x2="59.97" y2="44.52" style="fill: none;stroke: #222221;stroke-width: 0.30000000000000004px"/>
        <line x1="22.25" y1="43" x2="24.75" y2="44.75" style="fill: none;stroke: #222221;stroke-width: 0.30000000000000004px"/>
        <line x1="27" y1="20.5" x2="30" y2="20.5" style="fill: none;stroke: #222221;stroke-width: 0.30000000000000004px"/>
        <line x1="14.75" y1="34.75" x2="17.25" y2="36.5" style="fill: none;stroke: #222221;stroke-width: 0.30000000000000004px"/>
        <line x1="12" y1="40" x2="15" y2="40" style="fill: none;stroke: #222221;stroke-width: 0.30000000000000004px"/>
        <line x1="15.25" y1="47.5" x2="18" y2="45.75" style="fill: none;stroke: #222221;stroke-width: 0.30000000000000004px"/>
        <line x1="47.25" y1="33" x2="49.63" y2="31.44" style="fill: none;stroke: #222221;stroke-width: 0.30000000000000004px"/>
        <line x1="47.59" y1="25.47" x2="49.97" y2="27.29" style="fill: none;stroke: #222221;stroke-width: 0.30000000000000004px"/>
        <line x1="54.72" y1="21.48" x2="54.5" y2="24.5" style="fill: none;stroke: #222221;stroke-width: 0.30000000000000004px"/>
        <line x1="45.34" y1="65.56" x2="48.38" y2="65.69" style="fill: none;stroke: #222221;stroke-width: 0.30000000000000004px"/>
        <line x1="46.34" y1="59.72" x2="48.72" y2="61.54" style="fill: none;stroke: #222221;stroke-width: 0.30000000000000004px"/>
        <line x1="53.47" y1="55.73" x2="54.6" y2="58.79" style="fill: none;stroke: #222221;stroke-width: 0.30000000000000004px"/>
        <line x1="48.25" y1="43.5" x2="45.75" y2="45.25" style="fill: none;stroke: #222221;stroke-width: 0.30000000000000004px"/>
        <line x1="48" y1="51" x2="44.75" y2="50" style="fill: none;stroke: #222221;stroke-width: 0.30000000000000004px"/>
        <line x1="57" y1="66.5" x2="54.25" y2="64.75" style="fill: none;stroke: #222221;stroke-width: 0.30000000000000004px"/>
        <line x1="64.5" y1="41" x2="61.75" y2="39.25" style="fill: none;stroke: #222221;stroke-width: 0.30000000000000004px"/>
        <line x1="62.25" y1="52" x2="60.25" y2="53.5" style="fill: none;stroke: #222221;stroke-width: 0.30000000000000004px"/>
        <line x1="19.59" y1="29.56" x2="22.63" y2="29.69" style="fill: none;stroke: #222221;stroke-width: 0.30000000000000004px"/>
        <line x1="20.59" y1="23.72" x2="22.97" y2="25.54" style="fill: none;stroke: #222221;stroke-width: 0.30000000000000004px"/>
        <line x1="57.75" y1="28.5" x2="60.47" y2="29.04" style="fill: none;stroke: #222221;stroke-width: 0.30000000000000004px"/>
        <line x1="15" y1="55.75" x2="15.5" y2="59" style="fill: none;stroke: #222221;stroke-width: 0.30000000000000004px"/>
        <line x1="17" y1="53.75" x2="20.5" y2="53" style="fill: none;stroke: #222221;stroke-width: 0.30000000000000004px"/>
        <line x1="32.75" y1="12.75" x2="36.75" y2="13.5" style="fill: none;stroke: #222221;stroke-width: 0.30000000000000004px"/>
        <line x1="33.47" y1="33.52" x2="33.97" y2="37.02" style="fill: none;stroke: #222221;stroke-width: 0.30000000000000004px"/>
        <line x1="64.5" y1="23" x2="62" y2="21.75" style="fill: none;stroke: #222221;stroke-width: 0.30000000000000004px"/>
        <line x1="10" y1="13.5" x2="13.25" y2="16.25" style="fill: none;stroke: #222221;stroke-width: 0.30000000000000004px"/>
        <line x1="4.75" y1="29.5" x2="2.25" y2="31.25" style="fill: none;stroke: #222221;stroke-width: 0.30000000000000004px"/>
        <line x1="15.75" y1="24" x2="13.75" y2="25.5" style="fill: none;stroke: #222221;stroke-width: 0.30000000000000004px"/>
        <line x1="41.29" y1="4.81" x2="43.14" y2="2.13" style="fill: none;stroke: #222221;stroke-width: 0.30000000000000004px"/>
        <line x1="64.54" y1="35.06" x2="66.39" y2="32.38" style="fill: none;stroke: #222221;stroke-width: 0.30000000000000004px"/>
        <line x1="33.79" y1="26.31" x2="34.5" y2="23.5" style="fill: none;stroke: #222221;stroke-width: 0.30000000000000004px"/>
        <line x1="20.29" y1="58.81" x2="21" y2="56" style="fill: none;stroke: #222221;stroke-width: 0.30000000000000004px"/>
        <line x1="31.75" y1="42.75" x2="29.75" y2="44.25" style="fill: none;stroke: #222221;stroke-width: 0.30000000000000004px"/>
        <line x1="2.75" y1="24" x2="-0.25" y2="24" style="fill: none;stroke: #222221;stroke-width: 0.30000000000000004px"/>
        <line x1="1.75" y1="39.75" x2="-0.25" y2="41.25" style="fill: none;stroke: #222221;stroke-width: 0.30000000000000004px"/>
        <line x1="67.96" y1="0.85" x2="69.08" y2="-2.11" style="fill: none;stroke: #222221;stroke-width: 0.30000000000000004px"/>
        <line x1="63.13" y1="0.98" x2="62.5" y2="-2.29" style="fill: none;stroke: #222221;stroke-width: 0.30000000000000004px"/>
        <line x1="47.91" y1="1.84" x2="48.03" y2="-1.16" style="fill: none;stroke: #222221;stroke-width: 0.30000000000000004px"/>
        <line x1="32.21" y1="0.24" x2="30.79" y2="-1.81" style="fill: none;stroke: #222221;stroke-width: 0.30000000000000004px"/>
        <line x1="15.95" y1="0.38" x2="17.27" y2="-1.58" style="fill: none;stroke: #222221;stroke-width: 0.30000000000000004px"/>
        <line x1="4.89" y1="1.71" x2="3.22" y2="-0.61" style="fill: none;stroke: #222221;stroke-width: 0.30000000000000004px"/>
        <line x1="5.25" y1="52" x2="1.5" y2="51.25" style="fill: none;stroke: #222221;stroke-width: 0.30000000000000004px"/>
        <line x1="68.37" y1="57.34" x2="66.47" y2="54.52" style="fill: none;stroke: #222221;stroke-width: 0.30000000000000004px"/>
        <line x1="23.97" y1="36.02" x2="24.66" y2="33.23" style="fill: none;stroke: #222221;stroke-width: 0.30000000000000004px"/>
        <line x1="44.75" y1="37" x2="42.75" y2="38.5" style="fill: none;stroke: #222221;stroke-width: 0.30000000000000004px"/>
        <line x1="55.47" y1="2.02" x2="57.47" y2="-0.98" style="fill: none;stroke: #222221;stroke-width: 0.30000000000000004px"/>
        <line x1="55.47" y1="74.02" x2="57.47" y2="71.02" style="fill: none;stroke: #222221;stroke-width: 0.30000000000000004px"/>
      </g>
      <g>
        <line x1="1.25" y1="7" x2="-2" y2="7.75" style="fill: none;stroke: #222221;stroke-width: 0.30000000000000004px"/>
        <line y1="18.75" x2="-2.5" y2="20.5" style="fill: none;stroke: #222221;stroke-width: 0.30000000000000004px"/>
        <line x1="2.75" y1="24" x2="-0.25" y2="24" style="fill: none;stroke: #222221;stroke-width: 0.30000000000000004px"/>
        <line x1="1.75" y1="39.75" x2="-0.25" y2="41.25" style="fill: none;stroke: #222221;stroke-width: 0.30000000000000004px"/>
        <line x1="1.25" y1="62.75" x2="-3" y2="62" style="fill: none;stroke: #222221;stroke-width: 0.30000000000000004px"/>
      </g>
      <g>
        <line x1="67.96" y1="0.85" x2="69.08" y2="-2.11" style="fill: none;stroke: #222221;stroke-width: 0.30000000000000004px"/>
        <line x1="63.13" y1="0.98" x2="62.5" y2="-2.29" style="fill: none;stroke: #222221;stroke-width: 0.30000000000000004px"/>
        <line x1="47.91" y1="1.84" x2="48.03" y2="-1.16" style="fill: none;stroke: #222221;stroke-width: 0.30000000000000004px"/>
        <line x1="32.21" y1="0.24" x2="30.79" y2="-1.81" style="fill: none;stroke: #222221;stroke-width: 0.30000000000000004px"/>
        <line x1="15.95" y1="0.38" x2="17.27" y2="-1.58" style="fill: none;stroke: #222221;stroke-width: 0.30000000000000004px"/>
        <line x1="4.89" y1="1.71" x2="3.22" y2="-0.61" style="fill: none;stroke: #222221;stroke-width: 0.30000000000000004px"/>
        <line x1="55.47" y1="2.02" x2="57.47" y2="-0.98" style="fill: none;stroke: #222221;stroke-width: 0.30000000000000004px"/>
      </g>
    </pattern>
  </defs>
  <g id="Chi_Siamo" data-name="Chi Siamo">
    <g>
      <path d="M425.16,286.75c-8.3,5.54-11.09-3.67-21.06-3.67s-10,4-20,4-10-4-19.94-4-10,4-19.95,4-10-4-19.94-4-10,4-19.95,4-10-4-19.95-4-10,4-19.95,4-10-4-19.94-4-10,4-19.95,4-10-4-19.94-4-10,4-19.95,4-10-4-19.95-4-10,4-20,4-10-4-19.94-4-10,4-19.95,4-10-4-20-4-10,4-20,4-10-4-19.95-4-10,4-19.95,4S14.54,289,6.24,283.42c-5.53-3.7-3.11-5-3.11-11.65s4-6.66,4-13.32-4-6.65-4-13.31,4-6.66,4-13.32-4-6.65-4-13.31,4-6.65,4-13.31-4-6.66-4-13.31,4-6.66,4-13.32-4-6.66-4-13.31,4-6.66,4-13.32-4-6.66-4-13.31,4-6.66,4-13.32-4-6.66-4-13.32,4-6.66,4-13.32-4-6.65-4-13.31,4-6.66,4-13.32-4-6.65-4-13.31,4-6.66,4-13.32-4-6.66-4-13.32,4-6.66,4-13.33S-1.52,7.48,4,3.77c8.29-5.54,11.09,3.67,21.06,3.67s10-4,19.94-4,10,4,19.95,4,10-4,20-4,10,4,19.94,4,10-4,20-4,10,4,19.95,4,10-4,20-4,10,4,19.94,4,10-4,19.95-4,10,4,19.94,4,10-4,20-4,10,4,19.95,4,10-4,19.94-4,10,4,19.95,4,10-4,19.95-4,10,4,20,4,10-4,19.95-4,10,4,20,4,10-4,19.95-4,10.55-1.88,18.84,3.66c5.54,3.7,3.11,5,3.11,11.65s-4,6.66-4,13.32,4,6.65,4,13.31S422,52,422,58.7s4,6.65,4,13.31-4,6.66-4,13.31,4,6.66,4,13.31-4,6.66-4,13.32,4,6.66,4,13.31-4,6.66-4,13.32,4,6.66,4,13.31-4,6.66-4,13.32,4,6.66,4,13.32-4,6.66-4,13.32,4,6.65,4,13.31-4,6.66-4,13.32,4,6.65,4,13.31-4,6.66-4,13.32,4,6.66,4,13.32-5.66,7.42-3.93,13.85C424.24,280.16,430.7,283,425.16,286.75Z" style="fill: #fc0"/>
      <path d="M425.16,286.75c-8.3,5.54-11.09-3.67-21.06-3.67s-10,4-20,4-10-4-19.94-4-10,4-19.95,4-10-4-19.94-4-10,4-19.95,4-10-4-19.95-4-10,4-19.95,4-10-4-19.94-4-10,4-19.95,4-10-4-19.94-4-10,4-19.95,4-10-4-19.95-4-10,4-20,4-10-4-19.94-4-10,4-19.95,4-10-4-20-4-10,4-20,4-10-4-19.95-4-10,4-19.95,4S14.54,289,6.24,283.42c-5.53-3.7-3.11-5-3.11-11.65s4-6.66,4-13.32-4-6.65-4-13.31,4-6.66,4-13.32-4-6.65-4-13.31,4-6.65,4-13.31-4-6.66-4-13.31,4-6.66,4-13.32-4-6.66-4-13.31,4-6.66,4-13.32-4-6.66-4-13.31,4-6.66,4-13.32-4-6.66-4-13.32,4-6.66,4-13.32-4-6.65-4-13.31,4-6.66,4-13.32-4-6.65-4-13.31,4-6.66,4-13.32-4-6.66-4-13.32,4-6.66,4-13.33S-1.52,7.48,4,3.77c8.29-5.54,11.09,3.67,21.06,3.67s10-4,19.94-4,10,4,19.95,4,10-4,20-4,10,4,19.94,4,10-4,20-4,10,4,19.95,4,10-4,20-4,10,4,19.94,4,10-4,19.95-4,10,4,19.94,4,10-4,20-4,10,4,19.95,4,10-4,19.94-4,10,4,19.95,4,10-4,19.95-4,10,4,20,4,10-4,19.95-4,10,4,20,4,10-4,19.95-4,10.55-1.88,18.84,3.66c5.54,3.7,3.11,5,3.11,11.65s-4,6.66-4,13.32,4,6.65,4,13.31S422,52,422,58.7s4,6.65,4,13.31-4,6.66-4,13.31,4,6.66,4,13.31-4,6.66-4,13.32,4,6.66,4,13.31-4,6.66-4,13.32,4,6.66,4,13.31-4,6.66-4,13.32,4,6.66,4,13.32-4,6.66-4,13.32,4,6.65,4,13.31-4,6.66-4,13.32,4,6.65,4,13.31-4,6.66-4,13.32,4,6.66,4,13.32-5.66,7.42-3.93,13.85C424.24,280.16,430.7,283,425.16,286.75Z" style="fill: none;stroke: #000;stroke-miterlimit: 10;stroke-width: 4px"/>
    </g>
    <g>
      <path d="M425,286.75c-8.3,5.54-11.09-3.67-21.06-3.67s-10,4-19.95,4-10-4-19.94-4-10,4-20,4-10-4-19.94-4-10,4-19.95,4-10-4-19.95-4-10,4-19.95,4-10-4-19.94-4-10,4-20,4-10-4-19.94-4-10,4-19.95,4-10-4-20-4-10,4-19.95,4-10-4-19.94-4-10,4-20,4-10-4-20-4-10,4-20,4-10-4-19.95-4-10,4-19.95,4S14.37,289,6.07,283.42c-5.53-3.7-3.11-5-3.11-11.65s4-6.66,4-13.32-4-6.65-4-13.31,4-6.66,4-13.32-4-6.65-4-13.31,4-6.65,4-13.31-4-6.66-4-13.31,4-6.66,4-13.32-4-6.66-4-13.31,4-6.66,4-13.32-4-6.66-4-13.31S7,132,7,125.31,3,118.65,3,112s4-6.66,4-13.32S3,92,3,85.36,7,78.7,7,72,3,65.39,3,58.73s4-6.66,4-13.32S3,38.75,3,32.09s4-6.66,4-13.33-8.65-11.28-3.11-15c8.29-5.54,11.09,3.67,21.06,3.67s10-4,19.94-4,10,4,19.95,4,10-4,20-4,10,4,19.94,4,10-4,20-4,10,4,20,4,10-4,19.95-4,10,4,19.94,4,10-4,20-4,10,4,19.94,4,10-4,19.95-4,10,4,19.95,4,10-4,19.94-4,10,4,20,4,10-4,19.95-4,10,4,19.95,4,10-4,19.95-4,10,4,20,4,10-4,19.95-4,10.55-1.88,18.84,3.66c5.54,3.7,3.11,5,3.11,11.65s-4,6.66-4,13.32,4,6.65,4,13.31-4,6.66-4,13.32,4,6.65,4,13.31-4,6.66-4,13.31,4,6.66,4,13.31-4,6.66-4,13.32,4,6.66,4,13.31-4,6.66-4,13.32,4,6.66,4,13.31-4,6.66-4,13.32,4,6.66,4,13.32-4,6.66-4,13.32,4,6.65,4,13.31-4,6.66-4,13.32,4,6.65,4,13.31-4,6.66-4,13.32,4,6.66,4,13.32-5.66,7.42-3.93,13.85C424.07,280.16,430.53,283,425,286.75Z" style="fill: url(#Tratteggio)"/>
      <path d="M425,286.75c-8.3,5.54-11.09-3.67-21.06-3.67s-10,4-19.95,4-10-4-19.94-4-10,4-20,4-10-4-19.94-4-10,4-19.95,4-10-4-19.95-4-10,4-19.95,4-10-4-19.94-4-10,4-20,4-10-4-19.94-4-10,4-19.95,4-10-4-20-4-10,4-19.95,4-10-4-19.94-4-10,4-20,4-10-4-20-4-10,4-20,4-10-4-19.95-4-10,4-19.95,4S14.37,289,6.07,283.42c-5.53-3.7-3.11-5-3.11-11.65s4-6.66,4-13.32-4-6.65-4-13.31,4-6.66,4-13.32-4-6.65-4-13.31,4-6.65,4-13.31-4-6.66-4-13.31,4-6.66,4-13.32-4-6.66-4-13.31,4-6.66,4-13.32-4-6.66-4-13.31S7,132,7,125.31,3,118.65,3,112s4-6.66,4-13.32S3,92,3,85.36,7,78.7,7,72,3,65.39,3,58.73s4-6.66,4-13.32S3,38.75,3,32.09s4-6.66,4-13.33-8.65-11.28-3.11-15c8.29-5.54,11.09,3.67,21.06,3.67s10-4,19.94-4,10,4,19.95,4,10-4,20-4,10,4,19.94,4,10-4,20-4,10,4,20,4,10-4,19.95-4,10,4,19.94,4,10-4,20-4,10,4,19.94,4,10-4,19.95-4,10,4,19.95,4,10-4,19.94-4,10,4,20,4,10-4,19.95-4,10,4,19.95,4,10-4,19.95-4,10,4,20,4,10-4,19.95-4,10.55-1.88,18.84,3.66c5.54,3.7,3.11,5,3.11,11.65s-4,6.66-4,13.32,4,6.65,4,13.31-4,6.66-4,13.32,4,6.65,4,13.31-4,6.66-4,13.31,4,6.66,4,13.31-4,6.66-4,13.32,4,6.66,4,13.31-4,6.66-4,13.32,4,6.66,4,13.31-4,6.66-4,13.32,4,6.66,4,13.32-4,6.66-4,13.32,4,6.65,4,13.31-4,6.66-4,13.32,4,6.65,4,13.31-4,6.66-4,13.32,4,6.66,4,13.32-5.66,7.42-3.93,13.85C424.07,280.16,430.53,283,425,286.75Z" style="fill: none;stroke: #000;stroke-miterlimit: 10;stroke-width: 4px"/>
    </g>
    <rect x="89.77" y="-49.2" width="249.65" height="388.91" transform="translate(69.33 359.85) rotate(-90)" style="fill: none;stroke: #000;stroke-linejoin: round;stroke-width: 8px"/>
    <g>
      <path d="M158.79,141.4V126.17H143.5V141.4H135V103.1h8.54v15h15.29v-15h8.58v38.3Z"/>
      <path d="M193.36,102.29c10.75,0,19.88,7.84,19.88,20s-9.13,19.93-19.88,19.93-19.93-7.83-19.93-19.93S182.55,102.29,193.36,102.29Zm0,31.5c5.29,0,11-3.57,11-11.56s-5.73-11.62-11-11.62-11.07,3.62-11.07,11.62S188,133.79,193.36,133.79Z"/>
      <path d="M254.34,141.4V116l-10,25.39h-6.91l-10-25.06V141.4h-8.1V103.1h11.13L241,129l10-25.88h11.72v38.3Z"/>
      <path d="M271,141.4V103.1h24.25v8.05H279.57v7.29h14.26V126H279.57v7.35h15.78v8.1Z"/>
    </g>
    <g>
      <path d="M149,175.44c.33,2.7,2.38,4.87,6.05,4.87,2.86,0,4.43-1.62,4.43-3.46,0-1.62-1.19-2.86-3.35-3.35l-4.43-1c-4.05-.87-6.48-3.62-6.48-7.29,0-4.43,4.16-8.22,9.24-8.22,7.13,0,9.34,4.65,9.88,7l-4.48,1.68a5,5,0,0,0-5.4-4.32c-2.6,0-4.32,1.67-4.32,3.45,0,1.57,1,2.7,3,3.14l4.21.91c4.7,1,7.18,3.89,7.18,7.73,0,3.67-3.07,8-9.5,8-7.13,0-10.16-4.59-10.59-7.57Z"/>
      <path d="M190.85,157.83l6.75,19.56,5.72-19.56h5.35l-8.42,26H195l-6.92-19.77-6.75,19.77H176l-8.53-26H173l5.84,19.56,6.75-19.56Z"/>
      <path d="M235.9,176.42a11.78,11.78,0,0,1-11.67,8.21c-7,0-13.07-5.08-13.07-13.88,0-8.16,5.89-13.73,12.42-13.73,8,0,12.48,5.51,12.48,13.62a10.57,10.57,0,0,1-.11,1.62H216.4a7.72,7.72,0,0,0,7.83,7.88,7.07,7.07,0,0,0,7.29-5.24Zm-5.13-8.27c-.11-3.72-2.54-6.64-7.13-6.64a7,7,0,0,0-7.08,6.64Z"/>
      <path d="M265.18,176.42a11.78,11.78,0,0,1-11.67,8.21c-7,0-13.07-5.08-13.07-13.88,0-8.16,5.89-13.73,12.42-13.73,8,0,12.48,5.51,12.48,13.62a10.57,10.57,0,0,1-.11,1.62H245.68a7.71,7.71,0,0,0,7.83,7.88,7.07,7.07,0,0,0,7.29-5.24Zm-5.13-8.27c-.11-3.72-2.54-6.64-7.13-6.64a7,7,0,0,0-7.08,6.64Z"/>
      <path d="M278.63,157.83h5.62v4.6h-5.62v13.5c0,2.38,1,3.57,3.62,3.57a10.17,10.17,0,0,0,2-.22v4.32a11.2,11.2,0,0,1-3.46.49c-4.43,0-7.24-2.7-7.24-7.4V162.43h-5v-4.6H270c2.81,0,4-1.72,4-4v-4.22h4.65Z"/>
    </g>
    <g>
      <path d="M158.79,233.94V218.71H143.5v15.23H135V195.65h8.54v15h15.29v-15h8.58v38.29Z"/>
      <path d="M193.36,194.84c10.75,0,19.88,7.83,19.88,20s-9.13,19.93-19.88,19.93-19.93-7.83-19.93-19.93S182.55,194.84,193.36,194.84Zm0,31.49c5.29,0,11-3.57,11-11.56s-5.73-11.62-11-11.62-11.07,3.62-11.07,11.62S188,226.33,193.36,226.33Z"/>
      <path d="M254.34,233.94V208.56l-10,25.38h-6.91l-10-25.06v25.06h-8.1V195.65h11.13L241,221.52l10-25.87h11.72v38.29Z"/>
      <path d="M271,233.94V195.65h24.25v8H279.57V211h14.26v7.51H279.57v7.34h15.78v8.1Z"/>
    </g>
  </g>
  <g id="Modalità_Isolamento" data-name="Modalità Isolamento">
    <path d="M236.86,67.21a14.92,14.92,0,1,0-22.27-19.85,14.92,14.92,0,1,0-21.1,21l19.43,19.18a2.44,2.44,0,0,0,3.42,0l19.53-19.32c.33-.3.64-.61.94-.93l.05-.05Z" style="fill: none;stroke: #000;stroke-linecap: round;stroke-linejoin: round;stroke-width: 4px"/>
  </g>
</svg>
