<svg xmlns="http://www.w3.org/2000/svg" xmlns:xlink="http://www.w3.org/1999/xlink" viewBox="0 0 535.3 604.35">
  <defs>
    <pattern id="_10_lpi_60_" data-name="10 lpi 60%" width="72" height="72" patternTransform="translate(256.2 -32.28)" patternUnits="userSpaceOnUse" viewBox="0 0 72 72">
      <rect width="72" height="72" style="fill: none"/>
      <g>
        <line x1="71.75" y1="68.4" x2="144.25" y2="68.4" style="fill: none;stroke: #222221;stroke-width: 4.32px"/>
        <line x1="71.75" y1="54" x2="144.25" y2="54" style="fill: none;stroke: #222221;stroke-width: 4.32px"/>
        <line x1="71.75" y1="39.6" x2="144.25" y2="39.6" style="fill: none;stroke: #222221;stroke-width: 4.32px"/>
        <line x1="71.75" y1="25.2" x2="144.25" y2="25.2" style="fill: none;stroke: #222221;stroke-width: 4.32px"/>
        <line x1="71.75" y1="10.8" x2="144.25" y2="10.8" style="fill: none;stroke: #222221;stroke-width: 4.32px"/>
        <line x1="71.75" y1="61.2" x2="144.25" y2="61.2" style="fill: none;stroke: #222221;stroke-width: 4.32px"/>
        <line x1="71.75" y1="46.8" x2="144.25" y2="46.8" style="fill: none;stroke: #222221;stroke-width: 4.32px"/>
        <line x1="71.75" y1="32.4" x2="144.25" y2="32.4" style="fill: none;stroke: #222221;stroke-width: 4.32px"/>
        <line x1="71.75" y1="18" x2="144.25" y2="18" style="fill: none;stroke: #222221;stroke-width: 4.32px"/>
        <line x1="71.75" y1="3.6" x2="144.25" y2="3.6" style="fill: none;stroke: #222221;stroke-width: 4.32px"/>
      </g>
      <g>
        <line x1="-0.25" y1="68.4" x2="72.25" y2="68.4" style="fill: none;stroke: #222221;stroke-width: 4.32px"/>
        <line x1="-0.25" y1="54" x2="72.25" y2="54" style="fill: none;stroke: #222221;stroke-width: 4.32px"/>
        <line x1="-0.25" y1="39.6" x2="72.25" y2="39.6" style="fill: none;stroke: #222221;stroke-width: 4.32px"/>
        <line x1="-0.25" y1="25.2" x2="72.25" y2="25.2" style="fill: none;stroke: #222221;stroke-width: 4.32px"/>
        <line x1="-0.25" y1="10.8" x2="72.25" y2="10.8" style="fill: none;stroke: #222221;stroke-width: 4.32px"/>
        <line x1="-0.25" y1="61.2" x2="72.25" y2="61.2" style="fill: none;stroke: #222221;stroke-width: 4.32px"/>
        <line x1="-0.25" y1="46.8" x2="72.25" y2="46.8" style="fill: none;stroke: #222221;stroke-width: 4.32px"/>
        <line x1="-0.25" y1="32.4" x2="72.25" y2="32.4" style="fill: none;stroke: #222221;stroke-width: 4.32px"/>
        <line x1="-0.25" y1="18" x2="72.25" y2="18" style="fill: none;stroke: #222221;stroke-width: 4.32px"/>
        <line x1="-0.25" y1="3.6" x2="72.25" y2="3.6" style="fill: none;stroke: #222221;stroke-width: 4.32px"/>
      </g>
      <g>
        <line x1="-72.25" y1="68.4" x2="0.25" y2="68.4" style="fill: none;stroke: #222221;stroke-width: 4.32px"/>
        <line x1="-72.25" y1="54" x2="0.25" y2="54" style="fill: none;stroke: #222221;stroke-width: 4.32px"/>
        <line x1="-72.25" y1="39.6" x2="0.25" y2="39.6" style="fill: none;stroke: #222221;stroke-width: 4.32px"/>
        <line x1="-72.25" y1="25.2" x2="0.25" y2="25.2" style="fill: none;stroke: #222221;stroke-width: 4.32px"/>
        <line x1="-72.25" y1="10.8" x2="0.25" y2="10.8" style="fill: none;stroke: #222221;stroke-width: 4.32px"/>
        <line x1="-72.25" y1="61.2" x2="0.25" y2="61.2" style="fill: none;stroke: #222221;stroke-width: 4.32px"/>
        <line x1="-72.25" y1="46.8" x2="0.25" y2="46.8" style="fill: none;stroke: #222221;stroke-width: 4.32px"/>
        <line x1="-72.25" y1="32.4" x2="0.25" y2="32.4" style="fill: none;stroke: #222221;stroke-width: 4.32px"/>
        <line x1="-72.25" y1="18" x2="0.25" y2="18" style="fill: none;stroke: #222221;stroke-width: 4.32px"/>
        <line x1="-72.25" y1="3.6" x2="0.25" y2="3.6" style="fill: none;stroke: #222221;stroke-width: 4.32px"/>
      </g>
    </pattern>
    <pattern id="Griglia_0_25_pollice_righe" data-name="Griglia 0,25 pollice righe" width="72" height="72" patternTransform="translate(256.2 -32.28)" patternUnits="userSpaceOnUse" viewBox="0 0 72 72">
      <rect width="72" height="72" style="fill: none"/>
      <g>
        <line x1="45" y1="71.75" x2="45" y2="144.25" style="fill: none;stroke: #222221;stroke-width: 0.30000000000000004px"/>
        <line x1="9" y1="71.75" x2="9" y2="144.25" style="fill: none;stroke: #222221;stroke-width: 0.30000000000000004px"/>
        <line x1="63" y1="71.75" x2="63" y2="144.25" style="fill: none;stroke: #222221;stroke-width: 0.30000000000000004px"/>
        <line x1="27" y1="71.75" x2="27" y2="144.25" style="fill: none;stroke: #222221;stroke-width: 0.30000000000000004px"/>
      </g>
      <g>
        <line x1="71.75" y1="9" x2="144.25" y2="9" style="fill: none;stroke: #222221;stroke-width: 0.30000000000000004px"/>
        <line x1="71.75" y1="45" x2="144.25" y2="45" style="fill: none;stroke: #222221;stroke-width: 0.30000000000000004px"/>
        <line x1="71.75" y1="27" x2="144.25" y2="27" style="fill: none;stroke: #222221;stroke-width: 0.30000000000000004px"/>
        <line x1="71.75" y1="63" x2="144.25" y2="63" style="fill: none;stroke: #222221;stroke-width: 0.30000000000000004px"/>
      </g>
      <g>
        <line x1="-0.25" y1="9" x2="72.25" y2="9" style="fill: none;stroke: #222221;stroke-width: 0.30000000000000004px"/>
        <line x1="-0.25" y1="45" x2="72.25" y2="45" style="fill: none;stroke: #222221;stroke-width: 0.30000000000000004px"/>
        <line x1="-0.25" y1="27" x2="72.25" y2="27" style="fill: none;stroke: #222221;stroke-width: 0.30000000000000004px"/>
        <line x1="-0.25" y1="63" x2="72.25" y2="63" style="fill: none;stroke: #222221;stroke-width: 0.30000000000000004px"/>
        <line x1="45" y1="-0.25" x2="45" y2="72.25" style="fill: none;stroke: #222221;stroke-width: 0.30000000000000004px"/>
        <line x1="9" y1="-0.25" x2="9" y2="72.25" style="fill: none;stroke: #222221;stroke-width: 0.30000000000000004px"/>
        <line x1="63" y1="-0.25" x2="63" y2="72.25" style="fill: none;stroke: #222221;stroke-width: 0.30000000000000004px"/>
        <line x1="27" y1="-0.25" x2="27" y2="72.25" style="fill: none;stroke: #222221;stroke-width: 0.30000000000000004px"/>
      </g>
      <g>
        <line x1="-72.25" y1="9" x2="0.25" y2="9" style="fill: none;stroke: #222221;stroke-width: 0.30000000000000004px"/>
        <line x1="-72.25" y1="45" x2="0.25" y2="45" style="fill: none;stroke: #222221;stroke-width: 0.30000000000000004px"/>
        <line x1="-72.25" y1="27" x2="0.25" y2="27" style="fill: none;stroke: #222221;stroke-width: 0.30000000000000004px"/>
        <line x1="-72.25" y1="63" x2="0.25" y2="63" style="fill: none;stroke: #222221;stroke-width: 0.30000000000000004px"/>
      </g>
      <g>
        <line x1="45" y1="-72.25" x2="45" y2="0.25" style="fill: none;stroke: #222221;stroke-width: 0.30000000000000004px"/>
        <line x1="9" y1="-72.25" x2="9" y2="0.25" style="fill: none;stroke: #222221;stroke-width: 0.30000000000000004px"/>
        <line x1="63" y1="-72.25" x2="63" y2="0.25" style="fill: none;stroke: #222221;stroke-width: 0.30000000000000004px"/>
        <line x1="27" y1="-72.25" x2="27" y2="0.25" style="fill: none;stroke: #222221;stroke-width: 0.30000000000000004px"/>
      </g>
    </pattern>
    <pattern id="_10_dpi_10_" data-name="10 dpi 10%" width="28.8" height="28.8" patternTransform="translate(69.01 10.92)" patternUnits="userSpaceOnUse" viewBox="0 0 28.8 28.8">
      <rect width="28.8" height="28.8" style="fill: none"/>
      <g>
        <circle cx="28.8" cy="28.8" r="0.72" style="fill: #222221"/>
        <path d="M14.4,29.52a.72.72,0,1,0-.72-.72A.72.72,0,0,0,14.4,29.52Z" style="fill: #222221"/>
        <path d="M28.8,15.12a.72.72,0,1,0-.72-.72A.72.72,0,0,0,28.8,15.12Z" style="fill: #222221"/>
        <path d="M14.4,15.12a.72.72,0,1,0-.72-.72A.72.72,0,0,0,14.4,15.12Z" style="fill: #222221"/>
        <path d="M7.2,22.32a.72.72,0,1,0-.72-.72A.72.72,0,0,0,7.2,22.32Z" style="fill: #222221"/>
        <path d="M21.6,22.32a.72.72,0,1,0-.72-.72A.72.72,0,0,0,21.6,22.32Z" style="fill: #222221"/>
        <path d="M7.2,7.92a.72.72,0,1,0-.72-.72A.72.72,0,0,0,7.2,7.92Z" style="fill: #222221"/>
        <path d="M21.6,7.92a.72.72,0,1,0-.72-.72A.72.72,0,0,0,21.6,7.92Z" style="fill: #222221"/>
      </g>
      <g>
        <circle cy="28.8" r="0.72" style="fill: #222221"/>
        <path d="M0,15.12a.72.72,0,0,0,0-1.44.72.72,0,0,0-.72.72A.72.72,0,0,0,0,15.12Z" style="fill: #222221"/>
      </g>
      <g>
        <path d="M28.8.72A.72.72,0,0,0,29.52,0a.72.72,0,0,0-.72-.72.72.72,0,0,0-.72.72A.72.72,0,0,0,28.8.72Z" style="fill: #222221"/>
        <path d="M14.4.72A.72.72,0,0,0,15.12,0a.72.72,0,0,0-.72-.72.72.72,0,0,0-.72.72A.72.72,0,0,0,14.4.72Z" style="fill: #222221"/>
      </g>
      <path d="M0,.72A.72.72,0,0,0,.72,0,.72.72,0,0,0,0-.72.72.72,0,0,0-.72,0,.72.72,0,0,0,0,.72Z" style="fill: #222221"/>
    </pattern>
    <pattern id="_6_lpi_10_" data-name="6 lpi 10%" width="72" height="72" patternTransform="translate(256.2 -32.28)" patternUnits="userSpaceOnUse" viewBox="0 0 72 72">
      <rect width="72" height="72" style="fill: none"/>
      <g>
        <line x1="71.75" y1="66" x2="144.25" y2="66" style="fill: none;stroke: #222221;stroke-width: 1.2000000000000002px"/>
        <line x1="71.75" y1="42" x2="144.25" y2="42" style="fill: none;stroke: #222221;stroke-width: 1.2000000000000002px"/>
        <line x1="71.75" y1="18" x2="144.25" y2="18" style="fill: none;stroke: #222221;stroke-width: 1.2000000000000002px"/>
        <line x1="71.75" y1="54" x2="144.25" y2="54" style="fill: none;stroke: #222221;stroke-width: 1.2000000000000002px"/>
        <line x1="71.75" y1="30" x2="144.25" y2="30" style="fill: none;stroke: #222221;stroke-width: 1.2000000000000002px"/>
        <line x1="71.75" y1="6" x2="144.25" y2="6" style="fill: none;stroke: #222221;stroke-width: 1.2000000000000002px"/>
      </g>
      <g>
        <line x1="-0.25" y1="66" x2="72.25" y2="66" style="fill: none;stroke: #222221;stroke-width: 1.2000000000000002px"/>
        <line x1="-0.25" y1="42" x2="72.25" y2="42" style="fill: none;stroke: #222221;stroke-width: 1.2000000000000002px"/>
        <line x1="-0.25" y1="18" x2="72.25" y2="18" style="fill: none;stroke: #222221;stroke-width: 1.2000000000000002px"/>
        <line x1="-0.25" y1="54" x2="72.25" y2="54" style="fill: none;stroke: #222221;stroke-width: 1.2000000000000002px"/>
        <line x1="-0.25" y1="30" x2="72.25" y2="30" style="fill: none;stroke: #222221;stroke-width: 1.2000000000000002px"/>
        <line x1="-0.25" y1="6" x2="72.25" y2="6" style="fill: none;stroke: #222221;stroke-width: 1.2000000000000002px"/>
      </g>
      <g>
        <line x1="-72.25" y1="66" x2="0.25" y2="66" style="fill: none;stroke: #222221;stroke-width: 1.2000000000000002px"/>
        <line x1="-72.25" y1="42" x2="0.25" y2="42" style="fill: none;stroke: #222221;stroke-width: 1.2000000000000002px"/>
        <line x1="-72.25" y1="18" x2="0.25" y2="18" style="fill: none;stroke: #222221;stroke-width: 1.2000000000000002px"/>
        <line x1="-72.25" y1="54" x2="0.25" y2="54" style="fill: none;stroke: #222221;stroke-width: 1.2000000000000002px"/>
        <line x1="-72.25" y1="30" x2="0.25" y2="30" style="fill: none;stroke: #222221;stroke-width: 1.2000000000000002px"/>
        <line x1="-72.25" y1="6" x2="0.25" y2="6" style="fill: none;stroke: #222221;stroke-width: 1.2000000000000002px"/>
      </g>
    </pattern>
    <clipPath id="clip-path" transform="translate(2.01 2.01)">
      <circle cx="271.38" cy="218.26" r="23.8" style="fill: none"/>
    </clipPath>
    <clipPath id="clip-path-2" transform="translate(2.01 2.01)">
      <circle cx="333.46" cy="218.26" r="23.8" style="fill: none"/>
    </clipPath>
    <clipPath id="clip-path-3" transform="translate(2.01 2.01)">
      <path d="M270.27,196.94h6a23,23,0,0,1,23,23v7.86a15,15,0,0,1-15,15h-22a15,15,0,0,1-15-15v-7.86a23,23,0,0,1,23-23Z" transform="translate(546.58 439.71) rotate(-180)" style="fill: none"/>
    </clipPath>
    <clipPath id="clip-path-4" transform="translate(2.01 2.01)">
      <path d="M331,196.94h6a23,23,0,0,1,23,23v7.86a15,15,0,0,1-15,15H323a15,15,0,0,1-15-15v-7.86a23,23,0,0,1,23-23Z" transform="translate(667.96 439.71) rotate(-180)" style="fill: none"/>
    </clipPath>
  </defs>
  <g id="BACKGROUND">
    <rect x="2.01" y="2.01" width="531.28" height="524.62" style="fill: #fff;stroke: #000;stroke-linecap: round;stroke-linejoin: round;stroke-width: 4.01943974479299px"/>
  </g>
  <g id="FACCIA">
    <g>
      <path d="M320.26,283.29,329,301.4c-.91,17.81-16.07,34.92-45.36,34.56-33.56-.41-52.9-25.19-48.81-45.31l8.27-12.86" transform="translate(2.01 2.01)" style="fill: #fff;stroke: #000;stroke-linecap: round;stroke-linejoin: round;stroke-width: 4.01943974479299px"/>
      <path d="M342.65,230.86c-2,15.91-7.81,40.71-22.39,52.43-13,10.42-32.3,10.28-49,7-8.21-1.6-16.63-5.74-23.94-10-14.1-8.25-22.66-23.27-26.9-38.66a9.73,9.73,0,0,0-1.13-2.9c-1.25-1.85-2.51-1-4.28-1.32a10.37,10.37,0,0,1-3.45-1.21,12.71,12.71,0,0,1-5-5.56c-2.18-4.46-2.75-10.66-.52-15.24,2-4.14,7.41-6,11.23-3.08.09-12.56,2.09-27,9.94-36.8,0,0,12.82-19.55,39.92-25.46,29.82-6.49,59.68,10.45,70.63,38.94A85,85,0,0,1,342.65,230.86Z" transform="translate(2.01 2.01)" style="fill: #fff;stroke: #000;stroke-linecap: round;stroke-linejoin: round;stroke-width: 4px"/>
    </g>
  </g>
  <g id="ABBIGLIAMENTO_group">
    <g id="Maglia-Gialla">
      <path d="M283.59,336c29.29.36,44.45-16.75,45.36-34.56l28.29,10.91a55.84,55.84,0,0,1,29.37,26.32l25.78,77.28s-12,36.75-57.63,25.43L339.53,379,375,524.12l-91.4.21-121.67-.21L197.39,379l-15.23,62.31c-45.62,11.32-57.63-25.43-57.63-25.43l25.78-77.28a55.84,55.84,0,0,1,29.37-26.32l43.44-17.08,11.66-4.58C230.69,310.77,250,335.55,283.59,336Z" transform="translate(2.01 2.01)" style="fill: #fc0;stroke: #000;stroke-linecap: round;stroke-linejoin: round;stroke-width: 4px"/>
      <path d="M224.44,294.71V295a46.54,46.54,0,0,0,10.07,28.88,1.15,1.15,0,0,0,.14.17c11.06,13.71,28.85,21.71,48.82,22h1c28.54,0,45.45-14.45,51.72-31a37.82,37.82,0,0,0,2.05-9.92" transform="translate(2.01 2.01)" style="fill: none;stroke: #000;stroke-linecap: round;stroke-linejoin: round;stroke-width: 2px"/>
    </g>
    <g id="Maglia-Azzurra-riga">
      <path d="M283.59,336c29.29.36,44.45-16.75,45.36-34.56l28.29,10.91a55.84,55.84,0,0,1,29.37,26.32l25.78,77.28s-12,36.75-57.63,25.43L339.53,379,375,524.12l-91.4.21-121.67-.21L197.39,379l-15.23,62.31c-45.62,11.32-57.63-25.43-57.63-25.43l25.78-77.28a55.84,55.84,0,0,1,29.37-26.32l43.44-17.08,11.66-4.58C230.69,310.77,250,335.55,283.59,336Z" transform="translate(2.01 2.01)" style="fill: #9cf;stroke: #000;stroke-linecap: round;stroke-linejoin: round;stroke-width: 4px"/>
      <g>
        <path d="M354.75,441.34,375,524.12l-91.41.21-121.66-.21,20.23-82.78c-45.61,11.32-57.63-25.43-57.63-25.43l25.79-77.28a55.8,55.8,0,0,1,29.37-26.32l43.44-17.08,1.31-.51V295a46.54,46.54,0,0,0,10.07,28.88c.05.06.09.12.14.17,11.06,13.71,28.86,21.71,48.82,22h1c28.53,0,45.45-14.45,51.71-31a37.82,37.82,0,0,0,2.05-9.92l19,7.32a55.84,55.84,0,0,1,29.37,26.32l25.79,77.28S400.37,452.66,354.75,441.34Z" transform="translate(2.01 2.01)" style="fill: url(#_10_lpi_60_)"/>
        <g>
          <path d="M197.38,379l-15.23,62.31c-45.61,11.32-57.63-25.43-57.63-25.43l25.79-77.28a55.8,55.8,0,0,1,29.37-26.32l43.44-17.08,1.31-.51" transform="translate(2.01 2.01)" style="fill: none;stroke: #000;stroke-linecap: round;stroke-linejoin: round;stroke-width: 4px"/>
          <polyline points="341.53 381.04 356.76 443.35 377 526.13 285.59 526.34 163.93 526.13 184.16 443.35" style="fill: none;stroke: #000;stroke-linecap: round;stroke-linejoin: round;stroke-width: 4px"/>
          <path d="M224.43,294.71l10.35-4.06c-4.1,20.12,15.24,44.9,48.8,45.31,29.29.36,44.45-16.75,45.37-34.56l9.29,3.59,19,7.32a55.84,55.84,0,0,1,29.37,26.32l25.79,77.28s-12,36.75-57.64,25.43" transform="translate(2.01 2.01)" style="fill: none;stroke: #000;stroke-linecap: round;stroke-linejoin: round;stroke-width: 4px"/>
          <path d="M224.43,294.71h0V295a46.54,46.54,0,0,0,10.07,28.88c.05.06.09.12.14.17,11.06,13.71,28.86,21.71,48.82,22h1c28.53,0,45.45-14.45,51.71-31a37.82,37.82,0,0,0,2.05-9.92" transform="translate(2.01 2.01)" style="fill: none;stroke: #000;stroke-linecap: round;stroke-linejoin: round;stroke-width: 2px"/>
        </g>
      </g>
    </g>
    <g id="Maglia-Aquamarina-quadro">
      <path d="M283.59,336c29.29.36,44.45-16.75,45.36-34.56l28.29,10.91a55.84,55.84,0,0,1,29.37,26.32l25.78,77.28s-12,36.75-57.63,25.43L339.53,379,375,524.12l-91.4.21-121.67-.21L197.39,379l-15.23,62.31c-45.62,11.32-57.63-25.43-57.63-25.43l25.78-77.28a55.84,55.84,0,0,1,29.37-26.32l43.44-17.08,11.66-4.58C230.69,310.77,250,335.55,283.59,336Z" transform="translate(2.01 2.01)" style="fill: #3fc;stroke: #000;stroke-linecap: round;stroke-linejoin: round;stroke-width: 4px"/>
      <g>
        <g>
          <path d="M329,301.4l9.29,3.59a37.82,37.82,0,0,1-2.05,9.92c-6.26,16.6-23.18,31-51.71,31h-1c-20-.25-37.76-8.25-48.82-22,0-.05-.09-.11-.14-.17A46.54,46.54,0,0,1,224.43,295v-.23h0l10.35-4.06c-4.1,20.12,15.24,44.9,48.8,45.31C312.87,336.32,328,319.21,329,301.4Z" transform="translate(2.01 2.01)"/>
          <path d="M182.15,441.34c-45.61,11.32-57.63-25.43-57.63-25.43l25.79-77.28a55.8,55.8,0,0,1,29.37-26.32l43.44-17.08,1.31-.51V295a46.54,46.54,0,0,0,10.07,28.88c.05.06.09.12.14.17,11.06,13.71,28.86,21.71,48.82,22h1c28.53,0,45.45-14.45,51.71-31a37.82,37.82,0,0,0,2.05-9.92l19,7.32a55.84,55.84,0,0,1,29.37,26.32l25.79,77.28s-12,36.75-57.64,25.43L375,524.12l-91.41.21-121.66-.21Z" transform="translate(2.01 2.01)" style="fill: url(#Griglia_0_25_pollice_righe)"/>
        </g>
        <g>
          <path d="M197.38,379l-15.23,62.31c-45.61,11.32-57.63-25.43-57.63-25.43l25.79-77.28a55.8,55.8,0,0,1,29.37-26.32l43.44-17.08,1.31-.51" transform="translate(2.01 2.01)" style="fill: none;stroke: #000;stroke-linecap: round;stroke-linejoin: round;stroke-width: 4px"/>
          <polyline points="341.53 381.04 356.76 443.35 377 526.13 285.59 526.34 163.93 526.13 184.16 443.35" style="fill: none;stroke: #000;stroke-linecap: round;stroke-linejoin: round;stroke-width: 4px"/>
          <path d="M224.43,294.71l10.35-4.06c-4.1,20.12,15.24,44.9,48.8,45.31,29.29.36,44.45-16.75,45.37-34.56l9.29,3.59,19,7.32a55.84,55.84,0,0,1,29.37,26.32l25.79,77.28s-12,36.75-57.64,25.43" transform="translate(2.01 2.01)" style="fill: none;stroke: #000;stroke-linecap: round;stroke-linejoin: round;stroke-width: 4px"/>
          <path d="M224.43,294.72V295a46.54,46.54,0,0,0,10.07,28.88c.05.06.09.12.14.17,11.06,13.71,28.86,21.71,48.82,22h1c28.53,0,45.45-14.45,51.71-31a37.82,37.82,0,0,0,2.05-9.92" transform="translate(2.01 2.01)" style="fill: none;stroke: #000;stroke-linecap: round;stroke-linejoin: round;stroke-width: 2px"/>
          <line x1="226.44" y1="296.72" x2="226.44" y2="296.73" style="fill: none;stroke: #000;stroke-linecap: round;stroke-linejoin: round;stroke-width: 4px"/>
        </g>
      </g>
    </g>
    <g id="Maglia-Rosso-pois">
      <path d="M283.59,336c29.29.36,44.45-16.75,45.36-34.56l28.29,10.91a55.84,55.84,0,0,1,29.37,26.32l25.78,77.28s-12,36.75-57.63,25.43L339.53,379,375,524.12l-91.4.21-121.67-.21L197.39,379l-15.23,62.31c-45.62,11.32-57.63-25.43-57.63-25.43l25.78-77.28a55.84,55.84,0,0,1,29.37-26.32l43.44-17.08,11.66-4.58C230.69,310.77,250,335.55,283.59,336Z" transform="translate(2.01 2.01)" style="fill: #f7524a;stroke: #000;stroke-linecap: round;stroke-linejoin: round;stroke-width: 4px"/>
      <g>
        <g>
          <path d="M354.75,441.34,375,524.12l-91.41.21-121.66-.21,20.23-82.78c-45.61,11.32-57.63-25.43-57.63-25.43l25.79-77.28a55.8,55.8,0,0,1,29.37-26.32l43.44-17.08,1.31-.51V295a46.54,46.54,0,0,0,10.07,28.88c.05.06.09.12.14.17,11.06,13.71,28.86,21.71,48.82,22h1c28.53,0,45.45-14.45,51.71-31a37.82,37.82,0,0,0,2.05-9.92l19,7.32a55.84,55.84,0,0,1,29.37,26.32l25.79,77.28S400.37,452.66,354.75,441.34Z" transform="translate(2.01 2.01)" style="fill: url(#_10_dpi_10_)"/>
          <path d="M329,301.4l9.29,3.59a37.82,37.82,0,0,1-2.05,9.92c-6.26,16.6-23.18,31-51.71,31h-1c-20-.25-37.76-8.25-48.82-22,0-.05-.09-.11-.14-.17A46.54,46.54,0,0,1,224.43,295v-.23h0l10.35-4.06c-4.1,20.12,15.24,44.9,48.8,45.31C312.87,336.32,328,319.21,329,301.4Z" transform="translate(2.01 2.01)" style="fill: #fff"/>
        </g>
        <g>
          <path d="M197.38,379l-15.23,62.31c-45.61,11.32-57.63-25.43-57.63-25.43l25.79-77.28a55.8,55.8,0,0,1,29.37-26.32l43.44-17.08,1.31-.51" transform="translate(2.01 2.01)" style="fill: none;stroke: #000;stroke-linecap: round;stroke-linejoin: round;stroke-width: 4px"/>
          <polyline points="341.53 381.04 356.76 443.35 377 526.13 285.59 526.34 163.93 526.13 184.16 443.35" style="fill: none;stroke: #000;stroke-linecap: round;stroke-linejoin: round;stroke-width: 4px"/>
          <path d="M224.43,294.71l10.35-4.06c-4.1,20.12,15.24,44.9,48.8,45.31,29.29.36,44.45-16.75,45.37-34.56l9.29,3.59,19,7.32a55.84,55.84,0,0,1,29.37,26.32l25.79,77.28s-12,36.75-57.64,25.43" transform="translate(2.01 2.01)" style="fill: none;stroke: #000;stroke-linecap: round;stroke-linejoin: round;stroke-width: 4px"/>
          <path d="M224.43,294.72V295a46.54,46.54,0,0,0,10.07,28.88c.05.06.09.12.14.17,11.06,13.71,28.86,21.71,48.82,22h1c28.53,0,45.45-14.45,51.71-31a37.82,37.82,0,0,0,2.05-9.92" transform="translate(2.01 2.01)" style="fill: none;stroke: #000;stroke-linecap: round;stroke-linejoin: round;stroke-width: 2px"/>
          <line x1="226.44" y1="296.72" x2="226.44" y2="296.73" style="fill: none;stroke: #000;stroke-linecap: round;stroke-linejoin: round;stroke-width: 4px"/>
        </g>
      </g>
    </g>
    <g id="Maglia-Blu-pois">
      <path d="M283.59,336c29.29.36,44.45-16.75,45.36-34.56l28.29,10.91a55.84,55.84,0,0,1,29.37,26.32l25.78,77.28s-12,36.75-57.63,25.43L339.53,379,375,524.12l-91.4.21-121.67-.21L197.39,379l-15.23,62.31c-45.62,11.32-57.63-25.43-57.63-25.43l25.78-77.28a55.84,55.84,0,0,1,29.37-26.32l43.44-17.08,11.66-4.58C230.69,310.77,250,335.55,283.59,336Z" transform="translate(2.01 2.01)" style="fill: #63f;stroke: #000;stroke-linecap: round;stroke-linejoin: round;stroke-width: 4px"/>
      <g>
        <g>
          <path d="M354.75,441.34,375,524.12l-91.41.21-121.66-.21,20.23-82.78c-45.61,11.32-57.63-25.43-57.63-25.43l25.79-77.28a55.8,55.8,0,0,1,29.37-26.32l43.44-17.08,1.31-.51V295a46.54,46.54,0,0,0,10.07,28.88c.05.06.09.12.14.17,11.06,13.71,28.86,21.71,48.82,22h1c28.53,0,45.45-14.45,51.71-31a37.82,37.82,0,0,0,2.05-9.92l19,7.32a55.84,55.84,0,0,1,29.37,26.32l25.79,77.28S400.37,452.66,354.75,441.34Z" transform="translate(2.01 2.01)" style="fill: url(#_6_lpi_10_)"/>
          <path d="M329,301.4l9.29,3.59a37.82,37.82,0,0,1-2.05,9.92c-6.26,16.6-23.18,31-51.71,31h-1c-20-.25-37.76-8.25-48.82-22,0-.05-.09-.11-.14-.17A46.54,46.54,0,0,1,224.43,295v-.23h0l10.35-4.06c-4.1,20.12,15.24,44.9,48.8,45.31C312.87,336.32,328,319.21,329,301.4Z" transform="translate(2.01 2.01)" style="fill: #9cf"/>
        </g>
        <g>
          <path d="M197.38,379l-15.23,62.31c-45.61,11.32-57.63-25.43-57.63-25.43l25.79-77.28a55.8,55.8,0,0,1,29.37-26.32l43.44-17.08,1.31-.51" transform="translate(2.01 2.01)" style="fill: none;stroke: #000;stroke-linecap: round;stroke-linejoin: round;stroke-width: 4px"/>
          <polyline points="341.53 381.04 356.76 443.35 377 526.13 285.59 526.34 163.93 526.13 184.16 443.35" style="fill: none;stroke: #000;stroke-linecap: round;stroke-linejoin: round;stroke-width: 4px"/>
          <path d="M224.43,294.71l10.35-4.06c-4.1,20.12,15.24,44.9,48.8,45.31,29.29.36,44.45-16.75,45.37-34.56l9.29,3.59,19,7.32a55.84,55.84,0,0,1,29.37,26.32l25.79,77.28s-12,36.75-57.64,25.43" transform="translate(2.01 2.01)" style="fill: none;stroke: #000;stroke-linecap: round;stroke-linejoin: round;stroke-width: 4px"/>
          <path d="M224.43,294.72V295a46.54,46.54,0,0,0,10.07,28.88c.05.06.09.12.14.17,11.06,13.71,28.86,21.71,48.82,22h1c28.53,0,45.45-14.45,51.71-31a37.82,37.82,0,0,0,2.05-9.92" transform="translate(2.01 2.01)" style="fill: none;stroke: #000;stroke-linecap: round;stroke-linejoin: round;stroke-width: 2px"/>
          <line x1="226.44" y1="296.72" x2="226.44" y2="296.73" style="fill: none;stroke: #000;stroke-linecap: round;stroke-linejoin: round;stroke-width: 4px"/>
        </g>
      </g>
    </g>
  </g>
  <g id="CAPELLI_group">
    <g id="UOMO-Corto-chiaro">
      <path d="M346,165.79s9.19,24.9-2.59,47.93h-.19A84.23,84.23,0,0,0,337.74,189a63.29,63.29,0,0,0-9.64-16.84" transform="translate(2.01 2.01)" style="fill: #fff;stroke: #000;stroke-linecap: round;stroke-linejoin: round;stroke-width: 4px"/>
      <path d="M234,167.74a50.75,50.75,0,0,0-6.79,7.78c-7.85,9.79-9.85,24.24-9.94,36.8-3.82-2.91-9.21-1.06-11.23,3.08-2.23,4.58-1.66,10.78.52,15.24a12.71,12.71,0,0,0,5,5.56,10.37,10.37,0,0,0,3.45,1.21c1.77.28,3-.53,4.28,1.32a9.73,9.73,0,0,1,1.13,2.9,73.78,73.78,0,0,0,13,26.48l-.2.67c-52.93-4.23-40.67-89.95-40.67-89.95" transform="translate(2.01 2.01)" style="fill: #fff;stroke: #000;stroke-linecap: round;stroke-linejoin: round;stroke-width: 4px"/>
      <path d="M311.65,174.07c-28.69,1.18-57.72-7.58-86.59-6.21-12.82.61-27,2.93-32.5,11a18.6,18.6,0,0,1-3.28-6.06,35.58,35.58,0,0,1-2-12.55c.57-26.69,28-44.56,60.12-49.21,31.11-4.52,70.59-1.53,94.38,15.9a46.06,46.06,0,0,1,8.51,8c6.91,8.58,7.77,20.49-.73,28.21-4.44,4-10.87,6.53-17.46,8.16A101.64,101.64,0,0,1,311.65,174.07Z" transform="translate(2.01 2.01)" style="fill: #fff;stroke: #000;stroke-linecap: round;stroke-linejoin: round;stroke-width: 4px"/>
      <path d="M352.73,136.71c2.13,10.15-16.87,12.4-25.06,12.65-26.58.81-50.31-9.64-76.14-12.61-14.94-1.72-30.2,1.19-41.78,9.58-11.93,8.65-14.85,18.82-17.19,32.5" transform="translate(2.01 2.01)" style="fill: none;stroke: #000;stroke-linecap: round;stroke-linejoin: round;stroke-width: 2px"/>
    </g>
    <g id="UOMO-Corto-scuro">
      <path d="M346,165.79s9.19,24.9-2.59,47.93h-.19A84.23,84.23,0,0,0,337.74,189a63.29,63.29,0,0,0-9.64-16.84" transform="translate(2.01 2.01)" style="stroke: #000;stroke-linecap: round;stroke-linejoin: round;stroke-width: 4px"/>
      <path d="M234,167.74c25.92.45,51.93,7.39,77.67,6.33a101.64,101.64,0,0,0,20.46-2.81c6.59-1.63,13-4.13,17.46-8.16,8.5-7.72,7.64-19.63.73-28.21a46.06,46.06,0,0,0-8.51-8C318,109.48,278.52,106.49,247.41,111c-32.1,4.65-59.55,22.52-60.12,49.21a35.58,35.58,0,0,0,2,12.55,18.6,18.6,0,0,0,3.28,6.06s-12.26,85.72,40.67,89.95l.2-.67a73.78,73.78,0,0,1-13-26.48,9.73,9.73,0,0,0-1.13-2.9c-1.25-1.85-2.51-1-4.28-1.32a10.37,10.37,0,0,1-3.45-1.21,12.71,12.71,0,0,1-5-5.56c-2.18-4.46-2.75-10.66-.52-15.24,2-4.14,7.41-6,11.23-3.08.09-12.56,2.09-27,9.94-36.8A50.75,50.75,0,0,1,234,167.74Z" transform="translate(2.01 2.01)" style="stroke: #000;stroke-linecap: round;stroke-linejoin: round;stroke-width: 4px"/>
      <path d="M355.54,136.71c2.21,10.15-17.46,12.4-25.94,12.65-27.51.81-52.08-9.64-78.82-12.61-15.45-1.72-31.26,1.19-43.25,9.58-12.34,8.65-15.74,19.7-18.16,33.39" transform="translate(2.01 2.01)" style="fill: none;stroke: #fff;stroke-linecap: round;stroke-linejoin: round;stroke-width: 2px"/>
    </g>
    <g id="UOMO-Leccata-chiaro">
      <path d="M238,164.18a57.22,57.22,0,0,0-10.78,11.34c-7.85,9.79-9.85,24.24-9.94,36.8-3.82-2.91-9.21-1.06-11.23,3.08-2.23,4.58-1.66,10.78.52,15.24a12.71,12.71,0,0,0,5,5.56,10.37,10.37,0,0,0,3.45,1.21c1.77.28,3-.53,4.28,1.32a9.73,9.73,0,0,1,1.13,2.9,73.65,73.65,0,0,0,13.31,26.86l-.12-.16c-42.9-21.3-42.45-77.92-42.45-77.92-.7-30.91,13.18-55.24,37.06-68.28,36-19.65,87.4-12.7,114.3,19,8.5,10,12.85,19.78,8.11,31.22-2.81,6.77-9.49,10.86-16.36,13.25a62.56,62.56,0,0,1-38,.86c-16.62-4.94-29.42-19.48-46.58-21.61-19.59-2.44-32.19,2.44-38.71,7.75-7,5.71-15.43,19.94-18.3,33.49" transform="translate(2.01 2.01)" style="fill: #fff;stroke: #000;stroke-linecap: round;stroke-linejoin: round;stroke-width: 4px"/>
      <path d="M348.63,175.9s7.48,21-5.24,44.57" transform="translate(2.01 2.01)" style="fill: #fff;stroke: #000;stroke-linecap: round;stroke-linejoin: round;stroke-width: 4px"/>
      <path d="M336,184.91c.62,1.34,1.2,2.7,1.73,4.09a84.21,84.21,0,0,1,5.65,30.74" transform="translate(2.01 2.01)" style="fill: #fff;stroke: #000;stroke-linecap: round;stroke-linejoin: round;stroke-width: 4px"/>
      <path d="M351.32,155.44c1.77,11-10.78,18.7-19.34,19.74-21.78,2.62-38.69-13.35-55.47-24.57-15.54-10.39-33.74-17.56-52.31-11.34-15.88,5.31-27.39,20.55-32.24,36.63" transform="translate(2.01 2.01)" style="fill: none;stroke: #000;stroke-linecap: round;stroke-linejoin: round;stroke-width: 2px"/>
    </g>
    <g id="UOMO-Leccata-scuro">
      <path d="M238,164.18a57.22,57.22,0,0,0-10.78,11.34c-7.85,9.79-9.85,24.24-9.94,36.8-3.82-2.91-9.21-1.06-11.23,3.08-2.23,4.58-1.66,10.78.52,15.24a12.71,12.71,0,0,0,5,5.56,10.37,10.37,0,0,0,3.45,1.21c1.77.28,3-.53,4.28,1.32a9.73,9.73,0,0,1,1.13,2.9,73.65,73.65,0,0,0,13.31,26.86l-.12-.16c-42.9-21.3-42.45-77.92-42.45-77.92-.7-30.91,13.18-55.24,37.06-68.28,36-19.65,87.4-12.7,114.3,19,8.5,10,12.85,19.78,8.11,31.22-2.81,6.77-9.49,10.86-16.36,13.25a62.56,62.56,0,0,1-38,.86c-16.62-4.94-29.42-19.48-46.58-21.61a73.66,73.66,0,0,0-11.71-.63" transform="translate(2.01 2.01)" style="stroke: #000;stroke-linecap: round;stroke-linejoin: round;stroke-width: 4px"/>
      <path d="M336,184.91c.62,1.34,1.2,2.7,1.73,4.09a84.21,84.21,0,0,1,5.65,30.74v.73c12.72-23.6,5.24-44.57,5.24-44.57" transform="translate(2.01 2.01)" style="stroke: #000;stroke-linecap: round;stroke-linejoin: round;stroke-width: 4px"/>
      <path d="M355.15,155.39c1.86,11.49-11.29,19.61-20.27,20.69-22.83,2.75-40.55-14-58.14-25.75-16.29-10.89-35.37-18.4-54.83-11.89-16.65,5.57-28.72,21.55-33.79,38.4" transform="translate(2.01 2.01)" style="fill: none;stroke: #fff;stroke-linecap: round;stroke-linejoin: round;stroke-width: 2px"/>
    </g>
    <g id="DONNA-Corto-chiaro">
      <path d="M202.19,160.28c-2.47,2.07-8.2,11.28-10.6,20.29-8.34,31.19,5.39,66.1,24.25,87.53,5,5.71,13.46,10.42,17.39.68l.2-.67a73.78,73.78,0,0,1-13-26.48,9.73,9.73,0,0,0-1.13-2.9c-1.25-1.85-2.51-1-4.28-1.32a10.37,10.37,0,0,1-3.45-1.21,12.71,12.71,0,0,1-5-5.56c-2.18-4.46-2.75-10.66-.52-15.24,2-4.14,7.41-6,11.23-3.08.09-12.56,2.09-26,9.94-35.8" transform="translate(2.01 2.01)" style="fill: #fff;stroke: #000;stroke-linecap: round;stroke-linejoin: round;stroke-width: 4px"/>
      <path d="M252.85,180.38c8.91.73,17.92.86,26.79,1.1,17.36.45,38.55-.28,51.93,12.75.72.7,1.41,1.43,2.06,2.2,6.52,7.58,8.75,14.53,9.15,27.08.17,5.28-1.83,18.22,5.4,8.84,6.44-8.36,9.59-20.14,10.2-30.3,1.77-29.83-15-58-39-74.75-27.76-19.39-65.05-20.11-95.17-5.88-11.35,5.36-29.88,16-25.68,31.34,3,11.07,14.18,18.06,24.38,21.71C232.56,177.92,242.65,179.54,252.85,180.38Z" transform="translate(2.01 2.01)" style="fill: #fff;stroke: #000;stroke-linecap: round;stroke-linejoin: round;stroke-width: 4px"/>
      <path d="M199,142.75c-1,6,3.15,8.79,7.43,11.16s9.24,3.17,14.11,3.57c27,2.22,54.54-6.42,81-.55,21.28,4.72,38.8,13.5,48.95,32.78,3.74,7.11,6.66,17.58,5.67,26" transform="translate(2.01 2.01)" style="fill: none;stroke: #000;stroke-linecap: round;stroke-linejoin: round;stroke-width: 2px"/>
    </g>
    <g id="DONNA-Corto-scuro">
      <path d="M202.19,160.28c-2.47,2.07-8.2,11.28-10.6,20.29-8.34,31.19,5.39,66.1,24.25,87.53,5,5.71,13.46,10.42,17.39.68l.2-.67a73.78,73.78,0,0,1-13-26.48,9.73,9.73,0,0,0-1.13-2.9c-1.25-1.85-2.51-1-4.28-1.32a10.37,10.37,0,0,1-3.45-1.21,12.71,12.71,0,0,1-5-5.56c-2.18-4.46-2.75-10.66-.52-15.24,2-4.14,7.41-6,11.23-3.08.09-12.56,2.09-26,9.94-35.8" transform="translate(2.01 2.01)" style="stroke: #000;stroke-linecap: round;stroke-linejoin: round;stroke-width: 4px"/>
      <path d="M252.85,180.38c8.91.73,17.92.86,26.79,1.1,17.36.45,38.55-.28,51.93,12.75.72.7,1.41,1.43,2.06,2.2,6.52,7.58,8.75,14.53,9.15,27.08.17,5.28-1.83,18.22,5.4,8.84,6.44-8.36,9.59-20.14,10.2-30.3,1.77-29.83-15-58-39-74.75-27.76-19.39-65.05-20.11-95.17-5.88-11.35,5.36-29.88,16-25.68,31.34,3,11.07,14.18,18.06,24.38,21.71C232.56,177.92,242.65,179.54,252.85,180.38Z" transform="translate(2.01 2.01)" style="stroke: #000;stroke-linecap: round;stroke-linejoin: round;stroke-width: 4px"/>
      <path d="M191.76,139.39c-1.12,6.56,3.44,9.61,8.11,12.2S210,155,215.28,155.48c29.47,2.43,59.55-7,88.41-.6,23.23,5.15,42.36,14.74,53.45,35.8,4.09,7.76,7.27,19.19,6.18,28.39" transform="translate(2.01 2.01)" style="fill: none;stroke: #fff;stroke-linecap: round;stroke-linejoin: round;stroke-width: 2px"/>
    </g>
    <g id="DONNA-Lungo-chiaro">
      <path d="M226.13,160.08c2.32,24.52,20.13,28.19,31.27,31.3,27.51,7.67,83.83-1.69,85.25,39.48-2,15.91-7.81,40.71-22.39,52.43L329,301.4l28.29,10.91a56.15,56.15,0,0,1,26.24,21,54.17,54.17,0,0,0,4.82-15c2-13.06-4-25.25-7.58-37.46-3.94-13.43-2.85-24.65,4.35-36.82,9.84-16.62,15.53-32.3,10.58-51.69-4.19-16.45-15-31.51-30.52-38.93-7.63-3.65-16-5.63-23.46-9.62-14.28-7.64-24.13-23-38.43-30.63-9.55-5.09-20.57-6.82-31.39-7-16.88-.26-34.15,3.25-48.41,12.29-17.55,11.11-25.78,28.94-26.29,49.28-.33,12.95,1.83,27.31-2.41,39.79-4,11.87-12.81,21.22-19.55,31.56-9.26,14.2-17.14,35.76-9.61,51.58,6.95,14.6,18.5,27.16,21.91,43.32,3,14-4.2,35,9.9,45.06,9,6.38,21.51,7.26,32.13,6.32,12.12-1.08,23.62-5.34,31.85-14.49a73,73,0,0,0,16.32-30.45c2.82-10.91,2.49-20.94-1.46-31.45-3.5-9.35-12-16.94-17.6-25.16-10.27-15-21.25-30.87-26.58-48.64a33.58,33.58,0,0,1-1.22-5.78c-2.74-23.84,6.61-46.38,6.61-46.38" transform="translate(2.01 2.01)" style="fill: #fff;stroke: #000;stroke-linecap: round;stroke-linejoin: round;stroke-width: 4px"/>
      <path d="M329,301.4c1.55-16.49,9.13-26.68,16.68-36.89,5.72-7.73,12.55-14.7,17.15-23.14,11.41-20.93,6.5-48.61-9.24-66.5s-40.6-26.33-64.39-25c-10.27.57-20.42,2.78-30.7,2.94s-21.16-2.07-28.69-9.08-7.25-20-.88-28" transform="translate(2.01 2.01)" style="fill: none;stroke: #000;stroke-linecap: round;stroke-linejoin: round;stroke-width: 2px"/>
      <path d="M194.74,207.51c-11.63,55.93,32.27,54.56,19.82,83.14-21.81,50.05,38.71,59.84,64.75,29.69" transform="translate(2.01 2.01)" style="fill: none;stroke: #000;stroke-linecap: round;stroke-linejoin: round;stroke-width: 2px"/>
    </g>
    <g id="DONNA-Lungo-scuro">
      <path d="M226.13,160.08c2.32,24.52,20.13,28.19,31.27,31.3,27.51,7.67,83.83-1.69,85.25,39.48-2,15.91-7.81,40.71-22.39,52.43L329,301.4l28.29,10.91a56.15,56.15,0,0,1,26.24,21,54.17,54.17,0,0,0,4.82-15c2-13.06-4-25.25-7.58-37.46-3.94-13.43-2.85-24.65,4.35-36.82,9.84-16.62,15.53-32.3,10.58-51.69-4.19-16.45-15-31.51-30.52-38.93-7.63-3.65-16-5.63-23.46-9.62-14.28-7.64-24.13-23-38.43-30.63-9.55-5.09-20.57-6.82-31.39-7-16.88-.26-34.15,3.25-48.41,12.29-17.55,11.11-25.78,28.94-26.29,49.28-.33,12.95,1.83,27.31-2.41,39.79-4,11.87-12.81,21.22-19.55,31.56-9.26,14.2-17.14,35.76-9.61,51.58,6.95,14.6,18.5,27.16,21.91,43.32,3,14-4.2,35,9.9,45.06,9,6.38,21.51,7.26,32.13,6.32,12.12-1.08,23.62-5.34,31.85-14.49a73,73,0,0,0,16.32-30.45c2.82-10.91,2.49-20.94-1.46-31.45-3.5-9.35-12-16.94-17.6-25.16-10.27-15-21.25-30.87-26.58-48.64a33.58,33.58,0,0,1-1.22-5.78c-2.74-23.84,6.61-46.38,6.61-46.38" transform="translate(2.01 2.01)" style="stroke: #000;stroke-linecap: round;stroke-linejoin: round;stroke-width: 4px"/>
      <path d="M325.77,302.49c1.56-16.86,11.68-28.28,19.35-38.71,5.81-7.89,12.75-15,17.43-23.64,11.58-21.38,6.58-49.66-9.43-67.95s-41.28-26.92-65.46-25.59c-10.44.57-20.75,2.83-31.2,3s-21.51-2.13-29.17-9.29-7.38-20.4-.91-28.65" transform="translate(2.01 2.01)" style="fill: none;stroke: #fff;stroke-linecap: round;stroke-linejoin: round;stroke-width: 2px"/>
      <path d="M191.26,207.07c-11.63,55.93,35.75,55,23.3,83.58-21.81,50.05,41.77,58,67.81,27.86" transform="translate(2.01 2.01)" style="fill: none;stroke: #fff;stroke-linecap: round;stroke-linejoin: round;stroke-width: 2px"/>
    </g>
    <g id="UNISEX-Raccolto-chiaro">
      <path d="M224.82,253.87s-3.25-8.09-4.39-12.24a9.73,9.73,0,0,0-1.13-2.9c-1.25-1.85-2.51-1-4.28-1.32a10.37,10.37,0,0,1-3.45-1.21,12.71,12.71,0,0,1-5-5.56c-2.18-4.46-2.75-10.66-.52-15.24,2-4.14,7.41-6,11.23-3.08,0-20,38.3-25,55.24-28.84,15.88-3.62,36.59-6.61,49.25-18.17h0a63.21,63.21,0,0,1,16,23.69A85.24,85.24,0,0,1,342,204.12c11.17-20.91,5.63-55.3-4.2-69-9.39-13-23.15-23.43-38.85-26.84-54.53-11.84-106.81,28.08-112.75,75.22C183.34,206.34,195,253.87,224.82,253.87Z" transform="translate(2.01 2.01)" style="fill: #fff;stroke: #000;stroke-linecap: round;stroke-linejoin: round;stroke-width: 4px"/>
      <path d="M193.63,159.14c34.27,15.72,98.7,10.79,122.23-23.93,4.31-6.36,4.9-22.05-16.9-26.88" transform="translate(2.01 2.01)" style="fill: none;stroke: #000;stroke-linecap: round;stroke-linejoin: round;stroke-width: 2px"/>
      <path d="M211.68,134.34c-5.45-.42-8.5-3.45-9.75-8.74a23.79,23.79,0,0,1-.1-9c2.31-15.78,14.07-35.95,32.23-35.25,13.24.52,24.29,14.26,24.29,26.64" transform="translate(2.01 2.01)" style="fill: none;stroke: #000;stroke-linecap: round;stroke-linejoin: round;stroke-width: 4px"/>
    </g>
    <g id="UNISEX-Raccolto-scuro">
      <path d="M224.82,253.87s-3.25-8.09-4.39-12.24a9.73,9.73,0,0,0-1.13-2.9c-1.25-1.85-2.51-1-4.28-1.32a10.37,10.37,0,0,1-3.45-1.21,12.71,12.71,0,0,1-5-5.56c-2.18-4.46-2.75-10.66-.52-15.24,2-4.14,7.41-6,11.23-3.08,0-20,38.3-25,55.24-28.84,15.88-3.62,36.59-6.61,49.25-18.17h0a63.21,63.21,0,0,1,16,23.69A85.24,85.24,0,0,1,342,204.12c11.17-20.91,5.63-55.3-4.2-69-9.39-13-23.15-23.43-38.85-26.84-54.53-11.84-106.81,28.08-112.75,75.22C183.34,206.34,195,253.87,224.82,253.87Z" transform="translate(2.01 2.01)" style="stroke: #000;stroke-linecap: round;stroke-linejoin: round;stroke-width: 4px"/>
      <path d="M188.58,160.85c37,17,106.69,11.67,132.13-25.87,4.66-6.87,5.3-23.83-18.27-29" transform="translate(2.01 2.01)" style="fill: none;stroke: #fff;stroke-linecap: round;stroke-linejoin: round;stroke-width: 2px"/>
      <path d="M211.68,134.34c-5.45-.42-8.5-3.45-9.75-8.74a23.79,23.79,0,0,1-.1-9c2.31-15.78,14.07-35.95,32.23-35.25,13.24.52,24.29,14.26,24.29,26.64" transform="translate(2.01 2.01)" style="stroke: #000;stroke-linecap: round;stroke-linejoin: round;stroke-width: 4px"/>
    </g>
  </g>
  <g id="SEGNI_PARTICOLARI_group" data-name="SEGNI PARTICOLARI_group">
    <g id="Baffo-chiaro">
      <path d="M332.69,261.33a1.63,1.63,0,0,0,1.65-1.62h0c.08-13.14-6.69-23.93-15-24l-35.87-.24c-8.36-.05-15.27,10.65-15.36,23.79h0a1.65,1.65,0,0,0,1.63,1.64Z" transform="translate(2.01 2.01)" style="fill: none;stroke: #000;stroke-linecap: round;stroke-linejoin: round;stroke-width: 4px"/>
      <path d="M280.73,260.86c.17-5.2.91-10.49,3.21-15.15s6.38-8.66,11.44-9.9" transform="translate(2.01 2.01)" style="fill: none;stroke: #000;stroke-linecap: round;stroke-linejoin: round;stroke-width: 2px"/>
      <path d="M320.43,261.12c-.1-5.2-.76-10.5-3-15.2s-6.27-8.73-11.3-10" transform="translate(2.01 2.01)" style="fill: none;stroke: #000;stroke-linecap: round;stroke-linejoin: round;stroke-width: 2px"/>
      <line x1="302.76" y1="237.86" x2="302.59" y2="263" style="fill: none;stroke: #000;stroke-linecap: round;stroke-linejoin: round;stroke-width: 2px"/>
    </g>
    <g id="Baffo-scuro">
      <path d="M332.69,261.33a1.63,1.63,0,0,0,1.65-1.62h0c.08-13.14-6.69-23.93-15-24l-35.87-.24c-8.36-.05-15.27,10.65-15.36,23.79h0a1.65,1.65,0,0,0,1.63,1.64Z" transform="translate(2.01 2.01)" style="stroke: #fff;stroke-linecap: round;stroke-linejoin: round;stroke-width: 4px"/>
      <path d="M280.73,260.86c.17-5.2.91-10.49,3.21-15.15s6.38-8.66,11.44-9.9" transform="translate(2.01 2.01)" style="fill: none;stroke: #fff;stroke-linecap: round;stroke-linejoin: round;stroke-width: 2px"/>
      <path d="M320.43,261.12c-.1-5.2-.76-10.5-3-15.2s-6.27-8.73-11.3-10" transform="translate(2.01 2.01)" style="fill: none;stroke: #fff;stroke-linecap: round;stroke-linejoin: round;stroke-width: 2px"/>
      <line x1="302.76" y1="237.86" x2="302.59" y2="263" style="fill: none;stroke: #fff;stroke-linecap: round;stroke-linejoin: round;stroke-width: 2px"/>
    </g>
    <g id="Barba-chiaro">
      <path id="Barba-chiaro-2" data-name="Barba-chiaro" d="M360.4,293.35c3,13.64,1.83,24.95-4.78,37.59-3.44,6.57-6.94,13.23-12.27,18.75-13.57,14-37.9,18.19-57.77,12.09s-35.1-21.13-42.8-38.22c-1.51-3.36-2.79-6.85-5-9.91-2.75-3.82-6.8-6.78-10.33-10.08-11.81-11-18-26.45-16.59-41.47.39-4.19,2.33-8.37,2-12.56-.76-8.69-7-16.32-8.9-24.88s3.29-19.88,13.17-18.53c6.15.84,10.06,6.26,11.77,11.47,3,9.13,1.77,18.83,2.2,28.31s2.71,22.75,11.22,28.67,23.39,4.17,26.52-4.92c1.91-5.54-.16-6.7,1.83-12.22,2.72-7.53,13.13-10.29,22.08-11.51a156.26,156.26,0,0,1,26.68-1.82c3,0,18.85,1.49,21.59,2.54,6.9,2.63,2.5,9.56,4.83,19.67C349.39,281.85,358.07,282.8,360.4,293.35Z" transform="translate(2.01 2.01)" style="fill: #fff;stroke: #000;stroke-linecap: round;stroke-linejoin: round;stroke-width: 4px"/>
    </g>
    <g id="Barba-scuro">
      <path id="Barba-chiaro-3" data-name="Barba-chiaro" d="M360.4,293.35c3,13.64,1.83,24.95-4.78,37.59-3.44,6.57-6.94,13.23-12.27,18.75-13.57,14-37.9,18.19-57.77,12.09s-35.1-21.13-42.8-38.22c-1.51-3.36-2.79-6.85-5-9.91-2.75-3.82-6.8-6.78-10.33-10.08-11.81-11-18-26.45-16.59-41.47.39-4.19,2.33-8.37,2-12.56-.76-8.69-7-16.32-8.9-24.88s3.29-19.88,13.17-18.53c6.15.84,10.06,6.26,11.77,11.47,3,9.13,1.77,18.83,2.2,28.31s2.71,22.75,11.22,28.67,23.39,4.17,26.52-4.92c1.91-5.54-.16-6.7,1.83-12.22,2.72-7.53,13.13-10.29,22.08-11.51a156.26,156.26,0,0,1,26.68-1.82c3,0,18.85,1.49,21.59,2.54,6.9,2.63,2.5,9.56,4.83,19.67C349.39,281.85,358.07,282.8,360.4,293.35Z" transform="translate(2.01 2.01)" style="stroke: #000;stroke-linecap: round;stroke-linejoin: round;stroke-width: 4px"/>
    </g>
    <g id="NoBarbaBaffo">
      <rect x="492.63" y="28.81" width="12.94" height="12.94" style="fill: none"/>
    </g>
  </g>
  <g id="ACCESSORI_group">
    <g id="Occhiale-Tondo">
      <circle cx="267.39" cy="220.27" r="26.63" style="fill: none;stroke: #000;stroke-linecap: round;stroke-linejoin: round;stroke-width: 2px"/>
      <circle cx="329.01" cy="220.27" r="24.25" style="fill: none;stroke: #000;stroke-linecap: round;stroke-linejoin: round;stroke-width: 2px"/>
      <path d="M292,218.26s5.68-7.35,10.74,0" transform="translate(2.01 2.01)" style="fill: none;stroke: #000;stroke-linecap: round;stroke-linejoin: round;stroke-width: 2px"/>
    </g>
    <g id="Occhiale-Rettangolo">
      <path d="M252.78,205.28h41.81a2.69,2.69,0,0,1,2.69,2.69v8.6a10.76,10.76,0,0,1-10.76,10.76H261a10.76,10.76,0,0,1-10.76-10.76v-8.74A2.55,2.55,0,0,1,252.78,205.28Z" transform="translate(0.71 3.67) rotate(-0.35)" style="fill: none;stroke: #000;stroke-linecap: round;stroke-linejoin: round;stroke-width: 2px"/>
      <path d="M308.54,204.94h41.81a2.69,2.69,0,0,1,2.69,2.69v8.6A10.76,10.76,0,0,1,342.29,227H316.75A10.76,10.76,0,0,1,306,216.23v-8.74a2.55,2.55,0,0,1,2.55-2.55Z" transform="translate(0.71 4.01) rotate(-0.35)" style="fill: none;stroke: #000;stroke-linecap: round;stroke-linejoin: round;stroke-width: 2px"/>
      <line x1="317.46" y1="207.08" x2="218.48" y2="207.68" style="fill: none;stroke: #000;stroke-linecap: round;stroke-linejoin: round;stroke-width: 2px"/>
    </g>
    <g id="Occhiale-Ponte">
      <circle cx="273.39" cy="220.27" r="23.8" style="stroke: #000;stroke-linecap: round;stroke-linejoin: round;stroke-width: 4px"/>
      <circle cx="335.47" cy="220.27" r="23.8" style="stroke: #000;stroke-linecap: round;stroke-linejoin: round;stroke-width: 4px"/>
      <line x1="273.39" y1="196.47" x2="335.47" y2="196.47" style="fill: none;stroke: #000;stroke-linecap: round;stroke-linejoin: round;stroke-width: 4px"/>
      <g style="clip-path: url(#clip-path)">
        <line x1="289.2" y1="248.94" x2="247.57" y2="207.31" style="fill: none;stroke: #fff;stroke-linecap: round;stroke-linejoin: round;stroke-width: 2px"/>
      </g>
      <g style="clip-path: url(#clip-path-2)">
        <line x1="351.28" y1="248.94" x2="309.65" y2="207.31" style="fill: none;stroke: #fff;stroke-linecap: round;stroke-linejoin: round;stroke-width: 2px"/>
      </g>
    </g>
    <g id="Occhiale-Cat-eye">
      <line x1="218.13" y1="211.97" x2="247.49" y2="211.97" style="fill: none;stroke: #000;stroke-linecap: round;stroke-linejoin: round;stroke-width: 2px"/>
      <path d="M356.73,202.81a4.26,4.26,0,0,1,3.17,3.75c.47,7-.37,25.35-21,30.61-13.93,3.55-27.31-1.36-30-11.3s6.47-21,20.37-24.72C339.71,198.38,351.44,201.2,356.73,202.81Z" transform="translate(2.01 2.01)" style="fill: none;stroke: #000;stroke-linecap: round;stroke-linejoin: round;stroke-width: 4px"/>
      <path d="M248.72,202.81a4.28,4.28,0,0,0-3.17,3.75c-.47,7,.37,25.35,21,30.61,13.94,3.55,27.32-1.36,30-11.3s-6.47-21-20.37-24.72C265.74,198.38,254,201.2,248.72,202.81Z" transform="translate(2.01 2.01)" style="fill: none;stroke: #000;stroke-linecap: round;stroke-linejoin: round;stroke-width: 4px"/>
      <path d="M295,215a9.68,9.68,0,0,1,15.28.18" transform="translate(2.01 2.01)" style="fill: none;stroke: #000;stroke-linecap: round;stroke-linejoin: round;stroke-width: 2px"/>
    </g>
    <g id="Occhiale-Sole">
      <path d="M270.27,196.94h6a23,23,0,0,1,23,23v7.86a15,15,0,0,1-15,15h-22a15,15,0,0,1-15-15v-7.86a23,23,0,0,1,23-23Z" transform="translate(548.59 441.72) rotate(-180)"/>
      <path d="M331,196.94h6a23,23,0,0,1,23,23v7.86a15,15,0,0,1-15,15H323a15,15,0,0,1-15-15v-7.86a23,23,0,0,1,23-23Z" transform="translate(669.97 441.72) rotate(-180)"/>
      <polyline points="347.01 200.41 241.31 200.41 218.21 210.3" style="fill: none;stroke: #000;stroke-miterlimit: 10;stroke-width: 4px"/>
      <g style="clip-path: url(#clip-path-3)">
        <line x1="282.65" y1="244.78" x2="233.61" y2="195.74" style="fill: none;stroke: #fff;stroke-miterlimit: 10;stroke-width: 2px"/>
      </g>
      <g style="clip-path: url(#clip-path-4)">
        <line x1="346.03" y1="244.78" x2="296.98" y2="195.74" style="fill: none;stroke: #fff;stroke-miterlimit: 10;stroke-width: 2px"/>
      </g>
    </g>
    <g id="Occhiale-Doppio-ponte">
      <path d="M253.13,214.8a23.58,23.58,0,1,0,47.15,0V202.48H253.13Z" transform="translate(2.01 2.01)" style="fill: none;stroke: #000;stroke-linecap: round;stroke-linejoin: round;stroke-width: 2px"/>
      <path d="M311.7,214.8c0,13,9.25,23.58,20.67,23.58S353,227.82,353,214.8V202.48H311.7Z" transform="translate(2.01 2.01)" style="fill: none;stroke: #000;stroke-linecap: round;stroke-linejoin: round;stroke-width: 2px"/>
      <line x1="218.13" y1="213.71" x2="255.14" y2="204.48" style="fill: none;stroke: #000;stroke-linecap: round;stroke-linejoin: round;stroke-width: 2px"/>
      <line x1="302.29" y1="204.48" x2="313.71" y2="204.48" style="fill: none;stroke: #000;stroke-linecap: round;stroke-linejoin: round;stroke-width: 2px"/>
      <line x1="302.29" y1="213.2" x2="313.71" y2="213.2" style="fill: none;stroke: #000;stroke-linecap: round;stroke-linejoin: round;stroke-width: 2px"/>
    </g>
  </g>
  <g id="POSE_group">
    <g id="Pensieroso">
      <path d="M163.36,467.73l162,43.08c8.31,2,14.77,8.79,18,12,12.52,12.4,44,40.73,32.4,57.12-10.27,14.47-36.38,21.16-49.14,20.32-15.34-1-29.2-61.42-29.2-61.42-13.6-11-32.71-12.29-50.43-12.91-38-1.32-81.21-2.21-119.27-1.72-4.74.06-8.63,0-10.61,0a12.42,12.42,0,0,1-3.32-.45c-9.08-2.67-15.19-13.09-14.68-22.67,0-.95.14-1.94.26-3,1-8.62,8-30.76,8-30.76l17.17-51.46s12,36.75,57.63,25.43L175,470.67" transform="translate(2.01 2.01)" style="fill: #fff;stroke: #000;stroke-linecap: round;stroke-linejoin: round;stroke-width: 4px"/>
      <path d="M421.52,479.53l-57.27-125c-7.05-15.4-14-31.42-18.07-48s2.8-37.44-7.57-51.08c-2.49-3.28-7.21-.65-7.82,3.62-1.85,13-8.66,22.75-22,29.42A31.11,31.11,0,0,1,297,291.53a63.14,63.14,0,0,1-26.56-3.32c-9.63-3.39-10.37-6.19-14-3.2a3.2,3.2,0,0,0-1,1.9c-.41,5,5.45,11.9,7.81,14.89a34.09,34.09,0,0,0,7.51,7.12c18.1,12.27,38,14.5,55.65,27,4.14,2.94,4.71,8.49,4.71,8.49l27.66,156.67s3.57,25.26,36.09,23.56c7.76-.4,15-2.51,21.28-7C424.24,511.75,431.12,500.51,421.52,479.53Z" transform="translate(2.01 2.01)" style="fill: #fff;stroke: #000;stroke-linecap: round;stroke-linejoin: round;stroke-width: 4px"/>
    </g>
    <g id="Rilassato">
      <g id="Conserto">
        <path d="M373.56,467.73l-162,43.08c-8.31,2-14.77,8.79-18,12-12.52,12.4-44,40.73-32.4,57.12,10.27,14.47,36.39,21.16,49.14,20.32,15.34-1,29.2-61.42,29.2-61.42,13.6-11,32.71-12.29,50.43-12.91,38-1.32,81.21-2.21,119.28-1.72,4.73.06,8.62,0,10.6,0a12.42,12.42,0,0,0,3.32-.45c9.08-2.67,15.19-13.09,14.68-22.67-.05-.95-.14-1.94-.26-3-1-8.62-8-30.76-8-30.76l-17.17-51.46h0s-12,36.75-57.63,25.43h0l7.17,29.33" transform="translate(2.01 2.01)" style="fill: #fff;stroke: #000;stroke-linecap: round;stroke-linejoin: round;stroke-width: 4px"/>
      </g>
      <g id="Conserto-2" data-name="Conserto">
        <path d="M163.36,467.73l162,43.08c8.31,2,14.77,8.79,18,12,12.52,12.4,44,40.73,32.4,57.12-10.27,14.47-36.38,21.16-49.14,20.32-15.34-1-29.2-61.42-29.2-61.42-13.6-11-32.71-12.29-50.43-12.91-38-1.32-81.21-2.21-119.27-1.72-4.74.06-8.63,0-10.61,0a12.42,12.42,0,0,1-3.32-.45c-9.08-2.67-15.19-13.09-14.68-22.67,0-.95.14-1.94.26-3,1-8.62,8-30.76,8-30.76l17.17-51.46s12,36.75,57.63,25.43L175,470.67" transform="translate(2.01 2.01)" style="fill: #fff;stroke: #000;stroke-linecap: round;stroke-linejoin: round;stroke-width: 4px"/>
      </g>
    </g>
    <g id="Conserto-3" data-name="Conserto">
      <g id="Conserto-4" data-name="Conserto">
        <path d="M182.16,441.34,336,415.44a29.62,29.62,0,0,1,12.42-.18L360.29,464l-35.86-10.67c-17.16-3.34-17.31-1.68-33.25,6.07-34.24,16.65-97.76,47-131.17,65.29-32.77,2.73-43.09-20-43.09-20-8-13.42-6.9-31.82-3.44-47.55l11-41.14s12,36.75,57.63,25.43" transform="translate(2.01 2.01)" style="fill: #fff;stroke: #000;stroke-linecap: round;stroke-linejoin: round;stroke-width: 4px"/>
      </g>
      <g>
        <path d="M223.59,434.36c-.49-7.33-9.14-12-17.86-14.85-6.29-2.08-15.1-3-21.71-3-10.66,0-22.91,3.48-31.53,10.37a19.92,19.92,0,0,0-6.22,8.19c-1.91,4.87-2.93,11.5-1.51,16.58,2.83,10.14,14.21,13.29,23.58,12,14.22-1.95,21-14.79,32.12-22.07l.17-.11C206.76,437.54,212.39,436,223.59,434.36Z" transform="translate(2.01 2.01)" style="fill: #fff;stroke: #000;stroke-linecap: round;stroke-linejoin: round;stroke-width: 4px"/>
        <path d="M265.64,471.73c9.47-4.59,18.18-8.8,25.54-12.38,15.94-7.75,16.09-9.41,33.25-6.07L360.29,464l-5.53-22.61c45.62,11.32,57.63-25.43,57.63-25.43l12.07,41.89s6.87,24.71,4.36,36.79a47.24,47.24,0,0,1-12.68,24.1c-6,6-28.89,5.43-41.15,5.43C375,524.12,295.92,487.06,265.64,471.73Z" transform="translate(2.01 2.01)" style="fill: #fff;stroke: #000;stroke-linecap: round;stroke-linejoin: round;stroke-width: 4px"/>
      </g>
    </g>
    <g id="Indice-su">
      <path d="M163.36,467.73l162,43.08c8.31,2,14.77,8.79,18,12,12.52,12.4,44,40.73,32.4,57.12-10.27,14.47-36.38,21.16-49.14,20.32-15.34-1-29.2-61.42-29.2-61.42-13.6-11-32.71-12.29-50.43-12.91-38-1.32-81.21-2.21-119.27-1.72-4.74.06-8.63,0-10.61,0a12.42,12.42,0,0,1-3.32-.45c-9.08-2.67-15.19-13.09-14.68-22.67,0-.95.14-1.94.26-3,1-8.62,8-30.76,8-30.76l17.17-51.46s12,36.75,57.63,25.43L175,470.67" transform="translate(2.01 2.01)" style="fill: #fff;stroke: #000;stroke-linecap: round;stroke-linejoin: round;stroke-width: 4px"/>
      <g>
        <path d="M421.75,295.85" transform="translate(2.01 2.01)" style="fill: #fff;stroke: #000;stroke-linecap: round;stroke-linejoin: round;stroke-width: 4px"/>
        <path d="M461.76,249.61" transform="translate(2.01 2.01)" style="fill: #fff;stroke: #000;stroke-linecap: round;stroke-linejoin: round;stroke-width: 4px"/>
        <path d="M457.87,295.85c10.45,0,17.77,8.68,17.77,18.31v13.49a28.63,28.63,0,0,1-2.42,11.53L463.1,355.34,449.94,496.59a30.69,30.69,0,0,1-30.77,27.84L375,524.12l-20.23-82.78c26.6,6.6,41.78-3.15,49.81-12.42l-10.42,32.21,35.14-108.68L421.17,332c-2-5,.21-30.05.58-36.14l-6.87-40a6.36,6.36,0,0,1,12.53-2.18l7.25,41.17,23.21,1" transform="translate(2.01 2.01)" style="fill: #fff;stroke: #000;stroke-linecap: round;stroke-linejoin: round;stroke-width: 4px"/>
        <path d="M421.55,344.1" transform="translate(2.01 2.01)" style="fill: #fff;stroke: #000;stroke-linecap: round;stroke-linejoin: round;stroke-width: 4px"/>
        <path d="M420.48,327.6l10.59-9.7,12.59-11.52a6.36,6.36,0,0,1,8.61,9.37l-13.62,12.57" transform="translate(2.01 2.01)" style="fill: #fff;stroke: #000;stroke-linecap: round;stroke-linejoin: round;stroke-width: 4px"/>
      </g>
    </g>
    <g id="Victory">
      <g id="Allegro">
        <g>
          <path d="M421.75,295.85" transform="translate(2.01 2.01)" style="fill: #fff;stroke: #000;stroke-linecap: round;stroke-linejoin: round;stroke-width: 4px"/>
          <path d="M461.76,249.61" transform="translate(2.01 2.01)" style="fill: #fff;stroke: #000;stroke-linecap: round;stroke-linejoin: round;stroke-width: 4px"/>
          <path d="M421.17,332c-2-5,.21-30.05.58-36.14l-6.87-40a6.36,6.36,0,0,1,12.53-2.18l7.25,41.17H445l7.24-41.17a6.36,6.36,0,0,1,12.54,2.18l-6.87,40c10.45,0,17.77,8.68,17.77,18.31v13.49a28.63,28.63,0,0,1-2.42,11.53L463.1,355.34,449.94,496.59a30.69,30.69,0,0,1-30.77,27.84L375,524.12l-20.23-82.78c26.6,6.6,41.78-3.15,49.81-12.42l-10.42,32.21,35.14-108.68Z" transform="translate(2.01 2.01)" style="fill: #fff;stroke: #000;stroke-linecap: round;stroke-linejoin: round;stroke-width: 4px"/>
          <path d="M421.55,344.1" transform="translate(2.01 2.01)" style="fill: #fff;stroke: #000;stroke-linecap: round;stroke-linejoin: round;stroke-width: 4px"/>
          <path d="M420.48,327.6l10.59-9.7,12.59-11.52a6.36,6.36,0,0,1,8.61,9.37l-13.62,12.57" transform="translate(2.01 2.01)" style="fill: #fff;stroke: #000;stroke-linecap: round;stroke-linejoin: round;stroke-width: 4px"/>
        </g>
      </g>
      <g id="Allegro-2" data-name="Allegro">
        <g>
          <path d="M114.87,295.85" transform="translate(2.01 2.01)" style="fill: none;stroke: #000;stroke-linecap: round;stroke-linejoin: round;stroke-width: 4px"/>
          <path d="M74.86,249.61" transform="translate(2.01 2.01)" style="fill: none;stroke: #000;stroke-linecap: round;stroke-linejoin: round;stroke-width: 4px"/>
          <path d="M115.07,344.1" transform="translate(2.01 2.01)" style="fill: none;stroke: #000;stroke-linecap: round;stroke-linejoin: round;stroke-width: 4px"/>
          <path d="M132.22,428.77c8,9.32,23.19,19.21,49.94,12.57l-20.53,82.78-44.19.31a30.69,30.69,0,0,1-30.76-27.84L73.52,355.34,63.4,339.18A28.63,28.63,0,0,1,61,327.65V314.16c0-9.63,7.32-18.31,17.77-18.31l-6.87-40a6.36,6.36,0,0,1,12.54-2.18l7.24,41.17H102l7.25-41.17a6.36,6.36,0,0,1,12.53,2.18l-6.87,40c.37,6.09,2.55,31.18.58,36.14l-8.13,20.46,35.15,108.68-10.42-32.21" transform="translate(2.01 2.01)" style="fill: #fff;stroke: #000;stroke-linecap: round;stroke-linejoin: round;stroke-width: 4px"/>
          <path d="M116.14,327.6l-10.59-9.7L93,306.38a6.36,6.36,0,0,0-8.61,9.37L98,328.32" transform="translate(2.01 2.01)" style="fill: none;stroke: #000;stroke-linecap: round;stroke-linejoin: round;stroke-width: 4px"/>
        </g>
      </g>
    </g>
  </g>
  <g id="PROFESSIONI_group">
    <g id="Accademico">
      <rect x="74.47" y="472.14" width="126.19" height="26.56" style="fill: #fff;stroke: #000;stroke-linejoin: round;stroke-width: 4px"/>
      <rect x="63.71" y="458.86" width="130.29" height="13.28" style="fill: #fff;stroke: #000;stroke-linejoin: round;stroke-width: 4px"/>
      <g>
        <path d="M53.67,523.33V500.7a4,4,0,0,1,4-4H204.17a4,4,0,0,1,4,4v22.63Z" transform="translate(2.01 2.01)" style="fill: #fff;stroke: #000;stroke-linecap: round;stroke-linejoin: round;stroke-width: 4px"/>
        <path d="M208.18,523.33h0Z" transform="translate(2.01 2.01)" style="fill: none;stroke: #000;stroke-linecap: round;stroke-linejoin: round;stroke-width: 0.5px"/>
        <line x1="80.62" y1="498.69" x2="80.62" y2="525.34" style="fill: none;stroke: #000;stroke-linecap: round;stroke-linejoin: round;stroke-width: 2px"/>
        <line x1="92.89" y1="498.69" x2="92.89" y2="525.34" style="fill: none;stroke: #000;stroke-linecap: round;stroke-linejoin: round;stroke-width: 2px"/>
        <line x1="172.98" y1="498.69" x2="172.98" y2="525.34" style="fill: none;stroke: #000;stroke-linecap: round;stroke-linejoin: round;stroke-width: 2px"/>
        <line x1="185.25" y1="498.69" x2="185.25" y2="525.34" style="fill: none;stroke: #000;stroke-linecap: round;stroke-linejoin: round;stroke-width: 2px"/>
      </g>
      <line x1="72.69" y1="484.32" x2="198.88" y2="484.32" style="fill: none;stroke: #000;stroke-linejoin: round;stroke-width: 4px"/>
    </g>
    <g id="Designer">
      <path d="M63.83,522.86l160.12.32a9.27,9.27,0,0,0,9.26-9.22h0a9.26,9.26,0,0,0-9.22-9.25L63.87,504.4l-29.52,9.35Z" transform="translate(2.01 2.01)" style="fill: #fff;stroke: #000;stroke-linecap: round;stroke-linejoin: round;stroke-width: 4px"/>
      <line x1="69.63" y1="515.7" x2="219.41" y2="515.5" style="fill: none;stroke: #000;stroke-linecap: round;stroke-linejoin: round;stroke-width: 2px"/>
      <path d="M63.87,504.4s8.47,8.44,0,18.46" transform="translate(2.01 2.01)" style="fill: none;stroke: #000;stroke-linecap: round;stroke-linejoin: round;stroke-width: 2px"/>
      <path d="M213,504.63s9.07,7.79,1.33,18.42" transform="translate(2.01 2.01)" style="fill: none;stroke: #000;stroke-linecap: round;stroke-linejoin: round;stroke-width: 2px"/>
    </g>
    <g id="Informatico">
      <path d="M233.68,513.47h35.88A4.43,4.43,0,0,1,274,517.9v2.29a4.43,4.43,0,0,1-4.44,4.43h-33.8" transform="translate(2.01 2.01)" style="fill: #fff;stroke: #000;stroke-linecap: round;stroke-linejoin: round;stroke-width: 4px"/>
      <path d="M235.76,524.62l-23.3-125.37a7.47,7.47,0,0,0-7.34-6.1H42.6a6,6,0,0,0-5.93,7.13L59.78,524.62Z" transform="translate(2.01 2.01)" style="fill: #fff;stroke: #000;stroke-linecap: round;stroke-linejoin: round;stroke-width: 4px"/>
      <path d="M156.07,450.36a1.09,1.09,0,0,0-1.08,1.07v0a22.08,22.08,0,0,1-44.15,0v0a1.08,1.08,0,0,0-1.08-1.06,1.07,1.07,0,0,0-1.07,1v.11a24.23,24.23,0,0,0,48.45,0v-.11a1.09,1.09,0,0,0-1.08-1Z" transform="translate(2.01 2.01)"/>
    </g>
    <g id="Operaio">
      <path d="M223.36,421.07l50.73.09a3,3,0,0,1,3,3h0a3,3,0,0,1-3,3L223.35,427" transform="translate(2.01 2.01)" style="fill: #fff;stroke: #000;stroke-linecap: round;stroke-linejoin: round;stroke-width: 2px"/>
      <path d="M204,410.69h6.05A13.36,13.36,0,0,1,223.36,424h0A13.35,13.35,0,0,1,210,437.33h-6" transform="translate(2.01 2.01)" style="fill: #fff;stroke: #000;stroke-linecap: round;stroke-linejoin: round;stroke-width: 4px"/>
      <path d="M188.13,395.74l-93.67-.18a16,16,0,0,0-15.95,15.89l0,21.18a16,16,0,0,0,10.53,15l0,21.14a6.35,6.35,0,0,1-6.37,6.34h0a11.31,11.31,0,0,0-11.3,11.26l-.05,26.52A11.32,11.32,0,0,0,82.5,524.18l40.64.07A11.31,11.31,0,0,0,134.44,513l.05-26.52a11.31,11.31,0,0,0-11.26-11.3h0a6.35,6.35,0,0,1-6.34-6.37l0-12a8.19,8.19,0,0,1,8.21-8.18l62.91.12A16,16,0,0,0,204,432.87l0-21.19A16,16,0,0,0,188.13,395.74Z" transform="translate(2.01 2.01)" style="fill: #fff;stroke: #000;stroke-linecap: round;stroke-linejoin: round;stroke-width: 4px"/>
      <line x1="228.88" y1="429.03" x2="234.84" y2="423.09" style="fill: none;stroke: #000;stroke-linecap: round;stroke-linejoin: round"/>
      <line x1="237.22" y1="429.05" x2="243.18" y2="423.11" style="fill: none;stroke: #000;stroke-linecap: round;stroke-linejoin: round"/>
      <line x1="245.56" y1="429.06" x2="251.52" y2="423.13" style="fill: none;stroke: #000;stroke-linecap: round;stroke-linejoin: round"/>
      <line x1="253.91" y1="429.08" x2="259.87" y2="423.14" style="fill: none;stroke: #000;stroke-linecap: round;stroke-linejoin: round"/>
      <line x1="262.25" y1="429.09" x2="268.21" y2="423.16" style="fill: none;stroke: #000;stroke-linecap: round;stroke-linejoin: round"/>
      <line x1="270.59" y1="429.11" x2="276.55" y2="423.17" style="fill: none;stroke: #000;stroke-linecap: round;stroke-linejoin: round"/>
      <line x1="87.28" y1="492.46" x2="87.24" y2="514.71" style="fill: none;stroke: #000;stroke-linecap: round;stroke-linejoin: round;stroke-width: 2px"/>
      <line x1="96.08" y1="492.48" x2="96.04" y2="514.72" style="fill: none;stroke: #000;stroke-linecap: round;stroke-linejoin: round;stroke-width: 2px"/>
      <line x1="104.89" y1="492.49" x2="104.85" y2="514.74" style="fill: none;stroke: #000;stroke-linecap: round;stroke-linejoin: round;stroke-width: 2px"/>
      <line x1="113.7" y1="492.51" x2="113.66" y2="514.76" style="fill: none;stroke: #000;stroke-linecap: round;stroke-linejoin: round;stroke-width: 2px"/>
      <line x1="122.5" y1="492.52" x2="122.46" y2="514.77" style="fill: none;stroke: #000;stroke-linecap: round;stroke-linejoin: round;stroke-width: 2px"/>
      <line x1="161.56" y1="397.69" x2="161.46" y2="450.71" style="fill: none;stroke: #000;stroke-linecap: round;stroke-linejoin: round;stroke-width: 2px"/>
    </g>
  </g>
</svg>
