<svg xmlns="http://www.w3.org/2000/svg" viewBox="0 0 314.7 314.7">
  <g id="INTERESSI">
    <g id="Giardinaggio">
      <path d="M206.23,91.22V48.59c0-2.62-2.44-4.76-5.41-4.76h0c-3,0-5.41,2.14-5.41,4.76V91.22" style="fill: #fff;stroke: #000;stroke-linecap: round;stroke-linejoin: round;stroke-width: 4px"/>
      <path d="M102.08,225.82l-53-34.62L28.9,203.53c-1.88,1.15-3.75-.35-3.25-2.6a117.27,117.27,0,0,1,28.8-53.79c1.6-1.66,3.88-.93,4,1.26l.94,23.66L108,193" style="fill: #fff;stroke: #000;stroke-linecap: round;stroke-linejoin: round;stroke-width: 4px"/>
      <path d="M59.36,172.06S47.1,177.6,49.11,191.2" style="fill: #fff;stroke: #000;stroke-linecap: round;stroke-linejoin: round;stroke-width: 2px"/>
      <g>
        <polygon points="260.06 246.87 234.61 105.55 232.03 91.22 179.17 91.22 126.31 91.22 98.29 246.87 260.06 246.87" style="fill: #fff;stroke: #000;stroke-linecap: round;stroke-linejoin: round;stroke-width: 4px"/>
        <path d="M279.2,163a33.91,33.91,0,0,0-39.94-33.39l-1.76-9.77A43.85,43.85,0,1,1,253,206.14l-1.76-9.77A34,34,0,0,0,279.2,163Z" style="fill: #fff;stroke: #000;stroke-linecap: round;stroke-linejoin: round;stroke-width: 4px"/>
        <path d="M279.2,163a34,34,0,0,1-27.92,33.39l-12-66.78A33.91,33.91,0,0,1,279.2,163Z" style="fill: none;stroke: #000;stroke-linecap: round;stroke-linejoin: round;stroke-width: 4px"/>
      </g>
      <line x1="240.86" y1="143.44" x2="116.91" y2="143.44" style="fill: none;stroke: #000;stroke-linecap: round;stroke-linejoin: round;stroke-width: 2px"/>
      <line x1="101.79" y1="225.82" x2="255.98" y2="225.82" style="fill: none;stroke: #000;stroke-linecap: round;stroke-linejoin: round;stroke-width: 2px"/>
      <g>
        <path d="M209.45,202.36a30.57,30.57,0,1,0-61.13,0H163a15.85,15.85,0,1,1,31.69,0Z" style="fill: #fff;stroke: #000;stroke-linecap: round;stroke-linejoin: round;stroke-width: 2px"/>
        <path d="M202.09,202.36h14.73a37.93,37.93,0,1,0-75.86,0h14.72a23.21,23.21,0,1,1,46.41,0" style="fill: none;stroke: #000;stroke-linecap: round;stroke-linejoin: round;stroke-width: 2px"/>
      </g>
    </g>
    <g id="Pittura">
      <path d="M152.73,80.33a119.08,119.08,0,0,1,44.92.78c35.76,7.68,75.68,37,65.47,78.27C244.93,233,144,259.12,78.43,248c-5.89-1-11.82-2.43-17-5.46-12-7-14.38-19-8.18-31.33,5.25-10.43,13.84-19.2,18.24-30.07C82.25,154.66,70.1,126.69,95,106.33A124.7,124.7,0,0,1,152.73,80.33Z" style="fill: #fff;stroke: #000;stroke-miterlimit: 10;stroke-width: 4px"/>
      <ellipse cx="122.61" cy="126.26" rx="24.77" ry="14.07" transform="translate(-42.47 65.24) rotate(-25.55)" style="fill: none;stroke: #000;stroke-linecap: round;stroke-linejoin: round;stroke-width: 2px"/>
      <path d="M234.53,173.92c-4.94,8.06-12.24,14.94-21.18,18a12.12,12.12,0,0,1-5.6.82c-3.08-.44-5.58-2.79-7.21-5.44-3.9-6.32-3.78-14.52-1.24-21.51,3.81-10.48,21.88-37.25,35.4-33.56C252.27,137.05,240.11,164.82,234.53,173.92Z" style="fill: #9c6;stroke: #000;stroke-linecap: round;stroke-linejoin: round;stroke-width: 2px"/>
      <path d="M162.5,218.74c-14.46-.15-5.12-12.45.69-17.47,5.64-4.87,11.45-10.54,19.4-10,11,.76,17.1,8.74,8.22,17.16C183.52,215.35,172.38,218.85,162.5,218.74Z" style="fill: #036;stroke: #000;stroke-linecap: round;stroke-linejoin: round;stroke-width: 2px"/>
      <path d="M117.63,232.39c-7.33.26-22.56-3.88-14.62-13.69,4.18-5.16,16.13-10,22.7-10.33,6.06-.32,16.4,4.5,17,11.64C143.66,229.83,124.4,232.15,117.63,232.39Z" style="fill: #f7524a;stroke: #000;stroke-linecap: round;stroke-linejoin: round;stroke-width: 2px"/>
      <path d="M222.26,124c-8,5.41-42.53-3.06-28.95-16.52C206.25,94.69,234.51,115.76,222.26,124Z" style="stroke: #000;stroke-linecap: round;stroke-linejoin: round;stroke-width: 2px"/>
      <circle cx="81.55" cy="220.14" r="8.06" style="fill: #fc0;stroke: #000;stroke-linecap: round;stroke-linejoin: round;stroke-width: 2px"/>
    </g>
    <g id="Game">
      <polyline points="149.69 185.68 149.69 103.49 165.01 103.49 165.01 185.68" style="fill: #fff;stroke: #000;stroke-miterlimit: 10;stroke-width: 4px"/>
      <path d="M96.27,185.68a13.31,13.31,0,0,1,26.62,0" style="fill: #fc0;stroke: #000;stroke-miterlimit: 10;stroke-width: 4px"/>
      <rect x="80.72" y="185.68" width="153.26" height="72.61" rx="10.13" style="fill: #fff;stroke: #000;stroke-miterlimit: 10;stroke-width: 4px"/>
      <polyline points="80.72 221.98 233.98 221.98 233.98 221.98" style="fill: none;stroke: #000;stroke-miterlimit: 10;stroke-width: 2px"/>
      <circle cx="157.35" cy="89.11" r="32.7" style="fill: #cf4b5a;stroke: #000;stroke-miterlimit: 10;stroke-width: 4px"/>
    </g>
    <g id="Cucina">
      <path d="M73.75,67,48,96.67a20.34,20.34,0,0,0,1.7,28.62L95,157a16,16,0,0,0,21.2-2.8l4.07-4.68,2.61,2.27a4.18,4.18,0,0,0,5.84-.73l10.08-11.59a4.19,4.19,0,0,0-.08-5.89l-2.61-2.27,4.08-4.68a16,16,0,0,0-.16-21.38l-37.68-40.5A20.34,20.34,0,0,0,73.75,67Z" style="fill: #f7524a;stroke: #000;stroke-linecap: round;stroke-linejoin: round;stroke-width: 4px"/>
      <rect x="179.15" y="122" width="10.24" height="132.92" transform="translate(-78.86 203.76) rotate(-48.97)" style="fill: #fff;stroke: #000;stroke-linecap: round;stroke-linejoin: round;stroke-width: 4px"/>
      <rect x="229.99" y="201.59" width="19.81" height="70.56" rx="6.54" transform="translate(-96.27 262.36) rotate(-48.97)" style="fill: #fff;stroke: #000;stroke-linecap: round;stroke-linejoin: round;stroke-width: 4px"/>
      <g>
        <line x1="126.19" y1="113.07" x2="88.53" y2="80.3" style="fill: none;stroke: #000;stroke-linecap: round;stroke-linejoin: round;stroke-width: 2px"/>
        <line x1="119.84" y1="120.36" x2="82.18" y2="87.59" style="fill: none;stroke: #000;stroke-linecap: round;stroke-linejoin: round;stroke-width: 2px"/>
        <line x1="113.49" y1="127.65" x2="75.83" y2="94.88" style="fill: none;stroke: #000;stroke-linecap: round;stroke-linejoin: round;stroke-width: 2px"/>
        <line x1="107.15" y1="134.95" x2="69.49" y2="102.18" style="fill: none;stroke: #000;stroke-linecap: round;stroke-linejoin: round;stroke-width: 2px"/>
        <line x1="100.8" y1="142.24" x2="63.14" y2="109.47" style="fill: none;stroke: #000;stroke-linecap: round;stroke-linejoin: round;stroke-width: 2px"/>
      </g>
      <rect x="247.44" y="232.97" width="5.07" height="25.35" rx="2.54" transform="translate(-99.42 272.97) rotate(-48.97)" style="fill: #fff;stroke: #000;stroke-linecap: round;stroke-linejoin: round;stroke-width: 2px"/>
    </g>
  </g>
</svg>
