<svg xmlns="http://www.w3.org/2000/svg" xmlns:xlink="http://www.w3.org/1999/xlink" viewBox="0 0 531.28 602.71">
  <defs>
    <pattern id="_10_lpi_60_" data-name="10 lpi 60%" width="72" height="72" patternTransform="translate(256.2 -32.28)" patternUnits="userSpaceOnUse" viewBox="0 0 72 72">
      <rect width="72" height="72" style="fill: none"/>
      <g>
        <line x1="71.75" y1="68.4" x2="144.25" y2="68.4" style="fill: none;stroke: #222221;stroke-width: 4.32px"/>
        <line x1="71.75" y1="54" x2="144.25" y2="54" style="fill: none;stroke: #222221;stroke-width: 4.32px"/>
        <line x1="71.75" y1="39.6" x2="144.25" y2="39.6" style="fill: none;stroke: #222221;stroke-width: 4.32px"/>
        <line x1="71.75" y1="25.2" x2="144.25" y2="25.2" style="fill: none;stroke: #222221;stroke-width: 4.32px"/>
        <line x1="71.75" y1="10.8" x2="144.25" y2="10.8" style="fill: none;stroke: #222221;stroke-width: 4.32px"/>
        <line x1="71.75" y1="61.2" x2="144.25" y2="61.2" style="fill: none;stroke: #222221;stroke-width: 4.32px"/>
        <line x1="71.75" y1="46.8" x2="144.25" y2="46.8" style="fill: none;stroke: #222221;stroke-width: 4.32px"/>
        <line x1="71.75" y1="32.4" x2="144.25" y2="32.4" style="fill: none;stroke: #222221;stroke-width: 4.32px"/>
        <line x1="71.75" y1="18" x2="144.25" y2="18" style="fill: none;stroke: #222221;stroke-width: 4.32px"/>
        <line x1="71.75" y1="3.6" x2="144.25" y2="3.6" style="fill: none;stroke: #222221;stroke-width: 4.32px"/>
      </g>
      <g>
        <line x1="-0.25" y1="68.4" x2="72.25" y2="68.4" style="fill: none;stroke: #222221;stroke-width: 4.32px"/>
        <line x1="-0.25" y1="54" x2="72.25" y2="54" style="fill: none;stroke: #222221;stroke-width: 4.32px"/>
        <line x1="-0.25" y1="39.6" x2="72.25" y2="39.6" style="fill: none;stroke: #222221;stroke-width: 4.32px"/>
        <line x1="-0.25" y1="25.2" x2="72.25" y2="25.2" style="fill: none;stroke: #222221;stroke-width: 4.32px"/>
        <line x1="-0.25" y1="10.8" x2="72.25" y2="10.8" style="fill: none;stroke: #222221;stroke-width: 4.32px"/>
        <line x1="-0.25" y1="61.2" x2="72.25" y2="61.2" style="fill: none;stroke: #222221;stroke-width: 4.32px"/>
        <line x1="-0.25" y1="46.8" x2="72.25" y2="46.8" style="fill: none;stroke: #222221;stroke-width: 4.32px"/>
        <line x1="-0.25" y1="32.4" x2="72.25" y2="32.4" style="fill: none;stroke: #222221;stroke-width: 4.32px"/>
        <line x1="-0.25" y1="18" x2="72.25" y2="18" style="fill: none;stroke: #222221;stroke-width: 4.32px"/>
        <line x1="-0.25" y1="3.6" x2="72.25" y2="3.6" style="fill: none;stroke: #222221;stroke-width: 4.32px"/>
      </g>
      <g>
        <line x1="-72.25" y1="68.4" x2="0.25" y2="68.4" style="fill: none;stroke: #222221;stroke-width: 4.32px"/>
        <line x1="-72.25" y1="54" x2="0.25" y2="54" style="fill: none;stroke: #222221;stroke-width: 4.32px"/>
        <line x1="-72.25" y1="39.6" x2="0.25" y2="39.6" style="fill: none;stroke: #222221;stroke-width: 4.32px"/>
        <line x1="-72.25" y1="25.2" x2="0.25" y2="25.2" style="fill: none;stroke: #222221;stroke-width: 4.32px"/>
        <line x1="-72.25" y1="10.8" x2="0.25" y2="10.8" style="fill: none;stroke: #222221;stroke-width: 4.32px"/>
        <line x1="-72.25" y1="61.2" x2="0.25" y2="61.2" style="fill: none;stroke: #222221;stroke-width: 4.32px"/>
        <line x1="-72.25" y1="46.8" x2="0.25" y2="46.8" style="fill: none;stroke: #222221;stroke-width: 4.32px"/>
        <line x1="-72.25" y1="32.4" x2="0.25" y2="32.4" style="fill: none;stroke: #222221;stroke-width: 4.32px"/>
        <line x1="-72.25" y1="18" x2="0.25" y2="18" style="fill: none;stroke: #222221;stroke-width: 4.32px"/>
        <line x1="-72.25" y1="3.6" x2="0.25" y2="3.6" style="fill: none;stroke: #222221;stroke-width: 4.32px"/>
      </g>
    </pattern>
    <pattern id="Griglia_0_25_pollice_righe" data-name="Griglia 0,25 pollice righe" width="72" height="72" patternTransform="translate(256.2 -32.28)" patternUnits="userSpaceOnUse" viewBox="0 0 72 72">
      <rect width="72" height="72" style="fill: none"/>
      <g>
        <line x1="45" y1="71.75" x2="45" y2="144.25" style="fill: none;stroke: #222221;stroke-width: 0.30000000000000004px"/>
        <line x1="9" y1="71.75" x2="9" y2="144.25" style="fill: none;stroke: #222221;stroke-width: 0.30000000000000004px"/>
        <line x1="63" y1="71.75" x2="63" y2="144.25" style="fill: none;stroke: #222221;stroke-width: 0.30000000000000004px"/>
        <line x1="27" y1="71.75" x2="27" y2="144.25" style="fill: none;stroke: #222221;stroke-width: 0.30000000000000004px"/>
      </g>
      <g>
        <line x1="71.75" y1="9" x2="144.25" y2="9" style="fill: none;stroke: #222221;stroke-width: 0.30000000000000004px"/>
        <line x1="71.75" y1="45" x2="144.25" y2="45" style="fill: none;stroke: #222221;stroke-width: 0.30000000000000004px"/>
        <line x1="71.75" y1="27" x2="144.25" y2="27" style="fill: none;stroke: #222221;stroke-width: 0.30000000000000004px"/>
        <line x1="71.75" y1="63" x2="144.25" y2="63" style="fill: none;stroke: #222221;stroke-width: 0.30000000000000004px"/>
      </g>
      <g>
        <line x1="-0.25" y1="9" x2="72.25" y2="9" style="fill: none;stroke: #222221;stroke-width: 0.30000000000000004px"/>
        <line x1="-0.25" y1="45" x2="72.25" y2="45" style="fill: none;stroke: #222221;stroke-width: 0.30000000000000004px"/>
        <line x1="-0.25" y1="27" x2="72.25" y2="27" style="fill: none;stroke: #222221;stroke-width: 0.30000000000000004px"/>
        <line x1="-0.25" y1="63" x2="72.25" y2="63" style="fill: none;stroke: #222221;stroke-width: 0.30000000000000004px"/>
        <line x1="45" y1="-0.25" x2="45" y2="72.25" style="fill: none;stroke: #222221;stroke-width: 0.30000000000000004px"/>
        <line x1="9" y1="-0.25" x2="9" y2="72.25" style="fill: none;stroke: #222221;stroke-width: 0.30000000000000004px"/>
        <line x1="63" y1="-0.25" x2="63" y2="72.25" style="fill: none;stroke: #222221;stroke-width: 0.30000000000000004px"/>
        <line x1="27" y1="-0.25" x2="27" y2="72.25" style="fill: none;stroke: #222221;stroke-width: 0.30000000000000004px"/>
      </g>
      <g>
        <line x1="-72.25" y1="9" x2="0.25" y2="9" style="fill: none;stroke: #222221;stroke-width: 0.30000000000000004px"/>
        <line x1="-72.25" y1="45" x2="0.25" y2="45" style="fill: none;stroke: #222221;stroke-width: 0.30000000000000004px"/>
        <line x1="-72.25" y1="27" x2="0.25" y2="27" style="fill: none;stroke: #222221;stroke-width: 0.30000000000000004px"/>
        <line x1="-72.25" y1="63" x2="0.25" y2="63" style="fill: none;stroke: #222221;stroke-width: 0.30000000000000004px"/>
      </g>
      <g>
        <line x1="45" y1="-72.25" x2="45" y2="0.25" style="fill: none;stroke: #222221;stroke-width: 0.30000000000000004px"/>
        <line x1="9" y1="-72.25" x2="9" y2="0.25" style="fill: none;stroke: #222221;stroke-width: 0.30000000000000004px"/>
        <line x1="63" y1="-72.25" x2="63" y2="0.25" style="fill: none;stroke: #222221;stroke-width: 0.30000000000000004px"/>
        <line x1="27" y1="-72.25" x2="27" y2="0.25" style="fill: none;stroke: #222221;stroke-width: 0.30000000000000004px"/>
      </g>
    </pattern>
    <pattern id="_10_dpi_10_" data-name="10 dpi 10%" width="28.8" height="28.8" patternTransform="translate(69.01 10.92)" patternUnits="userSpaceOnUse" viewBox="0 0 28.8 28.8">
      <rect width="28.8" height="28.8" style="fill: none"/>
      <g>
        <circle cx="28.8" cy="28.8" r="0.72" style="fill: #222221"/>
        <path d="M14.4,29.52a.72.72,0,1,0-.72-.72A.72.72,0,0,0,14.4,29.52Z" style="fill: #222221"/>
        <path d="M28.8,15.12a.72.72,0,1,0-.72-.72A.72.72,0,0,0,28.8,15.12Z" style="fill: #222221"/>
        <path d="M14.4,15.12a.72.72,0,1,0-.72-.72A.72.72,0,0,0,14.4,15.12Z" style="fill: #222221"/>
        <path d="M7.2,22.32a.72.72,0,1,0-.72-.72A.72.72,0,0,0,7.2,22.32Z" style="fill: #222221"/>
        <path d="M21.6,22.32a.72.72,0,1,0-.72-.72A.72.72,0,0,0,21.6,22.32Z" style="fill: #222221"/>
        <path d="M7.2,7.92a.72.72,0,1,0-.72-.72A.72.72,0,0,0,7.2,7.92Z" style="fill: #222221"/>
        <path d="M21.6,7.92a.72.72,0,1,0-.72-.72A.72.72,0,0,0,21.6,7.92Z" style="fill: #222221"/>
      </g>
      <g>
        <circle cy="28.8" r="0.72" style="fill: #222221"/>
        <path d="M0,15.12a.72.72,0,0,0,0-1.44.72.72,0,0,0-.72.72A.72.72,0,0,0,0,15.12Z" style="fill: #222221"/>
      </g>
      <g>
        <path d="M28.8.72A.72.72,0,0,0,29.52,0a.72.72,0,0,0-.72-.72.72.72,0,0,0-.72.72A.72.72,0,0,0,28.8.72Z" style="fill: #222221"/>
        <path d="M14.4.72A.72.72,0,0,0,15.12,0a.72.72,0,0,0-.72-.72.72.72,0,0,0-.72.72A.72.72,0,0,0,14.4.72Z" style="fill: #222221"/>
      </g>
      <path d="M0,.72A.72.72,0,0,0,.72,0,.72.72,0,0,0,0-.72.72.72,0,0,0-.72,0,.72.72,0,0,0,0,.72Z" style="fill: #222221"/>
    </pattern>
    <pattern id="_6_lpi_10_" data-name="6 lpi 10%" width="72" height="72" patternTransform="translate(256.2 -32.28)" patternUnits="userSpaceOnUse" viewBox="0 0 72 72">
      <rect width="72" height="72" style="fill: none"/>
      <g>
        <line x1="71.75" y1="66" x2="144.25" y2="66" style="fill: none;stroke: #222221;stroke-width: 1.2000000000000002px"/>
        <line x1="71.75" y1="42" x2="144.25" y2="42" style="fill: none;stroke: #222221;stroke-width: 1.2000000000000002px"/>
        <line x1="71.75" y1="18" x2="144.25" y2="18" style="fill: none;stroke: #222221;stroke-width: 1.2000000000000002px"/>
        <line x1="71.75" y1="54" x2="144.25" y2="54" style="fill: none;stroke: #222221;stroke-width: 1.2000000000000002px"/>
        <line x1="71.75" y1="30" x2="144.25" y2="30" style="fill: none;stroke: #222221;stroke-width: 1.2000000000000002px"/>
        <line x1="71.75" y1="6" x2="144.25" y2="6" style="fill: none;stroke: #222221;stroke-width: 1.2000000000000002px"/>
      </g>
      <g>
        <line x1="-0.25" y1="66" x2="72.25" y2="66" style="fill: none;stroke: #222221;stroke-width: 1.2000000000000002px"/>
        <line x1="-0.25" y1="42" x2="72.25" y2="42" style="fill: none;stroke: #222221;stroke-width: 1.2000000000000002px"/>
        <line x1="-0.25" y1="18" x2="72.25" y2="18" style="fill: none;stroke: #222221;stroke-width: 1.2000000000000002px"/>
        <line x1="-0.25" y1="54" x2="72.25" y2="54" style="fill: none;stroke: #222221;stroke-width: 1.2000000000000002px"/>
        <line x1="-0.25" y1="30" x2="72.25" y2="30" style="fill: none;stroke: #222221;stroke-width: 1.2000000000000002px"/>
        <line x1="-0.25" y1="6" x2="72.25" y2="6" style="fill: none;stroke: #222221;stroke-width: 1.2000000000000002px"/>
      </g>
      <g>
        <line x1="-72.25" y1="66" x2="0.25" y2="66" style="fill: none;stroke: #222221;stroke-width: 1.2000000000000002px"/>
        <line x1="-72.25" y1="42" x2="0.25" y2="42" style="fill: none;stroke: #222221;stroke-width: 1.2000000000000002px"/>
        <line x1="-72.25" y1="18" x2="0.25" y2="18" style="fill: none;stroke: #222221;stroke-width: 1.2000000000000002px"/>
        <line x1="-72.25" y1="54" x2="0.25" y2="54" style="fill: none;stroke: #222221;stroke-width: 1.2000000000000002px"/>
        <line x1="-72.25" y1="30" x2="0.25" y2="30" style="fill: none;stroke: #222221;stroke-width: 1.2000000000000002px"/>
        <line x1="-72.25" y1="6" x2="0.25" y2="6" style="fill: none;stroke: #222221;stroke-width: 1.2000000000000002px"/>
      </g>
    </pattern>
    <clipPath id="clip-path">
      <circle cx="272.5" cy="218.88" r="23.8" style="fill: none"/>
    </clipPath>
    <clipPath id="clip-path-2">
      <circle cx="334.58" cy="218.88" r="23.8" style="fill: none"/>
    </clipPath>
  </defs>
  <g id="BACKGROUND">
    <rect width="531.28" height="524.62" style="fill: #fff;stroke: #000;stroke-linecap: round;stroke-linejoin: round;stroke-width: 4.01943974479299px"/>
  </g>
  <g id="FACCIA">
    <g>
      <path d="M320.26,283.29,329,301.4c-.91,17.81-16.07,34.92-45.36,34.56-33.56-.41-52.9-25.19-48.81-45.31l8.27-12.86" style="fill: #fff;stroke: #000;stroke-linecap: round;stroke-linejoin: round;stroke-width: 4.01943974479299px"/>
      <path d="M342.65,230.86c-2,15.91-7.81,40.71-22.39,52.43-13,10.42-32.3,10.28-49,7-8.21-1.6-16.63-5.74-23.94-10-14.1-8.25-22.66-23.27-26.9-38.66a9.73,9.73,0,0,0-1.13-2.9c-1.25-1.85-2.51-1-4.28-1.32a10.37,10.37,0,0,1-3.45-1.21,12.71,12.71,0,0,1-5-5.56c-2.18-4.46-2.75-10.66-.52-15.24,2-4.14,7.41-6,11.23-3.08.09-12.56,2.09-27,9.94-36.8,0,0,12.82-19.55,39.92-25.46,29.82-6.49,59.68,10.45,70.63,38.94A85,85,0,0,1,342.65,230.86Z" style="fill: #fff;stroke: #000;stroke-linecap: round;stroke-linejoin: round;stroke-width: 4px"/>
    </g>
  </g>
  <g id="ABBIGLIAMENTO">
    <g id="Maglia-Gialla">
      <path d="M283.59,336c29.29.36,44.45-16.75,45.36-34.56l28.29,10.91a55.84,55.84,0,0,1,29.37,26.32l25.78,77.28s-12,36.75-57.63,25.43L339.53,379,375,524.12l-91.4.21-121.67-.21L197.39,379l-15.23,62.31c-45.62,11.32-57.63-25.43-57.63-25.43l25.78-77.28a55.84,55.84,0,0,1,29.37-26.32l43.44-17.08,11.66-4.58C230.69,310.77,250,335.55,283.59,336Z" style="fill: #fc0;stroke: #000;stroke-linecap: round;stroke-linejoin: round;stroke-width: 4px"/>
      <path d="M224.44,294.71V295a46.54,46.54,0,0,0,10.07,28.88,1.15,1.15,0,0,0,.14.17c11.06,13.71,28.85,21.71,48.82,22h1c28.54,0,45.45-14.45,51.72-31a37.82,37.82,0,0,0,2.05-9.92" style="fill: none;stroke: #000;stroke-linecap: round;stroke-linejoin: round;stroke-width: 2px"/>
    </g>
    <g id="Maglia-Azzurra-riga">
      <path d="M283.59,336c29.29.36,44.45-16.75,45.36-34.56l28.29,10.91a55.84,55.84,0,0,1,29.37,26.32l25.78,77.28s-12,36.75-57.63,25.43L339.53,379,375,524.12l-91.4.21-121.67-.21L197.39,379l-15.23,62.31c-45.62,11.32-57.63-25.43-57.63-25.43l25.78-77.28a55.84,55.84,0,0,1,29.37-26.32l43.44-17.08,11.66-4.58C230.69,310.77,250,335.55,283.59,336Z" style="fill: #9cf;stroke: #000;stroke-linecap: round;stroke-linejoin: round;stroke-width: 4px"/>
      <g>
        <path d="M354.75,441.34,375,524.12l-91.41.21-121.66-.21,20.23-82.78c-45.61,11.32-57.63-25.43-57.63-25.43l25.79-77.28a55.8,55.8,0,0,1,29.37-26.32l43.44-17.08,1.31-.51V295a46.54,46.54,0,0,0,10.07,28.88c.05.06.09.12.14.17,11.06,13.71,28.86,21.71,48.82,22h1c28.53,0,45.45-14.45,51.71-31a37.82,37.82,0,0,0,2.05-9.92l19,7.32a55.84,55.84,0,0,1,29.37,26.32l25.79,77.28S400.37,452.66,354.75,441.34Z" style="fill: url(#_10_lpi_60_)"/>
        <g>
          <path d="M197.38,379l-15.23,62.31c-45.61,11.32-57.63-25.43-57.63-25.43l25.79-77.28a55.8,55.8,0,0,1,29.37-26.32l43.44-17.08,1.31-.51" style="fill: none;stroke: #000;stroke-linecap: round;stroke-linejoin: round;stroke-width: 4px"/>
          <polyline points="339.52 379.03 354.75 441.34 375 524.12 283.58 524.33 161.93 524.12 182.16 441.34" style="fill: none;stroke: #000;stroke-linecap: round;stroke-linejoin: round;stroke-width: 4px"/>
          <path d="M224.43,294.71l10.35-4.06c-4.1,20.12,15.24,44.9,48.8,45.31,29.29.36,44.45-16.75,45.37-34.56l9.29,3.59,19,7.32a55.84,55.84,0,0,1,29.37,26.32l25.79,77.28s-12,36.75-57.64,25.43" style="fill: none;stroke: #000;stroke-linecap: round;stroke-linejoin: round;stroke-width: 4px"/>
          <path d="M224.43,294.71h0V295a46.54,46.54,0,0,0,10.07,28.88c.05.06.09.12.14.17,11.06,13.71,28.86,21.71,48.82,22h1c28.53,0,45.45-14.45,51.71-31a37.82,37.82,0,0,0,2.05-9.92" style="fill: none;stroke: #000;stroke-linecap: round;stroke-linejoin: round;stroke-width: 2px"/>
        </g>
      </g>
    </g>
    <g id="Maglia-Aquamarina-quadro">
      <path d="M283.59,336c29.29.36,44.45-16.75,45.36-34.56l28.29,10.91a55.84,55.84,0,0,1,29.37,26.32l25.78,77.28s-12,36.75-57.63,25.43L339.53,379,375,524.12l-91.4.21-121.67-.21L197.39,379l-15.23,62.31c-45.62,11.32-57.63-25.43-57.63-25.43l25.78-77.28a55.84,55.84,0,0,1,29.37-26.32l43.44-17.08,11.66-4.58C230.69,310.77,250,335.55,283.59,336Z" style="fill: #3fc;stroke: #000;stroke-linecap: round;stroke-linejoin: round;stroke-width: 4px"/>
      <g>
        <g>
          <path d="M329,301.4l9.29,3.59a37.82,37.82,0,0,1-2.05,9.92c-6.26,16.6-23.18,31-51.71,31h-1c-20-.25-37.76-8.25-48.82-22,0-.05-.09-.11-.14-.17A46.54,46.54,0,0,1,224.43,295v-.23h0l10.35-4.06c-4.1,20.12,15.24,44.9,48.8,45.31C312.87,336.32,328,319.21,329,301.4Z"/>
          <path d="M182.15,441.34c-45.61,11.32-57.63-25.43-57.63-25.43l25.79-77.28a55.8,55.8,0,0,1,29.37-26.32l43.44-17.08,1.31-.51V295a46.54,46.54,0,0,0,10.07,28.88c.05.06.09.12.14.17,11.06,13.71,28.86,21.71,48.82,22h1c28.53,0,45.45-14.45,51.71-31a37.82,37.82,0,0,0,2.05-9.92l19,7.32a55.84,55.84,0,0,1,29.37,26.32l25.79,77.28s-12,36.75-57.64,25.43L375,524.12l-91.41.21-121.66-.21Z" style="fill: url(#Griglia_0_25_pollice_righe)"/>
        </g>
        <g>
          <path d="M197.38,379l-15.23,62.31c-45.61,11.32-57.63-25.43-57.63-25.43l25.79-77.28a55.8,55.8,0,0,1,29.37-26.32l43.44-17.08,1.31-.51" style="fill: none;stroke: #000;stroke-linecap: round;stroke-linejoin: round;stroke-width: 4px"/>
          <polyline points="339.52 379.03 354.75 441.34 375 524.12 283.58 524.33 161.93 524.12 182.16 441.34" style="fill: none;stroke: #000;stroke-linecap: round;stroke-linejoin: round;stroke-width: 4px"/>
          <path d="M224.43,294.71l10.35-4.06c-4.1,20.12,15.24,44.9,48.8,45.31,29.29.36,44.45-16.75,45.37-34.56l9.29,3.59,19,7.32a55.84,55.84,0,0,1,29.37,26.32l25.79,77.28s-12,36.75-57.64,25.43" style="fill: none;stroke: #000;stroke-linecap: round;stroke-linejoin: round;stroke-width: 4px"/>
          <path d="M224.43,294.72V295a46.54,46.54,0,0,0,10.07,28.88c.05.06.09.12.14.17,11.06,13.71,28.86,21.71,48.82,22h1c28.53,0,45.45-14.45,51.71-31a37.82,37.82,0,0,0,2.05-9.92" style="fill: none;stroke: #000;stroke-linecap: round;stroke-linejoin: round;stroke-width: 2px"/>
          <line x1="224.43" y1="294.71" x2="224.43" y2="294.72" style="fill: none;stroke: #000;stroke-linecap: round;stroke-linejoin: round;stroke-width: 4px"/>
        </g>
      </g>
    </g>
    <g id="Maglia-Rosso-pois">
      <path d="M283.59,336c29.29.36,44.45-16.75,45.36-34.56l28.29,10.91a55.84,55.84,0,0,1,29.37,26.32l25.78,77.28s-12,36.75-57.63,25.43L339.53,379,375,524.12l-91.4.21-121.67-.21L197.39,379l-15.23,62.31c-45.62,11.32-57.63-25.43-57.63-25.43l25.78-77.28a55.84,55.84,0,0,1,29.37-26.32l43.44-17.08,11.66-4.58C230.69,310.77,250,335.55,283.59,336Z" style="fill: #f7524a;stroke: #000;stroke-linecap: round;stroke-linejoin: round;stroke-width: 4px"/>
      <g>
        <g>
          <path d="M354.75,441.34,375,524.12l-91.41.21-121.66-.21,20.23-82.78c-45.61,11.32-57.63-25.43-57.63-25.43l25.79-77.28a55.8,55.8,0,0,1,29.37-26.32l43.44-17.08,1.31-.51V295a46.54,46.54,0,0,0,10.07,28.88c.05.06.09.12.14.17,11.06,13.71,28.86,21.71,48.82,22h1c28.53,0,45.45-14.45,51.71-31a37.82,37.82,0,0,0,2.05-9.92l19,7.32a55.84,55.84,0,0,1,29.37,26.32l25.79,77.28S400.37,452.66,354.75,441.34Z" style="fill: url(#_10_dpi_10_)"/>
          <path d="M329,301.4l9.29,3.59a37.82,37.82,0,0,1-2.05,9.92c-6.26,16.6-23.18,31-51.71,31h-1c-20-.25-37.76-8.25-48.82-22,0-.05-.09-.11-.14-.17A46.54,46.54,0,0,1,224.43,295v-.23h0l10.35-4.06c-4.1,20.12,15.24,44.9,48.8,45.31C312.87,336.32,328,319.21,329,301.4Z" style="fill: #fff"/>
        </g>
        <g>
          <path d="M197.38,379l-15.23,62.31c-45.61,11.32-57.63-25.43-57.63-25.43l25.79-77.28a55.8,55.8,0,0,1,29.37-26.32l43.44-17.08,1.31-.51" style="fill: none;stroke: #000;stroke-linecap: round;stroke-linejoin: round;stroke-width: 4px"/>
          <polyline points="339.52 379.03 354.75 441.34 375 524.12 283.58 524.33 161.93 524.12 182.16 441.34" style="fill: none;stroke: #000;stroke-linecap: round;stroke-linejoin: round;stroke-width: 4px"/>
          <path d="M224.43,294.71l10.35-4.06c-4.1,20.12,15.24,44.9,48.8,45.31,29.29.36,44.45-16.75,45.37-34.56l9.29,3.59,19,7.32a55.84,55.84,0,0,1,29.37,26.32l25.79,77.28s-12,36.75-57.64,25.43" style="fill: none;stroke: #000;stroke-linecap: round;stroke-linejoin: round;stroke-width: 4px"/>
          <path d="M224.43,294.72V295a46.54,46.54,0,0,0,10.07,28.88c.05.06.09.12.14.17,11.06,13.71,28.86,21.71,48.82,22h1c28.53,0,45.45-14.45,51.71-31a37.82,37.82,0,0,0,2.05-9.92" style="fill: none;stroke: #000;stroke-linecap: round;stroke-linejoin: round;stroke-width: 2px"/>
          <line x1="224.43" y1="294.71" x2="224.43" y2="294.72" style="fill: none;stroke: #000;stroke-linecap: round;stroke-linejoin: round;stroke-width: 4px"/>
        </g>
      </g>
    </g>
    <g id="Maglia-Rosso-pois-2" data-name="Maglia-Rosso-pois">
      <path d="M283.59,336c29.29.36,44.45-16.75,45.36-34.56l28.29,10.91a55.84,55.84,0,0,1,29.37,26.32l25.78,77.28s-12,36.75-57.63,25.43L339.53,379,375,524.12l-91.4.21-121.67-.21L197.39,379l-15.23,62.31c-45.62,11.32-57.63-25.43-57.63-25.43l25.78-77.28a55.84,55.84,0,0,1,29.37-26.32l43.44-17.08,11.66-4.58C230.69,310.77,250,335.55,283.59,336Z" style="fill: #63f;stroke: #000;stroke-linecap: round;stroke-linejoin: round;stroke-width: 4px"/>
      <g>
        <g>
          <path d="M354.75,441.34,375,524.12l-91.41.21-121.66-.21,20.23-82.78c-45.61,11.32-57.63-25.43-57.63-25.43l25.79-77.28a55.8,55.8,0,0,1,29.37-26.32l43.44-17.08,1.31-.51V295a46.54,46.54,0,0,0,10.07,28.88c.05.06.09.12.14.17,11.06,13.71,28.86,21.71,48.82,22h1c28.53,0,45.45-14.45,51.71-31a37.82,37.82,0,0,0,2.05-9.92l19,7.32a55.84,55.84,0,0,1,29.37,26.32l25.79,77.28S400.37,452.66,354.75,441.34Z" style="fill: url(#_6_lpi_10_)"/>
          <path d="M329,301.4l9.29,3.59a37.82,37.82,0,0,1-2.05,9.92c-6.26,16.6-23.18,31-51.71,31h-1c-20-.25-37.76-8.25-48.82-22,0-.05-.09-.11-.14-.17A46.54,46.54,0,0,1,224.43,295v-.23h0l10.35-4.06c-4.1,20.12,15.24,44.9,48.8,45.31C312.87,336.32,328,319.21,329,301.4Z" style="fill: #9cf"/>
        </g>
        <g>
          <path d="M197.38,379l-15.23,62.31c-45.61,11.32-57.63-25.43-57.63-25.43l25.79-77.28a55.8,55.8,0,0,1,29.37-26.32l43.44-17.08,1.31-.51" style="fill: none;stroke: #000;stroke-linecap: round;stroke-linejoin: round;stroke-width: 4px"/>
          <polyline points="339.52 379.03 354.75 441.34 375 524.12 283.58 524.33 161.93 524.12 182.16 441.34" style="fill: none;stroke: #000;stroke-linecap: round;stroke-linejoin: round;stroke-width: 4px"/>
          <path d="M224.43,294.71l10.35-4.06c-4.1,20.12,15.24,44.9,48.8,45.31,29.29.36,44.45-16.75,45.37-34.56l9.29,3.59,19,7.32a55.84,55.84,0,0,1,29.37,26.32l25.79,77.28s-12,36.75-57.64,25.43" style="fill: none;stroke: #000;stroke-linecap: round;stroke-linejoin: round;stroke-width: 4px"/>
          <path d="M224.43,294.72V295a46.54,46.54,0,0,0,10.07,28.88c.05.06.09.12.14.17,11.06,13.71,28.86,21.71,48.82,22h1c28.53,0,45.45-14.45,51.71-31a37.82,37.82,0,0,0,2.05-9.92" style="fill: none;stroke: #000;stroke-linecap: round;stroke-linejoin: round;stroke-width: 2px"/>
          <line x1="224.43" y1="294.71" x2="224.43" y2="294.72" style="fill: none;stroke: #000;stroke-linecap: round;stroke-linejoin: round;stroke-width: 4px"/>
        </g>
      </g>
    </g>
  </g>
  <g id="CAPELLI">
    <g id="UOMO-Corto-chiaro">
      <path d="M346,165.79s9.19,24.9-2.59,47.93h-.19A84.23,84.23,0,0,0,337.74,189a63.29,63.29,0,0,0-9.64-16.84" style="fill: #fff;stroke: #000;stroke-linecap: round;stroke-linejoin: round;stroke-width: 4px"/>
      <path d="M234,167.74a50.75,50.75,0,0,0-6.79,7.78c-7.85,9.79-9.85,24.24-9.94,36.8-3.82-2.91-9.21-1.06-11.23,3.08-2.23,4.58-1.66,10.78.52,15.24a12.71,12.71,0,0,0,5,5.56,10.37,10.37,0,0,0,3.45,1.21c1.77.28,3-.53,4.28,1.32a9.73,9.73,0,0,1,1.13,2.9,73.78,73.78,0,0,0,13,26.48l-.2.67c-52.93-4.23-40.67-89.95-40.67-89.95" style="fill: #fff;stroke: #000;stroke-linecap: round;stroke-linejoin: round;stroke-width: 4px"/>
      <path d="M311.65,174.07c-28.69,1.18-57.72-7.58-86.59-6.21-12.82.61-27,2.93-32.5,11a18.6,18.6,0,0,1-3.28-6.06,35.58,35.58,0,0,1-2-12.55c.57-26.69,28-44.56,60.12-49.21,31.11-4.52,70.59-1.53,94.38,15.9a46.06,46.06,0,0,1,8.51,8c6.91,8.58,7.77,20.49-.73,28.21-4.44,4-10.87,6.53-17.46,8.16A101.64,101.64,0,0,1,311.65,174.07Z" style="fill: #fff;stroke: #000;stroke-linecap: round;stroke-linejoin: round;stroke-width: 4px"/>
      <path d="M352.73,136.71c2.13,10.15-16.87,12.4-25.06,12.65-26.58.81-50.31-9.64-76.14-12.61-14.94-1.72-30.2,1.19-41.78,9.58-11.93,8.65-14.85,18.82-17.19,32.5" style="fill: none;stroke: #000;stroke-linecap: round;stroke-linejoin: round;stroke-width: 2px"/>
    </g>
    <g id="UOMO-Corto-scuro">
      <path d="M346,165.79s9.19,24.9-2.59,47.93h-.19A84.23,84.23,0,0,0,337.74,189a63.29,63.29,0,0,0-9.64-16.84" style="stroke: #000;stroke-linecap: round;stroke-linejoin: round;stroke-width: 4px"/>
      <path d="M234,167.74c25.92.45,51.93,7.39,77.67,6.33a101.64,101.64,0,0,0,20.46-2.81c6.59-1.63,13-4.13,17.46-8.16,8.5-7.72,7.64-19.63.73-28.21a46.06,46.06,0,0,0-8.51-8C318,109.48,278.52,106.49,247.41,111c-32.1,4.65-59.55,22.52-60.12,49.21a35.58,35.58,0,0,0,2,12.55,18.6,18.6,0,0,0,3.28,6.06s-12.26,85.72,40.67,89.95l.2-.67a73.78,73.78,0,0,1-13-26.48,9.73,9.73,0,0,0-1.13-2.9c-1.25-1.85-2.51-1-4.28-1.32a10.37,10.37,0,0,1-3.45-1.21,12.71,12.71,0,0,1-5-5.56c-2.18-4.46-2.75-10.66-.52-15.24,2-4.14,7.41-6,11.23-3.08.09-12.56,2.09-27,9.94-36.8A50.75,50.75,0,0,1,234,167.74Z" style="stroke: #000;stroke-linecap: round;stroke-linejoin: round;stroke-width: 4px"/>
      <path d="M355.54,136.71c2.21,10.15-17.46,12.4-25.94,12.65-27.51.81-52.08-9.64-78.82-12.61-15.45-1.72-31.26,1.19-43.25,9.58-12.34,8.65-15.74,19.7-18.16,33.39" style="fill: none;stroke: #fff;stroke-linecap: round;stroke-linejoin: round;stroke-width: 2px"/>
    </g>
  </g>
  <g id="ACCESSORI">
    <g id="Occhiale-Ponte">
      <circle cx="272.5" cy="218.88" r="23.8" style="stroke: #000;stroke-linecap: round;stroke-linejoin: round;stroke-width: 4px"/>
      <circle cx="334.58" cy="218.88" r="23.8" style="stroke: #000;stroke-linecap: round;stroke-linejoin: round;stroke-width: 4px"/>
      <line x1="272.5" y1="195.08" x2="334.58" y2="195.08" style="fill: none;stroke: #000;stroke-linecap: round;stroke-linejoin: round;stroke-width: 4px"/>
      <g style="clip-path: url(#clip-path)">
        <line x1="288.31" y1="247.55" x2="246.68" y2="205.92" style="fill: none;stroke: #fff;stroke-linecap: round;stroke-linejoin: round;stroke-width: 2px"/>
      </g>
      <g style="clip-path: url(#clip-path-2)">
        <line x1="350.39" y1="247.55" x2="308.76" y2="205.92" style="fill: none;stroke: #fff;stroke-linecap: round;stroke-linejoin: round;stroke-width: 2px"/>
      </g>
    </g>
  </g>
  <g id="POSE">
    <g id="Pensieroso">
      <path d="M163.36,467.73l162,43.08c8.31,2,14.77,8.79,18,12,12.52,12.4,44,40.73,32.4,57.12-10.27,14.47-36.38,21.16-49.14,20.32-15.34-1-29.2-61.42-29.2-61.42-13.6-11-32.71-12.29-50.43-12.91-38-1.32-81.21-2.21-119.27-1.72-4.74.06-8.63,0-10.61,0a12.42,12.42,0,0,1-3.32-.45c-9.08-2.67-15.19-13.09-14.68-22.67,0-.95.14-1.94.26-3,1-8.62,8-30.76,8-30.76l17.17-51.46s12,36.75,57.63,25.43L175,470.67" style="fill: #fff;stroke: #000;stroke-linecap: round;stroke-linejoin: round;stroke-width: 4px"/>
      <path d="M421.52,479.53l-57.27-125c-7.05-15.4-14-31.42-18.07-48s2.8-37.44-7.57-51.08c-2.49-3.28-7.21-.65-7.82,3.62-1.85,13-8.66,22.75-22,29.42A31.11,31.11,0,0,1,297,291.53a63.14,63.14,0,0,1-26.56-3.32c-9.63-3.39-10.37-6.19-14-3.2a3.2,3.2,0,0,0-1,1.9c-.41,5,5.45,11.9,7.81,14.89a34.09,34.09,0,0,0,7.51,7.12c18.1,12.27,38,14.5,55.65,27,4.14,2.94,4.71,8.49,4.71,8.49l27.66,156.67s3.57,25.26,36.09,23.56c7.76-.4,15-2.51,21.28-7C424.24,511.75,431.12,500.51,421.52,479.53Z" style="fill: #fff;stroke: #000;stroke-linecap: round;stroke-linejoin: round;stroke-width: 4px"/>
    </g>
  </g>
  <g id="PROFESSIONI">
    <g id="Operaio">
      <path d="M223.36,421.07l50.73.09a3,3,0,0,1,3,3h0a3,3,0,0,1-3,3L223.35,427" style="fill: #fff;stroke: #000;stroke-linecap: round;stroke-linejoin: round;stroke-width: 2px"/>
      <path d="M204,410.69h6.05A13.36,13.36,0,0,1,223.36,424h0A13.35,13.35,0,0,1,210,437.33h-6" style="fill: #fff;stroke: #000;stroke-linecap: round;stroke-linejoin: round;stroke-width: 4px"/>
      <path d="M188.13,395.74l-93.67-.18a16,16,0,0,0-15.95,15.89l0,21.18a16,16,0,0,0,10.53,15l0,21.14a6.35,6.35,0,0,1-6.37,6.34h0a11.31,11.31,0,0,0-11.3,11.26l-.05,26.52A11.32,11.32,0,0,0,82.5,524.18l40.64.07A11.31,11.31,0,0,0,134.44,513l.05-26.52a11.31,11.31,0,0,0-11.26-11.3h0a6.35,6.35,0,0,1-6.34-6.37l0-12a8.19,8.19,0,0,1,8.21-8.18l62.91.12A16,16,0,0,0,204,432.87l0-21.19A16,16,0,0,0,188.13,395.74Z" style="fill: #fff;stroke: #000;stroke-linecap: round;stroke-linejoin: round;stroke-width: 4px"/>
      <line x1="226.87" y1="427.02" x2="232.83" y2="421.08" style="fill: none;stroke: #000;stroke-linecap: round;stroke-linejoin: round"/>
      <line x1="235.21" y1="427.04" x2="241.17" y2="421.1" style="fill: none;stroke: #000;stroke-linecap: round;stroke-linejoin: round"/>
      <line x1="243.55" y1="427.05" x2="249.51" y2="421.12" style="fill: none;stroke: #000;stroke-linecap: round;stroke-linejoin: round"/>
      <line x1="251.9" y1="427.07" x2="257.86" y2="421.13" style="fill: none;stroke: #000;stroke-linecap: round;stroke-linejoin: round"/>
      <line x1="260.24" y1="427.08" x2="266.2" y2="421.15" style="fill: none;stroke: #000;stroke-linecap: round;stroke-linejoin: round"/>
      <line x1="268.58" y1="427.1" x2="274.54" y2="421.16" style="fill: none;stroke: #000;stroke-linecap: round;stroke-linejoin: round"/>
      <line x1="85.27" y1="490.45" x2="85.23" y2="512.7" style="fill: none;stroke: #000;stroke-linecap: round;stroke-linejoin: round;stroke-width: 2px"/>
      <line x1="94.08" y1="490.47" x2="94.03" y2="512.71" style="fill: none;stroke: #000;stroke-linecap: round;stroke-linejoin: round;stroke-width: 2px"/>
      <line x1="102.88" y1="490.48" x2="102.84" y2="512.73" style="fill: none;stroke: #000;stroke-linecap: round;stroke-linejoin: round;stroke-width: 2px"/>
      <line x1="111.69" y1="490.5" x2="111.65" y2="512.75" style="fill: none;stroke: #000;stroke-linecap: round;stroke-linejoin: round;stroke-width: 2px"/>
      <line x1="120.49" y1="490.52" x2="120.45" y2="512.76" style="fill: none;stroke: #000;stroke-linecap: round;stroke-linejoin: round;stroke-width: 2px"/>
      <line x1="159.55" y1="395.69" x2="159.45" y2="448.7" style="fill: none;stroke: #000;stroke-linecap: round;stroke-linejoin: round;stroke-width: 2px"/>
    </g>
  </g>
</svg>
