<?xml version="1.0" encoding="utf-8"?>
<!-- Generator: Adobe Illustrator 25.3.1, SVG Export Plug-In . SVG Version: 6.00 Build 0)  -->
<svg version="1.1" id="Layer_1" xmlns="http://www.w3.org/2000/svg" xmlns:xlink="http://www.w3.org/1999/xlink" x="0px" y="0px"
	 viewBox="0 0 59.6 59.6" style="enable-background:new 0 0 59.6 59.6;" xml:space="preserve">
<style type="text/css">
	.st0{fill:#FFFFFF;}
	.st1{fill:none;stroke:#272525;stroke-width:4;stroke-miterlimit:10;}
	.st2{enable-background:new    ;}
</style>
<g id="Layer_2_1_">
	<g id="Layer_1-2">
		<g id="quest">
			<path class="st0" d="M2,29.8C2,14.4,14.4,2,29.8,2c15.3,0,27.8,12.4,27.8,27.8S45.1,57.6,29.8,57.6c0,0,0,0,0,0
				C14.4,57.6,2,45.1,2,29.8"/>
			<circle class="st1" cx="29.8" cy="29.8" r="27.8"/>
			<g class="st2">
				<path d="M31.9,36.2h-4.5c0-0.7,0-1,0-1.2c0-1.5,0.2-2.7,0.7-3.6c0.5-0.9,1.5-2,2.9-3.2c1.5-1.2,2.3-2,2.6-2.3
					c0.4-0.6,0.7-1.2,0.7-1.9c0-1-0.4-1.8-1.2-2.5c-0.8-0.7-1.8-1-3.1-1c-1.3,0-2.3,0.4-3.2,1.1s-1.4,1.8-1.8,3.3l-4.6-0.6
					c0.1-2.1,1-3.9,2.7-5.4c1.7-1.5,3.9-2.2,6.6-2.2c2.9,0,5.2,0.8,6.8,2.2c1.7,1.5,2.5,3.2,2.5,5.2c0,1.1-0.3,2.1-0.9,3.1
					c-0.6,1-2,2.3-4,4c-1.1,0.9-1.7,1.6-2,2.1C32,33.9,31.9,34.9,31.9,36.2z M27.4,43v-5h5v5H27.4z"/>
			</g>
		</g>
	</g>
</g>
</svg>
