<svg xmlns="http://www.w3.org/2000/svg" viewBox="0 0 273.21 273.21">
  <defs>
    <style>
      .cls-1, .cls-2 {
        fill: #fff;
      }

      .cls-1, .cls-2, .cls-3 {
        stroke: #000;
        stroke-linecap: round;
        stroke-linejoin: round;
      }

      .cls-1, .cls-3 {
        stroke-width: 2px;
      }

      .cls-2 {
        stroke-width: 4px;
      }

      .cls-3 {
        fill: none;
      }
    </style>
  </defs>
  <g id="OGGETTI-GRANDI">
    <g id="Sedia">
      <path class="cls-1" d="M58.6,255.61,76.79,129.5a7.69,7.69,0,0,1,4.93-6.7h10a12.16,12.16,0,0,0-6.06,9.64L68.3,255.61S64.25,259.39,58.6,255.61Z"/>
      <path class="cls-1" d="M215,255.62,196.78,129.5a7.65,7.65,0,0,0-4.93-6.69h-10a12.15,12.15,0,0,1,6.07,9.63l17.37,123.18S209.31,259.4,215,255.62Z"/>
      <path class="cls-1" d="M47.18,259.45,66.65,129.69a7.87,7.87,0,0,1,5.27-6.89H82.65a12.56,12.56,0,0,0-6.49,9.92L57.56,259.46S53.23,263.35,47.18,259.45Z"/>
      <path class="cls-1" d="M226,259.46,206.55,129.7a7.86,7.86,0,0,0-5.27-6.89H190.55a12.55,12.55,0,0,1,6.49,9.91l18.59,126.74S220,263.36,226,259.46Z"/>
      <path class="cls-2" d="M180.8,126.35H92.4c-28.33,0-50-23.18-50-51.51L40.9,41.72A29.78,29.78,0,0,1,70.6,12h132a29.79,29.79,0,0,1,29.7,29.71l-1.48,33.11C230.82,103.17,209.13,126.35,180.8,126.35Z"/>
      <path class="cls-3" d="M232.31,41.73c-2.49-1.72-7.57-2.24-9.72-.09-7.57,7.55-6.12,22.65-6.84,32.77-.49,6.9-1.09,16.4-3.35,22.94-4.66,13.49-18.73,13.44-32.12,13.44H91.8c-13.39,0-27.47,0-32.13-13.45-2.26-6.53-2.86-16-3.34-22.94-.72-10.12.73-25.21-6.84-32.77-2.15-2.15-5.75-3.12-8.24-1.39"/>
    </g>
  </g>
</svg>
