<svg xmlns="http://www.w3.org/2000/svg" viewBox="0 0 273.21 273.21">
  <defs>
    <style>
      .cls-1 {
        fill: #fff;
      }

      .cls-2, .cls-3 {
        fill: none;
        stroke: #000;
        stroke-linejoin: round;
      }

      .cls-2 {
        stroke-width: 4px;
      }

      .cls-3 {
        stroke-width: 2px;
      }
    </style>
  </defs>
  <g id="OGGETTI-GRANDI">
    <g id="Cavalcabile">
      <g>
        <g>
          <path class="cls-1" d="M252.66,212v5.6a3.89,3.89,0,0,1-3.88,3.87H228.23a14.57,14.57,0,0,0,.14-2,15.08,15.08,0,0,0-.74-4.68h8.18a11.65,11.65,0,0,0,10.5-6.68h2.47A3.88,3.88,0,0,1,252.66,212Z"/>
          <path class="cls-1" d="M247.43,192.79v10.35a11.43,11.43,0,0,1-1.12,4.94H223.19a15.06,15.06,0,0,0-19.84,0H69.86a15.06,15.06,0,0,0-19.84,0H26.9a11.43,11.43,0,0,1-1.12-4.94V192.79Z"/>
          <rect class="cls-1" x="25.78" y="151.47" width="221.64" height="41.32"/>
          <path class="cls-1" d="M247.43,123.43v28H25.78v-28A26,26,0,0,1,51.71,97.51H221.5A26,26,0,0,1,247.43,123.43Z"/>
          <path class="cls-1" d="M223.19,208.08h23.12a11.65,11.65,0,0,1-10.5,6.68h-8.18A15,15,0,0,0,223.19,208.08Z"/>
          <path class="cls-1" d="M228.37,219.44a14.57,14.57,0,0,1-.14,2H198.31a14.57,14.57,0,0,1-.14-2,15.09,15.09,0,0,1,.75-4.68h28.71A15.08,15.08,0,0,1,228.37,219.44Z"/>
          <path d="M198.31,221.43h29.92a15.09,15.09,0,0,1-29.92,0Z"/>
          <path class="cls-1" d="M227.63,214.76H198.92a14.85,14.85,0,0,1,4.43-6.68h19.84A15,15,0,0,1,227.63,214.76Z"/>
          <path class="cls-1" d="M223.19,208.08H203.35a15.06,15.06,0,0,1,19.84,0Z"/>
          <path class="cls-1" d="M69.86,208.08H203.35a14.85,14.85,0,0,0-4.43,6.68H74.29A14.85,14.85,0,0,0,69.86,208.08Z"/>
          <path class="cls-1" d="M74.29,214.76H198.92a15.09,15.09,0,0,0-.75,4.68,14.57,14.57,0,0,0,.14,2H74.9a14.57,14.57,0,0,0,.13-2A15.08,15.08,0,0,0,74.29,214.76Z"/>
          <path class="cls-1" d="M74,38.67a13.39,13.39,0,0,1,5.12,25.76V61.19H68.88v3.24A13.39,13.39,0,0,1,74,38.67Z"/>
          <path class="cls-1" d="M79.13,64.43V97.51H68.88V64.43a13.39,13.39,0,0,0,10.25,0Z"/>
          <path class="cls-1" d="M79.13,61.19v3.24a13.39,13.39,0,0,1-10.25,0V61.19Z"/>
          <path class="cls-1" d="M75,219.44a14.57,14.57,0,0,1-.13,2H45a16.35,16.35,0,0,1-.13-2,15.08,15.08,0,0,1,.74-4.68H74.29A15.08,15.08,0,0,1,75,219.44Z"/>
          <path d="M45,221.43H74.9a15.1,15.1,0,0,1-29.93,0Z"/>
          <path class="cls-1" d="M74.29,214.76H45.58A15,15,0,0,1,50,208.08H69.86A14.85,14.85,0,0,1,74.29,214.76Z"/>
          <path class="cls-1" d="M69.86,208.08H50a15.06,15.06,0,0,1,19.84,0Z"/>
          <path class="cls-1" d="M26.9,208.08H50a15,15,0,0,0-4.44,6.68H37.39A11.64,11.64,0,0,1,26.9,208.08Z"/>
          <path class="cls-1" d="M37.39,214.76h8.19a15.08,15.08,0,0,0-.74,4.68,16.35,16.35,0,0,0,.13,2H24.43a3.89,3.89,0,0,1-3.88-3.87V212a3.88,3.88,0,0,1,3.88-3.88H26.9A11.64,11.64,0,0,0,37.39,214.76Z"/>
        </g>
        <g>
          <path class="cls-2" d="M74.9,221.43a15.1,15.1,0,0,1-29.93,0"/>
          <path class="cls-2" d="M228.23,221.43a15.09,15.09,0,0,1-29.92,0"/>
          <path class="cls-2" d="M79.13,97.51H221.5a26,26,0,0,1,25.93,25.92v79.71a11.43,11.43,0,0,1-1.12,4.94"/>
          <path class="cls-2" d="M26.9,208.08a11.43,11.43,0,0,1-1.12-4.94V123.43A26,26,0,0,1,51.71,97.51H68.88"/>
          <path class="cls-2" d="M45,221.43H24.43a3.89,3.89,0,0,1-3.88-3.87V212a3.88,3.88,0,0,1,3.88-3.88H248.78a3.88,3.88,0,0,1,3.88,3.88v5.6a3.89,3.89,0,0,1-3.88,3.87H45Z"/>
          <polyline class="cls-2" points="79.13 64.43 79.13 97.51 68.88 97.51 68.88 64.43"/>
          <path class="cls-2" d="M68.88,64.43a13.39,13.39,0,1,1,5.13,1A13.38,13.38,0,0,1,68.88,64.43Z"/>
          <line class="cls-3" x1="25.78" y1="151.47" x2="247.43" y2="151.47"/>
          <line class="cls-3" x1="25.78" y1="192.79" x2="247.43" y2="192.79"/>
        </g>
      </g>
    </g>
  </g>
</svg>
