<svg xmlns="http://www.w3.org/2000/svg" viewBox="0 0 273.21 273.21">
  <defs>
    <style>
      .cls-1 {
        fill: #fff;
        stroke-width: 4px;
      }

      .cls-1, .cls-2 {
        stroke: #000;
        stroke-linecap: round;
        stroke-linejoin: round;
      }

      .cls-2 {
        fill: none;
        stroke-width: 2px;
      }
    </style>
  </defs>
  <g id="OGGETTI-GRANDI">
    <g id="Lampada1">
      <polygon class="cls-1" points="198.14 147.91 75.07 148.31 91.88 25.36 180.52 25.07 198.14 147.91"/>
      <line class="cls-2" x1="95.34" y1="25.35" x2="95.74" y2="148.24"/>
      <line class="cls-2" x1="116.01" y1="25.28" x2="116.42" y2="148.17"/>
      <line class="cls-2" x1="136.68" y1="25.21" x2="137.09" y2="148.11"/>
      <line class="cls-2" x1="157.36" y1="25.14" x2="157.76" y2="148.04"/>
      <line class="cls-2" x1="178.03" y1="25.08" x2="178.43" y2="147.97"/>
      <path d="M184.81,238.47l-20.21-7.85a36.89,36.89,0,0,1-23.51-34.25l-.16-48.28h-1.58l-5.49,0h-1.58l.15,48.28a36.87,36.87,0,0,1-23.28,34.4l-20.16,8a6.44,6.44,0,0,0-4.06,6h0a3.38,3.38,0,0,0,3.39,3.36l46.35-.15,4.53,0,46.35-.15a3.37,3.37,0,0,0,3.36-3.38h0A6.44,6.44,0,0,0,184.81,238.47Z"/>
    </g>
  </g>
</svg>
