<svg xmlns="http://www.w3.org/2000/svg" viewBox="0 0 138.6 138.6">
  <defs>
    <style>
      .cls-1, .cls-2 {
        fill: #fff;
      }

      .cls-1, .cls-2, .cls-3 {
        stroke: #000;
        stroke-miterlimit: 10;
      }

      .cls-1 {
        stroke-width: 4px;
      }

      .cls-2, .cls-3 {
        stroke-width: 2px;
      }

      .cls-3 {
        fill: none;
      }
    </style>
  </defs>
  <g id="OGGETTI-PICCOLI">
    <g id="Macchinina">
      <g>
        <circle class="cls-1" cx="44.6" cy="92.14" r="17.02"/>
        <circle class="cls-1" cx="103.28" cy="92.14" r="17.02"/>
        <circle class="cls-2" cx="44.6" cy="92.14" r="8.47"/>
        <circle class="cls-2" cx="103.28" cy="92.14" r="8.47"/>
        <path class="cls-1" d="M123.21,64.58C111.75,54.28,112.91,39,105.5,35.42c-14.09-6.81-38.82-7.73-55.14-3.15-11.59,3.25-9.38,22-19.29,25.28C18.15,61.83,14.73,66,13.62,67.75,9.93,73.58,8,82.66,7.53,88.92a5,5,0,0,0,5,5.36H20.3A5.56,5.56,0,0,0,25.39,91,21.05,21.05,0,0,1,63.8,91a5.59,5.59,0,0,0,5.1,3.27H79A5.59,5.59,0,0,0,84.08,91a21.05,21.05,0,0,1,38.41,0,5.49,5.49,0,0,0,5,3.27h.09a3.51,3.51,0,0,0,3.5-3.79C130.55,83.68,128.79,69.6,123.21,64.58Z"/>
        <path class="cls-3" d="M7.71,86l7.76.8a5.56,5.56,0,0,0,4.72-2.61,27.37,27.37,0,0,1,23.52-13A30.69,30.69,0,0,1,69.93,84.39a5.59,5.59,0,0,0,4.57,2.39h0a5.57,5.57,0,0,0,4.93-3c2.37-4.51,8.72-12.58,23.85-12.58,25.13,0,27.8,19.27,27.8,19.27"/>
        <path class="cls-3" d="M9.32,77.21s5.36,2.24,7.79,0c1.67-1.53,3.16-5,4.05-7.4a4.54,4.54,0,0,0-3.31-6l-.21,0"/>
        <path class="cls-3" d="M48.16,56.44A4.45,4.45,0,0,1,44,50.38c1.74-4.47,4.19-10.06,6.13-11.74,2.39-2.07,14.58-2.9,21.51-3.21a4.45,4.45,0,0,1,4.65,4.63l-.52,12.12a4.45,4.45,0,0,1-4.45,4.26Z"/>
        <path class="cls-3" d="M82,40V52.23a4.17,4.17,0,0,0,4.13,4.21h17.31a4.2,4.2,0,0,0,3.91-5.57L105,43.75A4.19,4.19,0,0,0,101.73,41L87.08,37C84.56,36.54,82,37.42,82,40Z"/>
      </g>
    </g>
  </g>
</svg>
