<svg xmlns="http://www.w3.org/2000/svg" viewBox="0 0 138.6 138.6">
  <defs>
    <style>
      .cls-1 {
        fill: #fff;
      }

      .cls-2, .cls-3, .cls-4 {
        fill: none;
        stroke-linecap: round;
        stroke-linejoin: round;
      }

      .cls-2, .cls-4 {
        stroke: #000;
      }

      .cls-2 {
        stroke-width: 4px;
      }

      .cls-3 {
        stroke: #222221;
      }

      .cls-3, .cls-4 {
        stroke-width: 2px;
      }
    </style>
  </defs>
  <g id="OGGETTI-PICCOLI">
    <g id="Borraccia">
      <g>
        <g>
          <path class="cls-1" d="M63.08,131.08a3.07,3.07,0,0,1-4.1,1.4l-36-19.1a3.08,3.08,0,0,1-1.13-4.19L27,99.53l41.11,21.91.09,0Z"/>
          <polygon class="cls-1" points="95.99 69.07 68.17 121.49 68.08 121.44 26.97 99.53 54.78 47.12 95.99 69.07"/>
          <path class="cls-1" d="M96,69.07l-41.21-22,7-13.14A19.46,19.46,0,0,1,78.39,23.46L81,18.64a.88.88,0,0,0,.21.12l23.56,12.51.22.11-2.56,4.81A19.46,19.46,0,0,1,103,55.85Z"/>
        </g>
        <g>
          <path class="cls-2" d="M81,18.64l-2.56,4.82A19.46,19.46,0,0,0,61.76,34l-7,13.14L27,99.53l-5.13,9.66A3.08,3.08,0,0,0,23,113.38l36,19.1a3.07,3.07,0,0,0,4.1-1.4l5.09-9.59L96,69.07l7-13.22a19.46,19.46,0,0,0-.62-19.66l2.56-4.81"/>
          <line class="cls-3" x1="81.31" y1="11.56" x2="110.6" y2="27.11"/>
          <path class="cls-2" d="M81.31,11.56l1.5-2.83a3.25,3.25,0,0,1,4.38-1.34L110.76,19.9a3.25,3.25,0,0,1,1.34,4.38l-1.5,2.83-1.49,2.81a3.26,3.26,0,0,1-4.17,1.46l-.22-.11L81.16,18.76a.88.88,0,0,1-.21-.12,3.25,3.25,0,0,1-1.14-4.26Z"/>
          <line class="cls-4" x1="54.78" y1="47.11" x2="95.99" y2="69.07"/>
          <polyline class="cls-4" points="26.88 99.48 26.97 99.53 68.08 121.44"/>
        </g>
      </g>
    </g>
  </g>
</svg>
