<svg xmlns="http://www.w3.org/2000/svg" viewBox="0 0 138.6 138.6">
  <defs>
    <style>
      .cls-1 {
        fill: #fff;
        stroke-width: 4px;
      }

      .cls-1, .cls-2 {
        stroke: #000;
        stroke-linecap: round;
        stroke-linejoin: round;
      }

      .cls-2 {
        fill: none;
        stroke-width: 2px;
      }
    </style>
  </defs>
  <g id="OGGETTI-PICCOLI">
    <g id="Cactus">
      <rect class="cls-1" x="27.51" y="61.91" width="83.59" height="14" rx="4.82"/>
      <polygon class="cls-1" points="69.3 75.91 32.51 75.91 37.76 133.1 69.3 133.1 100.84 133.1 106.1 75.91 69.3 75.91"/>
      <path class="cls-1" d="M44.79,61.91,41.25,25.66A18.37,18.37,0,0,1,59.53,5.5h0A18.37,18.37,0,0,1,77.88,24.75L74.76,61.91Z"/>
      <path class="cls-1" d="M90.35,61.91V32.73a8.58,8.58,0,0,0-8.55-8.55h0a8.58,8.58,0,0,0-8.55,8.55V61.91Z"/>
      <path class="cls-2" d="M44.63,22.65a31,31,0,0,1-7-.2"/>
      <path class="cls-2" d="M51.27,14.52l-3-7.41"/>
      <path class="cls-2" d="M53.07,40l5.1-3.45"/>
      <path class="cls-2" d="M58.24,23.36a8.87,8.87,0,0,0,5.85-.57"/>
      <path class="cls-2" d="M68.73,13a10.48,10.48,0,0,1,8.72-4.44"/>
      <path class="cls-2" d="M50.07,53.74H38.81"/>
      <path class="cls-2" d="M61.92,53l2.74-5.52"/>
      <path class="cls-2" d="M83,30.8a34.43,34.43,0,0,1,5.28-8.31"/>
      <path class="cls-2" d="M85.78,46h6.6"/>
      <path class="cls-2" d="M76.07,46.06a12.35,12.35,0,0,1-7.41-3.54"/>
    </g>
  </g>
</svg>
