<?xml version="1.0" encoding="utf-8"?>
<!-- Generator: Adobe Illustrator 25.3.1, SVG Export Plug-In . SVG Version: 6.00 Build 0)  -->
<svg version="1.1" id="Layer_1" xmlns="http://www.w3.org/2000/svg" xmlns:xlink="http://www.w3.org/1999/xlink" x="0px" y="0px"
	 viewBox="0 0 273.2 273.2" style="enable-background:new 0 0 273.2 273.2;" xml:space="preserve">
<style type="text/css">
	.st0{fill:#FFFFFF;stroke:#000000;stroke-width:4;stroke-linecap:round;stroke-linejoin:round;}
	.st1{fill:#FFFFFF;}
	.st2{fill:none;stroke:#000000;stroke-width:4;stroke-linecap:round;stroke-linejoin:round;}
	.st3{fill:none;stroke:#000000;stroke-width:2.0057;stroke-miterlimit:10.0285;}
	.st4{fill:none;stroke:#000000;stroke-width:2;stroke-miterlimit:10;}
	.st5{fill:none;stroke:#000000;stroke-width:2;stroke-linecap:round;stroke-linejoin:round;}
	.st6{display:none;fill:#4899C3;stroke:#392726;stroke-miterlimit:10;}
</style>
<g id="OGGETTI-GRANDI">
	<g id="Dondolo">
		<g>
			<polyline class="st0" points="70.1,213 103.1,144.1 84.1,140.9 53.7,204.4 			"/>
			<polyline class="st0" points="188.8,232.2 180,156.8 199,160 207.2,230 			"/>
		</g>
		<g>
			<path class="st1" d="M258.3,236.1c-80.1,34.2-181.4,17.4-246.1-40.9c-4.5-3.9-4.9-10.3-1.2-14l0,0c3.7-3.7,9.8-3.6,13.9,0
				c59.7,53.5,152.2,68.8,225.9,37.5c5-2.1,10.8-0.1,13.1,4.5l0,0C266.2,227.9,263.8,233.9,258.3,236.1z"/>
			<path class="st2" d="M258.3,236.1c-80.1,34.2-181.4,17.4-246.1-40.9c-4.5-3.9-4.9-10.3-1.2-14l0,0c3.7-3.7,9.8-3.6,13.9,0
				c59.7,53.5,152.2,68.8,225.9,37.5c5-2.1,10.8-0.1,13.1,4.5l0,0C266.2,227.9,263.8,233.9,258.3,236.1z"/>
		</g>
		<path class="st0" d="M28,61.8l27.3-22.9c3.1-2.6,6.8-4.4,10.7-5.2l3.9-0.8c2.4-0.5,4.4-2,5.5-4.2l1.1-2.1c1.3-2.6,4.7-7.7,7.5-7.2
			l0.3,0c2.9,0.5,4.5,6.5,4.9,9.3l0.2,1.6c0.3,2.1,1.9,3.7,3.9,4.1l0,0c5.7,0.9,10.3,5.1,11.9,10.7l22.8,81.3l-56-9.3l-5.3-30.6
			l-20.2,8.5c-9.7,3.1-20.1-1.8-23.9-11.2l0,0C19.5,76.2,21.6,67.3,28,61.8z"/>
		<path class="st3" d="M61.8,50.5l0.4,0.1c3.1,0.5,5.1,3.4,4.6,6.4l-0.1,0.4c-0.5,3.1-3.4,5.1-6.4,4.6L59.9,62
			c-3.1-0.5-5.1-3.4-4.6-6.4l0.1-0.4C55.8,52.1,58.7,50,61.8,50.5z"/>
		<path class="st0" d="M202.3,138.9l5.1-30.5c0.5-3.2,3.5-5.3,6.7-4.8l0,0c3.2,0.5,5.3,3.5,4.8,6.7l-5.1,30.5"/>
		<path class="st4" d="M95.4,62.1l0.5,0.1c3.2,0.5,5.3,3.5,4.8,6.7l-0.1,0.5c-0.5,3.2-3.5,5.3-6.7,4.8L93.5,74
			c-3.2-0.5-5.3-3.5-4.8-6.7l0.1-0.5C89.3,63.7,92.3,61.5,95.4,62.1z"/>
		<path class="st0" d="M68.6,116.7l152.7,25.4c4.4,0.7,7.4,4.9,6.7,9.3l-0.8,5.1c-0.7,4.4-4.9,7.4-9.3,6.7L65.1,137.8
			c-4.4-0.7-7.4-4.9-6.7-9.3l0.8-5.1C60,119,64.2,116,68.6,116.7z"/>
		<line class="st5" x1="59.3" y1="123.7" x2="228" y2="151.7"/>
		<path class="st5" d="M57.4,212.1l0.3,0c1.9,0.3,3.2,2.1,2.9,4.1l0,0.3c-0.3,1.9-2.1,3.2-4.1,2.9l-0.3,0c-1.9-0.3-3.2-2.1-2.9-4.1
			l0-0.3C53.7,213.1,55.5,211.8,57.4,212.1z"/>
		<path class="st5" d="M200.4,238.7l0.3,0c1.9,0.3,3.2,2.1,2.9,4.1l0,0.3c-0.3,1.9-2.1,3.2-4.1,2.9l-0.3,0c-1.9-0.3-3.2-2.1-2.9-4.1
			l0-0.3C196.7,239.7,198.5,238.4,200.4,238.7z"/>
	</g>
</g>
<path class="st6" d="M263.9,223.3c-2.3-4.7-8.1-6.6-13.1-4.5C194,242.9,126.1,239.3,70.6,212l32.5-67.9l76.9,12.8l8.9,75.4l18.4-2.2
	l-8.2-70l18.9,3.1c4.4,0.7,8.6-2.3,9.3-6.7l0.8-5.1c0.7-4.4-2.3-8.6-6.7-9.3l-7.1-1.2l4.6-27.7c0.5-3.2-1.6-6.1-4.8-6.7
	c-3.2-0.5-6.1,1.6-6.7,4.8l-4.6,27.7l-74.4-12.3l-23.2-81.4c-1.6-5.6-6.2-9.7-11.9-10.7c-2.1-0.3-3.7-2-3.9-4.1l-0.2-1.6
	c-0.4-2.9-2-8.9-4.9-9.3l-0.3,0c-2.8-0.5-6.2,4.6-7.5,7.2l-1.1,2.1c-1.1,2.1-3.1,3.7-5.5,4.2L66,33.8c-3.9,0.8-7.6,2.6-10.7,5.2
	L28,61.8c-6.4,5.5-8.5,14.4-5.4,22.2c3.8,9.4,14.2,14.3,23.9,11.2l20.2-8.5l5.3,30.6l-3.4-0.6c-4.4-0.7-8.6,2.3-9.3,6.7l-0.8,5.1
	c-0.7,4.4,2.3,8.6,6.7,9.3l18.9,3.1l-29.7,62.2c-10.5-6.4-20.4-13.6-29.5-21.8c-4.1-3.6-10.2-3.7-13.9,0c-3.7,3.7-3.3,10.1,1.2,14
	c64.7,58.3,166,75.1,246.1,40.9C263.8,233.9,266.2,227.9,263.9,223.3z"/>
</svg>
