<svg xmlns="http://www.w3.org/2000/svg" viewBox="0 0 273.21 273.21">
  <defs>
    <style>
      .cls-1, .cls-2 {
        fill: #fff;
      }

      .cls-1, .cls-3, .cls-4, .cls-5 {
        stroke: #000;
      }

      .cls-1, .cls-3, .cls-5 {
        stroke-linecap: round;
        stroke-linejoin: round;
      }

      .cls-1, .cls-3 {
        stroke-width: 4px;
      }

      .cls-3, .cls-4, .cls-5 {
        fill: none;
      }

      .cls-4 {
        stroke-miterlimit: 10;
      }

      .cls-4, .cls-5 {
        stroke-width: 2px;
      }
    </style>
  </defs>
  <g id="OGGETTI-GRANDI">
    <g id="Dondolo">
      <g>
        <polyline class="cls-1" points="70.1 212.97 103.05 144.07 84.05 140.92 53.7 204.38"/>
        <polyline class="cls-1" points="188.82 232.22 179.96 156.84 198.96 160 207.19 230"/>
      </g>
      <g>
        <path class="cls-2" d="M258.26,236.14c-80.1,34.24-181.4,17.43-246.14-40.87-4.47-3.94-4.88-10.32-1.18-14h0c3.69-3.66,9.83-3.59,13.89,0C84.52,234.75,177,250.1,250.76,218.78c5-2.06,10.82-.15,13.14,4.51h0C266.21,227.94,263.78,233.85,258.26,236.14Z"/>
        <path class="cls-3" d="M258.26,236.14c-80.1,34.24-181.4,17.43-246.14-40.87-4.47-3.94-4.88-10.32-1.18-14h0c3.69-3.66,9.83-3.59,13.89,0C84.52,234.75,177,250.1,250.76,218.78c5-2.06,10.82-.15,13.14,4.51h0C266.21,227.94,263.78,233.85,258.26,236.14Z"/>
      </g>
      <path class="cls-1" d="M28,61.82,55.31,38.93A24.38,24.38,0,0,1,66,33.75l3.91-.81a8,8,0,0,0,5.47-4.16l1.08-2.1C77.77,24.12,81.2,19,84,19.5l.31.05c2.88.47,4.49,6.45,4.87,9.34l.22,1.62a4.75,4.75,0,0,0,3.94,4.08h0a14.85,14.85,0,0,1,11.88,10.66l22.79,81.32-56-9.3L66.72,86.66,46.54,95.2A19.49,19.49,0,0,1,22.63,84h0A19.52,19.52,0,0,1,28,61.82Z"/>
      <rect class="cls-4" x="54.83" y="50.49" width="11.59" height="11.59" rx="5.58" transform="matrix(0.99, 0.16, -0.16, 0.99, 10.04, -9.17)"/>
      <path class="cls-1" d="M202.33,138.9l5.06-30.51a5.84,5.84,0,0,1,6.69-4.78h0a5.83,5.83,0,0,1,4.78,6.68l-5.07,30.52"/>
      <rect class="cls-4" x="88.63" y="62.02" width="12.1" height="12.1" rx="5.82" transform="translate(12.43 -14.59) rotate(9.43)"/>
      <rect class="cls-1" x="57.75" y="129.24" width="171.05" height="21.36" rx="8.11" transform="translate(24.85 -21.57) rotate(9.43)"/>
      <line class="cls-5" x1="59.27" y1="123.7" x2="228.01" y2="151.71"/>
      <rect class="cls-5" x="53.29" y="212.08" width="7.34" height="7.34" rx="3.53" transform="translate(36.1 -6.42) rotate(9.43)"/>
      <rect class="cls-5" x="196.28" y="238.66" width="7.34" height="7.34" rx="3.53" transform="translate(42.39 -29.47) rotate(9.43)"/>
    </g>
  </g>
</svg>
