<svg xmlns="http://www.w3.org/2000/svg" viewBox="0 0 273.21 273.21">
  <defs>
    <style>
      .cls-1 {
        fill: #fff;
        stroke-width: 4px;
      }

      .cls-1, .cls-2, .cls-3 {
        stroke: #000;
        stroke-miterlimit: 10;
      }

      .cls-2 {
        fill: none;
      }

      .cls-2, .cls-3 {
        stroke-linecap: round;
        stroke-width: 2px;
      }

      .cls-3 {
        fill: #063;
      }
    </style>
  </defs>
  <g id="OGGETTI-GRANDI">
    <g id="Pianta">
      <polygon class="cls-1" points="96.91 243.1 214.58 243.1 184.84 105.38 126.65 105.38 96.91 243.1"/>
      <g>
        <path class="cls-1" d="M68.12,70.81c61.74-34.46,66.23,11.82,77.85,32.63,12.34,22.12,51,52-11.41,86.8-21.49,12-91.29-7.94-111-13.94a5.55,5.55,0,0,1-3.71-6.88C25.58,150,46.69,82.77,68.12,70.81Z"/>
        <line class="cls-2" x1="145.97" y1="103.44" x2="45.25" y2="159.66"/>
        <path class="cls-2" d="M127.76,113.6s27.32,43.37,4.56,56.08"/>
        <path class="cls-2" d="M109.42,123.84S90.66,84.67,67.9,97.38"/>
        <path class="cls-2" d="M89,135.26s17.1,25.07-5.66,37.78"/>
      </g>
      <g>
        <path class="cls-1" d="M242.88,113.67c-34.72,38.33-48.67,7.31-61.59-4.4-13.74-12.44-47.52-24.08-12.41-62.84C181,33.09,234,30.56,249.07,30.11A4.08,4.08,0,0,1,253.26,34C253.84,48.82,254.94,100.36,242.88,113.67Z"/>
        <line class="cls-3" x1="181.29" y1="109.27" x2="237.94" y2="46.72"/>
        <path class="cls-2" d="M197.59,91.27s-23.32-18.44-10.51-32.58"/>
        <path class="cls-2" d="M212.5,74.82s14.43,15.75,27.23,1.62"/>
      </g>
    </g>
  </g>
</svg>
