<svg xmlns="http://www.w3.org/2000/svg" viewBox="0 0 138.6 138.6">
  <defs>
    <style>
      .cls-1 {
        fill: none;
      }

      .cls-1, .cls-2, .cls-3 {
        stroke: #000;
        stroke-linecap: round;
        stroke-linejoin: round;
      }

      .cls-1, .cls-3 {
        stroke-width: 2px;
      }

      .cls-2, .cls-3 {
        fill: #fff;
      }

      .cls-2 {
        stroke-width: 4px;
      }
    </style>
  </defs>
  <g id="OGGETTI-PICCOLI">
    <g id="Razzo">
      <path class="cls-1" d="M81.41,106.9c0,14.47-12.17,26.2-12.17,26.2s-12.16-11.73-12.16-26.2"/>
      <path class="cls-1" d="M63.16,106.9c0,6.29,3.67,12,6.08,15,2.42-3,6.08-8.71,6.08-15"/>
      <g>
        <path class="cls-2" d="M47,88.69,30,99.38A3,3,0,0,0,28.75,103l9.57,25L47,100.47Z"/>
        <path class="cls-2" d="M91.56,88.69l17.08,10.69a3,3,0,0,1,1.21,3.61l-9.56,25-8.73-27.53Z"/>
      </g>
      <path class="cls-2" d="M92.68,106.9s7.19-8.69,7.19-35.26c0-39.41-18-58.06-26.34-64.63A6.82,6.82,0,0,0,65,7c-8.4,6.43-26.29,24.79-26.29,64.68,0,26.25,7.18,35.26,7.18,35.26Z"/>
      <circle class="cls-3" cx="69.3" cy="65.43" r="15.26"/>
      <path class="cls-3" d="M69.3,76.69A11.26,11.26,0,1,1,80.56,65.43,11.27,11.27,0,0,1,69.3,76.69Z"/>
      <line class="cls-3" x1="44.89" y1="35.21" x2="93.6" y2="35.21"/>
    </g>
  </g>
</svg>
