<svg xmlns="http://www.w3.org/2000/svg" viewBox="0 0 138.6 138.6">
  <defs>
    <style>
      .cls-1, .cls-3, .cls-4 {
        fill: #fff;
      }

      .cls-1, .cls-2, .cls-3, .cls-4, .cls-5, .cls-6 {
        stroke: #000;
      }

      .cls-1, .cls-2, .cls-3 {
        stroke-linejoin: round;
      }

      .cls-1, .cls-3 {
        stroke-width: 4px;
      }

      .cls-2, .cls-6 {
        fill: none;
      }

      .cls-2, .cls-4, .cls-5, .cls-6 {
        stroke-width: 2px;
      }

      .cls-3, .cls-5, .cls-6 {
        stroke-linecap: round;
      }

      .cls-4, .cls-5, .cls-6 {
        stroke-miterlimit: 10;
      }

      .cls-5 {
        fill: #063;
      }
    </style>
  </defs>
  <g id="OGGETTI-PICCOLI">
    <g id="Crema">
      <path class="cls-1" d="M69.3,42.34h0A26.74,26.74,0,0,1,96,69.07V118a13.09,13.09,0,0,1-13.09,13.09H55.66A13.09,13.09,0,0,1,42.57,118V69.07A26.74,26.74,0,0,1,69.3,42.34Z"/>
      <path class="cls-1" d="M59.94,31.22H78.34a8.38,8.38,0,0,1,8.38,8.38V48a0,0,0,0,1,0,0H51.88a0,0,0,0,1,0,0V39.28A8.06,8.06,0,0,1,59.94,31.22Z"/>
      <line class="cls-2" x1="86.73" y1="39.61" x2="51.88" y2="39.61"/>
      <rect class="cls-1" x="64.49" y="19.21" width="9.63" height="12.01"/>
      <path class="cls-1" d="M57.63,19.21a11.68,11.68,0,1,1,23.35,0Z"/>
      <line class="cls-3" x1="43.16" y1="19.21" x2="57.63" y2="19.21"/>
      <g>
        <path class="cls-4" d="M55.7,93.27c-.06-5,7.1-16.24,10.94-21.85a3,3,0,0,1,4.78-.06c4,5.51,11.42,16.51,11.48,21.57C83,99.82,77,105.49,69.46,105.58S55.79,100.16,55.7,93.27Z"/>
        <line class="cls-5" x1="69.41" y1="111.08" x2="69.22" y2="82.43"/>
        <path class="cls-6" d="M69.32,99.18s-7,.61-7-4.7"/>
        <path class="cls-6" d="M69.3,93s5.93.51,5.89-4.8"/>
      </g>
    </g>
  </g>
</svg>
