<?xml version="1.0" encoding="utf-8"?>
<!-- Generator: Adobe Illustrator 25.3.1, SVG Export Plug-In . SVG Version: 6.00 Build 0)  -->
<svg version="1.1" id="Layer_1" xmlns="http://www.w3.org/2000/svg" xmlns:xlink="http://www.w3.org/1999/xlink" x="0px" y="0px"
	 viewBox="0 0 273.2 273.2" style="enable-background:new 0 0 273.2 273.2;" xml:space="preserve">
<style type="text/css">
	.st0{fill:#4899C3;stroke:#392726;stroke-miterlimit:10;}
</style>
<path class="st0" d="M263.9,223.3c-2.3-4.7-8.1-6.6-13.1-4.5C194,242.9,126.1,239.3,70.6,212l32.5-67.9l76.9,12.8l8.9,75.4l18.4-2.2
	l-8.2-70l18.9,3.1c4.4,0.7,8.6-2.3,9.3-6.7l0.8-5.1c0.7-4.4-2.3-8.6-6.7-9.3l-7.1-1.2l4.6-27.7c0.5-3.2-1.6-6.1-4.8-6.7
	c-3.2-0.5-6.1,1.6-6.7,4.8l-4.6,27.7l-74.4-12.3l-23.2-81.4c-1.6-5.6-6.2-9.7-11.9-10.7c-2.1-0.3-3.7-2-3.9-4.1l-0.2-1.6
	c-0.4-2.9-2-8.9-4.9-9.3l-0.3,0c-2.8-0.5-6.2,4.6-7.5,7.2l-1.1,2.1c-1.1,2.1-3.1,3.7-5.5,4.2L66,33.8c-3.9,0.8-7.6,2.6-10.7,5.2
	L28,61.8c-6.4,5.5-8.5,14.4-5.4,22.2c3.8,9.4,14.2,14.3,23.9,11.2l20.2-8.5l5.3,30.6l-3.4-0.6c-4.4-0.7-8.6,2.3-9.3,6.7l-0.8,5.1
	c-0.7,4.4,2.3,8.6,6.7,9.3l18.9,3.1l-29.7,62.2c-10.5-6.4-20.4-13.6-29.5-21.8c-4.1-3.6-10.2-3.7-13.9,0c-3.7,3.7-3.3,10.1,1.2,14
	c64.7,58.3,166,75.1,246.1,40.9C263.8,233.9,266.2,227.9,263.9,223.3z"/>
</svg>
