<svg xmlns="http://www.w3.org/2000/svg" viewBox="0 0 273.21 273.21">
  <defs>
    <style>
      .cls-1 {
        fill: #fff;
      }

      .cls-2, .cls-3 {
        fill: none;
        stroke: #000;
        stroke-linecap: round;
        stroke-linejoin: round;
      }

      .cls-2 {
        stroke-width: 4px;
      }

      .cls-3 {
        stroke-width: 2px;
      }
    </style>
  </defs>
  <g id="OGGETTI-GRANDI">
    <g id="Sgabello">
      <g>
        <path class="cls-1" d="M53.77,208.68l-.4,1.46a9.95,9.95,0,1,1-19.2-5.22l.4-1.46Z"/>
        <path class="cls-1" d="M145.78,204.56v1.58a9.94,9.94,0,1,1-19.88,0v-1.58Z"/>
        <path class="cls-1" d="M240.71,204.92a9.94,9.94,0,1,1-19.19,5.22l-.4-1.43,19.19-5.23Z"/>
        <polygon class="cls-1" points="219.16 125.83 240.31 203.48 221.12 208.71 198.53 125.83 219.16 125.83"/>
        <rect class="cls-1" x="125.9" y="125.83" width="19.88" height="78.73"/>
        <polygon class="cls-1" points="76.35 125.83 53.77 208.69 34.57 203.46 55.72 125.83 76.35 125.83"/>
        <polygon class="cls-1" points="80.05 112.22 76.35 125.83 55.72 125.83 59.44 112.22 80.05 112.22"/>
        <path class="cls-1" d="M252.09,99.81v1.44a24.1,24.1,0,0,1-2.78,11.3l-.64-.33H215.44l-4.71-17.31a9.95,9.95,0,0,0-19.54,2.64,9.72,9.72,0,0,0,.35,2.59l3.3,12.08H145.78V92.11a10,10,0,0,0-2.92-7,9.86,9.86,0,0,0-7-2.92,10,10,0,0,0-9.94,9.94v20.11H80.05l3.3-12.08a10.15,10.15,0,0,0,.35-2.59,10,10,0,0,0-19.55-2.64l-4.71,17.31H26.21l-.63.33a24.1,24.1,0,0,1-2.78-11.3V99.81A44.22,44.22,0,0,1,66.86,55.72H208A44.22,44.22,0,0,1,252.09,99.81Z"/>
        <path class="cls-1" d="M248.67,112.22l.64.33a24.62,24.62,0,0,1-21.79,13.28h-8.36l-3.72-13.61Z"/>
        <polygon class="cls-1" points="215.44 112.22 219.16 125.83 198.53 125.83 194.84 112.22 215.44 112.22"/>
        <path class="cls-1" d="M210.73,94.91l4.71,17.31h-20.6l-3.3-12.08a9.72,9.72,0,0,1-.35-2.59,9.95,9.95,0,0,1,19.54-2.64Z"/>
        <polygon class="cls-1" points="194.84 112.22 198.53 125.83 145.78 125.83 145.78 112.22 194.84 112.22"/>
        <rect class="cls-1" x="125.9" y="112.22" width="19.88" height="13.61"/>
        <path class="cls-1" d="M145.78,92.11v20.11H125.9V92.11a10,10,0,0,1,9.94-9.94,9.86,9.86,0,0,1,7,2.92A10,10,0,0,1,145.78,92.11Z"/>
        <polygon class="cls-1" points="125.9 112.22 125.9 125.83 76.35 125.83 80.05 112.22 125.9 112.22"/>
        <path class="cls-1" d="M83.7,97.55a10.15,10.15,0,0,1-.35,2.59l-3.3,12.08H59.44l4.71-17.31A10,10,0,0,1,83.7,97.55Z"/>
        <path class="cls-1" d="M59.44,112.22l-3.72,13.61H47.36a24.6,24.6,0,0,1-21.78-13.28l.63-.33Z"/>
      </g>
      <g>
        <path class="cls-2" d="M25.58,112.55a24.1,24.1,0,0,1-2.78-11.3V99.81A44.22,44.22,0,0,1,66.86,55.72H208a44.22,44.22,0,0,1,44.07,44.09v1.44a24.1,24.1,0,0,1-2.78,11.3,24.62,24.62,0,0,1-21.79,13.28H47.36A24.6,24.6,0,0,1,25.58,112.55Z"/>
        <path class="cls-2" d="M76.35,125.83,53.77,208.68l-.4,1.46a9.95,9.95,0,1,1-19.2-5.22l.4-1.46,21.15-77.63"/>
        <path class="cls-2" d="M198.53,125.83l22.59,82.88.4,1.43a9.94,9.94,0,1,0,19.19-5.22l-.4-1.44-21.15-77.65"/>
        <path class="cls-2" d="M145.78,125.83v80.31a9.94,9.94,0,1,1-19.88,0V125.83"/>
        <polyline class="cls-3" points="34.52 203.46 34.57 203.46 53.77 208.69 54.17 208.8"/>
        <line class="cls-3" x1="125.9" y1="204.56" x2="145.78" y2="204.56"/>
        <polyline class="cls-3" points="220.79 208.8 221.12 208.71 240.31 203.48 240.36 203.48"/>
        <polyline class="cls-3" points="248.67 112.22 215.44 112.22 194.84 112.22 145.78 112.22 125.9 112.22 80.05 112.22 59.44 112.22 26.21 112.22"/>
      </g>
    </g>
  </g>
</svg>
